<?xml version="1.0" encoding="utf-8"?>
<!-- Generator: Adobe Illustrator 18.1.1, SVG Export Plug-In . SVG Version: 6.00 Build 0)  -->
<svg version="1.1" xmlns="http://www.w3.org/2000/svg" xmlns:xlink="http://www.w3.org/1999/xlink" x="0px" y="0px"
	 viewBox="0 0 465.3 326.5" enable-background="new 0 0 465.3 326.5" xml:space="preserve">
<g id="g">
	
		<line fill="none" stroke="#000000" stroke-width="2" stroke-linejoin="round" stroke-miterlimit="10" x1="2" y1="303" x2="-464" y2="303"/>
</g>
<g id="b">
	<path fill="none" stroke="#FFFFFF" stroke-width="2" stroke-linecap="round" stroke-linejoin="round" stroke-miterlimit="10" d="
		M67.8,54V35c0-8.8,7.2-16,16-16h0c8.8,0,16,7.2,16,16v19"/>
	<path fill="none" stroke="#FFFFFF" stroke-width="2" stroke-linecap="round" stroke-linejoin="round" stroke-miterlimit="10" d="
		M99.8,43.6v14c0,8.8-7.2,16-16,16h0c-8.8,0-16-7.2-16-16v-14l0-1.1l0-9.2c0,0,12.5,3.3,16-4.3c0,0,1.4,5.7-1,7.5
		c0,0,7.3-2.7,8.2-8.9l0.3,1c0.9,2.9,4,5.3,6.8,6.4l1.7,0v7.2V43.6z"/>
	<path fill="none" stroke="#FFFFFF" stroke-width="2" stroke-linecap="round" stroke-linejoin="round" stroke-miterlimit="10" d="
		M356,43.6v15c0,8.8-7.2,16-16,16h0c-8.8,0-16-7.2-16-16v-15l0.1-0.1c2.4-1.4,3.9-4,3.9-6.8v0c0-1.3,0.5-2.5,1.5-3.3l0,0
		c1.4-1.3,3.6-1.5,5.2-0.5h0c0.7,0.4,1.5,0.6,2.2,0.6h3"/>
	<path fill="none" stroke="#FFFFFF" stroke-width="2" stroke-linecap="round" stroke-linejoin="round" stroke-miterlimit="10" d="
		M324,43.6v15c0,8.8,7.2,16,16,16h0c8.8,0,16-7.2,16-16v-15l-0.1-0.1c-2.4-1.4-3.9-4-3.9-6.8v0c0-1.3-0.5-2.5-1.5-3.3l0,0
		c-1.4-1.3-3.6-1.5-5.2-0.5h0c-0.7,0.4-1.5,0.6-2.2,0.6h-3"/>
	<line fill="#231F20" stroke="#FFFFFF" stroke-width="2" stroke-miterlimit="10" x1="311" y1="152" x2="364" y2="152"/>
	<path fill="none" stroke="#FFFFFF" stroke-width="2" stroke-linecap="round" stroke-miterlimit="10" d="M357.7,80.3h1.7
		c5.4,0,10.1,3.4,11.9,8.5l9.3,27.3c0.5,1.1,0.8,2.3,0.8,3.4l2.9,44.5c0.2,3.1-4.9,6.7-4.9,6.7c-1.9,0.5-6.3,0.1-6.5-1.9l-0.3-4.8
		c-0.1-1.3,1.5-2.4,2.5-3c0.4-0.3,0.6-0.7,0.6-1.2l-4.7-36.8c-0.2-1.2-0.5-2.4-1.1-3.5l-2.9-9.1"/>
	<path fill="none" stroke="#FFFFFF" stroke-width="2" stroke-linecap="round" stroke-linejoin="round" stroke-miterlimit="10" d="
		M370.7,121.8"/>
	<circle fill="#FFFFFF" cx="348.1" cy="51.7" r="1.9"/>
	
		<line fill="none" stroke="#FFFFFF" stroke-width="2" stroke-linecap="round" stroke-miterlimit="10" x1="341.3" y1="91.2" x2="333.2" y2="91.2"/>
	<circle fill="#FFFFFF" cx="333.8" cy="51.7" r="1.9"/>
	<path fill="none" stroke="#FFFFFF" stroke-width="2" stroke-linecap="round" stroke-linejoin="round" stroke-miterlimit="10" d="
		M339.8,59.2l1.2,0.4c0.7,0.2,1.4,0.2,2-0.1l0.7-0.3"/>
	<path stroke="#FFFFFF" stroke-width="2.1531" stroke-linecap="round" stroke-miterlimit="10" d="M372.6,132.7
		c2.7-2.3,9.2-3.4,9.2-3.4s2.2-2.4-1-5.6c0,0-6.5,1.2-9.2,3.4L372.6,132.7z"/>
	<path stroke="#FFFFFF" stroke-width="2.1531" stroke-linecap="round" stroke-miterlimit="10" d="M377,127.7
		c2.5-0.8,4.8-1.2,4.8-1.2"/>
	<polyline stroke="#FFFFFF" stroke-width="2" stroke-linecap="round" stroke-linejoin="round" stroke-miterlimit="10" points="
		339.2,96.1 345.1,87.4 349.9,79.5 355,82.4 347.9,90 339.2,96.1 	"/>
	<polyline stroke="#FFFFFF" stroke-width="2" stroke-linecap="round" stroke-linejoin="round" stroke-miterlimit="10" points="
		338.8,95.9 332.9,87.2 328.1,79.4 323,82.2 330.1,89.9 338.8,95.9 	"/>
	<path fill="none" stroke="#FFFFFF" stroke-width="2" stroke-linecap="round" stroke-linejoin="round" stroke-miterlimit="10" d="
		M345.9,66.5c-2.1,1-4.6,1-6.8,0"/>
	<path fill="none" stroke="#FFFFFF" stroke-width="2" stroke-linecap="round" stroke-miterlimit="10" d="M367.3,99.4l-2.5,58.7
		h-26.2l-26.3,0.3l-1.2-56.5c-0.1-2.7-0.7-5.3-1.8-7.7"/>
	
		<polygon fill="#FFFFFF" stroke="#FFFFFF" stroke-width="2" stroke-linecap="round" stroke-linejoin="round" stroke-miterlimit="10" points="
		352.9,300.8 369.5,300.6 362.4,293.3 362.7,275 351.2,275 	"/>
	<path fill="none" stroke="#FFFFFF" stroke-width="2" stroke-linecap="round" stroke-linejoin="round" stroke-miterlimit="10" d="
		M342.6,168c0.9,0,1.6,0.8,1.6,1.6l6.9,105.4h11.5l2-117h-26.1l0.2,10H342.6z"/>
	
		<polygon fill="#FFFFFF" stroke="#FFFFFF" stroke-width="2" stroke-linecap="round" stroke-linejoin="round" stroke-miterlimit="10" points="
		314.6,293.3 307.5,300.6 324.1,300.8 325.8,275 314.3,275 	"/>
	<path fill="none" stroke="#FFFFFF" stroke-width="2" stroke-linecap="round" stroke-linejoin="round" stroke-miterlimit="10" d="
		M334.4,168h3.8l0.2-10h-26.1l2,117h11.5l6.9-105.4C332.8,168.8,333.5,168,334.4,168z"/>
	
		<polygon fill="none" stroke="#FFFFFF" stroke-width="2" stroke-linecap="round" stroke-linejoin="round" stroke-miterlimit="10" points="
		338.8,168 338.6,158 338.4,158 338.2,168 	"/>
	<g>
		
			<line stroke="#000000" stroke-linecap="round" stroke-linejoin="round" stroke-miterlimit="10" x1="312" y1="276.5" x2="316" y2="276.5"/>
		
			<line stroke="#000000" stroke-linecap="round" stroke-linejoin="round" stroke-miterlimit="10" x1="312" y1="280.5" x2="316" y2="280.5"/>
		
			<line stroke="#000000" stroke-linecap="round" stroke-linejoin="round" stroke-miterlimit="10" x1="312" y1="284.5" x2="316" y2="284.5"/>
		
			<line stroke="#000000" stroke-linecap="round" stroke-linejoin="round" stroke-miterlimit="10" x1="312" y1="288.5" x2="316" y2="288.5"/>
		
			<line stroke="#000000" stroke-linecap="round" stroke-linejoin="round" stroke-miterlimit="10" x1="312" y1="292.5" x2="316" y2="292.5"/>
	</g>
	<g>
		
			<line stroke="#000000" stroke-linecap="round" stroke-linejoin="round" stroke-miterlimit="10" x1="361" y1="276.5" x2="365" y2="276.5"/>
		
			<line stroke="#000000" stroke-linecap="round" stroke-linejoin="round" stroke-miterlimit="10" x1="361" y1="280.5" x2="365" y2="280.5"/>
		
			<line stroke="#000000" stroke-linecap="round" stroke-linejoin="round" stroke-miterlimit="10" x1="361" y1="284.5" x2="365" y2="284.5"/>
		
			<line stroke="#000000" stroke-linecap="round" stroke-linejoin="round" stroke-miterlimit="10" x1="361" y1="288.5" x2="365" y2="288.5"/>
		
			<line stroke="#000000" stroke-linecap="round" stroke-linejoin="round" stroke-miterlimit="10" x1="361" y1="292.5" x2="365" y2="292.5"/>
	</g>
	<path stroke="#FFFFFF" stroke-width="2" stroke-linecap="round" stroke-linejoin="round" stroke-miterlimit="10" d="M360.8,275
		l0.9-3.7c0.2-0.8,0.9-1.3,1.7-1.3l0,0c1.4,0,2.2,1.5,1.5,2.7l-1.4,2.3H360.8z"/>
	<path stroke="#FFFFFF" stroke-width="2" stroke-linecap="round" stroke-linejoin="round" stroke-miterlimit="10" d="M316.2,275
		l-0.9-3.7c-0.2-0.8-0.9-1.3-1.7-1.3l0,0c-1.4,0-2.2,1.5-1.5,2.7l1.4,2.3H316.2z"/>
	<polygon stroke="#FFFFFF" stroke-width="2" stroke-linecap="round" stroke-linejoin="round" stroke-miterlimit="10" points="
		366.3,223.7 359.4,222.3 360.3,200 367.3,200 	"/>
	<path stroke="#FFFFFF" stroke-width="2" stroke-linecap="round" stroke-linejoin="round" stroke-miterlimit="10" d="M366.3,205
		c0,0.3-3.1-0.3-3.1-0.3l0.2-4.7"/>
	<polygon stroke="#FFFFFF" stroke-width="2" stroke-linecap="round" stroke-linejoin="round" stroke-miterlimit="10" points="
		366.3,176.7 359.4,175.3 357.7,159 364.7,158.2 	"/>
	<polygon stroke="#FFFFFF" stroke-width="2" stroke-linecap="round" stroke-linejoin="round" stroke-miterlimit="10" points="
		310.4,223.7 317.3,222.3 316.4,200 309.4,200 	"/>
	<path stroke="#FFFFFF" stroke-width="2" stroke-linecap="round" stroke-linejoin="round" stroke-miterlimit="10" d="M310.4,205
		c0,0.3,3.1-0.3,3.1-0.3l-0.2-4.7"/>
	
		<line fill="none" stroke="#FFFFFF" stroke-width="2" stroke-linecap="round" stroke-linejoin="round" stroke-miterlimit="10" x1="339" y1="151" x2="339" y2="97"/>
	
		<line fill="none" stroke="#FFFFFF" stroke-width="2" stroke-linecap="round" stroke-linejoin="round" stroke-miterlimit="10" x1="329" y1="152" x2="329" y2="158"/>
	
		<line fill="none" stroke="#FFFFFF" stroke-width="2" stroke-linecap="round" stroke-linejoin="round" stroke-miterlimit="10" x1="348" y1="152" x2="348" y2="158"/>
	<path stroke="#FFFFFF" stroke-width="2" stroke-linecap="round" stroke-linejoin="round" stroke-miterlimit="10" d="M363.3,159
		c-3.4-0.4-0.1,8.7,2.5,11.9"/>
	<polygon stroke="#FFFFFF" stroke-width="2" stroke-linecap="round" stroke-linejoin="round" stroke-miterlimit="10" points="
		311.7,176.7 318.6,175.3 320.3,159 313.2,158.2 	"/>
	<path stroke="#FFFFFF" stroke-width="2" stroke-linecap="round" stroke-linejoin="round" stroke-miterlimit="10" d="M314.6,159
		c3.4-0.4,0.2,9.8-2.4,13"/>
	<path stroke="#FFFFFF" stroke-width="2.1219" stroke-linejoin="round" stroke-miterlimit="10" d="M327.6,113.4h-5.5
		c-1.8,0-3.3-1.5-3.3-3.3v-7h12.2v7C330.9,111.9,329.4,113.4,327.6,113.4z"/>
	
		<line stroke="#FFFFFF" stroke-width="2" stroke-linecap="round" stroke-linejoin="round" stroke-miterlimit="10" x1="320" y1="107" x2="324" y2="107"/>
	
		<line stroke="#FFFFFF" stroke-width="2" stroke-linecap="round" stroke-linejoin="round" stroke-miterlimit="10" x1="328" y1="107" x2="331" y2="107"/>
	<path stroke="#FFFFFF" stroke-width="2.1219" stroke-linejoin="round" stroke-miterlimit="10" d="M357.6,113.4h-5.5
		c-1.8,0-3.3-1.5-3.3-3.3v-7h12.2v7C360.9,111.9,359.4,113.4,357.6,113.4z"/>
	
		<line stroke="#FFFFFF" stroke-width="2" stroke-linecap="round" stroke-linejoin="round" stroke-miterlimit="10" x1="350" y1="107" x2="354" y2="107"/>
	
		<line stroke="#FFFFFF" stroke-width="2" stroke-linecap="round" stroke-linejoin="round" stroke-miterlimit="10" x1="358" y1="107" x2="361" y2="107"/>
	<g>
		<line fill="#231F20" stroke="#FFFFFF" stroke-width="2" stroke-miterlimit="10" x1="185" y1="152" x2="238" y2="152"/>
		<path fill="none" stroke="#FFFFFF" stroke-width="2" stroke-linecap="round" stroke-miterlimit="10" d="M231.7,80.3h1.7
			c5.4,0,10.1,3.4,11.9,8.5l9.3,27.3c0.5,1.1,0.8,2.3,0.8,3.4l2.9,44.5c0.2,3.1-4.9,6.7-4.9,6.7c-1.9,0.5-6.3,0.1-6.5-1.9l-0.3-4.8
			c-0.1-1.3,1.5-2.4,2.5-3c0.4-0.3,0.6-0.7,0.6-1.2l-4.7-36.8c-0.2-1.2-0.5-2.4-1.1-3.5l-2.9-9.1"/>
		<path fill="none" stroke="#FFFFFF" stroke-width="2" stroke-linecap="round" stroke-linejoin="round" stroke-miterlimit="10" d="
			M244.7,121.8"/>
		<circle fill="#FFFFFF" cx="222.1" cy="51.7" r="1.9"/>
		
			<line fill="none" stroke="#FFFFFF" stroke-width="2" stroke-linecap="round" stroke-miterlimit="10" x1="215.3" y1="91.2" x2="207.2" y2="91.2"/>
		<circle fill="#FFFFFF" cx="207.8" cy="51.7" r="1.9"/>
		<path fill="none" stroke="#FFFFFF" stroke-width="2" stroke-linecap="round" stroke-linejoin="round" stroke-miterlimit="10" d="
			M213.8,59.2l1.2,0.4c0.7,0.2,1.4,0.2,2-0.1l0.7-0.3"/>
		<path fill="none" stroke="#FFFFFF" stroke-width="2" stroke-linecap="round" stroke-linejoin="round" stroke-miterlimit="10" d="
			M229.3,43.3v15.5c0,8.6-6.9,15.5-15.5,15.5h0c-8.6,0-15.5-6.9-15.5-15.5V38.9c0,0,4.2-0.9,6.8-5c0,0,13,5.9,18,2.8
			C223.1,36.7,226.8,44.4,229.3,43.3z"/>
		<path fill="none" stroke="#FFFFFF" stroke-width="2" stroke-linecap="round" stroke-linejoin="round" stroke-miterlimit="10" d="
			M198.3,50.2c0,0-5.4-18.1,1.6-23.9l-2.5-4l8.1,1.7l1.2-4.8c0,0,4.1,3.1,10.2,3.1c6.1,0,14.6,8.4,12.4,21"/>
		<path stroke="#FFFFFF" stroke-width="2.1531" stroke-linecap="round" stroke-miterlimit="10" d="M246.6,132.7
			c2.7-2.3,9.2-3.4,9.2-3.4s2.2-2.4-1-5.6c0,0-6.5,1.2-9.2,3.4L246.6,132.7z"/>
		<path stroke="#FFFFFF" stroke-width="2.1531" stroke-linecap="round" stroke-miterlimit="10" d="M251,127.7
			c2.5-0.8,4.8-1.2,4.8-1.2"/>
		<polyline stroke="#FFFFFF" stroke-width="2" stroke-linecap="round" stroke-linejoin="round" stroke-miterlimit="10" points="
			213.2,96.1 219.1,87.4 223.9,79.5 229,82.4 221.9,90 213.2,96.1 		"/>
		<polyline stroke="#FFFFFF" stroke-width="2" stroke-linecap="round" stroke-linejoin="round" stroke-miterlimit="10" points="
			212.8,95.9 206.9,87.2 202.1,79.4 197,82.2 204.1,89.9 212.8,95.9 		"/>
		<path fill="none" stroke="#FFFFFF" stroke-width="2" stroke-linecap="round" stroke-linejoin="round" stroke-miterlimit="10" d="
			M219.9,66.5c-2.1,1-4.6,1-6.8,0"/>
		<path stroke="#FFFFFF" stroke-width="2.2194" stroke-linecap="round" stroke-linejoin="round" stroke-miterlimit="10" d="
			M185,100.6C176.1,97,141.6,72,141.6,72c-1.5-1.3-1.4-3.6,0.2-4.8l41.6-22.4c0,0,1.9-5.3,4.5-7c1.3-0.9,5.4-0.6,9.4,0.3
			c2.4,0.6,3.7,3.4,2.4,5.6v0c-0.8,1.4-2.4,2.2-4,1.9l-4.7-0.8l0.3,0.9c0.8,2.4-6.1,2.3-8.3,3.6"/>
		
			<line stroke="#FFFFFF" stroke-width="2.2194" stroke-linecap="round" stroke-linejoin="round" stroke-miterlimit="10" x1="187.6" y1="48.1" x2="158.1" y2="71.2"/>
		<path stroke="#FFFFFF" stroke-width="2.0756" stroke-linecap="round" stroke-linejoin="round" stroke-miterlimit="10" d="
			M159.1,59.1l7.3,6.7l-4.5,3.2l-10.5-8C151.4,61,153.4,53.6,159.1,59.1z"/>
		
			<line stroke="#FFFFFF" stroke-width="2" stroke-linecap="round" stroke-linejoin="round" stroke-miterlimit="10" x1="153.9" y1="59.1" x2="155.9" y2="60.8"/>
		<path stroke="#FFFFFF" stroke-width="2.2194" stroke-linecap="round" stroke-miterlimit="10" d="M160.7,69.7
			c0,0,14.4,10.2,23.7,12l0,0l9.2-0.5"/>
		<polyline fill="#FFFFFF" points="176,78.1 172.9,85.4 171,84.3 174,77.3 		"/>
		<polyline fill="#FFFFFF" points="172.4,76.8 169.7,83.1 167.8,81.9 170.3,76 		"/>
		<path fill="none" stroke="#FFFFFF" stroke-width="2" stroke-linecap="round" stroke-miterlimit="10" d="M241.3,99.4l-2.5,58.7
			h-26.2l-26.3,0.3l-1.2-56.5c-0.1-2.7-0.7-5.3-1.8-7.7"/>
		
			<polygon fill="#FFFFFF" stroke="#FFFFFF" stroke-width="2" stroke-linecap="round" stroke-linejoin="round" stroke-miterlimit="10" points="
			226.9,300.8 243.5,300.6 236.4,293.3 236.7,275 225.2,275 		"/>
		<path fill="none" stroke="#FFFFFF" stroke-width="2" stroke-linecap="round" stroke-linejoin="round" stroke-miterlimit="10" d="
			M216.6,168c0.9,0,1.6,0.8,1.6,1.6l6.9,105.4h11.5l2-117h-26.1l0.2,10H216.6z"/>
		
			<polygon fill="#FFFFFF" stroke="#FFFFFF" stroke-width="2" stroke-linecap="round" stroke-linejoin="round" stroke-miterlimit="10" points="
			188.6,293.3 181.5,300.6 198.1,300.8 199.8,275 188.3,275 		"/>
		<path fill="none" stroke="#FFFFFF" stroke-width="2" stroke-linecap="round" stroke-linejoin="round" stroke-miterlimit="10" d="
			M208.4,168h3.8l0.2-10h-26.1l2,117h11.5l6.9-105.4C206.8,168.8,207.5,168,208.4,168z"/>
		
			<polygon fill="none" stroke="#FFFFFF" stroke-width="2" stroke-linecap="round" stroke-linejoin="round" stroke-miterlimit="10" points="
			212.8,168 212.6,158 212.4,158 212.2,168 		"/>
		<g>
			
				<line stroke="#000000" stroke-linecap="round" stroke-linejoin="round" stroke-miterlimit="10" x1="186" y1="276.5" x2="190" y2="276.5"/>
			
				<line stroke="#000000" stroke-linecap="round" stroke-linejoin="round" stroke-miterlimit="10" x1="186" y1="280.5" x2="190" y2="280.5"/>
			
				<line stroke="#000000" stroke-linecap="round" stroke-linejoin="round" stroke-miterlimit="10" x1="186" y1="284.5" x2="190" y2="284.5"/>
			
				<line stroke="#000000" stroke-linecap="round" stroke-linejoin="round" stroke-miterlimit="10" x1="186" y1="288.5" x2="190" y2="288.5"/>
			
				<line stroke="#000000" stroke-linecap="round" stroke-linejoin="round" stroke-miterlimit="10" x1="186" y1="292.5" x2="190" y2="292.5"/>
		</g>
		<g>
			
				<line stroke="#000000" stroke-linecap="round" stroke-linejoin="round" stroke-miterlimit="10" x1="235" y1="276.5" x2="239" y2="276.5"/>
			
				<line stroke="#000000" stroke-linecap="round" stroke-linejoin="round" stroke-miterlimit="10" x1="235" y1="280.5" x2="239" y2="280.5"/>
			
				<line stroke="#000000" stroke-linecap="round" stroke-linejoin="round" stroke-miterlimit="10" x1="235" y1="284.5" x2="239" y2="284.5"/>
			
				<line stroke="#000000" stroke-linecap="round" stroke-linejoin="round" stroke-miterlimit="10" x1="235" y1="288.5" x2="239" y2="288.5"/>
			
				<line stroke="#000000" stroke-linecap="round" stroke-linejoin="round" stroke-miterlimit="10" x1="235" y1="292.5" x2="239" y2="292.5"/>
		</g>
		<path stroke="#FFFFFF" stroke-width="2" stroke-linecap="round" stroke-linejoin="round" stroke-miterlimit="10" d="M234.8,275
			l0.9-3.7c0.2-0.8,0.9-1.3,1.7-1.3h0c1.4,0,2.2,1.5,1.5,2.7l-1.4,2.3H234.8z"/>
		<path stroke="#FFFFFF" stroke-width="2" stroke-linecap="round" stroke-linejoin="round" stroke-miterlimit="10" d="M190.2,275
			l-0.9-3.7c-0.2-0.8-0.9-1.3-1.7-1.3l0,0c-1.4,0-2.2,1.5-1.5,2.7l1.4,2.3H190.2z"/>
		<polygon stroke="#FFFFFF" stroke-width="2" stroke-linecap="round" stroke-linejoin="round" stroke-miterlimit="10" points="
			240.3,223.7 233.4,222.3 234.3,200 241.3,200 		"/>
		<path stroke="#FFFFFF" stroke-width="2" stroke-linecap="round" stroke-linejoin="round" stroke-miterlimit="10" d="M240.3,205
			c0,0.3-3.1-0.3-3.1-0.3l0.2-4.7"/>
		<polygon stroke="#FFFFFF" stroke-width="2" stroke-linecap="round" stroke-linejoin="round" stroke-miterlimit="10" points="
			240.3,176.7 233.4,175.3 231.7,159 238.7,158.2 		"/>
		<polygon stroke="#FFFFFF" stroke-width="2" stroke-linecap="round" stroke-linejoin="round" stroke-miterlimit="10" points="
			184.4,223.7 191.3,222.3 190.4,200 183.4,200 		"/>
		<path stroke="#FFFFFF" stroke-width="2" stroke-linecap="round" stroke-linejoin="round" stroke-miterlimit="10" d="M184.4,205
			c0,0.3,3.1-0.3,3.1-0.3l-0.2-4.7"/>
		
			<line fill="none" stroke="#FFFFFF" stroke-width="2" stroke-linecap="round" stroke-linejoin="round" stroke-miterlimit="10" x1="213" y1="151" x2="213" y2="97"/>
		
			<line fill="none" stroke="#FFFFFF" stroke-width="2" stroke-linecap="round" stroke-linejoin="round" stroke-miterlimit="10" x1="203" y1="152" x2="203" y2="158"/>
		
			<line fill="none" stroke="#FFFFFF" stroke-width="2" stroke-linecap="round" stroke-linejoin="round" stroke-miterlimit="10" x1="222" y1="152" x2="222" y2="158"/>
		<path stroke="#FFFFFF" stroke-width="2" stroke-linecap="round" stroke-linejoin="round" stroke-miterlimit="10" d="M237.3,159
			c-3.4-0.4-0.1,8.7,2.5,11.9"/>
		<polygon stroke="#FFFFFF" stroke-width="2" stroke-linecap="round" stroke-linejoin="round" stroke-miterlimit="10" points="
			185.7,176.7 192.6,175.3 194.3,159 187.2,158.2 		"/>
		<path stroke="#FFFFFF" stroke-width="2" stroke-linecap="round" stroke-linejoin="round" stroke-miterlimit="10" d="M188.6,159
			c3.4-0.4,0.2,9.8-2.4,13"/>
		<path stroke="#FFFFFF" stroke-width="2.1219" stroke-linejoin="round" stroke-miterlimit="10" d="M201.6,113.4h-5.5
			c-1.8,0-3.3-1.5-3.3-3.3v-7h12.2v7C204.9,111.9,203.4,113.4,201.6,113.4z"/>
		
			<line stroke="#FFFFFF" stroke-width="2" stroke-linecap="round" stroke-linejoin="round" stroke-miterlimit="10" x1="194" y1="107" x2="198" y2="107"/>
		
			<line stroke="#FFFFFF" stroke-width="2" stroke-linecap="round" stroke-linejoin="round" stroke-miterlimit="10" x1="202" y1="107" x2="205" y2="107"/>
		<path stroke="#FFFFFF" stroke-width="2.1219" stroke-linejoin="round" stroke-miterlimit="10" d="M231.6,113.4h-5.5
			c-1.8,0-3.3-1.5-3.3-3.3v-7h12.2v7C234.9,111.9,233.4,113.4,231.6,113.4z"/>
		
			<line stroke="#FFFFFF" stroke-width="2" stroke-linecap="round" stroke-linejoin="round" stroke-miterlimit="10" x1="224" y1="107" x2="228" y2="107"/>
		
			<line stroke="#FFFFFF" stroke-width="2" stroke-linecap="round" stroke-linejoin="round" stroke-miterlimit="10" x1="232" y1="107" x2="235" y2="107"/>
	</g>
	<line fill="#231F20" stroke="#FFFFFF" stroke-width="2" stroke-miterlimit="10" x1="55" y1="152" x2="108" y2="152"/>
	<path fill="none" stroke="#FFFFFF" stroke-width="2" stroke-linecap="round" stroke-miterlimit="10" d="M101.7,80.3h1.7
		c5.4,0,10.1,3.4,11.9,8.5l9.3,27.3c0.5,1.1,0.8,2.3,0.8,3.4l2.9,44.5c0.2,3.1-4.9,6.7-4.9,6.7c-1.9,0.5-6.3,0.1-6.5-1.9l-0.3-4.8
		c-0.1-1.3,1.5-2.4,2.5-3c0.4-0.3,0.6-0.7,0.6-1.2l-4.7-36.8c-0.2-1.2-0.5-2.4-1.1-3.5l-2.9-9.1"/>
	<path fill="none" stroke="#FFFFFF" stroke-width="2" stroke-linecap="round" stroke-linejoin="round" stroke-miterlimit="10" d="
		M114.7,121.8"/>
	<circle fill="#FFFFFF" cx="92.1" cy="51.7" r="1.9"/>
	
		<line fill="none" stroke="#FFFFFF" stroke-width="2" stroke-linecap="round" stroke-miterlimit="10" x1="85.3" y1="91.2" x2="77.2" y2="91.2"/>
	<circle fill="#FFFFFF" cx="77.8" cy="51.7" r="1.9"/>
	<path fill="none" stroke="#FFFFFF" stroke-width="2" stroke-linecap="round" stroke-linejoin="round" stroke-miterlimit="10" d="
		M83.8,59.2l1.2,0.4c0.7,0.2,1.4,0.2,2-0.1l0.7-0.3"/>
	<path stroke="#FFFFFF" stroke-width="2.1531" stroke-linecap="round" stroke-miterlimit="10" d="M116.6,132.7
		c2.7-2.3,9.2-3.4,9.2-3.4s2.2-2.4-1-5.6c0,0-6.5,1.2-9.2,3.4L116.6,132.7z"/>
	<path stroke="#FFFFFF" stroke-width="2.1531" stroke-linecap="round" stroke-miterlimit="10" d="M121,127.7
		c2.5-0.8,4.8-1.2,4.8-1.2"/>
	<polyline stroke="#FFFFFF" stroke-width="2" stroke-linecap="round" stroke-linejoin="round" stroke-miterlimit="10" points="
		83.2,96.1 89.1,87.4 93.9,79.5 99,82.4 91.9,90 83.2,96.1 	"/>
	<polyline stroke="#FFFFFF" stroke-width="2" stroke-linecap="round" stroke-linejoin="round" stroke-miterlimit="10" points="
		82.8,95.9 76.9,87.2 72.1,79.4 67,82.2 74.1,89.9 82.8,95.9 	"/>
	<path fill="none" stroke="#FFFFFF" stroke-width="2" stroke-linecap="round" stroke-linejoin="round" stroke-miterlimit="10" d="
		M88.9,66.5c-2.1,1-4.6,1-6.8,0"/>
	<path stroke="#FFFFFF" stroke-width="2.2194" stroke-linecap="round" stroke-linejoin="round" stroke-miterlimit="10" d="M55,100.6
		C46.1,97,11.6,72,11.6,72c-1.5-1.3-1.4-3.6,0.2-4.8l41.6-22.4c0,0,1.9-5.3,4.5-7c1.3-0.9,5.4-0.6,9.4,0.3c2.4,0.6,3.7,3.4,2.4,5.6
		v0c-0.8,1.4-2.4,2.2-4,1.9l-4.7-0.8l0.3,0.9c0.8,2.4-6.1,2.3-8.3,3.6"/>
	
		<line stroke="#FFFFFF" stroke-width="2.2194" stroke-linecap="round" stroke-linejoin="round" stroke-miterlimit="10" x1="57.6" y1="48.1" x2="28.1" y2="71.2"/>
	<path stroke="#FFFFFF" stroke-width="2.0756" stroke-linecap="round" stroke-linejoin="round" stroke-miterlimit="10" d="
		M29.1,59.1l7.3,6.7L31.9,69l-10.5-8C21.4,61,23.4,53.6,29.1,59.1z"/>
	
		<line stroke="#FFFFFF" stroke-width="2" stroke-linecap="round" stroke-linejoin="round" stroke-miterlimit="10" x1="23.9" y1="59.1" x2="25.9" y2="60.8"/>
	<path stroke="#FFFFFF" stroke-width="2.2194" stroke-linecap="round" stroke-miterlimit="10" d="M30.7,69.7c0,0,14.4,10.2,23.7,12
		l0,0l9.2-0.5"/>
	<polyline fill="#FFFFFF" points="46,78.1 42.9,85.4 41,84.3 44,77.3 	"/>
	<polyline fill="#FFFFFF" points="42.4,76.8 39.7,83.1 37.8,81.9 40.3,76 	"/>
	<path fill="none" stroke="#FFFFFF" stroke-width="2" stroke-linecap="round" stroke-miterlimit="10" d="M111.3,99.4l-2.5,58.7H82.6
		l-26.3,0.3L55.1,102c-0.1-2.7-0.7-5.3-1.8-7.7"/>
	
		<polygon fill="#FFFFFF" stroke="#FFFFFF" stroke-width="2" stroke-linecap="round" stroke-linejoin="round" stroke-miterlimit="10" points="
		96.9,300.8 113.5,300.6 106.4,293.3 106.7,275 95.2,275 	"/>
	<path fill="none" stroke="#FFFFFF" stroke-width="2" stroke-linecap="round" stroke-linejoin="round" stroke-miterlimit="10" d="
		M86.6,168c0.9,0,1.6,0.8,1.6,1.6L95.2,275h11.5l2-117H82.6l0.2,10H86.6z"/>
	
		<polygon fill="#FFFFFF" stroke="#FFFFFF" stroke-width="2" stroke-linecap="round" stroke-linejoin="round" stroke-miterlimit="10" points="
		58.6,293.3 51.5,300.6 68.1,300.8 69.8,275 58.3,275 	"/>
	<path fill="none" stroke="#FFFFFF" stroke-width="2" stroke-linecap="round" stroke-linejoin="round" stroke-miterlimit="10" d="
		M78.4,168h3.8l0.2-10H56.2l2,117h11.5l6.9-105.4C76.8,168.8,77.5,168,78.4,168z"/>
	
		<polygon fill="none" stroke="#FFFFFF" stroke-width="2" stroke-linecap="round" stroke-linejoin="round" stroke-miterlimit="10" points="
		82.8,168 82.6,158 82.4,158 82.2,168 	"/>
	<g>
		
			<line stroke="#000000" stroke-linecap="round" stroke-linejoin="round" stroke-miterlimit="10" x1="56" y1="276.5" x2="60" y2="276.5"/>
		
			<line stroke="#000000" stroke-linecap="round" stroke-linejoin="round" stroke-miterlimit="10" x1="56" y1="280.5" x2="60" y2="280.5"/>
		
			<line stroke="#000000" stroke-linecap="round" stroke-linejoin="round" stroke-miterlimit="10" x1="56" y1="284.5" x2="60" y2="284.5"/>
		
			<line stroke="#000000" stroke-linecap="round" stroke-linejoin="round" stroke-miterlimit="10" x1="56" y1="288.5" x2="60" y2="288.5"/>
		
			<line stroke="#000000" stroke-linecap="round" stroke-linejoin="round" stroke-miterlimit="10" x1="56" y1="292.5" x2="60" y2="292.5"/>
	</g>
	<g>
		
			<line stroke="#000000" stroke-linecap="round" stroke-linejoin="round" stroke-miterlimit="10" x1="105" y1="276.5" x2="109" y2="276.5"/>
		
			<line stroke="#000000" stroke-linecap="round" stroke-linejoin="round" stroke-miterlimit="10" x1="105" y1="280.5" x2="109" y2="280.5"/>
		
			<line stroke="#000000" stroke-linecap="round" stroke-linejoin="round" stroke-miterlimit="10" x1="105" y1="284.5" x2="109" y2="284.5"/>
		
			<line stroke="#000000" stroke-linecap="round" stroke-linejoin="round" stroke-miterlimit="10" x1="105" y1="288.5" x2="109" y2="288.5"/>
		
			<line stroke="#000000" stroke-linecap="round" stroke-linejoin="round" stroke-miterlimit="10" x1="105" y1="292.5" x2="109" y2="292.5"/>
	</g>
	<path stroke="#FFFFFF" stroke-width="2" stroke-linecap="round" stroke-linejoin="round" stroke-miterlimit="10" d="M104.8,275
		l0.9-3.7c0.2-0.8,0.9-1.3,1.7-1.3h0c1.4,0,2.2,1.5,1.5,2.7l-1.4,2.3H104.8z"/>
	<path stroke="#FFFFFF" stroke-width="2" stroke-linecap="round" stroke-linejoin="round" stroke-miterlimit="10" d="M60.2,275
		l-0.9-3.7c-0.2-0.8-0.9-1.3-1.7-1.3h0c-1.4,0-2.2,1.5-1.5,2.7l1.4,2.3H60.2z"/>
	<polygon stroke="#FFFFFF" stroke-width="2" stroke-linecap="round" stroke-linejoin="round" stroke-miterlimit="10" points="
		110.3,223.7 103.4,222.3 104.3,200 111.3,200 	"/>
	<path stroke="#FFFFFF" stroke-width="2" stroke-linecap="round" stroke-linejoin="round" stroke-miterlimit="10" d="M110.3,205
		c0,0.3-3.1-0.3-3.1-0.3l0.2-4.7"/>
	<polygon stroke="#FFFFFF" stroke-width="2" stroke-linecap="round" stroke-linejoin="round" stroke-miterlimit="10" points="
		110.3,176.7 103.4,175.3 101.7,159 108.7,158.2 	"/>
	<polygon stroke="#FFFFFF" stroke-width="2" stroke-linecap="round" stroke-linejoin="round" stroke-miterlimit="10" points="
		54.4,223.7 61.3,222.3 60.4,200 53.4,200 	"/>
	<path stroke="#FFFFFF" stroke-width="2" stroke-linecap="round" stroke-linejoin="round" stroke-miterlimit="10" d="M54.4,205
		c0,0.3,3.1-0.3,3.1-0.3l-0.2-4.7"/>
	
		<line fill="none" stroke="#FFFFFF" stroke-width="2" stroke-linecap="round" stroke-linejoin="round" stroke-miterlimit="10" x1="83" y1="151" x2="83" y2="97"/>
	
		<line fill="none" stroke="#FFFFFF" stroke-width="2" stroke-linecap="round" stroke-linejoin="round" stroke-miterlimit="10" x1="73" y1="152" x2="73" y2="158"/>
	
		<line fill="none" stroke="#FFFFFF" stroke-width="2" stroke-linecap="round" stroke-linejoin="round" stroke-miterlimit="10" x1="92" y1="152" x2="92" y2="158"/>
	<path stroke="#FFFFFF" stroke-width="2" stroke-linecap="round" stroke-linejoin="round" stroke-miterlimit="10" d="M107.3,159
		c-3.4-0.4-0.1,8.7,2.5,11.9"/>
	<polygon stroke="#FFFFFF" stroke-width="2" stroke-linecap="round" stroke-linejoin="round" stroke-miterlimit="10" points="
		55.7,176.7 62.6,175.3 64.3,159 57.2,158.2 	"/>
	<path stroke="#FFFFFF" stroke-width="2" stroke-linecap="round" stroke-linejoin="round" stroke-miterlimit="10" d="M58.6,159
		c3.4-0.4,0.2,9.8-2.4,13"/>
	<path stroke="#FFFFFF" stroke-width="2.1219" stroke-linejoin="round" stroke-miterlimit="10" d="M71.6,113.4h-5.5
		c-1.8,0-3.3-1.5-3.3-3.3v-7h12.2v7C74.9,111.9,73.4,113.4,71.6,113.4z"/>
	
		<line stroke="#FFFFFF" stroke-width="2" stroke-linecap="round" stroke-linejoin="round" stroke-miterlimit="10" x1="64" y1="107" x2="68" y2="107"/>
	
		<line stroke="#FFFFFF" stroke-width="2" stroke-linecap="round" stroke-linejoin="round" stroke-miterlimit="10" x1="72" y1="107" x2="75" y2="107"/>
	<path stroke="#FFFFFF" stroke-width="2.1219" stroke-linejoin="round" stroke-miterlimit="10" d="M101.6,113.4h-5.5
		c-1.8,0-3.3-1.5-3.3-3.3v-7h12.2v7C104.9,111.9,103.4,113.4,101.6,113.4z"/>
	
		<line stroke="#FFFFFF" stroke-width="2" stroke-linecap="round" stroke-linejoin="round" stroke-miterlimit="10" x1="94" y1="107" x2="98" y2="107"/>
	
		<line stroke="#FFFFFF" stroke-width="2" stroke-linecap="round" stroke-linejoin="round" stroke-miterlimit="10" x1="102" y1="107" x2="105" y2="107"/>
	<path fill="none" stroke="#FFFFFF" stroke-width="2" stroke-linecap="round" stroke-linejoin="round" stroke-miterlimit="10" d="
		M324,54V35c0-8.8,7.2-16,16-16h0c8.8,0,16,7.2,16,16v19"/>
	<path stroke="#FFFFFF" stroke-width="2.2194" stroke-linecap="round" stroke-linejoin="round" stroke-miterlimit="10" d="
		M311,100.6C302.1,97,267.6,72,267.6,72c-1.5-1.3-1.4-3.6,0.2-4.8l41.6-22.4c0,0,1.9-5.3,4.5-7c1.3-0.9,5.4-0.6,9.4,0.3
		c2.4,0.6,3.7,3.4,2.4,5.6l0,0c-0.8,1.4-2.4,2.2-4,1.9l-4.7-0.8l0.3,0.9c0.8,2.4-6.1,2.3-8.3,3.6"/>
	
		<line stroke="#FFFFFF" stroke-width="2.2194" stroke-linecap="round" stroke-linejoin="round" stroke-miterlimit="10" x1="313.6" y1="48.1" x2="284.1" y2="71.2"/>
	<path stroke="#FFFFFF" stroke-width="2.0756" stroke-linecap="round" stroke-linejoin="round" stroke-miterlimit="10" d="
		M285.1,59.1l7.3,6.7l-4.5,3.2l-10.5-8C277.4,61,279.4,53.6,285.1,59.1z"/>
	
		<line stroke="#FFFFFF" stroke-width="2" stroke-linecap="round" stroke-linejoin="round" stroke-miterlimit="10" x1="279.9" y1="59.1" x2="281.9" y2="60.8"/>
	<path stroke="#FFFFFF" stroke-width="2.2194" stroke-linecap="round" stroke-miterlimit="10" d="M286.7,69.7c0,0,14.4,10.2,23.7,12
		v0l9.2-0.5"/>
	<polyline fill="#FFFFFF" points="302,78.1 298.9,85.4 297,84.3 300,77.3 	"/>
	<polyline fill="#FFFFFF" points="298.4,76.8 295.7,83.1 293.8,81.9 296.3,76 	"/>
	<path fill="none" stroke="#FFFFFF" stroke-width="2" stroke-miterlimit="10" d="M0,303"/>
	
		<line fill="none" stroke="#FFFFFF" stroke-width="2" stroke-linecap="round" stroke-linejoin="round" stroke-miterlimit="10" x1="0" y1="303" x2="462" y2="303"/>
	<polyline fill="#FFFFFF" points="121,104 115,104 115.2,106 121,106 	"/>
	<polyline fill="#FFFFFF" points="121,107 116.6,107 116.8,109 121,109 	"/>
	<polyline fill="#FFFFFF" points="251,104 245,104 245.2,106 251,106 	"/>
	<polyline fill="#FFFFFF" points="252,107 247.6,107 247.8,109 252,109 	"/>
	<polyline fill="#FFFFFF" points="377,104 371,104 371.2,106 377,106 	"/>
	<polyline fill="#FFFFFF" points="377,107 372.6,107 372.8,109 377,109 	"/>
</g>
<g id="g_x5F_bg">
</g>
<g id="b_x5F_bg">
</g>
</svg>
