<?xml version="1.0" encoding="utf-8"?>
<!-- Generator: Adobe Illustrator 18.1.1, SVG Export Plug-In . SVG Version: 6.00 Build 0)  -->
<svg version="1.1" xmlns="http://www.w3.org/2000/svg" xmlns:xlink="http://www.w3.org/1999/xlink" x="0px" y="0px"
	 viewBox="0 0 536 379" enable-background="new 0 0 536 379" xml:space="preserve">
<g id="g">
</g>
<g id="b">
</g>
<g id="g_x5F_bg">
</g>
<g id="b_x5F_bg">
	<g>
		<path fill="none" stroke="#FFFFFF" stroke-width="1.7521" stroke-miterlimit="10" d="M58.5,259.5H278c13.5,0,24.5,11,24.5,24.5v0
			c0,13.5-11,24.5-24.5,24.5H58.5l-32.7-14.8c-8.1-3.7-13.2-11.7-13.2-20.5v0c0-16.7,17.4-27.6,32.4-20.3L58.5,259.5z"/>
		<circle fill="none" stroke="#FFFFFF" stroke-width="2.2175" stroke-miterlimit="10" cx="153.9" cy="284.3" r="24.3"/>
		<circle fill="#FFFFFF" stroke="#FFFFFF" stroke-width="0.8761" stroke-miterlimit="10" cx="153.9" cy="284.3" r="5.2"/>
		<circle fill="none" stroke="#FFFFFF" stroke-width="2.2175" stroke-miterlimit="10" cx="212.6" cy="284.3" r="24.3"/>
		<circle fill="#FFFFFF" stroke="#FFFFFF" stroke-width="0.8761" stroke-miterlimit="10" cx="212.6" cy="284.3" r="5.2"/>
		<circle fill="none" stroke="#FFFFFF" stroke-width="2.2175" stroke-miterlimit="10" cx="95.2" cy="284.3" r="24.3"/>
		<circle fill="#FFFFFF" stroke="#FFFFFF" stroke-width="0.8761" stroke-miterlimit="10" cx="95.2" cy="284.3" r="5.2"/>
		<circle fill="none" stroke="#FFFFFF" stroke-width="1.7521" stroke-miterlimit="10" cx="39.2" cy="275.5" r="13.8"/>
		<circle fill="#FFFFFF" stroke="#FFFFFF" stroke-width="0.8761" stroke-miterlimit="10" cx="39.2" cy="275.5" r="2.9"/>
		<circle fill="none" stroke="#FFFFFF" stroke-width="1.6805" stroke-miterlimit="10" cx="271.3" cy="284.3" r="18.4"/>
		<circle fill="#FFFFFF" stroke="#FFFFFF" stroke-width="0.6639" stroke-miterlimit="10" cx="271.3" cy="284.3" r="3.9"/>
		<polyline fill="none" stroke="#FFFFFF" stroke-width="2" stroke-miterlimit="10" points="295.7,264.1 304.8,220 61.2,220 
			41.3,241 26.1,241 15.6,262.1 		"/>
		<line fill="none" stroke="#FFFFFF" stroke-width="2" stroke-miterlimit="10" x1="41" y1="241" x2="109" y2="241"/>
		<polyline fill="none" stroke="#FFFFFF" stroke-width="2" stroke-miterlimit="10" points="136,241 199.6,241 215.4,250 308.2,250 
			315.9,242.3 321.2,220 278,220 		"/>
		<polyline fill="none" stroke="#FFFFFF" stroke-width="2" stroke-miterlimit="10" points="247,219 236.9,194 178,194 		"/>
		<polyline fill="none" stroke="#FFFFFF" stroke-width="2" stroke-miterlimit="10" points="97.6,219 108.4,194 166,194 		"/>
		<polyline fill="none" stroke="#FFFFFF" stroke-width="2" stroke-miterlimit="10" points="137,220.4 124.9,203 41,203 		"/>
		<path fill="none" stroke="#FFFFFF" stroke-width="1.7521" stroke-miterlimit="10" d="M37.1,206.5H6.9v-7.9h30.2
			c2.2,0,3.9,1.8,3.9,3.9v0C41,204.7,39.3,206.5,37.1,206.5z"/>
		<line fill="none" stroke="#FFFFFF" stroke-width="2" stroke-miterlimit="10" x1="13" y1="198" x2="13" y2="207"/>
		<path fill="none" stroke="#FFFFFF" stroke-width="2" stroke-miterlimit="10" d="M202.6,173h-54.9c-7.4,8-12,9.9-12,21
			c0,0.1,0,0,0,0h78.9c0,0,0,0,0-0.1C214.5,182.8,209.9,181,202.6,173z"/>
		<polyline fill="none" stroke="#FFFFFF" stroke-width="2" stroke-miterlimit="10" points="156,173.3 159.8,166 175,166 		"/>
		<polyline fill="none" stroke="#FFFFFF" stroke-width="2" stroke-miterlimit="10" points="190,173.3 186.2,166 171,166 		"/>
		<polyline fill="none" stroke="#FFFFFF" stroke-width="2" stroke-miterlimit="10" points="242,209 206.6,209 195,220.4 		"/>
	</g>
	<rect x="193.5" y="190" width="196.7" height="129"/>
	<path fill="none" stroke="#FFFFFF" stroke-width="2" stroke-linecap="round" stroke-linejoin="round" stroke-miterlimit="10" d="
		M391.8,32.4c0,0-84.5,109.8-11.1,168.1"/>
	<path fill="none" stroke="#FFFFFF" stroke-width="2" stroke-linecap="round" stroke-linejoin="round" stroke-miterlimit="10" d="
		M391.8,32.4c0,0,84.5,109.8,11.1,168.1"/>
	
		<polyline fill="none" stroke="#FFFFFF" stroke-width="2" stroke-linecap="round" stroke-linejoin="round" stroke-miterlimit="10" points="
		391.8,286.1 391.8,151.1 391.8,84.6 	"/>
	
		<line fill="none" stroke="#FFFFFF" stroke-width="2" stroke-linecap="round" stroke-linejoin="round" stroke-miterlimit="10" x1="391.8" y1="151.1" x2="407.4" y2="137.2"/>
	
		<line stroke="#FFFFFF" stroke-width="1.7491" stroke-linecap="round" stroke-linejoin="round" stroke-miterlimit="10" x1="169.8" y1="260.3" x2="126.1" y2="308.1"/>
	<polyline stroke="#FFFFFF" stroke-width="2" stroke-linecap="round" stroke-linejoin="round" stroke-miterlimit="10" points="
		292,81 292,71.1 86,308.9 126.1,308.1 169.8,260.3 	"/>
	<polygon stroke="#FFFFFF" stroke-width="2" stroke-linecap="round" stroke-linejoin="round" stroke-miterlimit="10" points="
		218.8,309 184.7,309 161.8,237.3 292,80.7 292,175.1 	"/>
	<path stroke="#FFFFFF" stroke-width="1.7491" stroke-linecap="round" stroke-linejoin="round" stroke-miterlimit="10" d="
		M216.2,301.1c0,0-4.8-13.2-21-12.2l97.9-113.7"/>
	<circle fill="#FFFFFF" cx="196.1" cy="287.9" r="2.6"/>
	
		<line stroke="#FFFFFF" stroke-width="1.7491" stroke-linecap="round" stroke-linejoin="round" stroke-miterlimit="10" x1="415.6" y1="260.3" x2="459.2" y2="308.1"/>
	<polyline stroke="#FFFFFF" stroke-width="2" stroke-linecap="round" stroke-linejoin="round" stroke-miterlimit="10" points="
		292,81 292,71.1 454,256 416,256 	"/>
	<polygon stroke="#FFFFFF" stroke-width="2" stroke-linecap="round" stroke-linejoin="round" stroke-miterlimit="10" points="
		365.6,309 399.7,309 422.4,237.3 292,80.7 292,175.1 	"/>
	<path stroke="#FFFFFF" stroke-width="1.7491" stroke-linecap="round" stroke-linejoin="round" stroke-miterlimit="10" d="
		M368.3,301.1c0,0,4.8-13.2,21-12.2l-97.9-113.7"/>
	<circle fill="#FFFFFF" cx="389.2" cy="287.9" r="2.6"/>
	<line fill="none" stroke="#FFFFFF" stroke-width="1.7491" stroke-miterlimit="10" x1="454" y1="255.6" x2="498.5" y2="308.9"/>
	<polyline fill="none" stroke="#FFFFFF" stroke-width="2" stroke-linejoin="round" stroke-miterlimit="10" points="13.5,355 14,309 
		219,309 	"/>
	<line fill="none" stroke="#FFFFFF" stroke-width="2" stroke-miterlimit="10" x1="511" y1="309" x2="366" y2="309"/>
	
		<line fill="none" stroke="#FFFFFF" stroke-width="2" stroke-linejoin="round" stroke-miterlimit="10" x1="168" y1="256" x2="131" y2="256"/>
	
		<line fill="none" stroke="#FFFFFF" stroke-width="2" stroke-linecap="round" stroke-linejoin="round" stroke-miterlimit="10" x1="391.8" y1="137.3" x2="373" y2="105.1"/>
</g>
</svg>
