<?xml version="1.0" encoding="utf-8"?>
<!-- Generator: Adobe Illustrator 18.1.1, SVG Export Plug-In . SVG Version: 6.00 Build 0)  -->
<svg version="1.1" xmlns="http://www.w3.org/2000/svg" xmlns:xlink="http://www.w3.org/1999/xlink" x="0px" y="0px"
	 viewBox="0 0 726 350" enable-background="new 0 0 726 350" xml:space="preserve">
<g id="g">
</g>
<g id="b">
</g>
<g id="g_x5F_bg">
</g>
<g id="b_x5F_bg">
	<path stroke="#FFFFFF" stroke-width="2.5116" stroke-linecap="round" stroke-linejoin="round" stroke-miterlimit="10" d="
		M267.5,106.1c10.1-4.1,49.1-32.4,49.1-32.4c1.7-1.4,1.6-4.1-0.2-5.4L269.3,43c0,0-2.2-6-5.1-8c-1.5-1-6.2-0.7-10.6,0.4
		c-2.8,0.7-4.1,3.8-2.8,6.3v0c0.9,1.6,2.7,2.5,4.5,2.2l5.3-0.9l-0.3,1c-0.9,2.8,6.9,2.6,9.4,4.1"/>
	
		<line stroke="#FFFFFF" stroke-width="2.5116" stroke-linecap="round" stroke-linejoin="round" stroke-miterlimit="10" x1="264.6" y1="46.7" x2="298" y2="72.8"/>
	<line fill="#231F20" stroke="#FFFFFF" stroke-width="2" stroke-miterlimit="10" x1="268" y1="164" x2="208" y2="164"/>
	<path fill="none" stroke="#FFFFFF" stroke-width="2.2634" stroke-linecap="round" stroke-miterlimit="10" d="M212.7,83.1h-1.9
		c-6.1,0-11.5,3.9-13.4,9.6l-8.5,30.9c-0.5,1.2-0.8,2.6-0.9,3.9l-3.3,50.4c-0.2,3.5,5.6,7.6,5.6,7.6c2.1,0.5,7.2,0.1,7.3-2.1
		l0.4-5.4c0.1-1.5-1.7-2.8-2.8-3.4c-0.5-0.3-0.7-0.8-0.7-1.4l5.4-41.7c0.2-1.4,0.6-2.7,1.2-4l3.2-10.4"/>
	
		<path fill="none" stroke="#FFFFFF" stroke-width="2.2634" stroke-linecap="round" stroke-linejoin="round" stroke-miterlimit="10" d="
		M200,130.1"/>
	<path stroke="#FFFFFF" stroke-width="2.4366" stroke-linecap="round" stroke-miterlimit="10" d="M197.8,142.5
		c-3.1-2.6-10.5-3.9-10.5-3.9s-2.5-2.8,1.2-6.3c0,0,7.4,1.3,10.5,3.9L197.8,142.5z"/>
	<path stroke="#FFFFFF" stroke-width="2.4366" stroke-linecap="round" stroke-miterlimit="10" d="M192.8,136.8
		c-2.8-0.9-5.4-1.4-5.4-1.4"/>
	<polyline stroke="#FFFFFF" stroke-width="2.2634" stroke-linecap="round" stroke-linejoin="round" stroke-miterlimit="10" points="
		236.7,93 228.9,91.2 223.5,82.3 217.7,85.5 225.8,94.1 235.7,96.8 	"/>
	<polyline stroke="#FFFFFF" stroke-width="2.2634" stroke-linecap="round" stroke-linejoin="round" stroke-miterlimit="10" points="
		236.7,93 242.7,91 248.1,82.1 253.9,85.3 245.9,93.9 236.7,96.8 	"/>
	<path stroke="#FFFFFF" stroke-width="2.349" stroke-linecap="round" stroke-linejoin="round" stroke-miterlimit="10" d="
		M296.8,59.1l-8.3,7.6l5.1,3.6l11.9-9.1C305.5,61.3,303.3,52.9,296.8,59.1z"/>
	
		<line stroke="#FFFFFF" stroke-width="2.2634" stroke-linecap="round" stroke-linejoin="round" stroke-miterlimit="10" x1="302.7" y1="59.1" x2="300.4" y2="61.1"/>
	<path stroke="#FFFFFF" stroke-width="2.5116" stroke-linecap="round" stroke-miterlimit="10" d="M295,71.1c0,0-16.3,11.5-26.8,13.6
		l0,0l-10.4-0.5"/>
	<polyline fill="#FFFFFF" points="277.7,80.7 281.2,88.9 283.4,87.6 280,79.7 	"/>
	<polyline fill="#FFFFFF" points="281.8,79.2 284.8,86.3 287,85 284.1,78.2 	"/>
	<path fill="none" stroke="#FFFFFF" stroke-width="2.2634" stroke-linecap="round" stroke-miterlimit="10" d="M203.9,104.7l2.9,66.5
		h29.6l29.8,0.4l1.3-64c0.1-3,0.8-6,2-8.7"/>
	
		<polygon fill="#FFFFFF" stroke="#FFFFFF" stroke-width="2" stroke-linecap="round" stroke-linejoin="round" stroke-miterlimit="10" points="
		220.1,332.5 201.3,332.4 209.4,323.9 209,303 222,303 	"/>
	<path fill="none" stroke="#FFFFFF" stroke-width="2" stroke-linecap="round" stroke-linejoin="round" stroke-miterlimit="10" d="
		M231.8,182c-1,0-1.8,0.8-1.9,1.8L222,303h-13l-2.3-132h29.6l-0.2,11H231.8z"/>
	
		<polygon fill="#FFFFFF" stroke="#FFFFFF" stroke-width="2" stroke-linecap="round" stroke-linejoin="round" stroke-miterlimit="10" points="
		263.5,324 271.5,332.4 252.7,332.4 250.8,303 263.8,303 	"/>
	<path fill="none" stroke="#FFFFFF" stroke-width="2" stroke-linecap="round" stroke-linejoin="round" stroke-miterlimit="10" d="
		M241.1,182h-4.3l-0.2-11h29.6l-2.3,132h-13l-7.9-119.2C242.9,182.8,242,182,241.1,182z"/>
	
		<polygon fill="none" stroke="#FFFFFF" stroke-width="2" stroke-linecap="round" stroke-linejoin="round" stroke-miterlimit="10" points="
		236.1,182 236.3,171 236.5,171 236.7,182 	"/>
	<g>
		
			<line stroke="#000000" stroke-linecap="round" stroke-linejoin="round" stroke-miterlimit="10" x1="267" y1="305.5" x2="262" y2="305.5"/>
		
			<line stroke="#000000" stroke-linecap="round" stroke-linejoin="round" stroke-miterlimit="10" x1="267" y1="309.5" x2="262" y2="309.5"/>
		
			<line stroke="#000000" stroke-linecap="round" stroke-linejoin="round" stroke-miterlimit="10" x1="267" y1="314.5" x2="262" y2="314.5"/>
		
			<line stroke="#000000" stroke-linecap="round" stroke-linejoin="round" stroke-miterlimit="10" x1="267" y1="318.5" x2="262" y2="318.5"/>
		
			<line stroke="#000000" stroke-linecap="round" stroke-linejoin="round" stroke-miterlimit="10" x1="267" y1="323.5" x2="262" y2="323.5"/>
	</g>
	<g>
		
			<line stroke="#000000" stroke-linecap="round" stroke-linejoin="round" stroke-miterlimit="10" x1="211" y1="305.5" x2="207" y2="305.5"/>
		
			<line stroke="#000000" stroke-linecap="round" stroke-linejoin="round" stroke-miterlimit="10" x1="211" y1="309.5" x2="207" y2="309.5"/>
		
			<line stroke="#000000" stroke-linecap="round" stroke-linejoin="round" stroke-miterlimit="10" x1="211" y1="314.5" x2="207" y2="314.5"/>
		
			<line stroke="#000000" stroke-linecap="round" stroke-linejoin="round" stroke-miterlimit="10" x1="211" y1="318.5" x2="207" y2="318.5"/>
		
			<line stroke="#000000" stroke-linecap="round" stroke-linejoin="round" stroke-miterlimit="10" x1="211" y1="323.5" x2="207" y2="323.5"/>
	</g>
	<path stroke="#FFFFFF" stroke-width="2.2634" stroke-linecap="round" stroke-linejoin="round" stroke-miterlimit="10" d="
		M211.2,303.5l-1-4.1c-0.2-0.9-1-1.5-1.9-1.5h0c-1.6,0-2.5,1.7-1.7,3l1.6,2.6H211.2z"/>
	<path stroke="#FFFFFF" stroke-width="2.2634" stroke-linecap="round" stroke-linejoin="round" stroke-miterlimit="10" d="
		M261.6,303.5l1-4.1c0.2-0.9,1-1.5,1.9-1.5l0,0c1.6,0,2.5,1.7,1.7,3l-1.6,2.6H261.6z"/>
	<polygon stroke="#FFFFFF" stroke-width="2" stroke-linecap="round" stroke-linejoin="round" stroke-miterlimit="10" points="
		204.9,245.6 212.8,244.2 211.7,219 203.8,219 	"/>
	<path stroke="#FFFFFF" stroke-width="2.2634" stroke-linecap="round" stroke-linejoin="round" stroke-miterlimit="10" d="
		M204.9,224.2c0,0.4,3.5-0.3,3.5-0.3l-0.2-5.3"/>
	<polygon stroke="#FFFFFF" stroke-width="2" stroke-linecap="round" stroke-linejoin="round" stroke-miterlimit="10" points="
		268.2,245.6 260.4,244.2 261.4,219 269.4,219 	"/>
	<path stroke="#FFFFFF" stroke-width="2.2634" stroke-linecap="round" stroke-linejoin="round" stroke-miterlimit="10" d="
		M268.2,224.2c0,0.4-3.5-0.3-3.5-0.3l0.2-5.3"/>
	
		<line fill="none" stroke="#FFFFFF" stroke-width="2" stroke-linecap="round" stroke-linejoin="round" stroke-miterlimit="10" x1="248" y1="164" x2="248" y2="171"/>
	
		<line fill="none" stroke="#FFFFFF" stroke-width="2" stroke-linecap="round" stroke-linejoin="round" stroke-miterlimit="10" x1="226" y1="164" x2="226" y2="171"/>
	<path stroke="#FFFFFF" stroke-width="2" stroke-linecap="round" stroke-linejoin="round" stroke-miterlimit="10" d="M250.4,22
		l2.9-4.5l-9.1,1.9l-1.4-5.4c0,0-4.6,3.5-11.5,3.5s-16.5,9.5-14,23.7L217,58.8c0,9.7,7.8,17.5,17.5,17.5l0,0
		c9.7,0,17.5-7.9,17.5-17.5V49C252,49,258.4,28.6,250.4,22z"/>
	
		<path fill="none" stroke="#FFFFFF" stroke-width="2.2634" stroke-linecap="round" stroke-linejoin="round" stroke-miterlimit="10" d="
		M200.1,88.1l3.8,8.9c0,0,4-3.8,11.5-4.5"/>
	
		<polyline fill="none" stroke="#FFFFFF" stroke-width="2" stroke-linecap="round" stroke-linejoin="round" stroke-miterlimit="10" points="
		270,85 270,95 258,94 	"/>
	<path fill="#FFFFFF" stroke="#FFFFFF" stroke-width="0.5871" stroke-miterlimit="10" d="M206,88.5l0.7-0.3c0.3-0.1,0.6,0.1,0.5,0.4
		l-0.1,0.7c0,0.1,0,0.2,0.1,0.3l0.5,0.5c0.2,0.2,0.1,0.6-0.2,0.6l-0.7,0.1c-0.1,0-0.2,0.1-0.3,0.2l-0.3,0.7c-0.1,0.3-0.5,0.3-0.6,0
		l-0.3-0.7c-0.1-0.1-0.2-0.2-0.3-0.2l-0.7-0.1c-0.3,0-0.4-0.4-0.2-0.6l0.5-0.5c0.1-0.1,0.1-0.2,0.1-0.3l-0.1-0.7
		c-0.1-0.3,0.3-0.5,0.5-0.4l0.7,0.3C205.8,88.5,205.9,88.5,206,88.5z"/>
	<path fill="#FFFFFF" stroke="#FFFFFF" stroke-width="0.5871" stroke-miterlimit="10" d="M264.8,88.5l0.7-0.3
		c0.3-0.1,0.6,0.1,0.5,0.4l-0.1,0.7c0,0.1,0,0.2,0.1,0.3l0.5,0.5c0.2,0.2,0.1,0.6-0.2,0.6l-0.7,0.1c-0.1,0-0.2,0.1-0.3,0.2l-0.3,0.7
		c-0.1,0.3-0.5,0.3-0.6,0L264,91c-0.1-0.1-0.2-0.2-0.3-0.2l-0.7-0.1c-0.3,0-0.4-0.4-0.2-0.6l0.5-0.5c0.1-0.1,0.1-0.2,0.1-0.3
		l-0.1-0.7c-0.1-0.3,0.3-0.5,0.5-0.4l0.7,0.3C264.5,88.5,264.7,88.5,264.8,88.5z"/>
	
		<line fill="none" stroke="#FFFFFF" stroke-width="2" stroke-linejoin="round" stroke-miterlimit="10" x1="721" y1="334" x2="1" y2="334"/>
</g>
</svg>
