<?xml version="1.0" encoding="utf-8"?>
<!-- Generator: Adobe Illustrator 18.1.1, SVG Export Plug-In . SVG Version: 6.00 Build 0)  -->
<svg version="1.1" xmlns="http://www.w3.org/2000/svg" xmlns:xlink="http://www.w3.org/1999/xlink" x="0px" y="0px"
	 viewBox="0 0 536 379" enable-background="new 0 0 536 379" xml:space="preserve">
<g id="g">
</g>
<g id="b">
</g>
<g id="g_x5F_bg">
	<path fill="none" stroke="#231F20" stroke-width="1.5964" stroke-miterlimit="10" d="M63.9,256.1H32.8l-3.3,6
		c-6,10.8-6.4,23.8-1.3,35l4.6,10.1h31.1"/>
	<path fill="none" stroke="#231F20" stroke-width="1.5964" stroke-miterlimit="10" d="M44.3,256.1h31.1l3.3,6
		c6,10.8,6.4,23.8,1.3,35l-4.6,10.1H44.3"/>
	<line fill="none" stroke="#231F20" stroke-width="2" stroke-miterlimit="10" x1="79" y1="303" x2="32" y2="303"/>
	<path fill="#FFFFFF" stroke="#231F20" stroke-width="1.5964" stroke-miterlimit="10" d="M59.9,257.9h21.6c1.3,0,2.4-1.1,2.4-2.4
		l0,0c0-1.3-1.1-2.4-2.4-2.4H63.9"/>
	<path fill="#FFFFFF" stroke="#231F20" stroke-width="1.6826" stroke-linecap="round" stroke-miterlimit="10" d="M54.5,260.6H30.6
		c-1.5,0-2.7-1.1-2.7-2.4l0,0c0-1.3,1.2-2.4,2.7-2.4h19.5"/>
	<g>
		<path fill="#FFFFFF" stroke="#231F20" stroke-width="1.5964" stroke-linecap="round" stroke-miterlimit="10" d="M76.9,220.9
			l-0.1-0.1c-3.2-2.6-7.5-3.6-11.5-2.7l0,0c-3.5,0.8-6.5,2.9-8.4,5.9l-12.8,20.3"/>
		<path fill="#FFFFFF" stroke="#231F20" stroke-width="1.5964" stroke-linecap="round" stroke-miterlimit="10" d="M76.9,220.9
			L77,221c2.3,3.5,2.9,7.8,1.6,11.7l0,0c-1.1,3.4-3.5,6.2-6.7,7.8l-19.2,7.7"/>
		
			<line fill="#FFFFFF" stroke="#231F20" stroke-width="1.5964" stroke-linecap="round" stroke-miterlimit="10" x1="65.7" y1="225.7" x2="64.8" y2="231.3"/>
		
			<line fill="#FFFFFF" stroke="#231F20" stroke-width="1.5964" stroke-linecap="round" stroke-miterlimit="10" x1="59.8" y1="231.1" x2="58.9" y2="236.6"/>
		
			<line fill="#FFFFFF" stroke="#231F20" stroke-width="1.5964" stroke-linecap="round" stroke-miterlimit="10" x1="70.7" y1="231.3" x2="65.1" y2="231.6"/>
		
			<line fill="#FFFFFF" stroke="#231F20" stroke-width="1.5964" stroke-linecap="round" stroke-miterlimit="10" x1="64.8" y1="236.6" x2="59.2" y2="237"/>
		
			<line fill="none" stroke="#231F20" stroke-width="1.5964" stroke-linecap="round" stroke-miterlimit="10" x1="64.8" y1="231.8" x2="45.8" y2="249"/>
	</g>
	<g>
		<path fill="#FFFFFF" stroke="#231F20" stroke-width="1.5964" stroke-linecap="round" stroke-miterlimit="10" d="M13,220.9l0.1-0.1
			c3.2-2.6,7.5-3.6,11.5-2.7l0,0c3.5,0.8,6.5,2.9,8.4,5.9l11,20.3"/>
		<path fill="#FFFFFF" stroke="#231F20" stroke-width="1.5964" stroke-linecap="round" stroke-miterlimit="10" d="M13,220.9
			l-0.1,0.1c-2.3,3.5-2.9,7.8-1.6,11.7l0,0c1.1,3.4,3.5,6.2,6.7,7.8l19.2,7.7"/>
		
			<line fill="#FFFFFF" stroke="#231F20" stroke-width="1.5964" stroke-linecap="round" stroke-miterlimit="10" x1="24.3" y1="225.7" x2="25.2" y2="231.3"/>
		
			<line fill="#FFFFFF" stroke="#231F20" stroke-width="1.5964" stroke-linecap="round" stroke-miterlimit="10" x1="30.2" y1="231.1" x2="31.1" y2="236.6"/>
		
			<line fill="#FFFFFF" stroke="#231F20" stroke-width="1.5964" stroke-linecap="round" stroke-miterlimit="10" x1="19.3" y1="231.3" x2="24.9" y2="231.6"/>
		
			<line fill="#FFFFFF" stroke="#231F20" stroke-width="1.5964" stroke-linecap="round" stroke-miterlimit="10" x1="25.2" y1="236.6" x2="30.8" y2="237"/>
		
			<line fill="none" stroke="#231F20" stroke-width="1.5964" stroke-linecap="round" stroke-miterlimit="10" x1="25.2" y1="231.8" x2="44.2" y2="249"/>
	</g>
	<g>
		<path fill="#FFFFFF" stroke="#231F20" stroke-width="1.5964" stroke-linecap="round" stroke-miterlimit="10" d="M76.9,192.9
			l-0.1-0.1c-3.2-2.6-7.5-3.6-11.5-2.7l0,0c-3.5,0.8-6.5,2.9-8.4,5.9l-12.6,20.2"/>
		<path fill="#FFFFFF" stroke="#231F20" stroke-width="1.5964" stroke-linecap="round" stroke-miterlimit="10" d="M76.9,192.9
			L77,193c2.3,3.5,2.9,7.8,1.6,11.7l0,0c-1.1,3.4-3.5,6.2-6.7,7.8l-19.2,7.7"/>
		
			<line fill="#FFFFFF" stroke="#231F20" stroke-width="1.5964" stroke-linecap="round" stroke-miterlimit="10" x1="65.7" y1="197.7" x2="64.8" y2="203.3"/>
		
			<line fill="#FFFFFF" stroke="#231F20" stroke-width="1.5964" stroke-linecap="round" stroke-miterlimit="10" x1="59.8" y1="203.1" x2="58.9" y2="208.6"/>
		
			<line fill="#FFFFFF" stroke="#231F20" stroke-width="1.5964" stroke-linecap="round" stroke-miterlimit="10" x1="70.7" y1="203.3" x2="65.1" y2="203.6"/>
		
			<line fill="#FFFFFF" stroke="#231F20" stroke-width="1.5964" stroke-linecap="round" stroke-miterlimit="10" x1="64.8" y1="208.6" x2="59.2" y2="209"/>
		
			<line fill="none" stroke="#231F20" stroke-width="1.5964" stroke-linecap="round" stroke-miterlimit="10" x1="64.8" y1="203.8" x2="45.8" y2="221"/>
	</g>
	<g>
		<path fill="#FFFFFF" stroke="#231F20" stroke-width="1.5964" stroke-linecap="round" stroke-miterlimit="10" d="M13,192.9l0.1-0.1
			c3.2-2.6,7.5-3.6,11.5-2.7l0,0c3.5,0.8,6.5,2.9,8.4,5.9l11.2,20.2"/>
		<path fill="#FFFFFF" stroke="#231F20" stroke-width="1.5964" stroke-linecap="round" stroke-miterlimit="10" d="M13,192.9
			l-0.1,0.1c-2.3,3.5-2.9,7.8-1.6,11.7l0,0c1.1,3.4,3.5,6.2,6.7,7.8l19.2,7.7"/>
		
			<line fill="#FFFFFF" stroke="#231F20" stroke-width="1.5964" stroke-linecap="round" stroke-miterlimit="10" x1="24.3" y1="197.7" x2="25.2" y2="203.3"/>
		
			<line fill="#FFFFFF" stroke="#231F20" stroke-width="1.5964" stroke-linecap="round" stroke-miterlimit="10" x1="30.2" y1="203.1" x2="31.1" y2="208.6"/>
		
			<line fill="#FFFFFF" stroke="#231F20" stroke-width="1.5964" stroke-linecap="round" stroke-miterlimit="10" x1="19.3" y1="203.3" x2="24.9" y2="203.6"/>
		
			<line fill="#FFFFFF" stroke="#231F20" stroke-width="1.5964" stroke-linecap="round" stroke-miterlimit="10" x1="25.2" y1="208.6" x2="30.8" y2="209"/>
		
			<line fill="none" stroke="#231F20" stroke-width="1.5964" stroke-linecap="round" stroke-miterlimit="10" x1="25.2" y1="203.8" x2="44.2" y2="221"/>
	</g>
	<g>
		<path fill="#FFFFFF" stroke="#231F20" stroke-width="2" stroke-linecap="round" stroke-miterlimit="10" d="M44.1,159.4l0.1,0
			c4.1,0.6,7.7,3.1,9.8,6.7l0,0c1.8,3.1,2.2,6.8,1.3,10.2l-11.2,20.1"/>
		<path fill="#FFFFFF" stroke="#231F20" stroke-width="2" stroke-linecap="round" stroke-miterlimit="10" d="M44.1,159.4l-0.1,0
			c-4.1,0.6-7.7,3.1-9.8,6.7l0,0c-1.8,3.1-2.2,6.8-1.3,10.2l11.2,20"/>
		
			<line fill="#FFFFFF" stroke="#231F20" stroke-width="2" stroke-linecap="round" stroke-miterlimit="10" x1="48.1" y1="171" x2="44.6" y2="175.4"/>
		
			<line fill="#FFFFFF" stroke="#231F20" stroke-width="2" stroke-linecap="round" stroke-miterlimit="10" x1="48.1" y1="179" x2="44.6" y2="183.3"/>
		
			<line fill="#FFFFFF" stroke="#231F20" stroke-width="2" stroke-linecap="round" stroke-miterlimit="10" x1="40.6" y1="171" x2="44.1" y2="175.4"/>
		
			<line fill="#FFFFFF" stroke="#231F20" stroke-width="2" stroke-linecap="round" stroke-miterlimit="10" x1="40.6" y1="179" x2="44.1" y2="183.3"/>
		
			<line fill="none" stroke="#231F20" stroke-width="1.9779" stroke-linecap="round" stroke-miterlimit="10" x1="44.2" y1="175.7" x2="44.2" y2="255.3"/>
	</g>
	
		<line fill="none" stroke="#231F20" stroke-width="2" stroke-linecap="round" stroke-miterlimit="10" x1="116" y1="253" x2="116" y2="172"/>
	<path fill="none" stroke="#231F20" stroke-width="2" stroke-linecap="round" stroke-linejoin="round" stroke-miterlimit="10" d="
		M292.8,202v4.2h94.8v38.6c0,8.6-7,15.6-15.6,15.6h-13.1c-14.1,0-25.5,11.4-25.5,25.5v20.7"/>
	
		<polyline fill="none" stroke="#231F20" stroke-width="2" stroke-linecap="round" stroke-linejoin="round" stroke-miterlimit="10" points="
		309,201 278,201 278,193 434,193 434,201 419,201 407,201 	"/>
	
		<line fill="none" stroke="#231F20" stroke-width="2" stroke-linecap="round" stroke-linejoin="round" stroke-miterlimit="10" x1="278" y1="197" x2="434" y2="197"/>
	<path fill="none" stroke="#231F20" stroke-width="2" stroke-linecap="round" stroke-linejoin="round" stroke-miterlimit="10" d="
		M406.7,116.9h4.8v59.8c0,8.8-7.1,15.9-15.9,15.9h-25.5v-4.8h20.7c8.8,0,15.9-7.1,15.9-15.9V144v15.1h-6.4V93.9h6.4v29.5"/>
	<path fill="none" stroke="#231F20" stroke-width="2" stroke-linecap="round" stroke-linejoin="round" stroke-miterlimit="10" d="
		M382,81.1v91.6h7c6.3,0,11.4-5.1,11.4-11.4V92.5c0-6.3-5.1-11.4-11.4-11.4H382z"/>
	
		<line fill="none" stroke="#231F20" stroke-width="2" stroke-linejoin="round" stroke-miterlimit="10" x1="386" y1="81" x2="386" y2="173"/>
	
		<line fill="none" stroke="#231F20" stroke-width="2" stroke-linecap="round" stroke-linejoin="round" stroke-miterlimit="10" x1="326.5" y1="180" x2="375.4" y2="168.2"/>
	
		<line fill="none" stroke="#231F20" stroke-width="2" stroke-linecap="round" stroke-linejoin="round" stroke-miterlimit="10" x1="326.5" y1="75.8" x2="375.4" y2="87.6"/>
	
		<path fill="none" stroke="#000000" stroke-width="1.7831" stroke-linecap="round" stroke-linejoin="round" stroke-miterlimit="10" d="
		M207.8,233.1H282v20h-74.2h-8.2l-19.2-97.7h0c-6.9,0-12.6-5.6-12.6-12.6v-5.5c0-6.9,5.6-12.6,12.6-12.6h7.5L207.8,233.1z"/>
	
		<path fill="none" stroke="#000000" stroke-width="1.7831" stroke-linecap="round" stroke-linejoin="round" stroke-miterlimit="10" d="
		M177.2,124.8h-14.5c-6.9,0-12.6,5.6-12.6,12.6v5.5c0,6.9,5.6,12.6,12.6,12.6h11"/>
	
		<polygon fill="none" stroke="#000000" stroke-width="2" stroke-linecap="round" stroke-linejoin="round" stroke-miterlimit="10" points="
		183.7,254 162.7,156 180.7,156 199.6,254 	"/>
	
		<line fill="none" stroke="#000000" stroke-width="2" stroke-linecap="round" stroke-linejoin="round" stroke-miterlimit="10" x1="169" y1="184" x2="186" y2="184"/>
	
		<line fill="none" stroke="#000000" stroke-width="2" stroke-linecap="round" stroke-linejoin="round" stroke-miterlimit="10" x1="175" y1="212" x2="191" y2="212"/>
	
		<line fill="none" stroke="#000000" stroke-width="2" stroke-linecap="round" stroke-linejoin="round" stroke-miterlimit="10" x1="180" y1="238" x2="197" y2="238"/>
	
		<polyline fill="none" stroke="#000000" stroke-width="2" stroke-linecap="round" stroke-linejoin="round" stroke-miterlimit="10" points="
		196,253.5 199.6,263 269,263 274.5,253.5 	"/>
	
		<line fill="none" stroke="#000000" stroke-width="1.7831" stroke-linecap="round" stroke-linejoin="round" stroke-miterlimit="10" x1="207.8" y1="253.1" x2="211.3" y2="262.5"/>
	
		<rect x="229" y="263" fill="none" stroke="#000000" stroke-width="2" stroke-linecap="round" stroke-linejoin="round" stroke-miterlimit="10" width="9" height="36"/>
	
		<path fill="none" stroke="#000000" stroke-width="1.7831" stroke-linecap="round" stroke-linejoin="round" stroke-miterlimit="10" d="
		M198.8,299.7h30.6v-17.7l-2.3,5.1c-1.8,4.1-5.9,6.7-10.4,6.7h-18V299.7z"/>
	
		<path fill="none" stroke="#000000" stroke-width="1.7831" stroke-linecap="round" stroke-linejoin="round" stroke-miterlimit="10" d="
		M269,299.7h-30.6v-17.7l2.3,5.1c1.8,4.1,5.9,6.7,10.4,6.7h18V299.7z"/>
	
		<path fill="#FFFFFF" stroke="#000000" stroke-width="1.7831" stroke-linecap="round" stroke-linejoin="round" stroke-miterlimit="10" d="
		M258.1,200.9h-57.3c-2.5,0-4.5-2-4.5-4.5v0c0-2.5,2-4.5,4.5-4.5h57.3c2.5,0,4.5,2,4.5,4.5v0C262.6,198.9,260.6,200.9,258.1,200.9z"
		/>
	
		<path fill="none" stroke="#000000" stroke-width="1.7831" stroke-linecap="round" stroke-linejoin="round" stroke-miterlimit="10" d="
		M203.1,208.4H234c8.3,0,15,6.7,15,15v9.7h7.1v-16.8c0-8.3-6.7-15-15-15h-39.2L203.1,208.4z"/>
	
		<circle fill="none" stroke="#000000" stroke-width="1.7831" stroke-linecap="round" stroke-linejoin="round" stroke-miterlimit="10" cx="265.9" cy="303.1" r="3.7"/>
	
		<circle fill="none" stroke="#000000" stroke-width="1.7831" stroke-linecap="round" stroke-linejoin="round" stroke-miterlimit="10" cx="234.1" cy="303.1" r="3.7"/>
	
		<circle fill="none" stroke="#000000" stroke-width="1.7831" stroke-linecap="round" stroke-linejoin="round" stroke-miterlimit="10" cx="202.1" cy="303.1" r="3.7"/>
	
		<line fill="none" stroke="#231F20" stroke-width="2" stroke-linecap="round" stroke-linejoin="round" stroke-miterlimit="10" x1="417" y1="379" x2="417" y2="201"/>
	
		<line fill="none" stroke="#231F20" stroke-width="2" stroke-linecap="round" stroke-linejoin="round" stroke-miterlimit="10" x1="334" y1="307" x2="112" y2="307"/>
	
		<rect x="110.5" y="216.2" fill="#FFFFFF" stroke="#000000" stroke-width="1.7823" stroke-linecap="round" stroke-linejoin="round" stroke-miterlimit="10" width="6.7" height="67.7"/>
	<rect x="117.1" y="263.3" stroke="#000000" stroke-width="0.8912" stroke-miterlimit="10" width="2.3" height="14.8"/>
	
		<rect x="110.5" y="124.5" fill="#FFFFFF" stroke="#000000" stroke-width="1.7823" stroke-linecap="round" stroke-linejoin="round" stroke-miterlimit="10" width="6.7" height="67.7"/>
	<rect x="117.1" y="171.5" stroke="#000000" stroke-width="0.8912" stroke-miterlimit="10" width="2.3" height="14.8"/>
	
		<rect x="148.5" y="32.8" fill="none" stroke="#000000" stroke-width="1.7823" stroke-linecap="round" stroke-linejoin="round" stroke-miterlimit="10" width="6.7" height="67.7"/>
	<rect x="155.2" y="79.8" stroke="#000000" stroke-width="0.8912" stroke-miterlimit="10" width="2.3" height="14.8"/>
	
		<rect x="110.5" y="43.9" fill="none" stroke="#000000" stroke-width="2.1832" stroke-linecap="round" stroke-linejoin="round" stroke-miterlimit="10" width="38" height="8.3"/>
	
		<rect x="110.5" y="91.8" fill="none" stroke="#000000" stroke-width="1.7823" stroke-linecap="round" stroke-linejoin="round" stroke-miterlimit="10" width="38" height="5.5"/>
	
		<line fill="none" stroke="#000000" stroke-width="2" stroke-linecap="round" stroke-linejoin="round" stroke-miterlimit="10" x1="148" y1="48" x2="141" y2="48"/>
	
		<line fill="none" stroke="#000000" stroke-width="2" stroke-linecap="round" stroke-linejoin="round" stroke-miterlimit="10" x1="129" y1="48" x2="111" y2="48"/>
	
		<rect x="137.5" y="35.9" fill="none" stroke="#000000" stroke-width="1.7823" stroke-linecap="round" stroke-linejoin="round" stroke-miterlimit="10" width="7" height="8"/>
	
		<rect x="129.5" y="35.9" fill="none" stroke="#000000" stroke-width="1.7823" stroke-linecap="round" stroke-linejoin="round" stroke-miterlimit="10" width="7" height="8"/>
	
		<rect x="121.5" y="35.9" fill="none" stroke="#000000" stroke-width="1.7823" stroke-linecap="round" stroke-linejoin="round" stroke-miterlimit="10" width="7" height="8"/>
	
		<rect x="113.5" y="35.9" fill="none" stroke="#000000" stroke-width="1.7823" stroke-linecap="round" stroke-linejoin="round" stroke-miterlimit="10" width="7" height="8"/>
	
		<rect x="105.5" y="35.9" fill="none" stroke="#000000" stroke-width="1.7823" stroke-linecap="round" stroke-linejoin="round" stroke-miterlimit="10" width="7" height="8"/>
	
		<polyline fill="#FFFFFF" stroke="#000000" stroke-width="2" stroke-linecap="round" stroke-linejoin="round" stroke-miterlimit="10" points="
		110,307 110,26 50,26 50,307 	"/>
	
		<line fill="none" stroke="#231F20" stroke-width="2" stroke-linecap="round" stroke-linejoin="round" stroke-miterlimit="10" x1="76" y1="307" x2="4" y2="307"/>
	
		<line fill="none" stroke="#231F20" stroke-width="2" stroke-linecap="round" stroke-linejoin="round" stroke-miterlimit="10" x1="51" y1="31" x2="78" y2="31"/>
	
		<line fill="none" stroke="#231F20" stroke-width="2" stroke-linecap="round" stroke-linejoin="round" stroke-miterlimit="10" x1="96" y1="31" x2="109" y2="31"/>
</g>
<g id="b_x5F_bg">
</g>
</svg>
