<?xml version="1.0" encoding="utf-8"?>
<!-- Generator: Adobe Illustrator 18.1.1, SVG Export Plug-In . SVG Version: 6.00 Build 0)  -->
<svg version="1.1" xmlns="http://www.w3.org/2000/svg" xmlns:xlink="http://www.w3.org/1999/xlink" x="0px" y="0px"
	 viewBox="0 0 465.3 326.5" enable-background="new 0 0 465.3 326.5" xml:space="preserve">
<g id="g">
	<path fill="#FFFFFF" stroke="#000000" stroke-width="2" stroke-linejoin="round" stroke-miterlimit="10" d="M155.4,113.7h-4.6
		c-1.7,0-3.1-1.4-3.1-3.1v-7.2h10.8v7.2C158.5,112.3,157.1,113.7,155.4,113.7z"/>
	
		<line fill="none" stroke="#000000" stroke-width="2" stroke-linecap="round" stroke-linejoin="round" stroke-miterlimit="10" x1="148.3" y1="107.2" x2="151.3" y2="107.2"/>
	
		<line fill="none" stroke="#000000" stroke-width="2" stroke-linecap="round" stroke-linejoin="round" stroke-miterlimit="10" x1="155.3" y1="107.2" x2="158.3" y2="107.2"/>
	<path fill="#FFFFFF" stroke="#000000" stroke-width="2" stroke-linejoin="round" stroke-miterlimit="10" d="M280.4,113.7h-4.6
		c-1.7,0-3.1-1.4-3.1-3.1v-7.2h10.8v7.2C283.5,112.3,282.1,113.7,280.4,113.7z"/>
	
		<line fill="none" stroke="#000000" stroke-width="2" stroke-linecap="round" stroke-linejoin="round" stroke-miterlimit="10" x1="273.3" y1="107.2" x2="276.3" y2="107.2"/>
	
		<line fill="none" stroke="#000000" stroke-width="2" stroke-linecap="round" stroke-linejoin="round" stroke-miterlimit="10" x1="280.3" y1="107.2" x2="283.3" y2="107.2"/>
	<path fill="#FFFFFF" stroke="#000000" stroke-width="2" stroke-linejoin="round" stroke-miterlimit="10" d="M409.4,113.7h-4.6
		c-1.7,0-3.1-1.4-3.1-3.1v-7.2h10.8v7.2C412.5,112.3,411.1,113.7,409.4,113.7z"/>
	
		<line fill="none" stroke="#000000" stroke-width="2" stroke-linecap="round" stroke-linejoin="round" stroke-miterlimit="10" x1="402.3" y1="107.2" x2="405.3" y2="107.2"/>
	
		<line fill="none" stroke="#000000" stroke-width="2" stroke-linecap="round" stroke-linejoin="round" stroke-miterlimit="10" x1="409.3" y1="107.2" x2="412.3" y2="107.2"/>
	
		<line fill="none" stroke="#000000" stroke-width="2" stroke-linejoin="round" stroke-miterlimit="10" x1="467.3" y1="303.2" x2="1.3" y2="303.2"/>
	<path fill="none" stroke="#231F20" stroke-width="2" stroke-linecap="round" stroke-linejoin="round" stroke-miterlimit="10" d="
		M280.5,18.1"/>
	
		<circle fill="none" stroke="#231F20" stroke-width="2" stroke-linecap="round" stroke-linejoin="round" stroke-miterlimit="10" cx="397.8" cy="26.1" r="9.5"/>
	
		<path fill="#FFFFFF" stroke="#231F20" stroke-width="2" stroke-linecap="round" stroke-linejoin="round" stroke-miterlimit="10" d="
		M411.8,44.6v20.1c0,8.2-6.6,14.8-14.8,14.8h0c-8.2,0-14.8-6.6-14.8-14.8V45v-2.1c0-8.2,6.6-14.8,14.8-14.8h0
		c8.2,0,14.8,6.6,14.8,14.8V44.6z"/>
	<path fill="none" stroke="#231F20" stroke-width="2" stroke-linecap="round" stroke-linejoin="round" stroke-miterlimit="10" d="
		M400.4,26.7"/>
	
		<path fill="#FFFFFF" stroke="#000000" stroke-width="2" stroke-linecap="round" stroke-linejoin="round" stroke-miterlimit="10" d="
		M120.3,139.2c0,0-2.1,19.2-1.7,25.7c0.4,6.5,3.7,110.3,3.7,110.3h10l9.5-115h2.5"/>
	<path fill="none" stroke="#231F20" stroke-width="2" stroke-linecap="round" stroke-miterlimit="10" d="M162.7,83.6l5.1,2.1
		c3.6,1.5,6.2,4.7,6.8,8.4l0.8,5.5l0.5,3l0.2,1.6l2.8,18c0.2,1,0.1,2.1-0.1,3.1l-11.7,30.7c-0.6,2.7-3.1,4.5-6,4.4l0,0
		c-1.8-0.1-3.1-1.7-2.8-3.4l0.8-4.1c0.2-1.1,1.9-1.7,2.9-1.9c0.4-0.1,0.7-0.5,0.8-0.9l6.1-24.7c0.2-1.1,0.1-2.2-0.1-3.2l-5.4-15.2"
		/>
	
		<path fill="#FFFFFF" stroke="#000000" stroke-width="2" stroke-linecap="round" stroke-linejoin="round" stroke-miterlimit="10" d="
		M166.4,139.2c0,0,2.1,19.2,1.8,25.7c-0.4,6.5-3.6,110.3-3.6,110.3h-10l-9.5-115h-2.8"/>
	<path fill="#FFFFFF" stroke="#231F20" stroke-width="2" stroke-linecap="round" stroke-miterlimit="10" d="M168,131.1
		c3.1-1.1,9.2,0,9.2,0s2.7-1.4,0.9-5.2c0,0-6.1-1.1-9.2,0L168,131.1z"/>
	<path fill="none" stroke="#231F20" stroke-width="2" stroke-linecap="round" stroke-miterlimit="10" d="M173.5,128.2
		c2.4,0.1,4.6,0.5,4.6,0.5"/>
	<path fill="none" stroke="#000000" stroke-width="2" stroke-linecap="round" stroke-miterlimit="10" d="M161.8,98.7L161.8,98.7
		c-0.7,2.2-0.3,4.6,0.9,6.5l0.2,0.3c1.3,2,1.7,4.6,0.8,6.8l-2.6,7.4c0,0,0,0,0,0c-0.4,1.3-0.4,2.6-0.1,3.9c0,0,4.7,12.6,5.6,17"/>
	
		<polyline fill="none" stroke="#231F20" stroke-width="2" stroke-linecap="round" stroke-linejoin="round" stroke-miterlimit="10" points="
		143.7,96.2 149.6,87.5 154.4,79.6 159.5,82.5 152.4,90.1 143.7,96.2 	"/>
	<path fill="#FFFFFF" stroke="#231F20" stroke-width="2" stroke-linejoin="round" stroke-miterlimit="10" d="M120.3,142.2h46
		c0.3-1.5-1-5-1-5h-44C121.3,137.2,119.3,139.4,120.3,142.2"/>
	
		<polygon fill="#FFFFFF" stroke="#000000" stroke-width="2" stroke-linecap="round" stroke-linejoin="round" stroke-miterlimit="10" points="
		118.3,193.9 124.2,192.6 123.3,177.2 117.3,177.2 	"/>
	<path fill="none" stroke="#000000" stroke-width="2" stroke-linecap="round" stroke-linejoin="round" stroke-miterlimit="10" d="
		M118.3,182.2c0,0.3,3.1-0.3,3.1-0.3l-0.2-4.7"/>
	<polygon stroke="#000000" stroke-width="2" stroke-linecap="round" stroke-linejoin="round" stroke-miterlimit="10" points="
		122.3,275.2 132.3,275.2 130.1,301.1 112.6,302.4 123.1,295.5 	"/>
	
		<path fill="#FFFFFF" stroke="#000000" stroke-width="2" stroke-linecap="round" stroke-linejoin="round" stroke-miterlimit="10" d="
		M125,275.2l-0.9-3.7c-0.2-0.8-0.9-1.3-1.7-1.3h0c-1.4,0-2.2,1.5-1.5,2.7l1.4,2.3H125z"/>
	
		<polygon fill="#FFFFFF" stroke="#000000" stroke-width="2" stroke-linecap="round" stroke-linejoin="round" stroke-miterlimit="10" points="
		168.6,193.9 162.6,192.6 163.6,177.2 169.6,177.2 	"/>
	<path fill="none" stroke="#000000" stroke-width="2" stroke-linecap="round" stroke-linejoin="round" stroke-miterlimit="10" d="
		M168.6,182.2c0,0.3-3.1-0.3-3.1-0.3l0.2-4.7"/>
	<polygon stroke="#000000" stroke-width="2" stroke-linecap="round" stroke-linejoin="round" stroke-miterlimit="10" points="
		164.6,275.2 154.6,275.2 156.7,301.1 174.3,302.4 163.7,295.5 	"/>
	
		<path fill="#FFFFFF" stroke="#000000" stroke-width="2" stroke-linecap="round" stroke-linejoin="round" stroke-miterlimit="10" d="
		M161.8,275.2l0.9-3.7c0.2-0.8,0.9-1.3,1.7-1.3h0c1.4,0,2.2,1.5,1.5,2.7l-1.4,2.3H161.8z"/>
	<path fill="none" stroke="#2E3192" stroke-width="2" stroke-linecap="round" stroke-linejoin="round" stroke-miterlimit="10" d="
		M159.4,290.2"/>
	
		<line fill="none" stroke="#231F20" stroke-width="2" stroke-linejoin="round" stroke-miterlimit="10" x1="129.1" y1="137.2" x2="128.8" y2="142.2"/>
	
		<line fill="none" stroke="#231F20" stroke-width="2" stroke-linejoin="round" stroke-miterlimit="10" x1="156.8" y1="137.2" x2="157.1" y2="142.2"/>
	<polyline fill="none" stroke="#231F20" stroke-width="2" stroke-linejoin="round" stroke-miterlimit="10" points="143.3,96.2 
		143.3,137.2 143.3,142.2 	"/>
	
		<line fill="none" stroke="#000000" stroke-width="2" stroke-linecap="round" stroke-linejoin="round" stroke-miterlimit="10" x1="143.3" y1="142.2" x2="143.3" y2="160.2"/>
	
		<line fill="none" stroke="#FFFFFF" stroke-linecap="round" stroke-linejoin="round" stroke-miterlimit="10" x1="163.3" y1="277.7" x2="167.3" y2="277.7"/>
	
		<line fill="none" stroke="#FFFFFF" stroke-linecap="round" stroke-linejoin="round" stroke-miterlimit="10" x1="163.3" y1="281.7" x2="167.3" y2="281.7"/>
	
		<line fill="none" stroke="#FFFFFF" stroke-linecap="round" stroke-linejoin="round" stroke-miterlimit="10" x1="163.3" y1="285.7" x2="167.3" y2="285.7"/>
	
		<line fill="none" stroke="#FFFFFF" stroke-linecap="round" stroke-linejoin="round" stroke-miterlimit="10" x1="163.3" y1="289.7" x2="167.3" y2="289.7"/>
	
		<line fill="none" stroke="#FFFFFF" stroke-linecap="round" stroke-linejoin="round" stroke-miterlimit="10" x1="163.3" y1="293.7" x2="167.3" y2="293.7"/>
	
		<line fill="none" stroke="#FFFFFF" stroke-linecap="round" stroke-linejoin="round" stroke-miterlimit="10" x1="119.3" y1="277.7" x2="123.3" y2="277.7"/>
	
		<line fill="none" stroke="#FFFFFF" stroke-linecap="round" stroke-linejoin="round" stroke-miterlimit="10" x1="119.3" y1="281.7" x2="123.3" y2="281.7"/>
	
		<line fill="none" stroke="#FFFFFF" stroke-linecap="round" stroke-linejoin="round" stroke-miterlimit="10" x1="119.3" y1="285.7" x2="123.3" y2="285.7"/>
	
		<line fill="none" stroke="#FFFFFF" stroke-linecap="round" stroke-linejoin="round" stroke-miterlimit="10" x1="119.3" y1="289.7" x2="123.3" y2="289.7"/>
	
		<line fill="none" stroke="#FFFFFF" stroke-linecap="round" stroke-linejoin="round" stroke-miterlimit="10" x1="119.3" y1="293.7" x2="123.3" y2="293.7"/>
	<polyline points="176.3,105.2 169.3,105.2 169.6,107.2 176.3,107.2 	"/>
	<polyline points="177.3,108.2 171.3,108.2 171.5,110.2 177.3,110.2 	"/>
	
		<polyline fill="none" stroke="#231F20" stroke-width="2" stroke-linecap="round" stroke-linejoin="round" stroke-miterlimit="10" points="
		143,96.2 137,87.5 132.3,79.6 127.1,82.5 134.2,90.1 143,96.2 	"/>
	<path d="M152.4,81.5"/>
	<path fill="none" stroke="#231F20" stroke-width="2" stroke-linecap="round" stroke-linejoin="round" stroke-miterlimit="10" d="
		M128.1,64.4c0,8.4,6.8,15.2,15.2,15.2h0c8.4,0,15.2-6.8,15.2-15.2l-0.4-16.9c0,0-6.6-1.8-6.9-5.3c-0.8,1.5-3.6,3-3.6,3
		s-2-5.6-2.1-7.3c0,0-11.5,13.5-17.3,10.7L128.1,64.4z"/>
	<circle fill="#231F20" cx="151.4" cy="58" r="2"/>
	<circle fill="#231F20" cx="133.7" cy="58" r="2"/>
	
		<line fill="none" stroke="#231F20" stroke-width="2" stroke-linecap="round" stroke-linejoin="round" stroke-miterlimit="10" x1="139.5" y1="65.2" x2="143.5" y2="65.2"/>
	<path fill="none" stroke="#231F20" stroke-width="2" stroke-linecap="round" stroke-linejoin="round" stroke-miterlimit="10" d="
		M146.3,70.9l-1.4,0.7c-2.1,1-4.6,1-6.8,0l-1.3-0.6"/>
	
		<path fill="none" stroke="#231F20" stroke-width="2.1669" stroke-linecap="round" stroke-linejoin="round" stroke-miterlimit="10" d="
		M142.7,25.2L142.7,25.2c-13.6,0-24.7,9.4-24.7,21v12.3c0,4.4,0.4,5.6,3.2,9.3l0,0l-0.2,7.4l3.3-5.9l2.5,10.3l3-7.7"/>
	
		<path fill="none" stroke="#231F20" stroke-width="2.1669" stroke-linecap="round" stroke-linejoin="round" stroke-miterlimit="10" d="
		M143.9,25.2L143.9,25.2c13.6,0,24.7,9.4,24.7,21v12.3c0,4.4-0.4,5.6-3.2,9.3v0l0.2,7.4l-3.3-5.9l-2.5,10.3l-3-7.7"/>
	<path fill="none" stroke="#231F20" stroke-width="2" stroke-linecap="round" stroke-linejoin="round" stroke-miterlimit="10" d="
		M142.3,35.6c0,0-5.3,7.7-13.8,9"/>
	
		<path fill="#FFFFFF" stroke="#000000" stroke-width="2" stroke-linecap="round" stroke-linejoin="round" stroke-miterlimit="10" d="
		M245.3,139.2c0,0-2.1,19.2-1.7,25.7c0.4,6.5,3.7,110.3,3.7,110.3h10l9.5-115h2.5"/>
	<path fill="none" stroke="#231F20" stroke-width="2" stroke-linecap="round" stroke-miterlimit="10" d="M287.7,83.6l5.1,2.1
		c3.6,1.5,6.2,4.7,6.8,8.4l0.8,5.5l0.5,3l0.2,1.6l2.8,18c0.2,1,0.1,2.1-0.1,3.1l-11.7,30.7c-0.6,2.7-3.1,4.5-6,4.4l0,0
		c-1.8-0.1-3.1-1.7-2.8-3.4l0.8-4.1c0.2-1.1,1.9-1.7,2.9-1.9c0.4-0.1,0.7-0.5,0.8-0.9l6.1-24.7c0.2-1.1,0.1-2.2-0.1-3.2l-5.4-15.2"
		/>
	
		<path fill="#FFFFFF" stroke="#000000" stroke-width="2" stroke-linecap="round" stroke-linejoin="round" stroke-miterlimit="10" d="
		M291.4,139.2c0,0,2.1,19.2,1.8,25.7c-0.4,6.5-3.6,110.3-3.6,110.3h-10l-9.5-115h-2.8"/>
	<path fill="#FFFFFF" stroke="#231F20" stroke-width="2" stroke-linecap="round" stroke-miterlimit="10" d="M293,131.1
		c3.1-1.1,9.2,0,9.2,0s2.7-1.4,0.9-5.2c0,0-6.1-1.1-9.2,0L293,131.1z"/>
	<path fill="none" stroke="#231F20" stroke-width="2" stroke-linecap="round" stroke-miterlimit="10" d="M298.5,128.2
		c2.4,0.1,4.6,0.5,4.6,0.5"/>
	<path fill="none" stroke="#000000" stroke-width="2" stroke-linecap="round" stroke-miterlimit="10" d="M286.8,98.7L286.8,98.7
		c-0.7,2.2-0.3,4.6,0.9,6.5l0.2,0.3c1.3,2,1.7,4.6,0.8,6.8l-2.6,7.4c0,0,0,0,0,0c-0.4,1.3-0.4,2.6-0.1,3.9c0,0,4.7,12.6,5.6,17"/>
	
		<polyline fill="none" stroke="#231F20" stroke-width="2" stroke-linecap="round" stroke-linejoin="round" stroke-miterlimit="10" points="
		268.7,96.2 274.6,87.5 279.4,79.6 284.5,82.5 277.4,90.1 268.7,96.2 	"/>
	<path fill="#FFFFFF" stroke="#231F20" stroke-width="2" stroke-linejoin="round" stroke-miterlimit="10" d="M245.3,142.2h46
		c0.3-1.5-1-5-1-5h-44C246.3,137.2,244.3,139.4,245.3,142.2"/>
	
		<polygon fill="#FFFFFF" stroke="#000000" stroke-width="2" stroke-linecap="round" stroke-linejoin="round" stroke-miterlimit="10" points="
		243.3,193.9 249.2,192.6 248.3,177.2 242.3,177.2 	"/>
	<path fill="none" stroke="#000000" stroke-width="2" stroke-linecap="round" stroke-linejoin="round" stroke-miterlimit="10" d="
		M243.3,182.2c0,0.3,3.1-0.3,3.1-0.3l-0.2-4.7"/>
	<polygon stroke="#000000" stroke-width="2" stroke-linecap="round" stroke-linejoin="round" stroke-miterlimit="10" points="
		247.3,275.2 257.3,275.2 255.1,301.1 237.6,302.4 248.1,295.5 	"/>
	
		<path fill="#FFFFFF" stroke="#000000" stroke-width="2" stroke-linecap="round" stroke-linejoin="round" stroke-miterlimit="10" d="
		M250,275.2l-0.9-3.7c-0.2-0.8-0.9-1.3-1.7-1.3l0,0c-1.4,0-2.2,1.5-1.5,2.7l1.4,2.3H250z"/>
	
		<polygon fill="#FFFFFF" stroke="#000000" stroke-width="2" stroke-linecap="round" stroke-linejoin="round" stroke-miterlimit="10" points="
		293.6,193.9 287.6,192.6 288.6,177.2 294.6,177.2 	"/>
	<path fill="none" stroke="#000000" stroke-width="2" stroke-linecap="round" stroke-linejoin="round" stroke-miterlimit="10" d="
		M293.6,182.2c0,0.3-3.1-0.3-3.1-0.3l0.2-4.7"/>
	<polygon stroke="#000000" stroke-width="2" stroke-linecap="round" stroke-linejoin="round" stroke-miterlimit="10" points="
		289.6,275.2 279.6,275.2 281.7,301.1 299.3,302.4 288.7,295.5 	"/>
	
		<path fill="#FFFFFF" stroke="#000000" stroke-width="2" stroke-linecap="round" stroke-linejoin="round" stroke-miterlimit="10" d="
		M286.8,275.2l0.9-3.7c0.2-0.8,0.9-1.3,1.7-1.3l0,0c1.4,0,2.2,1.5,1.5,2.7l-1.4,2.3H286.8z"/>
	<path fill="none" stroke="#2E3192" stroke-width="2" stroke-linecap="round" stroke-linejoin="round" stroke-miterlimit="10" d="
		M284.4,290.2"/>
	
		<line fill="none" stroke="#231F20" stroke-width="2" stroke-linejoin="round" stroke-miterlimit="10" x1="254.1" y1="137.2" x2="253.8" y2="142.2"/>
	
		<line fill="none" stroke="#231F20" stroke-width="2" stroke-linejoin="round" stroke-miterlimit="10" x1="281.8" y1="137.2" x2="282.1" y2="142.2"/>
	<polyline fill="none" stroke="#231F20" stroke-width="2" stroke-linejoin="round" stroke-miterlimit="10" points="268.3,96.2 
		268.3,137.2 268.3,142.2 	"/>
	
		<line fill="none" stroke="#000000" stroke-width="2" stroke-linecap="round" stroke-linejoin="round" stroke-miterlimit="10" x1="268.3" y1="142.2" x2="268.3" y2="160.2"/>
	
		<line fill="none" stroke="#FFFFFF" stroke-linecap="round" stroke-linejoin="round" stroke-miterlimit="10" x1="288.3" y1="277.7" x2="292.3" y2="277.7"/>
	
		<line fill="none" stroke="#FFFFFF" stroke-linecap="round" stroke-linejoin="round" stroke-miterlimit="10" x1="288.3" y1="281.7" x2="292.3" y2="281.7"/>
	
		<line fill="none" stroke="#FFFFFF" stroke-linecap="round" stroke-linejoin="round" stroke-miterlimit="10" x1="288.3" y1="285.7" x2="292.3" y2="285.7"/>
	
		<line fill="none" stroke="#FFFFFF" stroke-linecap="round" stroke-linejoin="round" stroke-miterlimit="10" x1="288.3" y1="289.7" x2="292.3" y2="289.7"/>
	
		<line fill="none" stroke="#FFFFFF" stroke-linecap="round" stroke-linejoin="round" stroke-miterlimit="10" x1="288.3" y1="293.7" x2="292.3" y2="293.7"/>
	
		<line fill="none" stroke="#FFFFFF" stroke-linecap="round" stroke-linejoin="round" stroke-miterlimit="10" x1="244.3" y1="277.7" x2="248.3" y2="277.7"/>
	
		<line fill="none" stroke="#FFFFFF" stroke-linecap="round" stroke-linejoin="round" stroke-miterlimit="10" x1="244.3" y1="281.7" x2="248.3" y2="281.7"/>
	
		<line fill="none" stroke="#FFFFFF" stroke-linecap="round" stroke-linejoin="round" stroke-miterlimit="10" x1="244.3" y1="285.7" x2="248.3" y2="285.7"/>
	
		<line fill="none" stroke="#FFFFFF" stroke-linecap="round" stroke-linejoin="round" stroke-miterlimit="10" x1="244.3" y1="289.7" x2="248.3" y2="289.7"/>
	
		<line fill="none" stroke="#FFFFFF" stroke-linecap="round" stroke-linejoin="round" stroke-miterlimit="10" x1="244.3" y1="293.7" x2="248.3" y2="293.7"/>
	<polyline points="301.3,105.2 294.3,105.2 294.6,107.2 301.3,107.2 	"/>
	<polyline points="302.3,108.2 296.3,108.2 296.5,110.2 302.3,110.2 	"/>
	
		<polyline fill="none" stroke="#231F20" stroke-width="2" stroke-linecap="round" stroke-linejoin="round" stroke-miterlimit="10" points="
		268,96.2 262,87.5 257.3,79.6 252.1,82.5 259.2,90.1 268,96.2 	"/>
	<path d="M277.4,81.5"/>
	
		<path fill="#FFFFFF" stroke="#000000" stroke-width="2" stroke-linecap="round" stroke-linejoin="round" stroke-miterlimit="10" d="
		M374.3,139.2c0,0-2.1,19.2-1.7,25.7c0.4,6.5,3.7,110.3,3.7,110.3h10l9.5-115h2.5"/>
	<path fill="none" stroke="#231F20" stroke-width="2" stroke-linecap="round" stroke-miterlimit="10" d="M416.7,83.6l5.1,2.1
		c3.6,1.5,6.2,4.7,6.8,8.4l0.8,5.5l0.5,3l0.2,1.6l2.8,18c0.2,1,0.1,2.1-0.1,3.1l-11.7,30.7c-0.6,2.7-3.1,4.5-6,4.4l0,0
		c-1.8-0.1-3.1-1.7-2.8-3.4l0.8-4.1c0.2-1.1,1.9-1.7,2.9-1.9c0.4-0.1,0.7-0.5,0.8-0.9l6.1-24.7c0.2-1.1,0.1-2.2-0.1-3.2l-5.4-15.2"
		/>
	
		<path fill="#FFFFFF" stroke="#000000" stroke-width="2" stroke-linecap="round" stroke-linejoin="round" stroke-miterlimit="10" d="
		M420.4,139.2c0,0,2.1,19.2,1.8,25.7c-0.4,6.5-3.6,110.3-3.6,110.3h-10l-9.5-115h-2.8"/>
	<path fill="#FFFFFF" stroke="#231F20" stroke-width="2" stroke-linecap="round" stroke-miterlimit="10" d="M422,131.1
		c3.1-1.1,9.2,0,9.2,0s2.7-1.4,0.9-5.2c0,0-6.1-1.1-9.2,0L422,131.1z"/>
	<path fill="none" stroke="#231F20" stroke-width="2" stroke-linecap="round" stroke-miterlimit="10" d="M427.5,128.2
		c2.4,0.1,4.6,0.5,4.6,0.5"/>
	<path fill="none" stroke="#000000" stroke-width="2" stroke-linecap="round" stroke-miterlimit="10" d="M415.8,98.7L415.8,98.7
		c-0.7,2.2-0.3,4.6,0.9,6.5l0.2,0.3c1.3,2,1.7,4.6,0.8,6.8l-2.6,7.4c0,0,0,0,0,0c-0.4,1.3-0.4,2.6-0.1,3.9c0,0,4.7,12.6,5.6,17"/>
	
		<polyline fill="none" stroke="#231F20" stroke-width="2" stroke-linecap="round" stroke-linejoin="round" stroke-miterlimit="10" points="
		397.7,96.2 403.6,87.5 408.4,79.6 413.5,82.5 406.4,90.1 397.7,96.2 	"/>
	<path fill="#FFFFFF" stroke="#231F20" stroke-width="2" stroke-linejoin="round" stroke-miterlimit="10" d="M374.3,142.2h46
		c0.3-1.5-1-5-1-5h-44C375.3,137.2,373.3,139.4,374.3,142.2"/>
	
		<polygon fill="#FFFFFF" stroke="#000000" stroke-width="2" stroke-linecap="round" stroke-linejoin="round" stroke-miterlimit="10" points="
		372.3,193.9 378.2,192.6 377.3,177.2 371.3,177.2 	"/>
	<path fill="none" stroke="#000000" stroke-width="2" stroke-linecap="round" stroke-linejoin="round" stroke-miterlimit="10" d="
		M372.3,182.2c0,0.3,3.1-0.3,3.1-0.3l-0.2-4.7"/>
	<polygon stroke="#000000" stroke-width="2" stroke-linecap="round" stroke-linejoin="round" stroke-miterlimit="10" points="
		376.3,275.2 386.3,275.2 384.1,301.1 366.6,302.4 377.1,295.5 	"/>
	
		<path fill="#FFFFFF" stroke="#000000" stroke-width="2" stroke-linecap="round" stroke-linejoin="round" stroke-miterlimit="10" d="
		M379,275.2l-0.9-3.7c-0.2-0.8-0.9-1.3-1.7-1.3l0,0c-1.4,0-2.2,1.5-1.5,2.7l1.4,2.3H379z"/>
	
		<polygon fill="#FFFFFF" stroke="#000000" stroke-width="2" stroke-linecap="round" stroke-linejoin="round" stroke-miterlimit="10" points="
		422.6,193.9 416.6,192.6 417.6,177.2 423.6,177.2 	"/>
	<path fill="none" stroke="#000000" stroke-width="2" stroke-linecap="round" stroke-linejoin="round" stroke-miterlimit="10" d="
		M422.6,182.2c0,0.3-3.1-0.3-3.1-0.3l0.2-4.7"/>
	<polygon stroke="#000000" stroke-width="2" stroke-linecap="round" stroke-linejoin="round" stroke-miterlimit="10" points="
		418.6,275.2 408.6,275.2 410.7,301.1 428.3,302.4 417.7,295.5 	"/>
	
		<path fill="#FFFFFF" stroke="#000000" stroke-width="2" stroke-linecap="round" stroke-linejoin="round" stroke-miterlimit="10" d="
		M415.8,275.2l0.9-3.7c0.2-0.8,0.9-1.3,1.7-1.3l0,0c1.4,0,2.2,1.5,1.5,2.7l-1.4,2.3H415.8z"/>
	<path fill="none" stroke="#2E3192" stroke-width="2" stroke-linecap="round" stroke-linejoin="round" stroke-miterlimit="10" d="
		M413.4,290.2"/>
	
		<line fill="none" stroke="#231F20" stroke-width="2" stroke-linejoin="round" stroke-miterlimit="10" x1="383.1" y1="137.2" x2="382.8" y2="142.2"/>
	
		<line fill="none" stroke="#231F20" stroke-width="2" stroke-linejoin="round" stroke-miterlimit="10" x1="410.8" y1="137.2" x2="411.1" y2="142.2"/>
	<polyline fill="none" stroke="#231F20" stroke-width="2" stroke-linejoin="round" stroke-miterlimit="10" points="397.3,96.2 
		397.3,137.2 397.3,142.2 	"/>
	
		<line fill="none" stroke="#000000" stroke-width="2" stroke-linecap="round" stroke-linejoin="round" stroke-miterlimit="10" x1="397.3" y1="142.2" x2="397.3" y2="160.2"/>
	
		<line fill="none" stroke="#FFFFFF" stroke-linecap="round" stroke-linejoin="round" stroke-miterlimit="10" x1="417.3" y1="277.7" x2="421.3" y2="277.7"/>
	
		<line fill="none" stroke="#FFFFFF" stroke-linecap="round" stroke-linejoin="round" stroke-miterlimit="10" x1="417.3" y1="281.7" x2="421.3" y2="281.7"/>
	
		<line fill="none" stroke="#FFFFFF" stroke-linecap="round" stroke-linejoin="round" stroke-miterlimit="10" x1="417.3" y1="285.7" x2="421.3" y2="285.7"/>
	
		<line fill="none" stroke="#FFFFFF" stroke-linecap="round" stroke-linejoin="round" stroke-miterlimit="10" x1="417.3" y1="289.7" x2="421.3" y2="289.7"/>
	
		<line fill="none" stroke="#FFFFFF" stroke-linecap="round" stroke-linejoin="round" stroke-miterlimit="10" x1="417.3" y1="293.7" x2="421.3" y2="293.7"/>
	
		<line fill="none" stroke="#FFFFFF" stroke-linecap="round" stroke-linejoin="round" stroke-miterlimit="10" x1="373.3" y1="277.7" x2="377.3" y2="277.7"/>
	
		<line fill="none" stroke="#FFFFFF" stroke-linecap="round" stroke-linejoin="round" stroke-miterlimit="10" x1="373.3" y1="281.7" x2="377.3" y2="281.7"/>
	
		<line fill="none" stroke="#FFFFFF" stroke-linecap="round" stroke-linejoin="round" stroke-miterlimit="10" x1="373.3" y1="285.7" x2="377.3" y2="285.7"/>
	
		<line fill="none" stroke="#FFFFFF" stroke-linecap="round" stroke-linejoin="round" stroke-miterlimit="10" x1="373.3" y1="289.7" x2="377.3" y2="289.7"/>
	
		<line fill="none" stroke="#FFFFFF" stroke-linecap="round" stroke-linejoin="round" stroke-miterlimit="10" x1="373.3" y1="293.7" x2="377.3" y2="293.7"/>
	<polyline points="430.3,105.2 423.3,105.2 423.6,107.2 430.3,107.2 	"/>
	<polyline points="431.3,108.2 425.3,108.2 425.5,110.2 431.3,110.2 	"/>
	
		<polyline fill="none" stroke="#231F20" stroke-width="2" stroke-linecap="round" stroke-linejoin="round" stroke-miterlimit="10" points="
		397,96.2 391,87.5 386.3,79.6 381.1,82.5 388.2,90.1 397,96.2 	"/>
	<path d="M406.4,81.5"/>
	<circle fill="#231F20" cx="402.8" cy="56.7" r="1.7"/>
	
		<line fill="none" stroke="#231F20" stroke-width="2" stroke-linecap="round" stroke-linejoin="round" stroke-miterlimit="10" x1="393.5" y1="63.2" x2="397.5" y2="63.2"/>
	<path fill="none" stroke="#231F20" stroke-width="2" stroke-linecap="round" stroke-linejoin="round" stroke-miterlimit="10" d="
		M400.3,70.9l-1.4,0.7c-2.1,1-4.6,1-6.8,0l-1.3-0.6"/>
	<path fill="none" stroke="#231F20" stroke-width="2" stroke-linecap="round" stroke-linejoin="round" stroke-miterlimit="10" d="
		M396.3,35.6c0,0-5.3,7.7-13.8,9"/>
	<path fill="none" stroke="#231F20" stroke-width="2" stroke-linecap="round" stroke-linejoin="round" stroke-miterlimit="10" d="
		M265.1,31.2L265.1,31.2c-6.9,0-12.4,5.6-12.4,12.4v20.2c0,8.4,6.8,15.2,15.2,15.2h0c8.4,0,15.2-6.8,15.2-15.2V38.3
		c0-5-3.4-9.4-8.2-10.6v0c0,0-21.1-4.9-21.3,10.7"/>
	<path fill="none" stroke="#231F20" stroke-width="2" stroke-linecap="round" stroke-linejoin="round" stroke-miterlimit="10" d="
		M271.4,24.9"/>
	<path fill="none" stroke="#231F20" stroke-width="2" stroke-linecap="round" stroke-linejoin="round" stroke-miterlimit="10" d="
		M273.1,34.4c0,0-4.8,4.3-12.6,6c-3.2,0.7-4.6,1.3-6.9,2"/>
	<path fill="none" stroke="#231F20" stroke-width="2" stroke-linecap="round" stroke-linejoin="round" stroke-miterlimit="10" d="
		M252.8,48.2c0.7-0.1,0.7-0.1,1.5-0.2c11-0.9,25.5-6.4,24.4-10.5c-0.7-2.7-0.5,3,4,9.5"/>
	
		<line fill="none" stroke="#231F20" stroke-width="1.6509" stroke-linecap="round" stroke-linejoin="round" stroke-miterlimit="10" x1="264.7" y1="64.7" x2="267.4" y2="64.7"/>
	
		<path fill="none" stroke="#231F20" stroke-width="1.6757" stroke-linecap="round" stroke-linejoin="round" stroke-miterlimit="10" d="
		M270.8,70.1l-1.4,0.5c-2.1,0.7-4.6,0.7-6.8,0l-1.3-0.4"/>
	
		<rect x="265.5" y="24.9" fill="#231F20" stroke="#231F20" stroke-width="2" stroke-linecap="round" stroke-linejoin="round" stroke-miterlimit="10" width="6.7" height="2.3"/>
	<path fill="none" stroke="#231F20" stroke-width="2" stroke-linecap="round" stroke-linejoin="round" stroke-miterlimit="10" d="
		M260,28.1l-2-3.9c-1.1-2.1-1-4.7,0.3-6.7v0c1.3-2.1,3.5-3.4,6-3.4h5.6"/>
	<path fill="none" stroke="#231F20" stroke-width="2" stroke-linecap="round" stroke-linejoin="round" stroke-miterlimit="10" d="
		M276.8,28.1l2-3.9c1.1-2.1,1-4.7-0.3-6.7l0,0c-1.3-2.1-3.5-3.4-6-3.4H267"/>
	<path fill="none" stroke="#231F20" stroke-width="2" stroke-linecap="round" stroke-linejoin="round" stroke-miterlimit="10" d="
		M282.6,67.2c0,0,0.8,3.5,5.8,6.3c0,0-4.6,1.7-8.8,0"/>
	<path fill="#231F20" d="M261.3,57.7c0,1.1-0.9,2-2,2s-2-0.9-2-2c0-0.5,0.2-1,0.6-1.4c0.4-0.4,0.9-0.6,1.4-0.6c0.4,0,0.7,0.1,1,0.3
		c0.3,0.2,0.5,0.4,0.7,0.7C261.2,57,261.3,57.4,261.3,57.7z"/>
	<path fill="#231F20" stroke="#231F20" stroke-width="0.25" stroke-miterlimit="10" d="M262.3,58.3l-4.1-1.9
		C258.2,56.4,260.5,54.4,262.3,58.3z"/>
	<path fill="#231F20" d="M277.3,57.7c0,1.1-0.9,2-2,2s-2-0.9-2-2c0-0.5,0.2-1,0.6-1.4c0.4-0.4,0.9-0.6,1.4-0.6c0.4,0,0.7,0.1,1,0.3
		c0.3,0.2,0.5,0.4,0.7,0.7C277.2,57,277.3,57.4,277.3,57.7z"/>
	<path fill="#231F20" stroke="#231F20" stroke-width="0.25" stroke-miterlimit="10" d="M278.3,58.3l-4.1-1.9
		C274.2,56.4,276.5,54.4,278.3,58.3z"/>
	<path fill="none" stroke="#231F20" stroke-width="2" stroke-linecap="round" stroke-linejoin="round" stroke-miterlimit="10" d="
		M382.3,49.4c0.6-0.1,0.7-0.1,1.4-0.2c10.8-0.9,21.3-6.4,21.8-10.2c0.3-2.7,1.5,2.9,5.9,9.3"/>
	<path fill="none" stroke="#231F20" stroke-width="2" stroke-miterlimit="10" d="M398.7,51.7h11.2v5.9c0,1.2-1,2.1-2.1,2.1h-3.8
		c-2.9,0-5.2-2.3-5.2-5.2V51.7z"/>
	<circle fill="#231F20" cx="386.5" cy="56.7" r="1.7"/>
	<path fill="none" stroke="#231F20" stroke-width="2" stroke-miterlimit="10" d="M394.6,51.7h-11.2v5.9c0,1.2,1,2.1,2.1,2.1h3.8
		c2.9,0,5.2-2.3,5.2-5.2V51.7z"/>
	<line fill="none" stroke="#231F20" stroke-miterlimit="10" x1="395.3" y1="54.7" x2="398.3" y2="54.7"/>
	<rect x="392" y="50.7" fill="#231F20" width="12.8" height="1.9"/>
	
		<path fill="#FFFFFF" stroke="#231F20" stroke-width="2" stroke-linecap="round" stroke-linejoin="round" stroke-miterlimit="10" d="
		M249.8,98.7L249.8,98.7c-8.5-1.6-41.3-17.9-41.3-17.9c-1.6-0.9-1.9-3-0.7-4.3l32.9-27c0,0,0.8-5,2.8-7c1-1,4.7-1.5,8.4-1.3
		c2.3,0.1,3.8,2.3,3.1,4.5v0c-0.5,1.4-1.7,2.4-3.2,2.4l-4.3,0.1L248,49c1.1,2-5,3.1-6.7,4.6"/>
	
		<line fill="#FFFFFF" stroke="#231F20" stroke-width="2" stroke-linecap="round" stroke-linejoin="round" stroke-miterlimit="10" x1="245" y1="51.8" x2="222.9" y2="77.2"/>
	
		<path fill="#FFFFFF" stroke="#231F20" stroke-width="2" stroke-linecap="round" stroke-linejoin="round" stroke-miterlimit="10" d="
		M221.1,65.7l8.2,5l-3.7,3.8l-11.4-5.6C214.2,68.9,214.7,61.6,221.1,65.7z"/>
	
		<line fill="none" stroke="#231F20" stroke-width="2" stroke-linecap="round" stroke-linejoin="round" stroke-miterlimit="10" x1="215.7" y1="66.2" x2="218.8" y2="68"/>
	<path fill="none" stroke="#231F20" stroke-width="2" stroke-linecap="round" stroke-miterlimit="10" d="M225.3,77.2
		c0,0,14.5,6.5,23,6.5l0,0"/>
	<path fill="none" stroke="#000000" stroke-width="2" stroke-linecap="round" stroke-miterlimit="10" d="M245,140.7
		c0.9-4.4,5.6-17,5.6-17c0.3-1.3,0.3-2.7-0.1-3.9c0,0,0,0,0,0l-2.6-7.4c-0.8-2.3-0.5-4.8,0.8-6.8l0.2-0.3c1.3-1.9,1.6-4.3,0.9-6.5
		l0,0c0,0-0.8-2.2-1.9-4.2"/>
	<polyline points="239.4,82.3 237.9,89.2 236,88.5 237.5,81.8 	"/>
	<polyline points="236.7,80.7 235.4,86.7 233.5,86 234.7,80.2 	"/>
	
		<path fill="#FFFFFF" stroke="#231F20" stroke-width="2" stroke-linecap="round" stroke-linejoin="round" stroke-miterlimit="10" d="
		M124.8,98.7L124.8,98.7c-8.5-1.6-41.3-17.9-41.3-17.9c-1.6-0.9-1.9-3-0.7-4.3l32.9-27c0,0,0.8-5,2.8-7c1-1,4.7-1.5,8.4-1.3
		c2.3,0.1,3.8,2.3,3.1,4.5v0c-0.5,1.4-1.7,2.4-3.2,2.4l-4.3,0.1L123,49c1.1,2-5,3.1-6.7,4.6"/>
	
		<line fill="#FFFFFF" stroke="#231F20" stroke-width="2" stroke-linecap="round" stroke-linejoin="round" stroke-miterlimit="10" x1="120" y1="51.8" x2="97.9" y2="77.2"/>
	
		<path fill="#FFFFFF" stroke="#231F20" stroke-width="2" stroke-linecap="round" stroke-linejoin="round" stroke-miterlimit="10" d="
		M96.1,65.7l8.2,5l-3.7,3.8l-11.4-5.6C89.2,68.9,89.7,61.6,96.1,65.7z"/>
	
		<line fill="none" stroke="#231F20" stroke-width="2" stroke-linecap="round" stroke-linejoin="round" stroke-miterlimit="10" x1="90.7" y1="66.2" x2="93.8" y2="68"/>
	<path fill="none" stroke="#231F20" stroke-width="2" stroke-linecap="round" stroke-miterlimit="10" d="M100.3,77.2
		c0,0,14.5,6.5,23,6.5h0"/>
	<path fill="none" stroke="#000000" stroke-width="2" stroke-linecap="round" stroke-miterlimit="10" d="M120,140.7
		c0.9-4.4,5.6-17,5.6-17c0.3-1.3,0.3-2.7-0.1-3.9c0,0,0,0,0,0l-2.6-7.4c-0.8-2.3-0.5-4.8,0.8-6.8l0.2-0.3c1.3-1.9,1.6-4.3,0.9-6.5
		l0,0c0,0-0.8-2.2-1.9-4.2"/>
	<polyline points="114.4,82.3 112.9,89.2 111,88.5 112.5,81.8 	"/>
	<polyline points="111.7,80.7 110.4,86.7 108.5,86 109.7,80.2 	"/>
	
		<path fill="#FFFFFF" stroke="#231F20" stroke-width="2" stroke-linecap="round" stroke-linejoin="round" stroke-miterlimit="10" d="
		M378.8,98.7L378.8,98.7c-8.5-1.6-41.3-17.9-41.3-17.9c-1.6-0.9-1.9-3-0.7-4.3l32.9-27c0,0,0.8-5,2.8-7c1-1,4.7-1.5,8.4-1.3
		c2.3,0.1,3.8,2.3,3.1,4.5v0c-0.5,1.4-1.7,2.4-3.2,2.4l-4.3,0.1L377,49c1.1,2-5,3.1-6.7,4.6"/>
	
		<line fill="#FFFFFF" stroke="#231F20" stroke-width="2" stroke-linecap="round" stroke-linejoin="round" stroke-miterlimit="10" x1="374" y1="51.8" x2="351.9" y2="77.2"/>
	
		<path fill="#FFFFFF" stroke="#231F20" stroke-width="2" stroke-linecap="round" stroke-linejoin="round" stroke-miterlimit="10" d="
		M350.1,65.7l8.2,5l-3.7,3.8l-11.4-5.6C343.2,68.9,343.7,61.6,350.1,65.7z"/>
	
		<line fill="none" stroke="#231F20" stroke-width="2" stroke-linecap="round" stroke-linejoin="round" stroke-miterlimit="10" x1="344.7" y1="66.2" x2="347.8" y2="68"/>
	<path fill="none" stroke="#231F20" stroke-width="2" stroke-linecap="round" stroke-miterlimit="10" d="M354.3,77.2
		c0,0,14.5,6.5,23,6.5l0,0"/>
	<path fill="none" stroke="#000000" stroke-width="2" stroke-linecap="round" stroke-miterlimit="10" d="M374,140.7
		c0.9-4.4,5.6-17,5.6-17c0.3-1.3,0.3-2.7-0.1-3.9c0,0,0,0,0,0l-2.6-7.4c-0.8-2.3-0.5-4.8,0.8-6.8l0.2-0.3c1.3-1.9,1.6-4.3,0.9-6.5
		l0,0c0,0-0.8-2.2-1.9-4.2"/>
	<polyline points="368.4,82.3 366.9,89.2 365,88.5 366.5,81.8 	"/>
	<polyline points="365.7,80.7 364.4,86.7 362.5,86 363.7,80.2 	"/>
</g>
<g id="b">
	<path fill="none" stroke="#FFFFFF" stroke-width="2" stroke-miterlimit="10" d="M465.3,303.2"/>
	
		<line fill="none" stroke="#FFFFFF" stroke-width="2" stroke-linecap="round" stroke-linejoin="round" stroke-miterlimit="10" x1="465.3" y1="303.2" x2="927.3" y2="303.2"/>
</g>
<g id="g_x5F_bg">
</g>
<g id="b_x5F_bg">
</g>
</svg>
