<?xml version="1.0" encoding="utf-8"?>
<!-- Generator: Adobe Illustrator 18.1.1, SVG Export Plug-In . SVG Version: 6.00 Build 0)  -->
<svg version="1.1" xmlns="http://www.w3.org/2000/svg" xmlns:xlink="http://www.w3.org/1999/xlink" x="0px" y="0px"
	 viewBox="0 0 726 350" enable-background="new 0 0 726 350" xml:space="preserve">
<g id="g">
</g>
<g id="b">
</g>
<g id="g_x5F_bg">
	
		<rect x="494.6" y="39.8" fill="#FFFFFF" stroke="#231F20" stroke-width="2.3734" stroke-linecap="round" stroke-linejoin="round" stroke-miterlimit="10" width="10.3" height="4.5"/>
	
		<path fill="#FFFFFF" stroke="#231F20" stroke-width="2.3734" stroke-linecap="round" stroke-linejoin="round" stroke-miterlimit="10" d="
		M494.1,43.8l-2.1,3.8c-2.5,4.5-3.7,9.7-3.3,14.9v0c0.2,2.7,0.8,5.3,1.8,7.8l4.4,11.2c1.2,3.2-1.1,6.6-4.5,6.6l0,0l2.1,1.7
		c1.4,1.2,3.2,2,5,2.4l0,0c5.9,0,8.3-4.4,10.1-10l4.2-13.3c0.7-2.3,1.1-4.6,1.1-7v0c0-5.4-1.9-10.6-5.3-14.7l-2.6-3.1L494.1,43.8z"
		/>
	
		<line fill="none" stroke="#000000" stroke-width="2" stroke-linejoin="round" stroke-miterlimit="10" x1="726" y1="334" x2="6" y2="334"/>
	
		<path fill="#FFFFFF" stroke="#000000" stroke-width="2" stroke-linecap="round" stroke-linejoin="round" stroke-miterlimit="10" d="
		M471.4,140.2c0,0-2.5,23-2.1,30.7c0.4,7.7,4.3,131.1,4.3,131.1h11.9l11.3-137h3.2"/>
	
		<path fill="#FFFFFF" stroke="#000000" stroke-width="2" stroke-linecap="round" stroke-linejoin="round" stroke-miterlimit="10" d="
		M525.9,140.2c0,0,2.6,23,2.2,30.7c-0.4,7.7-4.2,131.1-4.2,131.1H512l-11.3-137H497"/>
	
		<polyline fill="none" stroke="#231F20" stroke-width="2.3734" stroke-linecap="round" stroke-linejoin="round" stroke-miterlimit="10" points="
		498.3,81.9 491.7,78.9 486,69.6 479.9,73 488.4,82 498.3,81.9 	"/>
	<path fill="#FFFFFF" stroke="#231F20" stroke-width="2" stroke-linejoin="round" stroke-miterlimit="10" d="M471,144h54.9
		c0.4-2-1.2-6-1.2-6h-52.2c0,0-2.4,3-1.2,6"/>
	
		<polygon fill="#FFFFFF" stroke="#000000" stroke-width="2" stroke-linecap="round" stroke-linejoin="round" stroke-miterlimit="10" points="
		469,205 476,203.3 474.9,185 467.8,185 	"/>
	
		<path fill="none" stroke="#000000" stroke-width="2.3734" stroke-linecap="round" stroke-linejoin="round" stroke-miterlimit="10" d="
		M469,191.3c0,0.4,3.7-0.4,3.7-0.4l-0.2-5.5"/>
	<polygon stroke="#000000" stroke-width="2" stroke-linecap="round" stroke-linejoin="round" stroke-miterlimit="10" points="
		473.7,302 485.6,302 483,332.6 462.2,334.1 474.7,326 	"/>
	
		<path fill="#FFFFFF" stroke="#000000" stroke-width="2.3734" stroke-linecap="round" stroke-linejoin="round" stroke-miterlimit="10" d="
		M477,301.7l-1.1-4.3c-0.2-0.9-1.1-1.6-2-1.6l0,0c-1.6,0-2.6,1.8-1.8,3.2l1.7,2.8H477z"/>
	
		<polygon fill="#FFFFFF" stroke="#000000" stroke-width="2" stroke-linecap="round" stroke-linejoin="round" stroke-miterlimit="10" points="
		528.6,205 521.6,203.3 522.7,185 529.8,185 	"/>
	
		<path fill="none" stroke="#000000" stroke-width="2.3734" stroke-linecap="round" stroke-linejoin="round" stroke-miterlimit="10" d="
		M528.6,191.3c0,0.4-3.7-0.4-3.7-0.4l0.2-5.5"/>
	<polygon stroke="#000000" stroke-width="2" stroke-linecap="round" stroke-linejoin="round" stroke-miterlimit="10" points="
		523.9,302 512,302 514.6,332.6 535.4,334.1 522.8,326 	"/>
	
		<path fill="#FFFFFF" stroke="#000000" stroke-width="2.3734" stroke-linecap="round" stroke-linejoin="round" stroke-miterlimit="10" d="
		M520.6,301.7l1.1-4.3c0.2-0.9,1.1-1.6,2-1.6l0,0c1.6,0,2.6,1.8,1.8,3.2l-1.7,2.8H520.6z"/>
	
		<path fill="none" stroke="#2E3192" stroke-width="2.3734" stroke-linecap="round" stroke-linejoin="round" stroke-miterlimit="10" d="
		M517.8,319.5"/>
	
		<line fill="none" stroke="#231F20" stroke-width="2.3734" stroke-linejoin="round" stroke-miterlimit="10" x1="481.8" y1="138" x2="481.4" y2="143.9"/>
	
		<line fill="none" stroke="#231F20" stroke-width="2.3734" stroke-linejoin="round" stroke-miterlimit="10" x1="514.6" y1="138" x2="515" y2="143.9"/>
	
		<line fill="none" stroke="#FFFFFF" stroke-linecap="round" stroke-linejoin="round" stroke-miterlimit="10" x1="522" y1="304.5" x2="527" y2="304.5"/>
	
		<line fill="none" stroke="#FFFFFF" stroke-linecap="round" stroke-linejoin="round" stroke-miterlimit="10" x1="522" y1="309.5" x2="527" y2="309.5"/>
	
		<line fill="none" stroke="#FFFFFF" stroke-linecap="round" stroke-linejoin="round" stroke-miterlimit="10" x1="522" y1="314.5" x2="527" y2="314.5"/>
	
		<line fill="none" stroke="#FFFFFF" stroke-linecap="round" stroke-linejoin="round" stroke-miterlimit="10" x1="522" y1="318.5" x2="527" y2="318.5"/>
	
		<line fill="none" stroke="#FFFFFF" stroke-linecap="round" stroke-linejoin="round" stroke-miterlimit="10" x1="522" y1="323.5" x2="527" y2="323.5"/>
	
		<line fill="none" stroke="#FFFFFF" stroke-linecap="round" stroke-linejoin="round" stroke-miterlimit="10" x1="470" y1="304.5" x2="475" y2="304.5"/>
	
		<line fill="none" stroke="#FFFFFF" stroke-linecap="round" stroke-linejoin="round" stroke-miterlimit="10" x1="470" y1="309.5" x2="475" y2="309.5"/>
	
		<line fill="none" stroke="#FFFFFF" stroke-linecap="round" stroke-linejoin="round" stroke-miterlimit="10" x1="470" y1="314.5" x2="475" y2="314.5"/>
	
		<line fill="none" stroke="#FFFFFF" stroke-linecap="round" stroke-linejoin="round" stroke-miterlimit="10" x1="470" y1="318.5" x2="475" y2="318.5"/>
	
		<line fill="none" stroke="#FFFFFF" stroke-linecap="round" stroke-linejoin="round" stroke-miterlimit="10" x1="470" y1="323.5" x2="475" y2="323.5"/>
	
		<polyline fill="none" stroke="#231F20" stroke-width="2.3734" stroke-linecap="round" stroke-linejoin="round" stroke-miterlimit="10" points="
		499.1,81.9 506.6,78.9 512.2,69.6 518.3,73 509.9,82 499.1,81.9 	"/>
	<path d="M488.4,71.8"/>
	
		<path fill="#FFFFFF" stroke="#231F20" stroke-width="2.3734" stroke-linecap="round" stroke-linejoin="round" stroke-miterlimit="10" d="
		M521.1,92.2L521.1,92.2c10.1-1.9,49.1-21.3,49.1-21.3c1.9-1,2.2-3.5,0.8-5l-39.1-32c0,0-0.9-5.9-3.3-8.3c-1.2-1.2-5.6-1.8-9.9-1.6
		c-2.7,0.1-4.5,2.8-3.7,5.3v0c0.5,1.7,2.1,2.8,3.8,2.8l5.1,0.1l-0.5,0.9c-1.3,2.4,5.9,3.6,7.9,5.5"/>
	
		<line fill="#FFFFFF" stroke="#231F20" stroke-width="2.3734" stroke-linecap="round" stroke-linejoin="round" stroke-miterlimit="10" x1="526.8" y1="36.5" x2="553" y2="66.8"/>
	
		<path fill="#FFFFFF" stroke="#231F20" stroke-width="2.3734" stroke-linecap="round" stroke-linejoin="round" stroke-miterlimit="10" d="
		M555.2,53.1l-9.7,5.9l4.4,4.5l13.5-6.7C563.4,56.9,562.8,48.3,555.2,53.1z"/>
	
		<line fill="none" stroke="#231F20" stroke-width="2.3734" stroke-linecap="round" stroke-linejoin="round" stroke-miterlimit="10" x1="561.6" y1="53.7" x2="557.8" y2="55.8"/>
	<path fill="none" stroke="#231F20" stroke-width="2.3734" stroke-linecap="round" stroke-miterlimit="10" d="M550.2,66.8
		c0,0-17.2,7.7-27.3,7.7l0,0"/>
	<path fill="none" stroke="#000000" stroke-width="2.3734" stroke-linecap="round" stroke-miterlimit="10" d="M526.8,142.1
		c-1.1-5.2-6.7-20.2-6.7-20.2c-0.3-1.5-0.4-3.2,0.2-4.7c0,0,0,0,0,0l3.1-8.7c1-2.7,0.6-5.7-1-8.1l-0.2-0.4c-1.5-2.3-1.9-5.1-1.1-7.8
		v0"/>
	
		<path fill="#FFFFFF" stroke="#231F20" stroke-width="2.3734" stroke-linecap="round" stroke-linejoin="round" stroke-miterlimit="10" d="
		M503.8,8.6h-13c-3.6,0-6.9,2-8.7,5.2l-2.8,6.5c-1,2.3-3.7,3.3-5.9,2.2v0l1.7,5.8c0.7,2.4,2.9,4,5.4,4l0,0c1.6,0,3.1-0.7,4.2-1.9
		l0.2-0.2L503.8,8.6z"/>
	
		<path fill="#FFFFFF" stroke="#231F20" stroke-width="2.3734" stroke-linecap="round" stroke-linejoin="round" stroke-miterlimit="10" d="
		M482.3,27.1V51c0,9.7,7.9,17.5,17.5,17.5h0c9.7,0,17.5-7.9,17.5-17.5V27.6v-2.5c0-9.7-7.9-17.5-17.5-17.5h0
		c-9.7,0-17.5,7.9-17.5,17.5V27.1z"/>
	
		<path fill="none" stroke="#231F20" stroke-width="2.3734" stroke-linecap="round" stroke-linejoin="round" stroke-miterlimit="10" d="
		M502.3,25.7"/>
	<path fill="#FFFFFF" stroke="#231F20" stroke-width="2.3734" stroke-linecap="round" stroke-miterlimit="10" d="M475,74.3l-6.1,2.5
		c-4.3,1.8-7.4,5.5-8.1,9.9l-1,6.5l-0.5,3.5l-0.3,1.8l-3.3,21.4c-0.2,1.2-0.2,2.5,0.1,3.7l13.9,36.4c0.7,3.2,3.7,5.4,7.1,5.2l0,0
		c2.1-0.1,3.7-2,3.3-4l-1-4.9c-0.3-1.3-2.3-2-3.5-2.3c-0.5-0.1-0.9-0.5-1-1l-7.3-29.3c-0.2-1.3-0.1-2.6,0.2-3.8l9.3-24.1"/>
	<path fill="#FFFFFF" stroke="#231F20" stroke-width="2.3734" stroke-linecap="round" stroke-miterlimit="10" d="M468.7,130.7
		c-3.7-1.3-10.9,0-10.9,0s-3.2-1.7-1.1-6.2c0,0,7.2-1.3,10.9,0L468.7,130.7z"/>
	<path fill="none" stroke="#231F20" stroke-width="2.3734" stroke-linecap="round" stroke-miterlimit="10" d="M462.2,127.2
		c-2.9,0.1-5.4,0.6-5.4,0.6"/>
	<path fill="none" stroke="#000000" stroke-width="2.3734" stroke-linecap="round" stroke-miterlimit="10" d="M475.8,100.4
		c-0.7,1-1.1,2.1-1.3,3.2c-0.3,1.6-0.2,3.3,0.3,4.9l3.1,8.7c0,0,0,0,0,0c0.5,1.5,0.5,3.1,0.2,4.7c0,0-5.7,13.2-6.8,18.4"/>
	
		<polyline fill="none" stroke="#000000" stroke-width="2.3734" stroke-linecap="round" stroke-linejoin="round" stroke-miterlimit="10" points="
		465.4,79.8 469.9,86.2 482.3,81 	"/>
	<path fill="none" stroke="#000000" stroke-width="2" stroke-linecap="round" stroke-linejoin="round" stroke-miterlimit="10" d="
		M533,74v7c0,0-8.6,2.6-13.1,0.1"/>
	
		<line fill="none" stroke="#000000" stroke-width="2.3734" stroke-linecap="round" stroke-linejoin="round" stroke-miterlimit="10" x1="470.1" y1="80.4" x2="470.8" y2="81.5"/>
	
		<line fill="none" stroke="#000000" stroke-width="2.3734" stroke-linecap="round" stroke-linejoin="round" stroke-miterlimit="10" x1="530" y1="76.8" x2="529.7" y2="78"/>
</g>
<g id="b_x5F_bg">
</g>
</svg>
