<?xml version="1.0" encoding="utf-8"?>
<!-- Generator: Adobe Illustrator 18.1.1, SVG Export Plug-In . SVG Version: 6.00 Build 0)  -->
<svg version="1.1" xmlns="http://www.w3.org/2000/svg" xmlns:xlink="http://www.w3.org/1999/xlink" x="0px" y="0px"
	 viewBox="0 0 434.2 374.7" enable-background="new 0 0 434.2 374.7" xml:space="preserve">
<g id="b">
	<path fill="none" stroke="#FFFFFF" stroke-width="2" stroke-linecap="round" stroke-miterlimit="10" d="M158.9,106.5v-5.4
		c0-1.9,1.5-3.4,3.4-3.4l0,0c1.9,0,3.4,1.5,3.4,3.4v5.4"/>
	
		<circle fill="#231F20" stroke="#FFFFFF" stroke-width="2" stroke-linecap="round" stroke-miterlimit="10" cx="162.3" cy="109.9" r="5.8"/>
	<rect x="91.3" y="21.5" fill="none" stroke="#FFFFFF" stroke-width="2" stroke-miterlimit="10" width="80.9" height="152.6"/>
	
		<line fill="none" stroke="#FFFFFF" stroke-width="2" stroke-linecap="round" stroke-miterlimit="10" x1="109.2" y1="40.9" x2="137.6" y2="40.9"/>
	
		<line fill="none" stroke="#FFFFFF" stroke-width="2" stroke-linecap="round" stroke-miterlimit="10" x1="142.4" y1="40.9" x2="151.8" y2="40.9"/>
	
		<line fill="none" stroke="#FFFFFF" stroke-width="2" stroke-linecap="round" stroke-miterlimit="10" x1="109.2" y1="44.3" x2="137.6" y2="44.3"/>
	
		<line fill="none" stroke="#FFFFFF" stroke-width="2" stroke-linecap="round" stroke-miterlimit="10" x1="142.4" y1="44.3" x2="151.8" y2="44.3"/>
	
		<line fill="none" stroke="#FFFFFF" stroke-width="2" stroke-linecap="round" stroke-miterlimit="10" x1="109.2" y1="47.6" x2="137.6" y2="47.6"/>
	
		<line fill="none" stroke="#FFFFFF" stroke-width="2" stroke-linecap="round" stroke-miterlimit="10" x1="142.4" y1="47.6" x2="151.8" y2="47.6"/>
	
		<line fill="none" stroke="#FFFFFF" stroke-width="2" stroke-linecap="round" stroke-miterlimit="10" x1="109.2" y1="51" x2="137.6" y2="51"/>
	
		<line fill="none" stroke="#FFFFFF" stroke-width="2" stroke-linecap="round" stroke-miterlimit="10" x1="142.4" y1="51" x2="151.8" y2="51"/>
	
		<circle fill="none" stroke="#FFFFFF" stroke-width="2" stroke-linecap="round" stroke-miterlimit="10" cx="162.3" cy="109.9" r="3.4"/>
	<path fill="#FFFFFF" stroke="#FFFFFF" stroke-width="2" stroke-miterlimit="10" d="M161.4,82.7v17.4c0,0.6,0.5,1,1,1l0,0
		c0.6,0,1-0.5,1-1V82.7c0-0.6-0.5-1-1-1l0,0C161.8,81.7,161.4,82.2,161.4,82.7z"/>
	<path fill="none" stroke="#FFFFFF" stroke-width="2" stroke-linecap="round" stroke-miterlimit="10" d="M249.6,106.5v-5.4
		c0-1.9,1.5-3.4,3.4-3.4h0c1.9,0,3.4,1.5,3.4,3.4v5.4"/>
	
		<circle fill="#231F20" stroke="#FFFFFF" stroke-width="2" stroke-linecap="round" stroke-miterlimit="10" cx="253" cy="109.9" r="5.8"/>
	<rect x="182" y="21.5" fill="none" stroke="#FFFFFF" stroke-width="2" stroke-miterlimit="10" width="80.9" height="152.6"/>
	
		<line fill="none" stroke="#FFFFFF" stroke-width="2" stroke-linecap="round" stroke-miterlimit="10" x1="199.9" y1="40.9" x2="228.3" y2="40.9"/>
	
		<line fill="none" stroke="#FFFFFF" stroke-width="2" stroke-linecap="round" stroke-miterlimit="10" x1="233" y1="40.9" x2="242.5" y2="40.9"/>
	
		<line fill="none" stroke="#FFFFFF" stroke-width="2" stroke-linecap="round" stroke-miterlimit="10" x1="199.9" y1="44.3" x2="228.3" y2="44.3"/>
	
		<line fill="none" stroke="#FFFFFF" stroke-width="2" stroke-linecap="round" stroke-miterlimit="10" x1="233" y1="44.3" x2="242.5" y2="44.3"/>
	
		<line fill="none" stroke="#FFFFFF" stroke-width="2" stroke-linecap="round" stroke-miterlimit="10" x1="199.9" y1="47.6" x2="228.3" y2="47.6"/>
	
		<line fill="none" stroke="#FFFFFF" stroke-width="2" stroke-linecap="round" stroke-miterlimit="10" x1="233" y1="47.6" x2="242.5" y2="47.6"/>
	
		<line fill="none" stroke="#FFFFFF" stroke-width="2" stroke-linecap="round" stroke-miterlimit="10" x1="199.9" y1="51" x2="228.3" y2="51"/>
	
		<line fill="none" stroke="#FFFFFF" stroke-width="2" stroke-linecap="round" stroke-miterlimit="10" x1="233" y1="51" x2="242.5" y2="51"/>
	
		<circle fill="none" stroke="#FFFFFF" stroke-width="2" stroke-linecap="round" stroke-miterlimit="10" cx="253" cy="109.9" r="3.4"/>
	<path fill="#FFFFFF" stroke="#FFFFFF" stroke-width="2" stroke-miterlimit="10" d="M252,82.7v17.4c0,0.6,0.5,1,1,1l0,0
		c0.6,0,1-0.5,1-1V82.7c0-0.6-0.5-1-1-1l0,0C252.5,81.7,252,82.2,252,82.7z"/>
	<path fill="none" stroke="#FFFFFF" stroke-width="2" stroke-linecap="round" stroke-miterlimit="10" d="M340.3,106.5v-5.4
		c0-1.9,1.5-3.4,3.4-3.4l0,0c1.9,0,3.4,1.5,3.4,3.4v5.4"/>
	
		<circle fill="#231F20" stroke="#FFFFFF" stroke-width="2" stroke-linecap="round" stroke-miterlimit="10" cx="343.6" cy="109.9" r="5.8"/>
	<rect x="272.7" y="21.5" fill="none" stroke="#FFFFFF" stroke-width="2" stroke-miterlimit="10" width="80.9" height="152.6"/>
	
		<line fill="none" stroke="#FFFFFF" stroke-width="2" stroke-linecap="round" stroke-miterlimit="10" x1="290.6" y1="40.9" x2="319" y2="40.9"/>
	
		<line fill="none" stroke="#FFFFFF" stroke-width="2" stroke-linecap="round" stroke-miterlimit="10" x1="323.7" y1="40.9" x2="333.2" y2="40.9"/>
	
		<line fill="none" stroke="#FFFFFF" stroke-width="2" stroke-linecap="round" stroke-miterlimit="10" x1="290.6" y1="44.3" x2="319" y2="44.3"/>
	
		<line fill="none" stroke="#FFFFFF" stroke-width="2" stroke-linecap="round" stroke-miterlimit="10" x1="323.7" y1="44.3" x2="333.2" y2="44.3"/>
	
		<line fill="none" stroke="#FFFFFF" stroke-width="2" stroke-linecap="round" stroke-miterlimit="10" x1="290.6" y1="47.6" x2="319" y2="47.6"/>
	
		<line fill="none" stroke="#FFFFFF" stroke-width="2" stroke-linecap="round" stroke-miterlimit="10" x1="323.7" y1="47.6" x2="333.2" y2="47.6"/>
	
		<line fill="none" stroke="#FFFFFF" stroke-width="2" stroke-linecap="round" stroke-miterlimit="10" x1="290.6" y1="51" x2="319" y2="51"/>
	
		<line fill="none" stroke="#FFFFFF" stroke-width="2" stroke-linecap="round" stroke-miterlimit="10" x1="323.7" y1="51" x2="333.2" y2="51"/>
	
		<circle fill="none" stroke="#FFFFFF" stroke-width="2" stroke-linecap="round" stroke-miterlimit="10" cx="343.6" cy="109.9" r="3.4"/>
	<path fill="#FFFFFF" stroke="#FFFFFF" stroke-width="2" stroke-miterlimit="10" d="M342.7,82.7v17.4c0,0.6,0.5,1,1,1l0,0
		c0.6,0,1-0.5,1-1V82.7c0-0.6-0.5-1-1-1l0,0C343.2,81.7,342.7,82.2,342.7,82.7z"/>
	<path fill="none" stroke="#FFFFFF" stroke-width="2" stroke-linecap="round" stroke-miterlimit="10" d="M158.9,267.6v-5.4
		c0-1.9,1.5-3.4,3.4-3.4l0,0c1.9,0,3.4,1.5,3.4,3.4v5.4"/>
	
		<circle fill="#231F20" stroke="#FFFFFF" stroke-width="2" stroke-linecap="round" stroke-miterlimit="10" cx="162.3" cy="271" r="5.8"/>
	<rect x="91.3" y="182.5" fill="none" stroke="#FFFFFF" stroke-width="2" stroke-miterlimit="10" width="80.9" height="152.6"/>
	
		<line fill="none" stroke="#FFFFFF" stroke-width="2" stroke-linecap="round" stroke-miterlimit="10" x1="109.2" y1="202" x2="137.6" y2="202"/>
	
		<line fill="none" stroke="#FFFFFF" stroke-width="2" stroke-linecap="round" stroke-miterlimit="10" x1="142.4" y1="202" x2="151.8" y2="202"/>
	
		<line fill="none" stroke="#FFFFFF" stroke-width="2" stroke-linecap="round" stroke-miterlimit="10" x1="109.2" y1="205.3" x2="137.6" y2="205.3"/>
	
		<line fill="none" stroke="#FFFFFF" stroke-width="2" stroke-linecap="round" stroke-miterlimit="10" x1="142.4" y1="205.3" x2="151.8" y2="205.3"/>
	
		<line fill="none" stroke="#FFFFFF" stroke-width="2" stroke-linecap="round" stroke-miterlimit="10" x1="109.2" y1="208.7" x2="137.6" y2="208.7"/>
	
		<line fill="none" stroke="#FFFFFF" stroke-width="2" stroke-linecap="round" stroke-miterlimit="10" x1="142.4" y1="208.7" x2="151.8" y2="208.7"/>
	
		<line fill="none" stroke="#FFFFFF" stroke-width="2" stroke-linecap="round" stroke-miterlimit="10" x1="109.2" y1="212.1" x2="137.6" y2="212.1"/>
	
		<line fill="none" stroke="#FFFFFF" stroke-width="2" stroke-linecap="round" stroke-miterlimit="10" x1="142.4" y1="212.1" x2="151.8" y2="212.1"/>
	
		<circle fill="none" stroke="#FFFFFF" stroke-width="2" stroke-linecap="round" stroke-miterlimit="10" cx="162.3" cy="271" r="3.4"/>
	<path fill="#FFFFFF" stroke="#FFFFFF" stroke-width="2" stroke-miterlimit="10" d="M161.4,243.8v17.4c0,0.6,0.5,1,1,1l0,0
		c0.6,0,1-0.5,1-1v-17.4c0-0.6-0.5-1-1-1l0,0C161.8,242.8,161.4,243.2,161.4,243.8z"/>
	<path fill="none" stroke="#FFFFFF" stroke-width="2" stroke-linecap="round" stroke-miterlimit="10" d="M249.6,267.6v-5.4
		c0-1.9,1.5-3.4,3.4-3.4h0c1.9,0,3.4,1.5,3.4,3.4v5.4"/>
	
		<circle fill="#231F20" stroke="#FFFFFF" stroke-width="2" stroke-linecap="round" stroke-miterlimit="10" cx="253" cy="271" r="5.8"/>
	<rect x="182" y="182.5" fill="none" stroke="#FFFFFF" stroke-width="2" stroke-miterlimit="10" width="80.9" height="152.6"/>
	
		<line fill="none" stroke="#FFFFFF" stroke-width="2" stroke-linecap="round" stroke-miterlimit="10" x1="199.9" y1="202" x2="228.3" y2="202"/>
	
		<line fill="none" stroke="#FFFFFF" stroke-width="2" stroke-linecap="round" stroke-miterlimit="10" x1="233" y1="202" x2="242.5" y2="202"/>
	
		<line fill="none" stroke="#FFFFFF" stroke-width="2" stroke-linecap="round" stroke-miterlimit="10" x1="199.9" y1="205.3" x2="228.3" y2="205.3"/>
	
		<line fill="none" stroke="#FFFFFF" stroke-width="2" stroke-linecap="round" stroke-miterlimit="10" x1="233" y1="205.3" x2="242.5" y2="205.3"/>
	
		<line fill="none" stroke="#FFFFFF" stroke-width="2" stroke-linecap="round" stroke-miterlimit="10" x1="199.9" y1="208.7" x2="228.3" y2="208.7"/>
	
		<line fill="none" stroke="#FFFFFF" stroke-width="2" stroke-linecap="round" stroke-miterlimit="10" x1="233" y1="208.7" x2="242.5" y2="208.7"/>
	
		<line fill="none" stroke="#FFFFFF" stroke-width="2" stroke-linecap="round" stroke-miterlimit="10" x1="199.9" y1="212.1" x2="228.3" y2="212.1"/>
	
		<line fill="none" stroke="#FFFFFF" stroke-width="2" stroke-linecap="round" stroke-miterlimit="10" x1="233" y1="212.1" x2="242.5" y2="212.1"/>
	<circle fill="none" stroke="#FFFFFF" stroke-width="2" stroke-linecap="round" stroke-miterlimit="10" cx="253" cy="271" r="3.4"/>
	<path fill="#FFFFFF" stroke="#FFFFFF" stroke-width="2" stroke-miterlimit="10" d="M252,243.8v17.4c0,0.6,0.5,1,1,1l0,0
		c0.6,0,1-0.5,1-1v-17.4c0-0.6-0.5-1-1-1l0,0C252.5,242.8,252,243.2,252,243.8z"/>
	<path fill="none" stroke="#FFFFFF" stroke-width="2" stroke-linecap="round" stroke-miterlimit="10" d="M340.3,267.6v-5.4
		c0-1.9,1.5-3.4,3.4-3.4l0,0c1.9,0,3.4,1.5,3.4,3.4v5.4"/>
	
		<circle fill="#231F20" stroke="#FFFFFF" stroke-width="2" stroke-linecap="round" stroke-miterlimit="10" cx="343.6" cy="271" r="5.8"/>
	<rect x="272.7" y="182.5" fill="none" stroke="#FFFFFF" stroke-width="2" stroke-miterlimit="10" width="80.9" height="152.6"/>
	
		<line fill="none" stroke="#FFFFFF" stroke-width="2" stroke-linecap="round" stroke-miterlimit="10" x1="290.6" y1="202" x2="319" y2="202"/>
	
		<line fill="none" stroke="#FFFFFF" stroke-width="2" stroke-linecap="round" stroke-miterlimit="10" x1="323.7" y1="202" x2="333.2" y2="202"/>
	
		<line fill="none" stroke="#FFFFFF" stroke-width="2" stroke-linecap="round" stroke-miterlimit="10" x1="290.6" y1="205.3" x2="319" y2="205.3"/>
	
		<line fill="none" stroke="#FFFFFF" stroke-width="2" stroke-linecap="round" stroke-miterlimit="10" x1="323.7" y1="205.3" x2="333.2" y2="205.3"/>
	
		<line fill="none" stroke="#FFFFFF" stroke-width="2" stroke-linecap="round" stroke-miterlimit="10" x1="290.6" y1="208.7" x2="319" y2="208.7"/>
	
		<line fill="none" stroke="#FFFFFF" stroke-width="2" stroke-linecap="round" stroke-miterlimit="10" x1="323.7" y1="208.7" x2="333.2" y2="208.7"/>
	
		<line fill="none" stroke="#FFFFFF" stroke-width="2" stroke-linecap="round" stroke-miterlimit="10" x1="290.6" y1="212.1" x2="319" y2="212.1"/>
	
		<line fill="none" stroke="#FFFFFF" stroke-width="2" stroke-linecap="round" stroke-miterlimit="10" x1="323.7" y1="212.1" x2="333.2" y2="212.1"/>
	
		<circle fill="none" stroke="#FFFFFF" stroke-width="2" stroke-linecap="round" stroke-miterlimit="10" cx="343.6" cy="271" r="3.4"/>
	<path fill="#FFFFFF" stroke="#FFFFFF" stroke-width="2" stroke-miterlimit="10" d="M342.7,243.8v17.4c0,0.6,0.5,1,1,1l0,0
		c0.6,0,1-0.5,1-1v-17.4c0-0.6-0.5-1-1-1l0,0C343.2,242.8,342.7,243.2,342.7,243.8z"/>
	<polyline fill="none" stroke="#FFFFFF" stroke-width="2" stroke-linecap="round" stroke-miterlimit="10" points="1.3,348.9 
		80.9,348.9 80.9,9.1 365.1,9.1 365.1,335.1 365.1,348.9 434.2,348.9 	"/>
	
		<line fill="none" stroke="#FFFFFF" stroke-width="2" stroke-linecap="round" stroke-miterlimit="10" x1="352" y1="348.9" x2="89.7" y2="348.9"/>
</g>
<g id="g">
	<polyline fill="none" stroke="#231F20" stroke-width="2" stroke-linecap="round" stroke-miterlimit="10" points="0,348.9 
		-79.5,348.9 -79.5,9.1 -363.8,9.1 -363.8,335.1 -363.8,348.9 -432.8,348.9 	"/>
</g>
<g id="g_x5F_bg">
</g>
<g id="b_x5F_bg">
</g>
</svg>
