<?xml version="1.0" encoding="utf-8"?>
<!-- Generator: Adobe Illustrator 18.1.1, SVG Export Plug-In . SVG Version: 6.00 Build 0)  -->
<svg version="1.1" xmlns="http://www.w3.org/2000/svg" xmlns:xlink="http://www.w3.org/1999/xlink" x="0px" y="0px"
	 viewBox="0 0 451.6 320" enable-background="new 0 0 451.6 320" xml:space="preserve">
<g id="b">
</g>
<g id="g">
</g>
<g id="g_x5F_bg">
</g>
<g id="b_x5F_bg">
	
		<rect x="195.6" y="184.1" stroke="#FFFFFF" stroke-width="2" stroke-linecap="round" stroke-miterlimit="10" width="134.6" height="19.5"/>
	
		<rect x="195.6" y="203.3" stroke="#FFFFFF" stroke-width="2" stroke-linecap="round" stroke-miterlimit="10" width="134.6" height="61.7"/>
	
		<polyline fill="none" stroke="#FFFFFF" stroke-width="2" stroke-linecap="round" stroke-linejoin="round" stroke-miterlimit="10" points="
		468.5,309.2 338.8,309.2 338.8,12.4 187.3,12.4 187.3,308.7 2.8,308.7 	"/>
	<polyline fill="#231F20" stroke="#FFFFFF" stroke-width="2" stroke-linecap="round" stroke-miterlimit="10" points="195.6,308.7 
		195.6,21.6 187.3,12.4 	"/>
	<polyline fill="#231F20" stroke="#FFFFFF" stroke-width="2" stroke-linecap="round" stroke-miterlimit="10" points="330.2,308.7 
		330.2,21.6 338.5,12.4 	"/>
	
		<line fill="none" stroke="#FFFFFF" stroke-width="2" stroke-linecap="round" stroke-miterlimit="10" x1="195.6" y1="21.6" x2="330.2" y2="21.6"/>
	<path stroke="#FFFFFF" stroke-width="2" stroke-linecap="round" stroke-miterlimit="10" d="M136.6,302.6l5.6-64.1H77.4l5.9,63.8
		c0.3,3.2,2.9,5.6,6.1,5.7l41,0.3C133.6,308.3,136.4,305.8,136.6,302.6z"/>
	<path stroke="#FFFFFF" stroke-width="2" stroke-linecap="round" stroke-miterlimit="10" d="M109.5,206.3c-18,0-32.6,14.6-32.6,32.6
		H142C142,220.8,127.5,206.3,109.5,206.3z"/>
	<path stroke="#FFFFFF" stroke-width="2" stroke-linecap="round" stroke-miterlimit="10" d="M124.7,210l-4.7,10.6
		c-1.6,3.7-5.3,6-9.3,6h-1.2"/>
	<path stroke="#FFFFFF" stroke-width="2" stroke-linecap="round" stroke-miterlimit="10" d="M94.3,210l4.7,10.6c1.6,3.7,5.3,6,9.3,6
		h1.2"/>
	<path stroke="#FFFFFF" stroke-width="2" stroke-linecap="round" stroke-miterlimit="10" d="M72.6,246.5"/>
	<polyline stroke="#FFFFFF" stroke-width="2" stroke-linecap="round" stroke-miterlimit="10" points="72.6,246.5 76.9,238.8 
		142,238.8 147.3,250.1 	"/>
	<g>
		<path d="M147.3,250.2c-3.4,0-3.4-4.6-6.7-4.6c-3.4,0-3.4,4.6-6.7,4.6c-3.4,0-3.4-4.6-6.7-4.6c-3.4,0-3.4,4.6-6.7,4.6
			s-3.4-4.6-6.7-4.6c-3.4,0-3.4,4.6-6.7,4.6c-3.4,0-3.4-4.6-6.7-4.6c-3.4,0-3.4,4.6-6.7,4.6c-3.4,0-3.4-4.6-6.7-4.6
			c-3.4,0-3.4,4.6-6.7,4.6s-3.4-4.6-6.7-4.6"/>
		<path fill="none" stroke="#FFFFFF" stroke-width="2" stroke-linecap="round" stroke-miterlimit="10" d="M147.3,250.2
			c-3.4,0-3.4-4.6-6.7-4.6c-3.4,0-3.4,4.6-6.7,4.6c-3.4,0-3.4-4.6-6.7-4.6c-3.4,0-3.4,4.6-6.7,4.6s-3.4-4.6-6.7-4.6
			c-3.4,0-3.4,4.6-6.7,4.6c-3.4,0-3.4-4.6-6.7-4.6c-3.4,0-3.4,4.6-6.7,4.6c-3.4,0-3.4-4.6-6.7-4.6c-3.4,0-3.4,4.6-6.7,4.6
			s-3.4-4.6-6.7-4.6"/>
	</g>
	<path fill="none" stroke="#FFFFFF" stroke-width="2" stroke-linejoin="round" stroke-miterlimit="10" d="M319.8,158.4
		c0-11.2-9.1-20.2-20.2-20.2v4.5c7.5,0,13.7,6.1,13.7,13.7s-6.1,13.7-13.7,13.7v8.6h-3l-5,4.8h28.2v-4.8h-5.5
		C314.3,178.6,319.8,169.6,319.8,158.4z"/>
	
		<rect x="288.3" y="134.6" fill="none" stroke="#FFFFFF" stroke-width="2" stroke-linejoin="round" stroke-miterlimit="10" width="6.9" height="15.4"/>
	<polygon fill="none" stroke="#FFFFFF" stroke-width="2" stroke-linejoin="round" stroke-miterlimit="10" points="293.8,154.5 
		292,156.6 290.3,154.5 290.3,150 293.8,150 	"/>
	
		<rect x="285.9" y="170.1" fill="none" stroke="#FFFFFF" stroke-width="2" stroke-linejoin="round" stroke-miterlimit="10" width="13.2" height="3.4"/>
	
		<circle fill="none" stroke="#FFFFFF" stroke-width="2" stroke-linejoin="round" stroke-miterlimit="10" cx="304.4" cy="173.8" r="1.8"/>
	
		<rect x="296" y="135.8" fill="none" stroke="#FFFFFF" stroke-width="2" stroke-linejoin="round" stroke-miterlimit="10" width="3.4" height="8.3"/>
	<path fill="none" stroke="#FFFFFF" stroke-width="2" stroke-linejoin="round" stroke-miterlimit="10" d="M221.1,159.1v10.6
		l-5.2,11.3c-0.5,1.2,0.3,2.5,1.6,2.5h7.4"/>
	<path fill="none" stroke="#FFFFFF" stroke-width="2" stroke-linejoin="round" stroke-miterlimit="10" d="M227.8,159.1v10.6
		l5.2,11.3c0.5,1.2-0.3,2.5-1.6,2.5h-7.4"/>
	<path fill="none" stroke="#FFFFFF" stroke-width="2" stroke-miterlimit="10" d="M286.8,115.5"/>
	<path fill="none" stroke="#FFFFFF" stroke-width="2" stroke-miterlimit="10" d="M218.7,174.9c0,0,3.8-0.7,5.7,1.1
		c1.1,1,2.8,0.8,3.9,0c0.6-0.5,1.7-0.9,2-1"/>
	
		<line fill="none" stroke="#FFFFFF" stroke-width="2" stroke-linecap="round" stroke-miterlimit="10" x1="221.6" y1="161.4" x2="223.4" y2="161.3"/>
	
		<line fill="none" stroke="#FFFFFF" stroke-width="2" stroke-linecap="round" stroke-miterlimit="10" x1="221.6" y1="162.8" x2="222.9" y2="162.8"/>
	
		<line fill="none" stroke="#FFFFFF" stroke-width="2" stroke-linecap="round" stroke-miterlimit="10" x1="221.6" y1="164.2" x2="223.4" y2="164.2"/>
	
		<line fill="none" stroke="#FFFFFF" stroke-width="2" stroke-linecap="round" stroke-miterlimit="10" x1="221.6" y1="165.7" x2="222.9" y2="165.7"/>
	
		<line fill="none" stroke="#FFFFFF" stroke-width="2" stroke-linecap="round" stroke-miterlimit="10" x1="221.6" y1="167.1" x2="223.4" y2="167"/>
	
		<line fill="none" stroke="#FFFFFF" stroke-width="2" stroke-linecap="round" stroke-miterlimit="10" x1="221.6" y1="168.5" x2="222.9" y2="168.5"/>
	
		<line fill="none" stroke="#FFFFFF" stroke-width="2" stroke-linecap="round" stroke-miterlimit="10" x1="211.6" y1="157.8" x2="209.8" y2="157.8"/>
	
		<line fill="none" stroke="#FFFFFF" stroke-width="2" stroke-linecap="round" stroke-miterlimit="10" x1="211.6" y1="159.3" x2="210.3" y2="159.2"/>
	
		<line fill="none" stroke="#FFFFFF" stroke-width="2" stroke-linecap="round" stroke-miterlimit="10" x1="211.6" y1="160.6" x2="209.8" y2="160.6"/>
	
		<line fill="none" stroke="#FFFFFF" stroke-width="2" stroke-linecap="round" stroke-miterlimit="10" x1="211.6" y1="162.1" x2="210.3" y2="162.1"/>
	
		<line fill="none" stroke="#FFFFFF" stroke-width="2" stroke-linecap="round" stroke-miterlimit="10" x1="211.6" y1="163.5" x2="209.8" y2="163.5"/>
	
		<line fill="none" stroke="#FFFFFF" stroke-width="2" stroke-linecap="round" stroke-miterlimit="10" x1="211.6" y1="165" x2="210.3" y2="164.9"/>
	<path fill="none" stroke="#FFFFFF" stroke-width="2" stroke-miterlimit="10" d="M228,159.1h-7.1c-0.7,0-1.3-0.6-1.3-1.3l0,0
		c0-0.7,0.6-1.3,1.3-1.3h7.1c0.7,0,1.3,0.6,1.3,1.3l0,0C229.2,158.6,228.7,159.1,228,159.1z"/>
	<path fill="none" stroke="#FFFFFF" stroke-width="2" stroke-linecap="round" stroke-linejoin="round" stroke-miterlimit="10" d="
		M211.7,156v22.6c0,3-2.4,5.5-5.5,5.5h-10.6v-30.6h20L211.7,156z"/>
	
		<path fill="#231F20" stroke="#FFFFFF" stroke-width="2" stroke-linecap="round" stroke-linejoin="round" stroke-miterlimit="10" d="
		M211.7,170.1c0,0-4.7-4.3-7.6-1.3c-2.8,3.1-8.5-0.1-8.5-1.4"/>
	<path stroke="#FFFFFF" stroke-width="2" stroke-linecap="round" stroke-linejoin="round" stroke-miterlimit="10" d="M262.9,42
		c-11.5,0-20.9,9.1-21.5,20.5h42.9C283.8,51.1,274.4,42,262.9,42z"/>
	
		<line fill="none" stroke="#FFFFFF" stroke-width="2" stroke-linecap="round" stroke-miterlimit="10" x1="262.9" y1="21.6" x2="262.9" y2="42"/>
	<path fill="none" stroke="#FFFFFF" stroke-width="2" stroke-linecap="round" stroke-miterlimit="10" d="M265.4,68.1h-5
		c-1.5,0-2.7-1.2-2.7-2.7v-2.9h10.5v2.9C268.2,66.8,266.9,68.1,265.4,68.1z"/>
	
		<line fill="none" stroke="#FFFFFF" stroke-width="2" stroke-linecap="round" stroke-miterlimit="10" x1="283.5" y1="57.4" x2="275.5" y2="57.4"/>
	
		<line fill="none" stroke="#FFFFFF" stroke-width="2" stroke-linecap="round" stroke-miterlimit="10" x1="268.7" y1="57.4" x2="242.3" y2="57.4"/>
</g>
</svg>
