<?xml version="1.0" encoding="utf-8"?>
<!-- Generator: Adobe Illustrator 18.1.1, SVG Export Plug-In . SVG Version: 6.00 Build 0)  -->
<svg version="1.1" xmlns="http://www.w3.org/2000/svg" xmlns:xlink="http://www.w3.org/1999/xlink" x="0px" y="0px"
	 viewBox="0 0 436 326" enable-background="new 0 0 436 326" xml:space="preserve">
<g id="b">
</g>
<g id="g">
</g>
<g id="g_x5F_bg">
</g>
<g id="b_x5F_bg">
	
		<line fill="none" stroke="#FFFFFF" stroke-width="2" stroke-linecap="round" stroke-linejoin="round" stroke-miterlimit="10" x1="0" y1="305.8" x2="436" y2="305.8"/>
	<path fill="none" stroke="#FFFFFF" stroke-width="2" stroke-linecap="round" stroke-miterlimit="10" d="M107.8,121.4l-36.2,10.4
		c-4.1,1.2-8.4-0.2-11.1-3.4h0c-2.4-2.9-3.1-6.9-1.9-10.4l9.8-27.6c1.7-5.1,6.6-8.6,12-8.6h9"/>
	<path fill="none" stroke="#FFFFFF" stroke-width="2" stroke-linecap="round" stroke-miterlimit="10" d="M115.7,81.7h9
		c5.4,0,10.2,3.5,12,8.6l1.1,2.4l7.1,20c1.4,3.9,0.7,8.2-1.9,11.5l-0.2,0.2c-3.1,3.9-8.3,5.5-13,4l-38.1-12h-4.8
		c3.1-2.4,3.5-2.9,6.9-3.9c2.1-0.6,4.8-1.1,7-1.5c3.4-0.6,6.9-0.4,10.1,0.7l20.6,7.1c0.3,0.1,0.5-0.2,0.4-0.4l-3-8.3"/>
	<path fill="none" stroke="#FFFFFF" stroke-width="2" stroke-linecap="round" stroke-linejoin="round" stroke-miterlimit="10" d="
		M69,123.6"/>
	
		<line fill="none" stroke="#FFFFFF" stroke-width="2" stroke-linecap="round" stroke-linejoin="round" stroke-miterlimit="10" x1="89.5" y1="161.3" x2="75.6" y2="169.8"/>
	
		<line fill="none" stroke="#FFFFFF" stroke-width="2" stroke-linecap="round" stroke-linejoin="round" stroke-miterlimit="10" x1="114" y1="161.3" x2="127.5" y2="169.5"/>
	<circle fill="#FFFFFF" stroke="#FFFFFF" stroke-miterlimit="10" cx="110.4" cy="52.9" r="2"/>
	<polyline fill="none" stroke="#FFFFFF" stroke-width="2" stroke-linecap="round" stroke-miterlimit="10" points="129.3,129.7 
		128,160.7 101.4,160.3 75,160.3 73.8,132.2 	"/>
	<path fill="none" stroke="#FFFFFF" stroke-width="2" stroke-linecap="round" stroke-linejoin="round" stroke-miterlimit="10" d="
		M101.4,160.7H128l1.3,50.5l-2.5,14.7l-6,1.6l-5.5-0.6l-3.5-15.1l-4.4-39.7c-0.1-0.9-0.8-1.6-1.7-1.6h-4.4L101.4,160.7z"/>
	<path fill="none" stroke="#FFFFFF" stroke-width="2" stroke-linecap="round" stroke-miterlimit="10" d="M92.5,85.6L92.5,85.6
		c0,3.5,2.8,6.3,6.3,6.3h8.1c3.5,0,6.3-2.8,6.3-6.3v-0.5"/>
	<circle fill="#FFFFFF" stroke="#FFFFFF" stroke-miterlimit="10" cx="95.4" cy="52.9" r="2"/>
	
		<path fill="none" stroke="#FFFFFF" stroke-width="2.0777" stroke-linecap="round" stroke-linejoin="round" stroke-miterlimit="10" d="
		M99.8,61l1.8,0.4c1,0.2,2,0.2,2.9-0.1l1.1-0.3"/>
	
		<path fill="none" stroke="#FFFFFF" stroke-width="2.0777" stroke-linecap="round" stroke-linejoin="round" stroke-miterlimit="10" d="
		M119,60.3c0,9-7.3,16.3-16.3,16.3h0c-9,0-16.3-7.3-16.3-16.3c0,0,4.4-21.9,7.1-26.1l2.9,5.4c0,0,2.2-3.5,4.2-3.6
		c1.1-0.1-0.2,5,1.1,4.8c3.6-0.4,9.5-5.7,11-6.6L119,60.3z"/>
	
		<polygon fill="#FFFFFF" stroke="#FFFFFF" stroke-width="2" stroke-linecap="round" stroke-linejoin="round" stroke-miterlimit="10" points="
		117.3,230 121.6,237.6 125.5,229.5 	"/>
	<polyline fill="none" stroke="#FFFFFF" stroke-width="2" stroke-linecap="round" stroke-miterlimit="10" points="75.6,108 
		72.4,119 91.8,116.3 	"/>
	<path fill="none" stroke="#FFFFFF" stroke-width="2" stroke-linecap="round" stroke-miterlimit="10" d="M114.9,112.1l1.4-0.8
		c1.5-0.9,3.4-1.1,5-0.6l0.9,0.3c2.5,0.7,4.4,2.8,4.8,5.4l0,0"/>
	
		<line fill="#231F20" stroke="#FFFFFF" stroke-width="2.0777" stroke-linecap="round" stroke-linejoin="round" stroke-miterlimit="10" x1="98.1" y1="68.1" x2="107.3" y2="68.1"/>
	
		<polygon fill="#FFFFFF" stroke="#FFFFFF" stroke-width="2" stroke-linecap="round" stroke-linejoin="round" stroke-miterlimit="10" points="
		77.3,296.9 70.1,304.3 86.9,304.5 87.5,296.3 77.3,296.3 	"/>
	<path fill="none" stroke="#FFFFFF" stroke-width="2" stroke-linecap="round" stroke-linejoin="round" stroke-miterlimit="10" d="
		M101.6,160.7H75l2.3,135.7h10.2L95.7,172c0.1-0.9,0.8-1.6,1.7-1.6h4.4L101.6,160.7z"/>
	
		<line fill="none" stroke="#FFFFFF" stroke-width="2" stroke-linecap="round" stroke-miterlimit="10" x1="78" y1="156.3" x2="78" y2="158.2"/>
	
		<line fill="none" stroke="#FFFFFF" stroke-width="2" stroke-linecap="round" stroke-miterlimit="10" x1="80.6" y1="156.3" x2="80.6" y2="158.2"/>
	
		<line fill="none" stroke="#FFFFFF" stroke-width="2" stroke-linecap="round" stroke-miterlimit="10" x1="83.2" y1="156.3" x2="83.2" y2="158.2"/>
	
		<line fill="none" stroke="#FFFFFF" stroke-width="2" stroke-linecap="round" stroke-miterlimit="10" x1="85.8" y1="156.3" x2="85.8" y2="158.2"/>
	
		<line fill="none" stroke="#FFFFFF" stroke-width="2" stroke-linecap="round" stroke-miterlimit="10" x1="88.4" y1="156.3" x2="88.4" y2="158.2"/>
	
		<line fill="none" stroke="#FFFFFF" stroke-width="2" stroke-linecap="round" stroke-miterlimit="10" x1="91" y1="156.3" x2="91" y2="158.2"/>
	
		<line fill="none" stroke="#FFFFFF" stroke-width="2" stroke-linecap="round" stroke-miterlimit="10" x1="93.6" y1="156.3" x2="93.6" y2="158.2"/>
	
		<line fill="none" stroke="#FFFFFF" stroke-width="2" stroke-linecap="round" stroke-miterlimit="10" x1="96.2" y1="156.3" x2="96.2" y2="158.2"/>
	
		<line fill="none" stroke="#FFFFFF" stroke-width="2" stroke-linecap="round" stroke-miterlimit="10" x1="98.8" y1="156.3" x2="98.8" y2="158.2"/>
	
		<line fill="none" stroke="#FFFFFF" stroke-width="2" stroke-linecap="round" stroke-miterlimit="10" x1="105.8" y1="113" x2="104.1" y2="112.2"/>
	
		<line fill="none" stroke="#FFFFFF" stroke-width="2" stroke-linecap="round" stroke-miterlimit="10" x1="104.4" y1="114.5" x2="102.7" y2="113.7"/>
	
		<line fill="none" stroke="#FFFFFF" stroke-width="2" stroke-linecap="round" stroke-miterlimit="10" x1="102.9" y1="116" x2="101.2" y2="115.2"/>
	
		<line fill="none" stroke="#FFFFFF" stroke-width="2" stroke-linecap="round" stroke-miterlimit="10" x1="101.4" y1="117.5" x2="99.7" y2="116.7"/>
	
		<line fill="none" stroke="#FFFFFF" stroke-width="2" stroke-linecap="round" stroke-miterlimit="10" x1="101.5" y1="156.3" x2="101.5" y2="158.2"/>
	
		<line fill="none" stroke="#FFFFFF" stroke-width="2" stroke-linecap="round" stroke-miterlimit="10" x1="104.1" y1="156.3" x2="104.1" y2="158.2"/>
	
		<line fill="none" stroke="#FFFFFF" stroke-width="2" stroke-linecap="round" stroke-miterlimit="10" x1="106.7" y1="156.3" x2="106.7" y2="158.2"/>
	
		<line fill="none" stroke="#FFFFFF" stroke-width="2" stroke-linecap="round" stroke-miterlimit="10" x1="109.3" y1="156.3" x2="109.3" y2="158.2"/>
	
		<line fill="none" stroke="#FFFFFF" stroke-width="2" stroke-linecap="round" stroke-miterlimit="10" x1="111.9" y1="156.3" x2="111.9" y2="158.2"/>
	
		<line fill="none" stroke="#FFFFFF" stroke-width="2" stroke-linecap="round" stroke-miterlimit="10" x1="114.5" y1="156.3" x2="114.5" y2="158.2"/>
	
		<line fill="none" stroke="#FFFFFF" stroke-width="2" stroke-linecap="round" stroke-miterlimit="10" x1="117.1" y1="156.3" x2="117.1" y2="158.2"/>
	
		<line fill="none" stroke="#FFFFFF" stroke-width="2" stroke-linecap="round" stroke-miterlimit="10" x1="119.7" y1="156.3" x2="119.7" y2="158.2"/>
	
		<line fill="none" stroke="#FFFFFF" stroke-width="2" stroke-linecap="round" stroke-miterlimit="10" x1="122.3" y1="156.3" x2="122.3" y2="158.2"/>
	
		<line fill="none" stroke="#FFFFFF" stroke-width="2" stroke-linecap="round" stroke-miterlimit="10" x1="124.9" y1="156.3" x2="124.9" y2="158.2"/>
	
		<line fill="none" stroke="#FFFFFF" stroke-width="2" stroke-linecap="round" stroke-miterlimit="10" x1="102.7" y1="110.7" x2="102" y2="110.8"/>
	
		<line fill="none" stroke="#FFFFFF" stroke-width="2" stroke-linecap="round" stroke-miterlimit="10" x1="102" y1="110.8" x2="96.2" y2="117.7"/>
	<path fill="none" stroke="#FFFFFF" stroke-width="2.0777" stroke-linecap="round" stroke-miterlimit="10" d="M89.5,81.7l-6.8-18.5
		c-1.1-3.7-1.6-7.6-1.4-11.5L82,36.4c0.6-11.3,9.9-20.1,21.2-20.1h0c11.7,0,21.2,9.5,21.2,21.2v17c0,3.7-0.6,7.4-1.9,11l-6.8,16.3"
		/>
	<path fill="none" stroke="#FFFFFF" stroke-width="2.0777" stroke-linecap="round" stroke-miterlimit="10" d="M90.9,41.7
		c0-7.1,4.8-12.9,11.9-12.9h0c7.1,0,12.1,5.8,12.1,12.9"/>
</g>
</svg>
