<?xml version="1.0" encoding="utf-8"?>
<!-- Generator: Adobe Illustrator 18.1.1, SVG Export Plug-In . SVG Version: 6.00 Build 0)  -->
<svg version="1.1" xmlns="http://www.w3.org/2000/svg" xmlns:xlink="http://www.w3.org/1999/xlink" x="0px" y="0px"
	 viewBox="0 0 434.2 374.7" enable-background="new 0 0 434.2 374.7" xml:space="preserve">
<g id="b">
</g>
<g id="g">
	<path fill="none" stroke="#231F20" stroke-width="2" stroke-linecap="round" stroke-miterlimit="10" d="M149.7,107.2v-5.4
		c0-1.9,1.5-3.4,3.4-3.4h0c1.9,0,3.4,1.5,3.4,3.4v5.4"/>
	
		<circle fill="#FFFFFF" stroke="#231F20" stroke-width="2" stroke-linecap="round" stroke-miterlimit="10" cx="153.1" cy="110.6" r="5.8"/>
	<rect x="82.2" y="22.1" fill="none" stroke="#231F20" stroke-width="2" stroke-miterlimit="10" width="80.9" height="152.6"/>
	
		<line fill="none" stroke="#231F20" stroke-width="2" stroke-linecap="round" stroke-miterlimit="10" x1="100.1" y1="41.5" x2="128.5" y2="41.5"/>
	
		<line fill="none" stroke="#231F20" stroke-width="2" stroke-linecap="round" stroke-miterlimit="10" x1="133.2" y1="41.5" x2="142.7" y2="41.5"/>
	
		<line fill="none" stroke="#231F20" stroke-width="2" stroke-linecap="round" stroke-miterlimit="10" x1="100.1" y1="44.9" x2="128.5" y2="44.9"/>
	
		<line fill="none" stroke="#231F20" stroke-width="2" stroke-linecap="round" stroke-miterlimit="10" x1="133.2" y1="44.9" x2="142.7" y2="44.9"/>
	
		<line fill="none" stroke="#231F20" stroke-width="2" stroke-linecap="round" stroke-miterlimit="10" x1="100.1" y1="48.3" x2="128.5" y2="48.3"/>
	
		<line fill="none" stroke="#231F20" stroke-width="2" stroke-linecap="round" stroke-miterlimit="10" x1="133.2" y1="48.3" x2="142.7" y2="48.3"/>
	
		<line fill="none" stroke="#231F20" stroke-width="2" stroke-linecap="round" stroke-miterlimit="10" x1="100.1" y1="51.7" x2="128.5" y2="51.7"/>
	
		<line fill="none" stroke="#231F20" stroke-width="2" stroke-linecap="round" stroke-miterlimit="10" x1="133.2" y1="51.7" x2="142.7" y2="51.7"/>
	
		<circle fill="none" stroke="#231F20" stroke-width="2" stroke-linecap="round" stroke-miterlimit="10" cx="153.1" cy="110.6" r="3.4"/>
	<path fill="#231F20" stroke="#231F20" stroke-width="2" stroke-miterlimit="10" d="M152.2,83.4v17.4c0,0.6,0.5,1,1,1l0,0
		c0.6,0,1-0.5,1-1V83.4c0-0.6-0.5-1-1-1l0,0C152.7,82.4,152.2,82.8,152.2,83.4z"/>
	<path fill="none" stroke="#231F20" stroke-width="2" stroke-linecap="round" stroke-miterlimit="10" d="M240.4,107.2v-5.4
		c0-1.9,1.5-3.4,3.4-3.4l0,0c1.9,0,3.4,1.5,3.4,3.4v5.4"/>
	
		<circle fill="#FFFFFF" stroke="#231F20" stroke-width="2" stroke-linecap="round" stroke-miterlimit="10" cx="243.8" cy="110.6" r="5.8"/>
	<rect x="172.9" y="22.1" fill="none" stroke="#231F20" stroke-width="2" stroke-miterlimit="10" width="80.9" height="152.6"/>
	
		<line fill="none" stroke="#231F20" stroke-width="2" stroke-linecap="round" stroke-miterlimit="10" x1="190.8" y1="41.5" x2="219.2" y2="41.5"/>
	
		<line fill="none" stroke="#231F20" stroke-width="2" stroke-linecap="round" stroke-miterlimit="10" x1="223.9" y1="41.5" x2="233.4" y2="41.5"/>
	
		<line fill="none" stroke="#231F20" stroke-width="2" stroke-linecap="round" stroke-miterlimit="10" x1="190.8" y1="44.9" x2="219.2" y2="44.9"/>
	
		<line fill="none" stroke="#231F20" stroke-width="2" stroke-linecap="round" stroke-miterlimit="10" x1="223.9" y1="44.9" x2="233.4" y2="44.9"/>
	
		<line fill="none" stroke="#231F20" stroke-width="2" stroke-linecap="round" stroke-miterlimit="10" x1="190.8" y1="48.3" x2="219.2" y2="48.3"/>
	
		<line fill="none" stroke="#231F20" stroke-width="2" stroke-linecap="round" stroke-miterlimit="10" x1="223.9" y1="48.3" x2="233.4" y2="48.3"/>
	
		<line fill="none" stroke="#231F20" stroke-width="2" stroke-linecap="round" stroke-miterlimit="10" x1="190.8" y1="51.7" x2="219.2" y2="51.7"/>
	
		<line fill="none" stroke="#231F20" stroke-width="2" stroke-linecap="round" stroke-miterlimit="10" x1="223.9" y1="51.7" x2="233.4" y2="51.7"/>
	
		<circle fill="none" stroke="#231F20" stroke-width="2" stroke-linecap="round" stroke-miterlimit="10" cx="243.8" cy="110.6" r="3.4"/>
	<path fill="#231F20" stroke="#231F20" stroke-width="2" stroke-miterlimit="10" d="M242.9,83.4v17.4c0,0.6,0.5,1,1,1l0,0
		c0.6,0,1-0.5,1-1V83.4c0-0.6-0.5-1-1-1l0,0C243.4,82.4,242.9,82.8,242.9,83.4z"/>
	<path fill="none" stroke="#231F20" stroke-width="2" stroke-linecap="round" stroke-miterlimit="10" d="M331.1,107.2v-5.4
		c0-1.9,1.5-3.4,3.4-3.4l0,0c1.9,0,3.4,1.5,3.4,3.4v5.4"/>
	
		<circle fill="#FFFFFF" stroke="#231F20" stroke-width="2" stroke-linecap="round" stroke-miterlimit="10" cx="334.5" cy="110.6" r="5.8"/>
	<rect x="263.6" y="22.1" fill="none" stroke="#231F20" stroke-width="2" stroke-miterlimit="10" width="80.9" height="152.6"/>
	
		<line fill="none" stroke="#231F20" stroke-width="2" stroke-linecap="round" stroke-miterlimit="10" x1="281.4" y1="41.5" x2="309.9" y2="41.5"/>
	
		<line fill="none" stroke="#231F20" stroke-width="2" stroke-linecap="round" stroke-miterlimit="10" x1="314.6" y1="41.5" x2="324.1" y2="41.5"/>
	
		<line fill="none" stroke="#231F20" stroke-width="2" stroke-linecap="round" stroke-miterlimit="10" x1="281.4" y1="44.9" x2="309.9" y2="44.9"/>
	
		<line fill="none" stroke="#231F20" stroke-width="2" stroke-linecap="round" stroke-miterlimit="10" x1="314.6" y1="44.9" x2="324.1" y2="44.9"/>
	
		<line fill="none" stroke="#231F20" stroke-width="2" stroke-linecap="round" stroke-miterlimit="10" x1="281.4" y1="48.3" x2="309.9" y2="48.3"/>
	
		<line fill="none" stroke="#231F20" stroke-width="2" stroke-linecap="round" stroke-miterlimit="10" x1="314.6" y1="48.3" x2="324.1" y2="48.3"/>
	
		<line fill="none" stroke="#231F20" stroke-width="2" stroke-linecap="round" stroke-miterlimit="10" x1="281.4" y1="51.7" x2="309.9" y2="51.7"/>
	
		<line fill="none" stroke="#231F20" stroke-width="2" stroke-linecap="round" stroke-miterlimit="10" x1="314.6" y1="51.7" x2="324.1" y2="51.7"/>
	
		<circle fill="none" stroke="#231F20" stroke-width="2" stroke-linecap="round" stroke-miterlimit="10" cx="334.5" cy="110.6" r="3.4"/>
	<path fill="#231F20" stroke="#231F20" stroke-width="2" stroke-miterlimit="10" d="M333.6,83.4v17.4c0,0.6,0.5,1,1,1l0,0
		c0.6,0,1-0.5,1-1V83.4c0-0.6-0.5-1-1-1l0,0C334.1,82.4,333.6,82.8,333.6,83.4z"/>
	<path fill="none" stroke="#231F20" stroke-width="2" stroke-linecap="round" stroke-miterlimit="10" d="M149.7,268.3v-5.4
		c0-1.9,1.5-3.4,3.4-3.4h0c1.9,0,3.4,1.5,3.4,3.4v5.4"/>
	
		<circle fill="#FFFFFF" stroke="#231F20" stroke-width="2" stroke-linecap="round" stroke-miterlimit="10" cx="153.1" cy="271.7" r="5.8"/>
	<rect x="82.2" y="183.2" fill="none" stroke="#231F20" stroke-width="2" stroke-miterlimit="10" width="80.9" height="152.6"/>
	
		<line fill="none" stroke="#231F20" stroke-width="2" stroke-linecap="round" stroke-miterlimit="10" x1="100.1" y1="202.6" x2="128.5" y2="202.6"/>
	
		<line fill="none" stroke="#231F20" stroke-width="2" stroke-linecap="round" stroke-miterlimit="10" x1="133.2" y1="202.6" x2="142.7" y2="202.6"/>
	
		<line fill="none" stroke="#231F20" stroke-width="2" stroke-linecap="round" stroke-miterlimit="10" x1="100.1" y1="206" x2="128.5" y2="206"/>
	
		<line fill="none" stroke="#231F20" stroke-width="2" stroke-linecap="round" stroke-miterlimit="10" x1="133.2" y1="206" x2="142.7" y2="206"/>
	
		<line fill="none" stroke="#231F20" stroke-width="2" stroke-linecap="round" stroke-miterlimit="10" x1="100.1" y1="209.4" x2="128.5" y2="209.4"/>
	
		<line fill="none" stroke="#231F20" stroke-width="2" stroke-linecap="round" stroke-miterlimit="10" x1="133.2" y1="209.4" x2="142.7" y2="209.4"/>
	
		<line fill="none" stroke="#231F20" stroke-width="2" stroke-linecap="round" stroke-miterlimit="10" x1="100.1" y1="212.8" x2="128.5" y2="212.8"/>
	
		<line fill="none" stroke="#231F20" stroke-width="2" stroke-linecap="round" stroke-miterlimit="10" x1="133.2" y1="212.8" x2="142.7" y2="212.8"/>
	
		<circle fill="none" stroke="#231F20" stroke-width="2" stroke-linecap="round" stroke-miterlimit="10" cx="153.1" cy="271.7" r="3.4"/>
	<path fill="#231F20" stroke="#231F20" stroke-width="2" stroke-miterlimit="10" d="M152.2,244.5v17.4c0,0.6,0.5,1,1,1l0,0
		c0.6,0,1-0.5,1-1v-17.4c0-0.6-0.5-1-1-1l0,0C152.7,243.5,152.2,243.9,152.2,244.5z"/>
	<path fill="none" stroke="#231F20" stroke-width="2" stroke-linecap="round" stroke-miterlimit="10" d="M240.4,268.3v-5.4
		c0-1.9,1.5-3.4,3.4-3.4l0,0c1.9,0,3.4,1.5,3.4,3.4v5.4"/>
	
		<circle fill="#FFFFFF" stroke="#231F20" stroke-width="2" stroke-linecap="round" stroke-miterlimit="10" cx="243.8" cy="271.7" r="5.8"/>
	<rect x="172.9" y="183.2" fill="none" stroke="#231F20" stroke-width="2" stroke-miterlimit="10" width="80.9" height="152.6"/>
	
		<line fill="none" stroke="#231F20" stroke-width="2" stroke-linecap="round" stroke-miterlimit="10" x1="190.8" y1="202.6" x2="219.2" y2="202.6"/>
	
		<line fill="none" stroke="#231F20" stroke-width="2" stroke-linecap="round" stroke-miterlimit="10" x1="223.9" y1="202.6" x2="233.4" y2="202.6"/>
	
		<line fill="none" stroke="#231F20" stroke-width="2" stroke-linecap="round" stroke-miterlimit="10" x1="190.8" y1="206" x2="219.2" y2="206"/>
	
		<line fill="none" stroke="#231F20" stroke-width="2" stroke-linecap="round" stroke-miterlimit="10" x1="223.9" y1="206" x2="233.4" y2="206"/>
	
		<line fill="none" stroke="#231F20" stroke-width="2" stroke-linecap="round" stroke-miterlimit="10" x1="190.8" y1="209.4" x2="219.2" y2="209.4"/>
	
		<line fill="none" stroke="#231F20" stroke-width="2" stroke-linecap="round" stroke-miterlimit="10" x1="223.9" y1="209.4" x2="233.4" y2="209.4"/>
	
		<line fill="none" stroke="#231F20" stroke-width="2" stroke-linecap="round" stroke-miterlimit="10" x1="190.8" y1="212.8" x2="219.2" y2="212.8"/>
	
		<line fill="none" stroke="#231F20" stroke-width="2" stroke-linecap="round" stroke-miterlimit="10" x1="223.9" y1="212.8" x2="233.4" y2="212.8"/>
	
		<circle fill="none" stroke="#231F20" stroke-width="2" stroke-linecap="round" stroke-miterlimit="10" cx="243.8" cy="271.7" r="3.4"/>
	<path fill="#231F20" stroke="#231F20" stroke-width="2" stroke-miterlimit="10" d="M242.9,244.5v17.4c0,0.6,0.5,1,1,1l0,0
		c0.6,0,1-0.5,1-1v-17.4c0-0.6-0.5-1-1-1l0,0C243.4,243.5,242.9,243.9,242.9,244.5z"/>
	<path fill="none" stroke="#231F20" stroke-width="2" stroke-linecap="round" stroke-miterlimit="10" d="M331.1,268.3v-5.4
		c0-1.9,1.5-3.4,3.4-3.4l0,0c1.9,0,3.4,1.5,3.4,3.4v5.4"/>
	
		<circle fill="#FFFFFF" stroke="#231F20" stroke-width="2" stroke-linecap="round" stroke-miterlimit="10" cx="334.5" cy="271.7" r="5.8"/>
	<rect x="263.6" y="183.2" fill="none" stroke="#231F20" stroke-width="2" stroke-miterlimit="10" width="80.9" height="152.6"/>
	
		<line fill="none" stroke="#231F20" stroke-width="2" stroke-linecap="round" stroke-miterlimit="10" x1="281.4" y1="202.6" x2="309.9" y2="202.6"/>
	
		<line fill="none" stroke="#231F20" stroke-width="2" stroke-linecap="round" stroke-miterlimit="10" x1="314.6" y1="202.6" x2="324.1" y2="202.6"/>
	
		<line fill="none" stroke="#231F20" stroke-width="2" stroke-linecap="round" stroke-miterlimit="10" x1="281.4" y1="206" x2="309.9" y2="206"/>
	
		<line fill="none" stroke="#231F20" stroke-width="2" stroke-linecap="round" stroke-miterlimit="10" x1="314.6" y1="206" x2="324.1" y2="206"/>
	
		<line fill="none" stroke="#231F20" stroke-width="2" stroke-linecap="round" stroke-miterlimit="10" x1="281.4" y1="209.4" x2="309.9" y2="209.4"/>
	
		<line fill="none" stroke="#231F20" stroke-width="2" stroke-linecap="round" stroke-miterlimit="10" x1="314.6" y1="209.4" x2="324.1" y2="209.4"/>
	
		<line fill="none" stroke="#231F20" stroke-width="2" stroke-linecap="round" stroke-miterlimit="10" x1="281.4" y1="212.8" x2="309.9" y2="212.8"/>
	
		<line fill="none" stroke="#231F20" stroke-width="2" stroke-linecap="round" stroke-miterlimit="10" x1="314.6" y1="212.8" x2="324.1" y2="212.8"/>
	
		<circle fill="none" stroke="#231F20" stroke-width="2" stroke-linecap="round" stroke-miterlimit="10" cx="334.5" cy="271.7" r="3.4"/>
	<path fill="#231F20" stroke="#231F20" stroke-width="2" stroke-miterlimit="10" d="M333.6,244.5v17.4c0,0.6,0.5,1,1,1l0,0
		c0.6,0,1-0.5,1-1v-17.4c0-0.6-0.5-1-1-1l0,0C334.1,243.5,333.6,243.9,333.6,244.5z"/>
	<polyline fill="none" stroke="#231F20" stroke-width="2" stroke-linecap="round" stroke-miterlimit="10" points="435,349.6 
		355.5,349.6 355.5,9.7 71.2,9.7 71.2,335.8 71.2,349.6 2.2,349.6 	"/>
	
		<line fill="none" stroke="#231F20" stroke-width="2" stroke-linecap="round" stroke-miterlimit="10" x1="344.5" y1="349.6" x2="82.2" y2="349.6"/>
</g>
<g id="g_x5F_bg">
</g>
<g id="b_x5F_bg">
</g>
</svg>
