<?xml version="1.0" encoding="utf-8"?>
<!-- Generator: Adobe Illustrator 18.1.1, SVG Export Plug-In . SVG Version: 6.00 Build 0)  -->
<svg version="1.1" xmlns="http://www.w3.org/2000/svg" xmlns:xlink="http://www.w3.org/1999/xlink" x="0px" y="0px"
	 viewBox="0 0 436 326" enable-background="new 0 0 436 326" xml:space="preserve">
<g id="b">
</g>
<g id="g">
</g>
<g id="g_x5F_bg">
	
		<path fill="#FFFFFF" stroke="#231F20" stroke-width="2" stroke-linecap="round" stroke-linejoin="round" stroke-miterlimit="10" d="
		M209.4,89.5c1.1-1.5,3.3-1.6,4.5-0.2c4.6,5.3,14.3,17.7,17,29.6c3.4,15.2,2.8,32.2-15.8,30.4c-1.1-0.1-2.1-0.9-2.4-2l-2.6-8.6
		c-0.2-0.8-0.3-1.6-0.3-2.4c0-6.3-9.2-17.4-1.5-44.8c0.1-0.3,0.2-0.6,0.4-0.9L209.4,89.5z"/>
	
		<path fill="#FFFFFF" stroke="#231F20" stroke-width="2" stroke-linecap="round" stroke-linejoin="round" stroke-miterlimit="10" d="
		M216.3,129.5c0,0,3.6,1.2,8.1-5.3l2.2,15.5c0,0-5.5,6.4-8.6,3.1L216.3,129.5z"/>
	
		<path fill="#FFFFFF" stroke="#231F20" stroke-width="2" stroke-linecap="round" stroke-linejoin="round" stroke-miterlimit="10" d="
		M204.5,126c0,0,28-4.6,27.3-10.7S219,84.4,207.6,86.8S204.5,126,204.5,126z"/>
	<path fill="#FFFFFF" stroke="#231F20" stroke-width="2" stroke-linecap="round" stroke-miterlimit="10" d="M209.8,110.6l8.4,12.6
		c0.5,0.9,0.8,1.9,0.9,2.9l4,30.9c0.1,0.4-0.1,0.8-0.5,1c-0.8,0.5-2.1,1.4-2,2.5l0.3,4c0.1,1.6,1.7,2.8,3.3,2.4h0
		c2.6-0.6,4.3-3,4.1-5.6l-2.4-37.3c-0.1-1-0.3-2-0.7-2.9l-6.9-15.9l-0.6-1.4l-1.1-2.6l-3.6-8.2c-0.5-1.1-1.6-1.9-2.8-2.1l-8.7,0.1"
		/>
	<path fill="none" stroke="#231F20" stroke-width="2" stroke-linecap="round" stroke-miterlimit="10" d="M213.1,117.5
		c2.2-2.6,8.3-4.7,8.3-4.7"/>
	
		<path fill="#FFFFFF" stroke="#231F20" stroke-width="2" stroke-linecap="round" stroke-linejoin="round" stroke-miterlimit="10" d="
		M206.8,89.6h2.5c0.7,0,1.1,0.9,0.5,1.4l0,0c-1.1,1-1.7,2.3-1.9,3.7c-0.7,8-2.8,35.4,1.5,38.6l0.2,4.3c0,0-6.7-1.2-7.6-10.2
		c-0.7-6.8-0.3-24.7-0.1-33.1C201.9,91.6,204.1,89.6,206.8,89.6z"/>
	
		<path fill="#FFFFFF" stroke="#231F20" stroke-width="2" stroke-linecap="round" stroke-linejoin="round" stroke-miterlimit="10" d="
		M210.4,106.8c0,0-2,0.6-1.2,3.2c0.8,2.6,5.8,11.5-0.8,15.8c0,0-1,5,1.2,11.7c0,0,4.9,11.2,4.9,24.2"/>
	
		<path fill="#FFFFFF" stroke="#231F20" stroke-width="2" stroke-linecap="round" stroke-linejoin="round" stroke-miterlimit="10" d="
		M229.7,108.7l-1.4,2.5l2.6,7.6h2.2C233,118.9,232.6,111.2,229.7,108.7z"/>
	
		<line fill="none" stroke="#231F20" stroke-width="2" stroke-linecap="round" stroke-linejoin="round" stroke-miterlimit="10" x1="196.1" y1="95.3" x2="190.2" y2="103.9"/>
	
		<line fill="none" stroke="#231F20" stroke-width="2" stroke-linecap="round" stroke-linejoin="round" stroke-miterlimit="10" x1="183.9" y1="95.3" x2="189.9" y2="103.9"/>
	
		<polyline fill="#FFFFFF" stroke="#231F20" stroke-width="2" stroke-linecap="round" stroke-linejoin="round" stroke-miterlimit="10" points="
		169.3,119.7 169.3,106.8 191.5,106.8 191.5,125.8 	"/>
	
		<polyline fill="#FFFFFF" stroke="#231F20" stroke-width="2" stroke-linecap="round" stroke-linejoin="round" stroke-miterlimit="10" points="
		169.3,129 169.3,138.9 191.5,138.9 191.5,133.7 	"/>
	
		<polyline fill="#FFFFFF" stroke="#231F20" stroke-width="2" stroke-linecap="round" stroke-linejoin="round" stroke-miterlimit="10" points="
		172.6,121.2 172.6,104.3 194.8,104.3 194.8,131.2 	"/>
	
		<polyline fill="#FFFFFF" stroke="#231F20" stroke-width="2" stroke-linecap="round" stroke-linejoin="round" stroke-miterlimit="10" points="
		172.6,129.5 172.6,136.4 194.8,136.4 194.8,131.2 	"/>
	
		<line fill="none" stroke="#231F20" stroke-width="2" stroke-linecap="round" stroke-linejoin="round" stroke-miterlimit="10" x1="-0.6" y1="307.5" x2="435.4" y2="307.5"/>
	
		<polygon fill="none" stroke="#231F20" stroke-width="2" stroke-linecap="round" stroke-linejoin="round" stroke-miterlimit="10" points="
		175.7,306.5 187.8,172.4 189.5,172.4 189.5,161.7 164.5,161.7 168.8,300.9 158.3,307.8 	"/>
	
		<line fill="none" stroke="#231F20" stroke-width="2" stroke-linecap="round" stroke-linejoin="round" stroke-miterlimit="10" x1="177" y1="167" x2="165.5" y2="174.1"/>
	
		<line fill="none" stroke="#231F20" stroke-width="2" stroke-linecap="round" stroke-linejoin="round" stroke-miterlimit="10" x1="169.2" y1="296.1" x2="175.3" y2="296.1"/>
	
		<polygon fill="none" stroke="#231F20" stroke-width="2" stroke-linecap="round" stroke-linejoin="round" stroke-miterlimit="10" points="
		203.3,306.5 191.3,172.4 189.5,172.4 189.5,161.7 214.5,161.7 210.2,300.9 220.7,307.8 	"/>
	
		<line fill="none" stroke="#231F20" stroke-width="2" stroke-linecap="round" stroke-linejoin="round" stroke-miterlimit="10" x1="202" y1="167" x2="213.5" y2="174"/>
	
		<line fill="none" stroke="#231F20" stroke-width="2" stroke-linecap="round" stroke-linejoin="round" stroke-miterlimit="10" x1="209.8" y1="296.1" x2="203.7" y2="296.1"/>
	<path fill="none" stroke="#231F20" stroke-width="2" stroke-linecap="round" stroke-linejoin="round" stroke-miterlimit="10" d="
		M169.3,136.5c0,0-5,12.3-5,25.2"/>
	<path fill="none" stroke="#231F20" stroke-width="2" stroke-linecap="round" stroke-linejoin="round" stroke-miterlimit="10" d="
		M159.4,113.6c1,0.4,4.9,3.3,9.8,2.7"/>
	<path fill="none" stroke="#231F20" stroke-width="2" stroke-linecap="round" stroke-linejoin="round" stroke-miterlimit="10" d="
		M186.5,36.6L186.5,36.6c-6.9,0-12.4,5.6-12.4,12.4v20.2c0,8.4,6.8,15.2,15.2,15.2h0c8.4,0,15.2-6.8,15.2-15.2V43.6
		c0-5-3.4-9.4-8.2-10.6l0,0c0,0-21.1-4.9-21.3,10.7"/>
	<path fill="none" stroke="#231F20" stroke-width="2" stroke-linecap="round" stroke-linejoin="round" stroke-miterlimit="10" d="
		M192.8,30.2"/>
	<path fill="none" stroke="#231F20" stroke-width="2" stroke-linecap="round" stroke-linejoin="round" stroke-miterlimit="10" d="
		M201.9,23.4"/>
	<path fill="none" stroke="#231F20" stroke-width="2" stroke-linecap="round" stroke-linejoin="round" stroke-miterlimit="10" d="
		M194.5,39.7c0,0-4.8,4.3-12.6,6c-3.2,0.7-4.6,1.3-6.9,2"/>
	<path fill="none" stroke="#231F20" stroke-width="2" stroke-linecap="round" stroke-linejoin="round" stroke-miterlimit="10" d="
		M174.2,53.6c0.7-0.1,0.7-0.1,1.5-0.2c11-0.9,25.5-6.4,24.4-10.5c-0.7-2.7-0.5,3,4,9.5"/>
	<circle fill="#231F20" cx="198.3" cy="62.1" r="2"/>
	<circle fill="#231F20" cx="180.7" cy="62.1" r="2"/>
	
		<line fill="none" stroke="#231F20" stroke-width="2" stroke-linecap="round" stroke-linejoin="round" stroke-miterlimit="10" x1="187.4" y1="70" x2="191.5" y2="70"/>
	<path fill="none" stroke="#231F20" stroke-width="2" stroke-linecap="round" stroke-linejoin="round" stroke-miterlimit="10" d="
		M194.2,75.7l-1.4,0.7c-2.1,1-4.6,1-6.8,0l-1.3-0.6"/>
	<path fill="none" stroke="#231F20" stroke-width="2" stroke-linecap="round" stroke-linejoin="round" stroke-miterlimit="10" d="
		M179.7,91.1h-7.9c-1.6,0-3,0.9-3.6,2.4l-11.8,27c-0.7,1.6-0.3,3.4,1,4.6l27.3,8.3c0.7,0.6,1.6,1,2.6,1h2.3c1.9,0,3.6-1.4,3.9-3.3v0
		c0.4-2.1-1.1-4.2-3.2-4.5c0,0-3.2-0.9-4.3-0.8c-0.4,0-1.5,0.6-1.5,0.6l-15.3-6.5"/>
	
		<rect x="186.9" y="30.2" fill="#231F20" stroke="#231F20" stroke-width="2" stroke-linecap="round" stroke-linejoin="round" stroke-miterlimit="10" width="6.7" height="2.3"/>
	<path fill="none" stroke="#231F20" stroke-width="2" stroke-linecap="round" stroke-linejoin="round" stroke-miterlimit="10" d="
		M181.4,33.4l-2-3.9c-1.1-2.1-1-4.7,0.3-6.7v0c1.3-2.1,3.5-3.4,6-3.4h5.6"/>
	<path fill="none" stroke="#231F20" stroke-width="2" stroke-linecap="round" stroke-linejoin="round" stroke-miterlimit="10" d="
		M198.3,33.4l2-3.9c1.1-2.1,1-4.7-0.3-6.7v0c-1.3-2.1-3.5-3.4-6-3.4h-5.6"/>
	<path fill="none" stroke="#231F20" stroke-width="2" stroke-linecap="round" stroke-linejoin="round" stroke-miterlimit="10" d="
		M204.1,72.5c0,0,0.8,3.5,5.8,6.3c0,0-4.6,1.7-8.8,0"/>
</g>
<g id="b_x5F_bg">
</g>
</svg>
