<?xml version="1.0" encoding="utf-8"?>
<!-- Generator: Adobe Illustrator 18.1.1, SVG Export Plug-In . SVG Version: 6.00 Build 0)  -->
<svg version="1.1" xmlns="http://www.w3.org/2000/svg" xmlns:xlink="http://www.w3.org/1999/xlink" x="0px" y="0px"
	 viewBox="0 0 451.6 320" enable-background="new 0 0 451.6 320" xml:space="preserve">
<g id="b">
</g>
<g id="g">
</g>
<g id="g_x5F_bg">
	<polyline fill="none" stroke="#231F20" stroke-width="2" stroke-linecap="round" stroke-miterlimit="10" points="451.6,309.2 
		321.9,309.2 321.9,12.4 170.4,12.4 170.4,308.7 0,308.7 	"/>
	<polyline fill="none" stroke="#231F20" stroke-width="2" stroke-linecap="round" stroke-miterlimit="10" points="178.7,308.7 
		178.7,21.6 170.4,12.4 	"/>
	<polyline fill="none" stroke="#231F20" stroke-width="2" stroke-linecap="round" stroke-miterlimit="10" points="313.3,308.7 
		313.3,21.6 321.6,12.4 	"/>
	
		<line fill="none" stroke="#231F20" stroke-width="2" stroke-linecap="round" stroke-miterlimit="10" x1="178.7" y1="21.6" x2="313.3" y2="21.6"/>
	
		<rect x="209.6" y="42.7" fill="none" stroke="#231F20" stroke-width="2" stroke-linecap="round" stroke-miterlimit="10" width="71.4" height="57.3"/>
	
		<rect x="48" y="192.7" fill="none" stroke="#231F20" stroke-width="2" stroke-linecap="round" stroke-linejoin="round" stroke-miterlimit="10" width="111.1" height="115.6"/>
	
		<line fill="none" stroke="#231F20" stroke-width="2" stroke-linecap="round" stroke-linejoin="round" stroke-miterlimit="10" x1="255.8" y1="67.5" x2="234.7" y2="85.7"/>
	
		<line fill="none" stroke="#231F20" stroke-width="2" stroke-linecap="round" stroke-linejoin="round" stroke-miterlimit="10" x1="255.8" y1="57" x2="243.6" y2="67.5"/>
	
		<rect x="292.8" y="170" fill="none" stroke="#231F20" stroke-width="2" stroke-linecap="round" stroke-linejoin="round" stroke-miterlimit="10" width="13.8" height="34.2"/>
	
		<circle fill="#FFFFFF" stroke="#231F20" stroke-width="2" stroke-linecap="round" stroke-linejoin="round" stroke-miterlimit="10" cx="292.8" cy="188.5" r="9.1"/>
	
		<path fill="#FFFFFF" stroke="#231F20" stroke-width="2" stroke-linecap="round" stroke-linejoin="round" stroke-miterlimit="10" d="
		M294.4,182.3h-1.3c-3.4,0-6.2,2.8-6.2,6.2v0c0,3.4,2.8,6.2,6.2,6.2h1.3"/>
	<path stroke="#000000" stroke-width="0.2282" stroke-miterlimit="10" d="M90,174.7c18.4-0.6,33.2-15.6,33.2-34.1
		c0-8.8-3.3-17-9.3-23.4l3.6-3.6c0.2,0,0.3,0.1,0.5,0.1c1.1,0,2.1-0.9,2.1-2.1c0-1.1-0.9-2.1-2.1-2.1s-2.1,0.9-2.1,2.1
		c0,0.2,0.1,0.3,0.1,0.5l-4.3,4.3c0,0,0,0,0,0c0,0,0,0,0,0l-3.8,3.8c-5-4.6-11.6-7.4-18.9-7.4c-15.4,0-28,12.5-28,28
		c0,7.3,2.8,13.9,7.4,18.9l-8.1,8.1c-0.4,0.4-0.4,1.1,0,1.5c0.2,0.2,0.5,0.3,0.7,0.3s0.5-0.1,0.7-0.3l3.8-3.8c6.1,5.8,14,9,22.4,9.3
		 M121.1,140.6c0,17.7-14.4,32.1-32.1,32.1c-8.2,0-16-3.1-21.9-8.7l2.8-2.8c5,4.7,11.7,7.6,19.1,7.6c15.4,0,28-12.5,28-28
		c0-7.4-2.9-14.1-7.6-19.1l3.1-3.1C118,124.6,121.1,132.4,121.1,140.6z M88.9,115c14.3,0,25.9,11.6,25.9,25.9s-11.6,25.9-25.9,25.9
		S63,155.2,63,140.9S74.6,115,88.9,115z"/>
	
		<rect x="55.3" y="199" fill="none" stroke="#231F20" stroke-width="2" stroke-linecap="round" stroke-linejoin="round" stroke-miterlimit="10" width="96.7" height="49"/>
	
		<rect x="55.3" y="253.7" fill="none" stroke="#231F20" stroke-width="2" stroke-linecap="round" stroke-linejoin="round" stroke-miterlimit="10" width="96.7" height="49"/>
	
		<rect x="82" y="239.3" fill="none" stroke="#231F20" stroke-width="2" stroke-linecap="round" stroke-linejoin="round" stroke-miterlimit="10" width="31.4" height="8.7"/>
	
		<line fill="none" stroke="#231F20" stroke-width="3" stroke-linecap="round" stroke-linejoin="round" stroke-miterlimit="10" x1="83.3" y1="243.5" x2="94.3" y2="243.5"/>
	
		<rect x="82" y="230.3" fill="none" stroke="#231F20" stroke-width="2" stroke-linecap="round" stroke-linejoin="round" stroke-miterlimit="10" width="31.4" height="8.7"/>
	
		<line fill="none" stroke="#231F20" stroke-width="3" stroke-linecap="round" stroke-linejoin="round" stroke-miterlimit="10" x1="83.3" y1="234.5" x2="94.3" y2="234.5"/>
	
		<rect x="113.4" y="218.3" fill="#FFFFFF" stroke="#231F20" stroke-width="2" stroke-linecap="round" stroke-linejoin="round" stroke-miterlimit="10" width="8.2" height="29.7"/>
	
		<rect x="121.6" y="218.3" fill="#FFFFFF" stroke="#231F20" stroke-width="2" stroke-linecap="round" stroke-linejoin="round" stroke-miterlimit="10" width="8.2" height="29.7"/>
	
		<rect x="134.8" y="217.3" transform="matrix(0.9642 -0.265 0.265 0.9642 -56.5682 45.1058)" fill="#FFFFFF" stroke="#231F20" stroke-width="2" stroke-linecap="round" stroke-linejoin="round" stroke-miterlimit="10" width="8.2" height="29.7"/>
	
		<rect x="56.3" y="271.4" fill="#FFFFFF" stroke="#231F20" stroke-width="2" stroke-linecap="round" stroke-linejoin="round" stroke-miterlimit="10" width="10.4" height="31.2"/>
	
		<rect x="58.9" y="275.2" fill="#FFFFFF" stroke="#231F20" stroke-width="2" stroke-linecap="round" stroke-linejoin="round" stroke-miterlimit="10" width="4.9" height="6"/>
	
		<rect x="66.7" y="271.4" fill="#FFFFFF" stroke="#231F20" stroke-width="2" stroke-linecap="round" stroke-linejoin="round" stroke-miterlimit="10" width="10.4" height="31.2"/>
	
		<rect x="69.3" y="275.2" fill="#FFFFFF" stroke="#231F20" stroke-width="2" stroke-linecap="round" stroke-linejoin="round" stroke-miterlimit="10" width="4.9" height="6"/>
	
		<rect x="77" y="271.4" fill="#FFFFFF" stroke="#231F20" stroke-width="2" stroke-linecap="round" stroke-linejoin="round" stroke-miterlimit="10" width="10.4" height="31.2"/>
	
		<rect x="79.7" y="275.2" fill="#FFFFFF" stroke="#231F20" stroke-width="2" stroke-linecap="round" stroke-linejoin="round" stroke-miterlimit="10" width="4.9" height="6"/>
	
		<rect x="87.4" y="271.4" fill="#FFFFFF" stroke="#231F20" stroke-width="2" stroke-linecap="round" stroke-linejoin="round" stroke-miterlimit="10" width="10.4" height="31.2"/>
	
		<rect x="90.1" y="275.2" fill="#FFFFFF" stroke="#231F20" stroke-width="2" stroke-linecap="round" stroke-linejoin="round" stroke-miterlimit="10" width="4.9" height="6"/>
	<line stroke="#000000" stroke-width="3" stroke-miterlimit="10" x1="88.8" y1="173" x2="88.8" y2="192"/>
	<path fill="#FFFFFF" stroke="#000000" stroke-width="2" stroke-miterlimit="10" d="M89.4,180.3c-6.5,0-11.8,4.7-11.9,11.7h23.7
		C101.2,185,95.9,180.3,89.4,180.3z"/>
	<path fill="none" stroke="#000000" stroke-width="2.0709" stroke-linejoin="round" stroke-miterlimit="10" d="M62.1,141.6
		c0-2.4,0.3-4.7,0.9-6.9l1.3,2.3c0.1,0.1,0.2,0.2,0.3,0.3l3.9,2.9l1,4.5v2.8c0,0.3,0.1,0.5,0.2,0.7l2.9,3.6v7.3
		c0,0.3,0.1,0.6,0.3,0.8l3,3c0.2,0.2,0.5,0.3,0.8,0.3c0.1,0,0.3,0,0.4-0.1c0.4-0.2,0.7-0.6,0.7-1v-4.3l3.3-5.8h1
		c0.6,0,1.1-0.5,1.1-1.1v-7.8c0-0.4-0.2-0.8-0.6-1l-3.8-1.9l-1.3-1.3c-0.1-0.1-0.3-0.2-0.5-0.3l-3.5-0.8l-2-1.8l-0.8-2.3h0.1
		l2.4,2.3c0.2,0.2,0.5,0.3,0.7,0.3h1.6c0.6,0,1.1-0.5,1.1-1.1l0.1-4.9l1.4-1.3l3-0.3c0.6-0.1,1-0.5,1-1.1v-1.6
		c0-0.2-0.1-0.4-0.2-0.6l-1.4-2.2c-0.2-0.3-0.5-0.5-0.8-0.5l-2.8-0.3c-0.4,0-0.8,0.1-1,0.4l-0.8,1h-1.1l-0.9-0.4l1.5-2.2
		c0.2-0.3,0.2-0.6,0.1-0.9c-0.1-0.3-0.3-0.6-0.6-0.7l-0.5-0.2c4.3-3,9.6-4.8,15.3-4.8c5.7,0,11,1.8,15.3,4.8l-5-0.3
		c-0.4,0-0.8,0.2-1,0.5c-0.2,0.3-0.2,0.8,0,1.1l1.4,2.5l-2.5,2.2c-0.2,0.2-0.4,0.5-0.4,0.8c0,0.3,0.1,0.6,0.3,0.8l3.2,3.2
		c0.3,0.3,0.7,0.4,1,0.3l4.5-1.2c0.3-0.1,0.5-0.3,0.7-0.5c0.1-0.3,0.2-0.6,0.1-0.8l-0.8-2.7l1.2,0.2l2.5,3.2l-0.7,3.9
		c-0.1,0.3,0,0.6,0.2,0.9c0.2,0.2,0.5,0.4,0.8,0.4h4.7c0.7,2.4,1.1,5,1.1,7.7c0,14.8-12.1,26.9-26.9,26.9S62.1,156.4,62.1,141.6z"/>
	
		<path fill="#FFFFFF" stroke="#000000" stroke-width="2" stroke-linecap="round" stroke-linejoin="round" stroke-miterlimit="10" d="
		M89.5,150.9c0,0.1,0.1,0.2,0.2,0.2l1.1,1c0.2,0.2,0.4,0.2,0.6,0.2h3.5l0.6,0.5l1,2.8l-0.4,1.7c0,0.2,0,0.4,0.1,0.5l1.2,2.7
		c0.1,0.2,0.3,0.4,0.5,0.4c0.1,0,0.2,0,0.2,0c0.1,0,0.3-0.1,0.5-0.1l6-4c0,0,0,0,0.1,0c0.2-0.2,0.3-0.5,0.3-0.7l-0.2-2.6l2.1-3.9
		c0.1-0.1,0.2-0.3,0.2-0.5c0-0.2-0.1-0.4-0.2-0.5c-0.1-0.1-0.3-0.2-0.4-0.2c-0.1,0-0.2,0-0.3,0h-1.9l-1.8-4
		c-0.1-0.3-0.4-0.5-0.8-0.4h-4.5c0-1.3,0-1.3-0.2-1.5c-0.1-0.1-0.3-0.2-0.5-0.2h-3.6c-0.2,0-0.5,0.1-0.6,0.3l-3.2,3.7
		c-0.1,0.1-0.2,0.3-0.2,0.4l-0.3,1.8c0,0.2,0,0.4,0.1,0.5L89.5,150.9z"/>
</g>
<g id="b_x5F_bg">
</g>
</svg>
