<?xml version="1.0" encoding="utf-8"?>
<!-- Generator: Adobe Illustrator 18.1.1, SVG Export Plug-In . SVG Version: 6.00 Build 0)  -->
<svg version="1.1" xmlns="http://www.w3.org/2000/svg" xmlns:xlink="http://www.w3.org/1999/xlink" x="0px" y="0px"
	 viewBox="0 0 372.1 582.7" enable-background="new 0 0 372.1 582.7" xml:space="preserve">
<g id="Layer_2">
</g>
<g id="g">
</g>
<g id="b">
	<path stroke="#FFFFFF" stroke-width="2" stroke-linecap="round" stroke-linejoin="round" stroke-miterlimit="10" d="M119.9,294
		h10.9c3.1,0,5.9,1.7,7.3,4.4l2.3,5.5c0.8,1.9,3.1,2.8,5,1.9h0l-1.5,4.9c-0.6,2-2.4,3.3-4.5,3.3l0,0c-1.3,0-2.6-0.6-3.5-1.6
		l-0.1-0.2L119.9,294z"/>
	<path stroke="#FFFFFF" stroke-width="2" stroke-linecap="round" stroke-linejoin="round" stroke-miterlimit="10" d="M145.9,376
		l13.7,7.5c3.3,1.8,10.2,1.3,18-1.1c3.1-0.9,4.7-4.3,3.4-7.3l0,0c-1-2.3-3.4-3.4-5.9-3.3c-5.5,0.2-9.3-0.6-9.3-0.6l-18.7-15.5
		c-2.3-1.9-5.3-2.9-8.3-2.8l-6.2,0.3"/>
	<path fill="#231F20" stroke="#FFFFFF" stroke-width="2" stroke-linecap="round" stroke-miterlimit="10" d="M131.5,377.4
		c0,0-13.7,2.6-21.7,8.7"/>
	
		<polyline fill="#231F20" stroke="#FFFFFF" stroke-width="2" stroke-linecap="round" stroke-linejoin="round" stroke-miterlimit="10" points="
		97,368.4 99.1,407.8 120.9,407.8 	"/>
	
		<polyline fill="#231F20" stroke="#FFFFFF" stroke-width="2" stroke-linecap="round" stroke-linejoin="round" stroke-miterlimit="10" points="
		145.6,368 143.5,407.5 121.7,407.5 	"/>
	
		<polyline fill="#231F20" stroke="#FFFFFF" stroke-width="2" stroke-linecap="round" stroke-linejoin="round" stroke-miterlimit="10" points="
		129.4,356.9 121.6,362.8 113.2,357.3 	"/>
	<path stroke="#FFFFFF" stroke-width="2" stroke-linecap="round" stroke-linejoin="round" stroke-miterlimit="10" d="M96.5,376
		l-13.7,7.5c-3.3,1.8-10.2,1.3-18-1.1c-3.1-0.9-4.7-4.3-3.4-7.3h0c1-2.3,3.4-3.4,5.9-3.3c5.5,0.2,9.3-0.6,9.3-0.6l18.7-15.5
		c2.3-1.9,5.3-2.9,8.3-2.8l6.2,0.3"/>
	<path stroke="#FFFFFF" stroke-width="2" stroke-linecap="round" stroke-linejoin="round" stroke-miterlimit="10" d="M328.7,376
		l13.7,7.5c3.3,1.8,10.2,1.3,18-1.1c3.1-0.9,4.7-4.3,3.4-7.3h0c-1-2.3-3.4-3.4-5.9-3.3c-5.5,0.2-9.3-0.6-9.3-0.6l-18.7-15.5
		c-2.3-1.9-5.3-2.9-8.3-2.8l-6.2,0.3"/>
	<path fill="#231F20" stroke="#FFFFFF" stroke-width="2" stroke-linecap="round" stroke-miterlimit="10" d="M314.2,377.4
		c0,0-13.7,2.6-21.7,8.7"/>
	
		<polyline fill="#231F20" stroke="#FFFFFF" stroke-width="2" stroke-linecap="round" stroke-linejoin="round" stroke-miterlimit="10" points="
		279.8,368.4 281.8,407.8 303.7,407.8 	"/>
	
		<polyline fill="#231F20" stroke="#FFFFFF" stroke-width="2" stroke-linecap="round" stroke-linejoin="round" stroke-miterlimit="10" points="
		328.3,368 326.3,407.5 304.4,407.5 	"/>
	
		<polyline fill="#231F20" stroke="#FFFFFF" stroke-width="2" stroke-linecap="round" stroke-linejoin="round" stroke-miterlimit="10" points="
		312.2,356.9 304.4,362.8 295.9,357.3 	"/>
	<path stroke="#FFFFFF" stroke-width="2" stroke-linecap="round" stroke-linejoin="round" stroke-miterlimit="10" d="M279.2,376
		l-13.7,7.5c-3.3,1.8-10.2,1.3-18-1.1c-3.1-0.9-4.7-4.3-3.4-7.3h0c1-2.3,3.4-3.4,5.9-3.3c5.5,0.2,9.3-0.6,9.3-0.6l18.7-15.5
		c2.3-1.9,5.3-2.9,8.3-2.8l6.2,0.3"/>
	<path stroke="#FFFFFF" stroke-width="2" stroke-linecap="round" stroke-linejoin="round" stroke-miterlimit="10" d="M120.9,294
		L120.9,294c-5,0-9.6,2-12.9,5.3c-3.2,3.2-5.2,7.6-5.3,12.5c0,0.1,0,0.1,0,0.2v0.2v16.6v0.6c0,10.1,8.2,18.2,18.2,18.2h0
		c5,0,9.6-2,12.9-5.3c3.2-3.2,5.2-7.6,5.3-12.5c0-0.1,0-0.1,0-0.2v-0.2v-16.6v-0.6C139.2,302.2,131,294,120.9,294z"/>
	<path stroke="#FFFFFF" stroke-width="2" stroke-linecap="round" stroke-linejoin="round" stroke-miterlimit="10" d="M320.7,301.6
		l-4.1,2.1c-0.1,0-0.1-0.1-0.2-0.1l5.6-12.2c0.4-0.8-0.2-1.8-1.1-1.9l-7.5-0.7c-7.2-0.7-14,3.3-16.8,9.9l-0.8,1.9l-7.6-5.8
		c-0.8-0.6-1.9,0-1.9,1l0.1,35.1v0.5c0,9,8.2,16.3,18.2,16.3h0c5,0,9.6-1.8,12.9-4.8c3.2-2.9,5.2-6.8,5.3-11.2c0,0,0-0.1,0-0.1v-0.2
		v-5.6V316v-13.1C322.9,301.8,321.7,301,320.7,301.6z"/>
	
		<polygon fill="#231F20" stroke="#FFFFFF" stroke-width="2" stroke-linecap="round" stroke-linejoin="round" stroke-miterlimit="10" points="
		130.7,505.9 137.1,505.9 139.5,481.5 128,481.5 	"/>
	
		<rect x="71.4" y="415.4" stroke="#FFFFFF" stroke-width="2" stroke-linecap="round" stroke-miterlimit="10" width="6.1" height="109.6"/>
	
		<rect x="71.4" y="525" fill="#FFFFFF" stroke="#FFFFFF" stroke-width="2" stroke-linecap="round" stroke-linejoin="round" stroke-miterlimit="10" width="6.1" height="5.1"/>
	
		<rect x="164.7" y="415.4" stroke="#FFFFFF" stroke-width="2" stroke-linecap="round" stroke-miterlimit="10" width="6.1" height="109.6"/>
	
		<rect x="164.7" y="525" fill="#FFFFFF" stroke="#FFFFFF" stroke-width="2" stroke-linecap="round" stroke-linejoin="round" stroke-miterlimit="10" width="6.1" height="5.1"/>
	<path stroke="#FFFFFF" stroke-width="2" stroke-linecap="round" stroke-miterlimit="10" d="M179.6,389.5H58c-1.8,0-3.2-1.4-3.2-3.2
		v-2.5c0-1.8,1.4-3.2,3.2-3.2h121.6c1.8,0,3.2,1.4,3.2,3.2v2.5C182.8,388,181.4,389.5,179.6,389.5z"/>
	<path stroke="#FFFFFF" stroke-width="2" stroke-linecap="round" stroke-miterlimit="10" d="M176.4,415.1H61.2c-1.1,0-2-0.9-2-2
		v-23.7h119.1v23.7C178.4,414.2,177.5,415.1,176.4,415.1z"/>
	<path stroke="#FFFFFF" stroke-width="2" stroke-linecap="round" stroke-miterlimit="10" d="M121.4,367.3H82.9
		c-6.2,0-10.8,5.6-9.7,11.6l11.4,40.6c0.8,2.7,3.2,4.5,6,4.5h30.8h30.5c2.8,0,5.2-1.8,6-4.5l11.7-40.6c1.1-6.1-3.5-11.6-9.7-11.6
		H121.4z"/>
	<path stroke="#FFFFFF" stroke-width="2" stroke-linecap="round" stroke-linejoin="round" stroke-miterlimit="10" d="M136.9,397.9
		h-31.1v0c1.1-6.8,7.1-11.8,14-11.8h3.1C129.8,386,135.8,391,136.9,397.9L136.9,397.9z"/>
	
		<line fill="#231F20" stroke="#FFFFFF" stroke-width="2" stroke-linecap="round" stroke-miterlimit="10" x1="73.5" y1="377.1" x2="143.1" y2="377.1"/>
	
		<line fill="#231F20" stroke="#FFFFFF" stroke-width="2" stroke-linecap="round" stroke-miterlimit="10" x1="153.9" y1="377.1" x2="169.2" y2="377.1"/>
	<polygon stroke="#FFFFFF" stroke-width="2" stroke-linecap="round" stroke-linejoin="round" stroke-miterlimit="10" points="
		156.5,529.8 150.6,529.8 147.2,449.2 156.5,449.2 	"/>
	
		<line fill="#231F20" stroke="#FFFFFF" stroke-width="2" stroke-linecap="round" stroke-miterlimit="10" x1="153.8" y1="449.2" x2="153.8" y2="496.9"/>
	
		<line fill="#231F20" stroke="#FFFFFF" stroke-width="2" stroke-linecap="round" stroke-miterlimit="10" x1="153.8" y1="514" x2="153.8" y2="527.5"/>
	<polygon stroke="#FFFFFF" stroke-width="2" stroke-linecap="round" stroke-linejoin="round" stroke-miterlimit="10" points="
		85.8,529.8 91.8,529.8 95.2,449.2 85.8,449.2 	"/>
	
		<line fill="#231F20" stroke="#FFFFFF" stroke-width="2" stroke-linecap="round" stroke-miterlimit="10" x1="88.5" y1="449.2" x2="88.5" y2="496.9"/>
	
		<line fill="#231F20" stroke="#FFFFFF" stroke-width="2" stroke-linecap="round" stroke-miterlimit="10" x1="88.5" y1="514" x2="88.5" y2="527.5"/>
	<path stroke="#FFFFFF" stroke-width="2" stroke-linecap="round" stroke-linejoin="round" stroke-miterlimit="10" d="M96.6,435.4
		c-4.3-3.9-2.5-11.3-2.5-11.3h53c0,0,1.9,7.4-2.5,11.3H96.6z"/>
	
		<polygon fill="#FFFFFF" stroke="#FFFFFF" stroke-width="2" stroke-linecap="round" stroke-linejoin="round" stroke-miterlimit="10" points="
		112.7,505.9 110.9,505.9 108.7,505.9 106.9,505.9 103.7,512.5 108.7,512.5 110.9,512.5 115.9,512.5 	"/>
	
		<polygon fill="#FFFFFF" stroke="#FFFFFF" stroke-width="2" stroke-linecap="round" stroke-linejoin="round" stroke-miterlimit="10" points="
		136.6,505.9 134.9,505.9 132.6,505.9 130.8,505.9 127.6,512.5 132.6,512.5 134.9,512.5 139.8,512.5 	"/>
	
		<rect x="254.1" y="415.4" stroke="#FFFFFF" stroke-width="2" stroke-linecap="round" stroke-miterlimit="10" width="6.1" height="109.6"/>
	
		<rect x="254.1" y="525" fill="#FFFFFF" stroke="#FFFFFF" stroke-width="2" stroke-linecap="round" stroke-linejoin="round" stroke-miterlimit="10" width="6.1" height="5.1"/>
	
		<rect x="347.4" y="415.4" stroke="#FFFFFF" stroke-width="2" stroke-linecap="round" stroke-miterlimit="10" width="6.1" height="109.6"/>
	
		<rect x="347.4" y="525" fill="#FFFFFF" stroke="#FFFFFF" stroke-width="2" stroke-linecap="round" stroke-linejoin="round" stroke-miterlimit="10" width="6.1" height="5.1"/>
	<path stroke="#FFFFFF" stroke-width="2" stroke-linecap="round" stroke-miterlimit="10" d="M362.3,389.5H240.7
		c-1.8,0-3.2-1.4-3.2-3.2v-2.5c0-1.8,1.4-3.2,3.2-3.2h121.6c1.8,0,3.2,1.4,3.2,3.2v2.5C365.5,388,364.1,389.5,362.3,389.5z"/>
	<path stroke="#FFFFFF" stroke-width="2" stroke-linecap="round" stroke-miterlimit="10" d="M359.1,415.1H244c-1.1,0-2-0.9-2-2
		v-23.7h119.1v23.7C361.1,414.2,360.2,415.1,359.1,415.1z"/>
	<path stroke="#FFFFFF" stroke-width="2" stroke-linecap="round" stroke-miterlimit="10" d="M304.1,367.3h-38.5
		c-6.2,0-10.8,5.6-9.7,11.6l11.4,40.6c0.8,2.7,3.2,4.5,6,4.5h30.8h30.5c2.8,0,5.2-1.8,6-4.5l11.7-40.6c1.1-6.1-3.5-11.6-9.7-11.6
		H304.1z"/>
	<path stroke="#FFFFFF" stroke-width="2" stroke-linecap="round" stroke-linejoin="round" stroke-miterlimit="10" d="M319.6,397.9
		h-31.1v0c1.1-6.8,7.1-11.8,14-11.8h3.1C312.6,386,318.5,391,319.6,397.9L319.6,397.9z"/>
	<path stroke="#FFFFFF" stroke-width="2" stroke-linecap="round" stroke-miterlimit="10" d="M305.6,437.8h-3.1
		c-2.1,0-3.9-1.7-3.9-3.9v-38.6c0-2.1,1.7-3.9,3.9-3.9h3.1c2.1,0,3.9,1.7,3.9,3.9v38.6C309.5,436.1,307.8,437.8,305.6,437.8z"/>
	
		<line fill="#231F20" stroke="#FFFFFF" stroke-width="2" stroke-linecap="round" stroke-miterlimit="10" x1="256.2" y1="377.1" x2="325.8" y2="377.1"/>
	
		<line fill="#231F20" stroke="#FFFFFF" stroke-width="2" stroke-linecap="round" stroke-miterlimit="10" x1="336.7" y1="377.1" x2="352" y2="377.1"/>
	<polygon stroke="#FFFFFF" stroke-width="2" stroke-linecap="round" stroke-linejoin="round" stroke-miterlimit="10" points="
		339.3,529.8 333.4,529.8 329.9,449.2 339.3,449.2 	"/>
	
		<line fill="#231F20" stroke="#FFFFFF" stroke-width="2" stroke-linecap="round" stroke-miterlimit="10" x1="336.6" y1="449.2" x2="336.6" y2="496.9"/>
	
		<line fill="#231F20" stroke="#FFFFFF" stroke-width="2" stroke-linecap="round" stroke-miterlimit="10" x1="336.6" y1="514" x2="336.6" y2="527.5"/>
	<polygon stroke="#FFFFFF" stroke-width="2" stroke-linecap="round" stroke-linejoin="round" stroke-miterlimit="10" points="
		268.6,529.8 274.5,529.8 277.9,449.2 268.6,449.2 	"/>
	
		<line fill="#231F20" stroke="#FFFFFF" stroke-width="2" stroke-linecap="round" stroke-miterlimit="10" x1="271.3" y1="449.2" x2="271.3" y2="496.9"/>
	
		<line fill="#231F20" stroke="#FFFFFF" stroke-width="2" stroke-linecap="round" stroke-miterlimit="10" x1="271.3" y1="514" x2="271.3" y2="527.5"/>
	<path stroke="#FFFFFF" stroke-width="2" stroke-linecap="round" stroke-linejoin="round" stroke-miterlimit="10" d="M329.9,424
		c0,0,1.9,7.4-2.5,11.3"/>
	<path stroke="#FFFFFF" stroke-width="2" stroke-linecap="round" stroke-linejoin="round" stroke-miterlimit="10" d="M276.9,424
		c0,0-1.9,7.4,2.5,11.3"/>
	<polygon stroke="#FFFFFF" stroke-width="2" stroke-linecap="round" stroke-linejoin="round" stroke-miterlimit="10" points="
		283.4,449.2 289.5,505.9 295.9,505.9 301.5,449.2 	"/>
	
		<polygon fill="#FFFFFF" stroke="#FFFFFF" stroke-width="2" stroke-linecap="round" stroke-linejoin="round" stroke-miterlimit="10" points="
		295.4,505.9 293.7,505.9 291.4,505.9 289.7,505.9 286.4,512.5 291.4,512.5 293.7,512.5 298.7,512.5 	"/>
	<polygon stroke="#FFFFFF" stroke-width="2" stroke-linecap="round" stroke-linejoin="round" stroke-miterlimit="10" points="
		307.3,449.2 313.4,505.9 319.8,505.9 325.4,449.2 	"/>
	
		<polygon fill="#FFFFFF" stroke="#FFFFFF" stroke-width="2" stroke-linecap="round" stroke-linejoin="round" stroke-miterlimit="10" points="
		319.3,505.9 317.6,505.9 315.3,505.9 313.6,505.9 310.3,512.5 315.3,512.5 317.6,512.5 322.6,512.5 	"/>
	
		<polygon fill="#231F20" stroke="#FFFFFF" stroke-width="2" stroke-linecap="round" stroke-linejoin="round" stroke-miterlimit="10" points="
		106.8,505.9 113.2,505.9 115.6,481.5 104.1,481.5 	"/>
	<polygon stroke="#FFFFFF" stroke-width="2" stroke-linecap="round" stroke-linejoin="round" stroke-miterlimit="10" points="
		100.6,449.2 104.1,502.1 115.6,502.1 118.8,449.2 	"/>
	<polygon stroke="#FFFFFF" stroke-width="2" stroke-linecap="round" stroke-linejoin="round" stroke-miterlimit="10" points="
		124.6,449.2 128,502.1 139.5,502.1 142.7,449.2 	"/>
	<path stroke="#FFFFFF" stroke-width="2" stroke-linecap="round" stroke-miterlimit="10" d="M122.9,437.8h-3.1
		c-2.1,0-3.9-1.7-3.9-3.9v-38.6c0-2.1,1.7-3.9,3.9-3.9h3.1c2.1,0,3.9,1.7,3.9,3.9v38.6C126.8,436.1,125,437.8,122.9,437.8z"/>
	<path stroke="#FFFFFF" stroke-width="2" stroke-linecap="round" stroke-miterlimit="10" d="M167,449.2H75.7c-0.4,0-0.7-0.3-0.7-0.7
		V436c0-0.4,0.3-0.7,0.7-0.7H167c0.4,0,0.7,0.3,0.7,0.7v12.5C167.7,448.9,167.4,449.2,167,449.2z"/>
	
		<line fill="#231F20" stroke="#FFFFFF" stroke-width="2" stroke-linecap="round" stroke-miterlimit="10" x1="75.6" y1="440.3" x2="143.1" y2="440.3"/>
	
		<line fill="#231F20" stroke="#FFFFFF" stroke-width="2" stroke-linecap="round" stroke-miterlimit="10" x1="153.9" y1="440.3" x2="167.7" y2="440.3"/>
	<path stroke="#FFFFFF" stroke-width="2" stroke-linecap="round" stroke-miterlimit="10" d="M349.8,449.2h-91.4
		c-0.4,0-0.7-0.3-0.7-0.7V436c0-0.4,0.3-0.7,0.7-0.7h91.4c0.4,0,0.7,0.3,0.7,0.7v12.5C350.5,448.9,350.2,449.2,349.8,449.2z"/>
	
		<line fill="#231F20" stroke="#FFFFFF" stroke-width="2" stroke-linecap="round" stroke-miterlimit="10" x1="258.4" y1="440.3" x2="325.8" y2="440.3"/>
	
		<line fill="#231F20" stroke="#FFFFFF" stroke-width="2" stroke-linecap="round" stroke-miterlimit="10" x1="336.7" y1="440.3" x2="350.5" y2="440.3"/>
	<path fill="none" stroke="#FFFFFF" stroke-width="2" stroke-linejoin="round" stroke-miterlimit="10" d="M-0.5,22h236
		c3.7,0,6.8,2.7,6.8,5.9v246.2c0,3.3-3,5.9-6.8,5.9h-236"/>
	
		<line fill="none" stroke="#FFFFFF" stroke-width="2" stroke-linejoin="round" stroke-miterlimit="10" x1="-0.5" y1="31.1" x2="90.8" y2="31.1"/>
	
		<line fill="none" stroke="#FFFFFF" stroke-width="2" stroke-linejoin="round" stroke-miterlimit="10" x1="-0.5" y1="270.1" x2="90.8" y2="270.1"/>
	
		<line fill="none" stroke="#FFFFFF" stroke-width="2" stroke-linecap="round" stroke-linejoin="round" stroke-miterlimit="10" x1="8.7" y1="270.1" x2="100" y2="270.1"/>
	
		<line fill="none" stroke="#FFFFFF" stroke-width="2" stroke-linecap="round" stroke-linejoin="round" stroke-miterlimit="10" x1="8.7" y1="31.1" x2="100" y2="31.1"/>
	<path fill="none" stroke="#FFFFFF" stroke-width="2" stroke-linecap="round" stroke-linejoin="round" stroke-miterlimit="10" d="
		M114.1,31.1h115.7c0.5,0,0.8,0.3,0.8,0.7V167"/>
	<path fill="none" stroke="#FFFFFF" stroke-width="2" stroke-linecap="round" stroke-linejoin="round" stroke-miterlimit="10" d="
		M114.1,269.9h115.7c0.5,0,0.8-0.3,0.8-0.7v-110"/>
</g>
<g id="g_x5F_bg">
</g>
<g id="b_x5F_bg">
</g>
</svg>
