<?xml version="1.0" encoding="utf-8"?>
<!-- Generator: Adobe Illustrator 18.1.1, SVG Export Plug-In . SVG Version: 6.00 Build 0)  -->
<svg version="1.1" xmlns="http://www.w3.org/2000/svg" xmlns:xlink="http://www.w3.org/1999/xlink" x="0px" y="0px"
	 viewBox="0 0 517.2 334" enable-background="new 0 0 517.2 334" xml:space="preserve">
<g id="Layer_2">
</g>
<g id="g">
</g>
<g id="b">
</g>
<g id="g_x5F_bg">
</g>
<g id="b_x5F_bg">
	<path fill="none" stroke="#FFFFFF" stroke-width="2.1085" stroke-linecap="round" stroke-miterlimit="10" d="M383.3,275.4h28.3
		c1.1,0,1.9,0.7,1.9,1.6v10.4c0,0.9-0.9,1.6-1.9,1.6H191.1c-1.1,0-1.9-0.7-1.9-1.6V277c0-0.9,0.9-1.6,1.9-1.6h167.6"/>
	<path fill="none" stroke="#FFFFFF" stroke-width="2.1085" stroke-linecap="round" stroke-miterlimit="10" d="M383.3,23.2h28.3
		c1.1,0,1.9-0.7,1.9-1.6V11.3c0-0.9-0.9-1.6-1.9-1.6H191.1c-1.1,0-1.9,0.7-1.9,1.6v10.4c0,0.9,0.9,1.6,1.9,1.6h167.6"/>
	
		<polygon fill="none" stroke="#FFFFFF" stroke-width="2.1085" stroke-linecap="round" stroke-linejoin="round" stroke-miterlimit="10" points="
		195.9,288.9 195.9,308.2 204.3,308.2 210.8,288.9 	"/>
	
		<polygon fill="none" stroke="#FFFFFF" stroke-width="2.1085" stroke-linecap="round" stroke-linejoin="round" stroke-miterlimit="10" points="
		406.7,288.9 406.7,308.2 398.4,308.2 391.9,288.9 	"/>
	
		<line fill="none" stroke="#FFFFFF" stroke-width="2" stroke-linecap="round" stroke-miterlimit="10" x1="4.2" y1="308.2" x2="516" y2="308.2"/>
	
		<line fill="none" stroke="#FFFFFF" stroke-width="2.1085" stroke-linecap="round" stroke-linejoin="round" stroke-miterlimit="10" x1="195.9" y1="23.7" x2="195.9" y2="274.5"/>
	
		<line fill="none" stroke="#FFFFFF" stroke-width="2.1085" stroke-linecap="round" stroke-linejoin="round" stroke-miterlimit="10" x1="301.3" y1="23.7" x2="301.3" y2="274.5"/>
	
		<line fill="none" stroke="#FFFFFF" stroke-width="2.1085" stroke-linecap="round" stroke-linejoin="round" stroke-miterlimit="10" x1="284.1" y1="141.8" x2="284.1" y2="158"/>
	
		<line fill="none" stroke="#FFFFFF" stroke-width="2.1085" stroke-linecap="round" stroke-linejoin="round" stroke-miterlimit="10" x1="319.3" y1="141.8" x2="319.3" y2="158"/>
	
		<line fill="none" stroke="#FFFFFF" stroke-width="2.1085" stroke-linecap="round" stroke-linejoin="round" stroke-miterlimit="10" x1="406.7" y1="23.7" x2="406.7" y2="274.5"/>
	<path stroke="#FFFFFF" stroke-width="2" stroke-miterlimit="10" d="M416.2,244h40l4.8,9.6c7,14.1,7,30.6,0,44.7l-4.8,9.6h-40
		l-4.9-10.2c-6.7-13.8-6.7-29.8,0-43.6L416.2,244z"/>
	<path stroke="#FFFFFF" stroke-width="2" stroke-linecap="round" stroke-miterlimit="10" d="M426.2,244h38.5c1.4,0,2.5,1.1,2.5,2.5
		l0,0c0,1.4-1.1,2.5-2.5,2.5h-14.5"/>
	<line stroke="#FFFFFF" stroke-width="2" stroke-miterlimit="10" x1="413.2" y1="303" x2="459.2" y2="303"/>
	<path stroke="#FFFFFF" stroke-width="2" stroke-linecap="round" stroke-miterlimit="10" d="M446.7,244h-38.5
		c-1.4,0-2.5,1.1-2.5,2.5l0,0c0,1.4,1.1,2.5,2.5,2.5h14.5"/>
	<line stroke="#FFFFFF" stroke-width="2" stroke-linecap="round" stroke-miterlimit="10" x1="435.2" y1="184" x2="435.2" y2="244"/>
	<path stroke="#FFFFFF" stroke-width="1.5" stroke-linecap="round" stroke-miterlimit="10" d="M425.1,180.7l-2.2,3.2
		c-0.8,1.1-2.3,1.4-3.4,0.6h0c-1.1-0.8-1.4-2.3-0.6-3.4l0.4-0.6c0.4-0.6,0.3-1.5-0.3-2l0,0c-0.6-0.4-1.5-0.3-2,0.3l-0.2,0.3
		c-0.6,0.8-1.6,1-2.4,0.4l0,0c-0.8-0.6-1-1.6-0.4-2.4l1.2-1.7c0.3-0.5,0.2-1.1-0.3-1.5l0,0c-0.5-0.3-1.1-0.2-1.5,0.3l-0.2,0.3
		c-0.6,0.8-1.6,1-2.4,0.4l0,0c-0.8-0.6-1-1.6-0.4-2.4l1-1.4l0.3-0.4c0.2-0.2,0.1-0.6-0.1-0.7l-0.3-0.2c-0.2-0.2-0.6-0.1-0.7,0.1l0,0
		c-0.5,0.7-1.5,0.9-2.2,0.4h0c-0.7-0.5-0.9-1.5-0.4-2.2l2.1-3"/>
	<path stroke="#FFFFFF" stroke-width="1.5" stroke-linecap="round" stroke-miterlimit="10" d="M428.2,176.3l2.2-3.2
		c0.8-1.1,0.5-2.6-0.6-3.4l0,0c-1.1-0.8-2.6-0.5-3.4,0.6l-0.4,0.6c-0.4,0.6-1.3,0.8-2,0.3l0,0c-0.6-0.4-0.8-1.3-0.3-2l0.2-0.3
		c0.6-0.8,0.4-1.9-0.4-2.4l0,0c-0.8-0.6-1.9-0.4-2.4,0.4l-1.2,1.7c-0.3,0.5-1,0.6-1.5,0.3v0c-0.5-0.3-0.6-1-0.3-1.5l0.2-0.3
		c0.6-0.8,0.4-1.9-0.4-2.4l0,0c-0.8-0.6-1.9-0.4-2.4,0.4l-1,1.4l-0.3,0.4c-0.2,0.2-0.5,0.3-0.7,0.1l-0.3-0.2
		c-0.2-0.2-0.3-0.5-0.1-0.7l0,0c0.5-0.7,0.3-1.7-0.4-2.2l0,0c-0.7-0.5-1.7-0.3-2.2,0.4l-2.1,3"/>
	
		<line stroke="#FFFFFF" stroke-width="1.5" stroke-linecap="round" stroke-miterlimit="10" x1="417.9" y1="172.2" x2="434.9" y2="184.2"/>
	<path stroke="#FFFFFF" stroke-width="1.5" stroke-linecap="round" stroke-miterlimit="10" d="M444.4,180.7l2.2,3.2
		c0.8,1.1,2.3,1.4,3.4,0.6l0,0c1.1-0.8,1.4-2.3,0.6-3.4l-0.4-0.6c-0.4-0.6-0.3-1.5,0.3-2l0,0c0.6-0.4,1.5-0.3,2,0.3l0.2,0.3
		c0.6,0.8,1.6,1,2.4,0.4l0,0c0.8-0.6,1-1.6,0.4-2.4l-1.2-1.7c-0.3-0.5-0.2-1.1,0.3-1.5l0,0c0.5-0.3,1.1-0.2,1.5,0.3l0.2,0.3
		c0.6,0.8,1.6,1,2.4,0.4l0,0c0.8-0.6,1-1.6,0.4-2.4l-1-1.4l-0.3-0.4c-0.2-0.2-0.1-0.6,0.1-0.7l0.3-0.2c0.2-0.2,0.6-0.1,0.7,0.1l0,0
		c0.5,0.7,1.5,0.9,2.2,0.4l0,0c0.7-0.5,0.9-1.5,0.4-2.2l-2.1-3"/>
	<path stroke="#FFFFFF" stroke-width="1.5" stroke-linecap="round" stroke-miterlimit="10" d="M441.3,176.3l-2.2-3.2
		c-0.8-1.1-0.5-2.6,0.6-3.4l0,0c1.1-0.8,2.6-0.5,3.4,0.6l0.4,0.6c0.4,0.6,1.3,0.8,2,0.3l0,0c0.6-0.4,0.8-1.3,0.3-2l-0.2-0.3
		c-0.6-0.8-0.4-1.9,0.4-2.4h0c0.8-0.6,1.9-0.4,2.4,0.4l1.2,1.7c0.3,0.5,1,0.6,1.5,0.3v0c0.5-0.3,0.6-1,0.3-1.5l-0.2-0.3
		c-0.6-0.8-0.4-1.9,0.4-2.4l0,0c0.8-0.6,1.9-0.4,2.4,0.4l1,1.4l0.3,0.4c0.2,0.2,0.5,0.3,0.7,0.1l0.3-0.2c0.2-0.2,0.3-0.5,0.1-0.7
		l0,0c-0.5-0.7-0.3-1.7,0.4-2.2l0,0c0.7-0.5,1.7-0.3,2.2,0.4l2.1,3"/>
	
		<line stroke="#FFFFFF" stroke-width="1.5" stroke-linecap="round" stroke-miterlimit="10" x1="451.9" y1="172.2" x2="434.9" y2="184.2"/>
	<path stroke="#FFFFFF" stroke-width="1.5" stroke-linecap="round" stroke-miterlimit="10" d="M423.7,206.9l-2.6,3.6
		c-0.9,1.3-2.7,1.6-3.9,0.7l0,0c-1.3-0.9-1.6-2.7-0.7-3.9l0.5-0.7c0.5-0.7,0.3-1.7-0.4-2.3l0,0c-0.7-0.5-1.7-0.3-2.3,0.4l-0.2,0.3
		c-0.6,0.9-1.9,1.1-2.8,0.5h0c-0.9-0.6-1.1-1.9-0.5-2.8l1.4-2c0.4-0.5,0.3-1.3-0.3-1.7l0,0c-0.5-0.4-1.3-0.3-1.7,0.3l-0.2,0.3
		c-0.6,0.9-1.9,1.1-2.8,0.5l0,0c-0.9-0.6-1.1-1.9-0.5-2.8l1.2-1.7l0.3-0.5c0.2-0.3,0.1-0.7-0.1-0.8l-0.3-0.2
		c-0.3-0.2-0.7-0.1-0.8,0.1l0,0c-0.6,0.8-1.7,1-2.5,0.4v0c-0.8-0.6-1-1.7-0.4-2.5l2.4-3.5"/>
	<path stroke="#FFFFFF" stroke-width="1.5" stroke-linecap="round" stroke-miterlimit="10" d="M427.2,201.9l2.6-3.6
		c0.9-1.3,0.6-3-0.7-3.9l0,0c-1.3-0.9-3-0.6-3.9,0.7l-0.5,0.7c-0.5,0.7-1.5,0.9-2.3,0.4l0,0c-0.7-0.5-0.9-1.5-0.4-2.3l0.2-0.3
		c0.6-0.9,0.4-2.2-0.5-2.8h0c-0.9-0.6-2.2-0.4-2.8,0.5l-1.4,2c-0.4,0.5-1.1,0.7-1.7,0.3l0,0c-0.5-0.4-0.7-1.1-0.3-1.7l0.2-0.3
		c0.6-0.9,0.4-2.2-0.5-2.8l0,0c-0.9-0.6-2.2-0.4-2.8,0.5l-1.2,1.7l-0.3,0.5c-0.2,0.3-0.6,0.3-0.8,0.1l-0.3-0.2
		c-0.3-0.2-0.3-0.6-0.1-0.8l0,0c0.6-0.8,0.4-2-0.4-2.5l0,0c-0.8-0.6-2-0.4-2.5,0.4l-2.4,3.5"/>
	
		<line stroke="#FFFFFF" stroke-width="1.5" stroke-linecap="round" stroke-miterlimit="10" x1="415.3" y1="197.1" x2="435" y2="210.9"/>
	<path stroke="#FFFFFF" stroke-width="1.5" stroke-linecap="round" stroke-miterlimit="10" d="M445.8,206.9l2.6,3.6
		c0.9,1.3,2.7,1.6,3.9,0.7l0,0c1.3-0.9,1.6-2.7,0.7-3.9l-0.5-0.7c-0.5-0.7-0.3-1.7,0.4-2.3l0,0c0.7-0.5,1.7-0.3,2.3,0.4l0.2,0.3
		c0.6,0.9,1.9,1.1,2.8,0.5l0,0c0.9-0.6,1.1-1.9,0.5-2.8l-1.4-2c-0.4-0.5-0.3-1.3,0.3-1.7l0,0c0.5-0.4,1.3-0.3,1.7,0.3l0.2,0.3
		c0.6,0.9,1.9,1.1,2.8,0.5l0,0c0.9-0.6,1.1-1.9,0.5-2.8l-1.2-1.7l-0.3-0.5c-0.2-0.3-0.1-0.7,0.1-0.8l0.3-0.2
		c0.3-0.2,0.7-0.1,0.8,0.1l0,0c0.6,0.8,1.7,1,2.5,0.4v0c0.8-0.6,1-1.7,0.4-2.5l-2.4-3.5"/>
	<path stroke="#FFFFFF" stroke-width="1.5" stroke-linecap="round" stroke-miterlimit="10" d="M442.3,201.9l-2.6-3.6
		c-0.9-1.3-0.6-3,0.7-3.9l0,0c1.3-0.9,3-0.6,3.9,0.7l0.5,0.7c0.5,0.7,1.5,0.9,2.3,0.4l0,0c0.7-0.5,0.9-1.5,0.4-2.3l-0.2-0.3
		c-0.6-0.9-0.4-2.2,0.5-2.8l0,0c0.9-0.6,2.2-0.4,2.8,0.5l1.4,2c0.4,0.5,1.1,0.7,1.7,0.3l0,0c0.5-0.4,0.7-1.1,0.3-1.7l-0.2-0.3
		c-0.6-0.9-0.4-2.2,0.5-2.8l0,0c0.9-0.6,2.2-0.4,2.8,0.5l1.2,1.7l0.3,0.5c0.2,0.3,0.6,0.3,0.8,0.1l0.3-0.2c0.3-0.2,0.3-0.6,0.1-0.8
		l0,0c-0.6-0.8-0.4-2,0.4-2.5l0,0c0.8-0.6,2-0.4,2.5,0.4l2.4,3.5"/>
	
		<line stroke="#FFFFFF" stroke-width="1.5" stroke-linecap="round" stroke-miterlimit="10" x1="454.5" y1="197.1" x2="435" y2="210.9"/>
	<path stroke="#FFFFFF" stroke-width="1.5" stroke-linecap="round" stroke-miterlimit="10" d="M422,235.7l-2.9,4.2
		c-1,1.5-3.1,1.8-4.5,0.8l0,0c-1.5-1-1.8-3.1-0.8-4.5l0.5-0.8c0.6-0.8,0.4-2-0.5-2.6l0,0c-0.8-0.6-2-0.4-2.6,0.5l-0.3,0.4
		c-0.7,1.1-2.2,1.3-3.2,0.6h0c-1.1-0.7-1.3-2.2-0.6-3.2l1.6-2.3c0.4-0.6,0.3-1.5-0.3-1.9v0c-0.6-0.4-1.5-0.3-1.9,0.3l-0.3,0.4
		c-0.7,1.1-2.2,1.3-3.2,0.6l0,0c-1.1-0.7-1.3-2.2-0.6-3.2l1.3-1.9l0.4-0.6c0.2-0.3,0.1-0.8-0.2-1l-0.4-0.3c-0.3-0.2-0.8-0.1-1,0.2
		l0,0c-0.7,0.9-2,1.2-2.9,0.5v0c-0.9-0.7-1.2-2-0.5-2.9l2.8-4"/>
	<path stroke="#FFFFFF" stroke-width="1.5" stroke-linecap="round" stroke-miterlimit="10" d="M426.1,229.9l2.9-4.2
		c1-1.5,0.7-3.5-0.8-4.5l0,0c-1.5-1-3.5-0.7-4.5,0.8l-0.5,0.8c-0.6,0.8-1.7,1-2.6,0.5l0,0c-0.8-0.6-1-1.7-0.5-2.6l0.3-0.4
		c0.7-1.1,0.5-2.5-0.6-3.2l0,0c-1.1-0.7-2.5-0.5-3.2,0.6l-1.6,2.3c-0.4,0.6-1.3,0.8-1.9,0.3l0,0c-0.6-0.4-0.8-1.3-0.3-1.9l0.3-0.4
		c0.7-1.1,0.5-2.5-0.6-3.2l0,0c-1.1-0.7-2.5-0.5-3.2,0.6l-1.3,1.9l-0.4,0.6c-0.2,0.3-0.7,0.4-1,0.2l-0.4-0.3c-0.3-0.2-0.4-0.7-0.2-1
		l0,0c0.7-0.9,0.4-2.3-0.5-2.9v0c-0.9-0.7-2.3-0.4-2.9,0.5l-2.8,4"/>
	
		<line stroke="#FFFFFF" stroke-width="1.5" stroke-linecap="round" stroke-miterlimit="10" x1="412.4" y1="224.4" x2="435" y2="240.3"/>
	<path stroke="#FFFFFF" stroke-width="1.5" stroke-linecap="round" stroke-miterlimit="10" d="M447.5,235.7l2.9,4.2
		c1,1.5,3.1,1.8,4.5,0.8l0,0c1.5-1,1.8-3.1,0.8-4.5l-0.5-0.8c-0.6-0.8-0.4-2,0.5-2.6l0,0c0.8-0.6,2-0.4,2.6,0.5l0.3,0.4
		c0.7,1.1,2.2,1.3,3.2,0.6l0,0c1.1-0.7,1.3-2.2,0.6-3.2l-1.6-2.3c-0.4-0.6-0.3-1.5,0.3-1.9v0c0.6-0.4,1.5-0.3,1.9,0.3l0.3,0.4
		c0.7,1.1,2.2,1.3,3.2,0.6l0,0c1.1-0.7,1.3-2.2,0.6-3.2l-1.3-1.9l-0.4-0.6c-0.2-0.3-0.1-0.8,0.2-1l0.4-0.3c0.3-0.2,0.8-0.1,1,0.2
		l0,0c0.7,0.9,2,1.2,2.9,0.5v0c0.9-0.7,1.2-2,0.5-2.9l-2.8-4"/>
	<path stroke="#FFFFFF" stroke-width="1.5" stroke-linecap="round" stroke-miterlimit="10" d="M443.4,229.9l-2.9-4.2
		c-1-1.5-0.7-3.5,0.8-4.5l0,0c1.5-1,3.5-0.7,4.5,0.8l0.5,0.8c0.6,0.8,1.7,1,2.6,0.5l0,0c0.8-0.6,1-1.7,0.5-2.6l-0.3-0.4
		c-0.7-1.1-0.5-2.5,0.6-3.2h0c1.1-0.7,2.5-0.5,3.2,0.6l1.6,2.3c0.4,0.6,1.3,0.8,1.9,0.3l0,0c0.6-0.4,0.8-1.3,0.3-1.9l-0.3-0.4
		c-0.7-1.1-0.5-2.5,0.6-3.2l0,0c1.1-0.7,2.5-0.5,3.2,0.6l1.3,1.9l0.4,0.6c0.2,0.3,0.7,0.4,1,0.2l0.4-0.3c0.3-0.2,0.4-0.7,0.2-1l0,0
		c-0.7-0.9-0.4-2.3,0.5-2.9v0c0.9-0.7,2.3-0.4,2.9,0.5l2.8,4"/>
	
		<line stroke="#FFFFFF" stroke-width="1.5" stroke-linecap="round" stroke-miterlimit="10" x1="457.5" y1="224.4" x2="435" y2="240.3"/>
</g>
</svg>
