<?xml version="1.0" encoding="utf-8"?>
<!-- Generator: Adobe Illustrator 18.1.1, SVG Export Plug-In . SVG Version: 6.00 Build 0)  -->
<svg version="1.1" xmlns="http://www.w3.org/2000/svg" xmlns:xlink="http://www.w3.org/1999/xlink" x="0px" y="0px"
	 viewBox="0 0 440.9 544.7" enable-background="new 0 0 440.9 544.7" xml:space="preserve">
<g id="Layer_2">
</g>
<g id="g">
</g>
<g id="b">
</g>
<g id="g_x5F_bg">
</g>
<g id="b_x5F_bg">
	<path stroke="#FFFFFF" stroke-width="2" stroke-linecap="round" stroke-linejoin="round" stroke-miterlimit="10" d="M113.2,268.5
		l-9,1.9c0,0-6-1-12.7-1.9c-12.3-1.5-14.9,9.2-13.8,23.3c0.3,4.3-0.2,17.2-0.2,17.2c0,9.5,8,17.2,17.5,17.2s17.5-7.7,17.5-17.2
		L113.2,268.5z"/>
	<path stroke="#FFFFFF" stroke-width="2" stroke-linecap="round" stroke-linejoin="round" stroke-miterlimit="10" d="M119.7,354.8
		l13.7,7.5c3.3,1.8,10.2,1.3,18-1.1c3.1-0.9,4.7-4.3,3.4-7.3v0c-1-2.3-3.4-3.4-5.9-3.3c-5.5,0.2-9.3-0.6-9.3-0.6l-18.7-15.5
		c-2.3-1.9-5.3-2.9-8.3-2.8l-6.2,0.3"/>
	<path fill="#231F20" stroke="#FFFFFF" stroke-width="2" stroke-linecap="round" stroke-miterlimit="10" d="M105.3,356.2
		c0,0-13.7,2.6-21.7,8.7"/>
	
		<polyline fill="#231F20" stroke="#FFFFFF" stroke-width="2" stroke-linecap="round" stroke-linejoin="round" stroke-miterlimit="10" points="
		70.8,347.2 72.8,386.6 94.7,386.6 	"/>
	
		<polyline fill="#231F20" stroke="#FFFFFF" stroke-width="2" stroke-linecap="round" stroke-linejoin="round" stroke-miterlimit="10" points="
		119.3,346.8 117.3,386.2 95.4,386.2 	"/>
	
		<polyline fill="#231F20" stroke="#FFFFFF" stroke-width="2" stroke-linecap="round" stroke-linejoin="round" stroke-miterlimit="10" points="
		103.2,335.7 95.4,341.6 86.9,336.1 	"/>
	<path stroke="#FFFFFF" stroke-width="2" stroke-linecap="round" stroke-linejoin="round" stroke-miterlimit="10" d="M70.3,354.8
		l-13.7,7.5c-3.3,1.8-10.2,1.3-18-1.1c-3.1-0.9-4.7-4.3-3.4-7.3l0,0c1-2.3,3.4-3.4,5.9-3.3c5.5,0.2,9.3-0.6,9.3-0.6L69,334.5
		c2.3-1.9,5.3-2.9,8.3-2.8l6.2,0.3"/>
	
		<rect x="45.1" y="394.2" stroke="#FFFFFF" stroke-width="2" stroke-linecap="round" stroke-miterlimit="10" width="6.1" height="109.6"/>
	
		<rect x="45.1" y="503.8" fill="#FFFFFF" stroke="#FFFFFF" stroke-width="2" stroke-linecap="round" stroke-linejoin="round" stroke-miterlimit="10" width="6.1" height="5.1"/>
	
		<rect x="138.5" y="394.2" stroke="#FFFFFF" stroke-width="2" stroke-linecap="round" stroke-miterlimit="10" width="6.1" height="109.6"/>
	
		<rect x="138.5" y="503.8" fill="#FFFFFF" stroke="#FFFFFF" stroke-width="2" stroke-linecap="round" stroke-linejoin="round" stroke-miterlimit="10" width="6.1" height="5.1"/>
	<path stroke="#FFFFFF" stroke-width="2" stroke-linecap="round" stroke-miterlimit="10" d="M153.3,368.3H31.7
		c-1.8,0-3.2-1.4-3.2-3.2v-2.5c0-1.8,1.4-3.2,3.2-3.2h121.6c1.8,0,3.2,1.4,3.2,3.2v2.5C156.6,366.8,155.1,368.3,153.3,368.3z"/>
	<path stroke="#FFFFFF" stroke-width="2" stroke-linecap="round" stroke-miterlimit="10" d="M150.1,393.9H35c-1.1,0-2-0.9-2-2v-23.7
		h119.1v23.7C152.1,393,151.2,393.9,150.1,393.9z"/>
	<path stroke="#FFFFFF" stroke-width="2" stroke-linecap="round" stroke-miterlimit="10" d="M95.1,346H56.6
		c-6.2,0-10.8,5.6-9.7,11.6l11.4,40.6c0.8,2.7,3.2,4.5,6,4.5h30.8h30.5c2.8,0,5.2-1.8,6-4.5l11.7-40.6c1.1-6.1-3.5-11.6-9.7-11.6
		H95.1z"/>
	<path stroke="#FFFFFF" stroke-width="2" stroke-linecap="round" stroke-linejoin="round" stroke-miterlimit="10" d="M110.7,376.6
		H79.6l0,0c1.1-6.8,7.1-11.8,14-11.8h3.1C103.6,364.8,109.5,369.8,110.7,376.6L110.7,376.6z"/>
	<path stroke="#FFFFFF" stroke-width="2" stroke-linecap="round" stroke-miterlimit="10" d="M96.7,416.6h-3.1
		c-2.1,0-3.9-1.7-3.9-3.9v-38.6c0-2.1,1.7-3.9,3.9-3.9h3.1c2.1,0,3.9,1.7,3.9,3.9v38.6C100.5,414.9,98.8,416.6,96.7,416.6z"/>
	
		<line fill="#231F20" stroke="#FFFFFF" stroke-width="2" stroke-linecap="round" stroke-miterlimit="10" x1="47.2" y1="355.8" x2="116.8" y2="355.8"/>
	
		<line fill="#231F20" stroke="#FFFFFF" stroke-width="2" stroke-linecap="round" stroke-miterlimit="10" x1="127.7" y1="355.8" x2="143" y2="355.8"/>
	<polygon stroke="#FFFFFF" stroke-width="2" stroke-linecap="round" stroke-linejoin="round" stroke-miterlimit="10" points="
		130.3,508.5 124.4,508.5 120.9,428 130.3,428 	"/>
	
		<line fill="#231F20" stroke="#FFFFFF" stroke-width="2" stroke-linecap="round" stroke-miterlimit="10" x1="127.6" y1="428" x2="127.6" y2="475.6"/>
	
		<line fill="#231F20" stroke="#FFFFFF" stroke-width="2" stroke-linecap="round" stroke-miterlimit="10" x1="127.6" y1="492.7" x2="127.6" y2="506.2"/>
	<polygon stroke="#FFFFFF" stroke-width="2" stroke-linecap="round" stroke-linejoin="round" stroke-miterlimit="10" points="
		59.6,508.5 65.5,508.5 69,428 59.6,428 	"/>
	
		<line fill="#231F20" stroke="#FFFFFF" stroke-width="2" stroke-linecap="round" stroke-miterlimit="10" x1="62.3" y1="428" x2="62.3" y2="475.6"/>
	
		<line fill="#231F20" stroke="#FFFFFF" stroke-width="2" stroke-linecap="round" stroke-miterlimit="10" x1="62.3" y1="492.7" x2="62.3" y2="506.2"/>
	<path stroke="#FFFFFF" stroke-width="2" stroke-linecap="round" stroke-linejoin="round" stroke-miterlimit="10" d="M120.9,402.8
		c0,0,1.9,7.4-2.5,11.3"/>
	<path stroke="#FFFFFF" stroke-width="2" stroke-linecap="round" stroke-linejoin="round" stroke-miterlimit="10" d="M67.9,402.8
		c0,0-1.9,7.4,2.5,11.3"/>
	<polygon stroke="#FFFFFF" stroke-width="2" stroke-linecap="round" stroke-linejoin="round" stroke-miterlimit="10" points="
		74.4,428 80.5,484.7 86.9,484.7 92.5,428 	"/>
	
		<polygon fill="#FFFFFF" stroke="#FFFFFF" stroke-width="2" stroke-linecap="round" stroke-linejoin="round" stroke-miterlimit="10" points="
		86.4,484.7 84.7,484.7 82.4,484.7 80.7,484.7 77.4,491.2 82.4,491.2 84.7,491.2 89.7,491.2 	"/>
	<polygon stroke="#FFFFFF" stroke-width="2" stroke-linecap="round" stroke-linejoin="round" stroke-miterlimit="10" points="
		98.3,428 104.5,484.7 110.8,484.7 116.5,428 	"/>
	
		<polygon fill="#FFFFFF" stroke="#FFFFFF" stroke-width="2" stroke-linecap="round" stroke-linejoin="round" stroke-miterlimit="10" points="
		110.4,484.7 108.6,484.7 106.4,484.7 104.6,484.7 101.4,491.2 106.4,491.2 108.6,491.2 113.6,491.2 	"/>
	<path stroke="#FFFFFF" stroke-width="2" stroke-linecap="round" stroke-miterlimit="10" d="M140.8,428H49.4c-0.4,0-0.7-0.3-0.7-0.7
		v-12.5c0-0.4,0.3-0.7,0.7-0.7h91.4c0.4,0,0.7,0.3,0.7,0.7v12.5C141.5,427.7,141.2,428,140.8,428z"/>
	
		<line fill="#231F20" stroke="#FFFFFF" stroke-width="2" stroke-linecap="round" stroke-miterlimit="10" x1="49.4" y1="419.1" x2="116.8" y2="419.1"/>
	
		<line fill="#231F20" stroke="#FFFFFF" stroke-width="2" stroke-linecap="round" stroke-miterlimit="10" x1="127.7" y1="419.1" x2="141.5" y2="419.1"/>
</g>
</svg>
