<?xml version="1.0" encoding="utf-8"?>
<!-- Generator: Adobe Illustrator 18.1.1, SVG Export Plug-In . SVG Version: 6.00 Build 0)  -->
<svg version="1.1" xmlns="http://www.w3.org/2000/svg" xmlns:xlink="http://www.w3.org/1999/xlink" x="0px" y="0px"
	 viewBox="0 0 372.1 582.7" enable-background="new 0 0 372.1 582.7" xml:space="preserve">
<g id="Layer_2">
</g>
<g id="g">
	
		<path fill="#FFFFFF" stroke="#231F20" stroke-width="2" stroke-linecap="round" stroke-linejoin="round" stroke-miterlimit="10" d="
		M83.8,294.6c-11.1,0-20.2,9-20.2,20.2h40.3C103.9,303.7,94.9,294.6,83.8,294.6z"/>
	
		<path fill="#FFFFFF" stroke="#231F20" stroke-width="2" stroke-linecap="round" stroke-linejoin="round" stroke-miterlimit="10" d="
		M108.8,376.3l13.7,7.5c3.3,1.8,10.2,1.3,18-1.1c3.1-0.9,4.7-4.3,3.4-7.3l0,0c-1-2.3-3.4-3.4-5.9-3.3c-5.5,0.2-9.3-0.6-9.3-0.6
		L110,356c-2.3-1.9-5.3-2.9-8.3-2.8l-6.2,0.3"/>
	<path fill="none" stroke="#231F20" stroke-width="2" stroke-linecap="round" stroke-miterlimit="10" d="M94.3,377.7
		c0,0-13.7,2.6-21.7,8.7"/>
	
		<polyline fill="#FFFFFF" stroke="#231F20" stroke-width="2" stroke-linecap="round" stroke-linejoin="round" stroke-miterlimit="10" points="
		59.9,368.7 61.9,408.2 83.8,408.2 	"/>
	
		<polyline fill="#FFFFFF" stroke="#231F20" stroke-width="2" stroke-linecap="round" stroke-linejoin="round" stroke-miterlimit="10" points="
		108.4,368.3 106.4,407.8 84.5,407.8 	"/>
	
		<polyline fill="#FFFFFF" stroke="#231F20" stroke-width="2" stroke-linecap="round" stroke-linejoin="round" stroke-miterlimit="10" points="
		92.3,357.3 84.5,363.1 76,357.6 	"/>
	
		<path fill="#FFFFFF" stroke="#231F20" stroke-width="2" stroke-linecap="round" stroke-linejoin="round" stroke-miterlimit="10" d="
		M59.3,376.3l-13.7,7.5c-3.3,1.8-10.2,1.3-18-1.1c-3.1-0.9-4.7-4.3-3.4-7.3h0c1-2.3,3.4-3.4,5.9-3.3c5.5,0.2,9.3-0.6,9.3-0.6
		L58.1,356c2.3-1.9,5.3-2.9,8.3-2.8l6.2,0.3"/>
	
		<path fill="#FFFFFF" stroke="#231F20" stroke-width="2" stroke-linecap="round" stroke-linejoin="round" stroke-miterlimit="10" d="
		M296.5,376.3l13.7,7.5c3.3,1.8,10.2,1.3,18-1.1c3.1-0.9,4.7-4.3,3.4-7.3l0,0c-1-2.3-3.4-3.4-5.9-3.3c-5.5,0.2-9.3-0.6-9.3-0.6
		L297.7,356c-2.3-1.9-5.3-2.9-8.3-2.8l-6.2,0.3"/>
	<path fill="none" stroke="#231F20" stroke-width="2" stroke-linecap="round" stroke-miterlimit="10" d="M282.1,377.7
		c0,0-13.7,2.6-21.7,8.7"/>
	
		<polyline fill="#FFFFFF" stroke="#231F20" stroke-width="2" stroke-linecap="round" stroke-linejoin="round" stroke-miterlimit="10" points="
		247.6,368.7 249.6,408.2 271.5,408.2 	"/>
	
		<polyline fill="#FFFFFF" stroke="#231F20" stroke-width="2" stroke-linecap="round" stroke-linejoin="round" stroke-miterlimit="10" points="
		296.1,368.3 294.1,407.8 272.3,407.8 	"/>
	
		<polyline fill="#FFFFFF" stroke="#231F20" stroke-width="2" stroke-linecap="round" stroke-linejoin="round" stroke-miterlimit="10" points="
		280,357.3 272.2,363.1 263.7,357.6 	"/>
	
		<path fill="#FFFFFF" stroke="#231F20" stroke-width="2" stroke-linecap="round" stroke-linejoin="round" stroke-miterlimit="10" d="
		M247.1,376.3l-13.7,7.5c-3.3,1.8-10.2,1.3-18-1.1c-3.1-0.9-4.7-4.3-3.4-7.3l0,0c1-2.3,3.4-3.4,5.9-3.3c5.5,0.2,9.3-0.6,9.3-0.6
		l18.7-15.5c2.3-1.9,5.3-2.9,8.3-2.8l6.2,0.3"/>
	
		<path fill="#FFFFFF" stroke="#231F20" stroke-width="2" stroke-linecap="round" stroke-linejoin="round" stroke-miterlimit="10" d="
		M83.8,294.3L83.8,294.3c-5,0-9.6,2-12.9,5.3c-3.2,3.2-5.2,7.6-5.3,12.5c0,0.1,0,0.1,0,0.2v0.2v16.6v0.6c0,10.1,8.2,18.2,18.2,18.2
		h0c5,0,9.6-2,12.9-5.3c3.2-3.2,5.2-7.6,5.3-12.5c0-0.1,0-0.1,0-0.2v-0.2v-16.6v-0.6C102,302.5,93.8,294.3,83.8,294.3z"/>
	
		<path fill="#FFFFFF" stroke="#231F20" stroke-width="2" stroke-linecap="round" stroke-linejoin="round" stroke-miterlimit="10" d="
		M85.8,306.1L85.8,306.1c2.8,0,5.4,1.6,6.6,4.2l3.2,6.7c1.3,2.6,1.4,5.6,0.4,8.4l-1.4,3.7c-1.4,3.8-1.7,8-0.7,12l0,0
		c0.8,3.4,4.7,5,7.7,3.2l2.4-1.4l-7.5,14.4h0c-9.5,0-17.9-6.5-20.2-15.7l-0.2-0.9l-1.9-10.9c-1-5.6,0.1-11.3,3-16.2l2.4-3.9
		C80.8,307.5,83.2,306.1,85.8,306.1z"/>
	
		<rect x="81.1" y="304" fill="#231F20" stroke="#231F20" stroke-width="2" stroke-linecap="round" stroke-linejoin="round" stroke-miterlimit="10" width="9.4" height="3.9"/>
	
		<polygon fill="none" stroke="#231F20" stroke-width="2" stroke-linecap="round" stroke-linejoin="round" stroke-miterlimit="10" points="
		119.4,530.1 113.5,530.1 110,449.5 119.4,449.5 	"/>
	
		<line fill="none" stroke="#231F20" stroke-width="2" stroke-linecap="round" stroke-miterlimit="10" x1="116.7" y1="449.5" x2="116.7" y2="497.2"/>
	
		<line fill="none" stroke="#231F20" stroke-width="2" stroke-linecap="round" stroke-miterlimit="10" x1="116.7" y1="514.3" x2="116.7" y2="527.8"/>
	
		<polygon fill="none" stroke="#231F20" stroke-width="2" stroke-linecap="round" stroke-linejoin="round" stroke-miterlimit="10" points="
		48.7,530.1 54.6,530.1 58.1,449.5 48.7,449.5 	"/>
	
		<line fill="none" stroke="#231F20" stroke-width="2" stroke-linecap="round" stroke-miterlimit="10" x1="51.4" y1="449.5" x2="51.4" y2="497.2"/>
	
		<line fill="none" stroke="#231F20" stroke-width="2" stroke-linecap="round" stroke-miterlimit="10" x1="51.4" y1="514.3" x2="51.4" y2="527.8"/>
	
		<path fill="#231F20" stroke="#231F20" stroke-width="2" stroke-linecap="round" stroke-linejoin="round" stroke-miterlimit="10" d="
		M59.5,435.7c-4.3-3.9-2.5-11.3-2.5-11.3h53c0,0,1.9,7.4-2.5,11.3H59.5z"/>
	
		<polygon fill="#231F20" stroke="#231F20" stroke-width="2" stroke-linecap="round" stroke-linejoin="round" stroke-miterlimit="10" points="
		75.5,506.2 73.8,506.2 71.5,506.2 69.8,506.2 66.5,512.8 71.5,512.8 73.8,512.8 78.8,512.8 	"/>
	
		<polygon fill="#231F20" stroke="#231F20" stroke-width="2" stroke-linecap="round" stroke-linejoin="round" stroke-miterlimit="10" points="
		99.5,506.2 97.7,506.2 95.4,506.2 93.7,506.2 90.4,512.8 95.4,512.8 97.7,512.8 102.7,512.8 	"/>
	
		<rect x="221.9" y="415.8" fill="#FFFFFF" stroke="#231F20" stroke-width="2" stroke-linecap="round" stroke-miterlimit="10" width="6.1" height="109.6"/>
	
		<rect x="221.9" y="525.3" fill="#231F20" stroke="#231F20" stroke-width="2" stroke-linecap="round" stroke-linejoin="round" stroke-miterlimit="10" width="6.1" height="5.1"/>
	
		<rect x="315.3" y="415.8" fill="#FFFFFF" stroke="#231F20" stroke-width="2" stroke-linecap="round" stroke-miterlimit="10" width="6.1" height="109.6"/>
	
		<rect x="315.3" y="525.3" fill="#231F20" stroke="#231F20" stroke-width="2" stroke-linecap="round" stroke-linejoin="round" stroke-miterlimit="10" width="6.1" height="5.1"/>
	<path fill="#FFFFFF" stroke="#231F20" stroke-width="2" stroke-linecap="round" stroke-miterlimit="10" d="M330.2,389.8H208.6
		c-1.8,0-3.2-1.4-3.2-3.2V384c0-1.8,1.4-3.2,3.2-3.2h121.6c1.8,0,3.2,1.4,3.2,3.2v2.5C333.4,388.3,331.9,389.8,330.2,389.8z"/>
	<path fill="#FFFFFF" stroke="#231F20" stroke-width="2" stroke-linecap="round" stroke-miterlimit="10" d="M327,415.4H211.8
		c-1.1,0-2-0.9-2-2v-23.7h119.1v23.7C328.9,414.5,328,415.4,327,415.4z"/>
	
		<rect x="36.1" y="415.8" fill="#FFFFFF" stroke="#231F20" stroke-width="2" stroke-linecap="round" stroke-miterlimit="10" width="6.1" height="109.6"/>
	
		<rect x="36.1" y="525.3" fill="#231F20" stroke="#231F20" stroke-width="2" stroke-linecap="round" stroke-linejoin="round" stroke-miterlimit="10" width="6.1" height="5.1"/>
	
		<rect x="129.4" y="415.8" fill="#FFFFFF" stroke="#231F20" stroke-width="2" stroke-linecap="round" stroke-miterlimit="10" width="6.1" height="109.6"/>
	
		<rect x="129.4" y="525.3" fill="#231F20" stroke="#231F20" stroke-width="2" stroke-linecap="round" stroke-linejoin="round" stroke-miterlimit="10" width="6.1" height="5.1"/>
	<path fill="#FFFFFF" stroke="#231F20" stroke-width="2" stroke-linecap="round" stroke-miterlimit="10" d="M144.3,388.8H22.7
		c-1.8,0-3.2-1.4-3.2-3.2V383c0-1.8,1.4-3.2,3.2-3.2h121.6c1.8,0,3.2,1.4,3.2,3.2v2.5C147.5,387.3,146.1,388.8,144.3,388.8z"/>
	<path fill="#FFFFFF" stroke="#231F20" stroke-width="2" stroke-linecap="round" stroke-miterlimit="10" d="M141.1,415.4H25.9
		c-1.1,0-2-0.9-2-2v-23.7h119.1v23.7C143.1,414.5,142.2,415.4,141.1,415.4z"/>
	<path fill="#FFFFFF" stroke="#231F20" stroke-width="2" stroke-linecap="round" stroke-miterlimit="10" d="M271.9,367.6h-38.5
		c-6.2,0-10.8,5.6-9.7,11.6l11.4,40.6c0.8,2.7,3.2,4.5,6,4.5h30.8h30.5c2.8,0,5.2-1.8,6-4.5l11.7-40.6c1.1-6.1-3.5-11.6-9.7-11.6
		H271.9z"/>
	<path fill="none" stroke="#231F20" stroke-width="2" stroke-linecap="round" stroke-linejoin="round" stroke-miterlimit="10" d="
		M287.5,398.2h-31.1l0,0c1.1-6.8,7.1-11.8,14-11.8h3.1C280.4,386.3,286.3,391.3,287.5,398.2L287.5,398.2z"/>
	<path fill="#FFFFFF" stroke="#231F20" stroke-width="2" stroke-linecap="round" stroke-miterlimit="10" d="M273.5,438.1h-3.1
		c-2.1,0-3.9-1.7-3.9-3.9v-38.6c0-2.1,1.7-3.9,3.9-3.9h3.1c2.1,0,3.9,1.7,3.9,3.9v38.6C277.4,436.4,275.6,438.1,273.5,438.1z"/>
	
		<line fill="none" stroke="#231F20" stroke-width="2" stroke-linecap="round" stroke-miterlimit="10" x1="224" y1="377.4" x2="293.6" y2="377.4"/>
	
		<line fill="none" stroke="#231F20" stroke-width="2" stroke-linecap="round" stroke-miterlimit="10" x1="304.5" y1="377.4" x2="319.8" y2="377.4"/>
	
		<polygon fill="none" stroke="#231F20" stroke-width="2" stroke-linecap="round" stroke-linejoin="round" stroke-miterlimit="10" points="
		307.1,530.1 301.2,530.1 297.7,449.5 307.1,449.5 	"/>
	
		<line fill="none" stroke="#231F20" stroke-width="2" stroke-linecap="round" stroke-miterlimit="10" x1="304.4" y1="449.5" x2="304.4" y2="497.2"/>
	
		<line fill="none" stroke="#231F20" stroke-width="2" stroke-linecap="round" stroke-miterlimit="10" x1="304.4" y1="514.3" x2="304.4" y2="527.8"/>
	
		<polygon fill="none" stroke="#231F20" stroke-width="2" stroke-linecap="round" stroke-linejoin="round" stroke-miterlimit="10" points="
		236.4,530.1 242.3,530.1 245.8,449.5 236.4,449.5 	"/>
	
		<line fill="none" stroke="#231F20" stroke-width="2" stroke-linecap="round" stroke-miterlimit="10" x1="239.1" y1="449.5" x2="239.1" y2="497.2"/>
	
		<line fill="none" stroke="#231F20" stroke-width="2" stroke-linecap="round" stroke-miterlimit="10" x1="239.1" y1="514.3" x2="239.1" y2="527.8"/>
	
		<path fill="#FFFFFF" stroke="#231F20" stroke-width="2" stroke-linecap="round" stroke-linejoin="round" stroke-miterlimit="10" d="
		M297.7,424.3c0,0,1.9,7.4-2.5,11.3"/>
	
		<path fill="#FFFFFF" stroke="#231F20" stroke-width="2" stroke-linecap="round" stroke-linejoin="round" stroke-miterlimit="10" d="
		M244.7,424.3c0,0-1.9,7.4,2.5,11.3"/>
	
		<polygon fill="#FFFFFF" stroke="#231F20" stroke-width="2" stroke-linecap="round" stroke-linejoin="round" stroke-miterlimit="10" points="
		251.2,449.5 257.3,506.2 263.7,506.2 269.4,449.5 	"/>
	
		<polygon fill="#231F20" stroke="#231F20" stroke-width="2" stroke-linecap="round" stroke-linejoin="round" stroke-miterlimit="10" points="
		263.3,506.2 261.5,506.2 259.2,506.2 257.5,506.2 254.2,512.8 259.2,512.8 261.5,512.8 266.5,512.8 	"/>
	
		<polygon fill="#FFFFFF" stroke="#231F20" stroke-width="2" stroke-linecap="round" stroke-linejoin="round" stroke-miterlimit="10" points="
		275.1,449.5 281.3,506.2 287.7,506.2 293.3,449.5 	"/>
	
		<polygon fill="#231F20" stroke="#231F20" stroke-width="2" stroke-linecap="round" stroke-linejoin="round" stroke-miterlimit="10" points="
		287.2,506.2 285.4,506.2 283.2,506.2 281.4,506.2 278.2,512.8 283.2,512.8 285.4,512.8 290.4,512.8 	"/>
	
		<polygon fill="#FFFFFF" stroke="#231F20" stroke-width="2" stroke-linecap="round" stroke-linejoin="round" stroke-miterlimit="10" points="
		69.6,506.2 76,506.2 78.4,481.8 67,481.8 	"/>
	
		<polygon fill="#231F20" stroke="#231F20" stroke-width="2" stroke-linecap="round" stroke-linejoin="round" stroke-miterlimit="10" points="
		63.5,449.5 67,481.8 78.4,481.8 81.6,449.5 	"/>
	
		<polygon fill="#231F20" stroke="#231F20" stroke-width="2" stroke-linecap="round" stroke-linejoin="round" stroke-miterlimit="10" points="
		87.4,449.5 90.9,481.8 102.4,481.8 105.5,449.5 	"/>
	
		<polygon fill="#FFFFFF" stroke="#231F20" stroke-width="2" stroke-linecap="round" stroke-linejoin="round" stroke-miterlimit="10" points="
		93.5,506.2 99.9,506.2 102.4,481.8 90.9,481.8 	"/>
	<path fill="#FFFFFF" stroke="#231F20" stroke-width="2" stroke-linecap="round" stroke-miterlimit="10" d="M129.9,449.5H38.5
		c-0.4,0-0.7-0.3-0.7-0.7v-12.5c0-0.4,0.3-0.7,0.7-0.7h91.4c0.4,0,0.7,0.3,0.7,0.7v12.5C130.6,449.2,130.3,449.5,129.9,449.5z"/>
	
		<line fill="none" stroke="#231F20" stroke-width="2" stroke-linecap="round" stroke-miterlimit="10" x1="38.5" y1="440.6" x2="105.9" y2="440.6"/>
	
		<line fill="none" stroke="#231F20" stroke-width="2" stroke-linecap="round" stroke-miterlimit="10" x1="116.8" y1="440.6" x2="130.6" y2="440.6"/>
	<path fill="#FFFFFF" stroke="#231F20" stroke-width="2" stroke-linecap="round" stroke-miterlimit="10" d="M317.6,449.5h-91.4
		c-0.4,0-0.7-0.3-0.7-0.7v-12.5c0-0.4,0.3-0.7,0.7-0.7h91.4c0.4,0,0.7,0.3,0.7,0.7v12.5C318.3,449.2,318,449.5,317.6,449.5z"/>
	
		<line fill="none" stroke="#231F20" stroke-width="2" stroke-linecap="round" stroke-miterlimit="10" x1="226.2" y1="440.6" x2="293.6" y2="440.6"/>
	
		<line fill="none" stroke="#231F20" stroke-width="2" stroke-linecap="round" stroke-miterlimit="10" x1="304.5" y1="440.6" x2="318.3" y2="440.6"/>
	<path fill="none" stroke="#231F20" stroke-width="2" stroke-linejoin="round" stroke-miterlimit="10" d="M372.1,21.3h-236
		c-3.7,0-6.8,2.7-6.8,5.9v246.2c0,3.3,3,5.9,6.8,5.9h236"/>
	
		<line fill="none" stroke="#231F20" stroke-width="2" stroke-linejoin="round" stroke-miterlimit="10" x1="372.1" y1="30.4" x2="280.8" y2="30.4"/>
	
		<line fill="none" stroke="#231F20" stroke-width="2" stroke-linejoin="round" stroke-miterlimit="10" x1="372.1" y1="269.4" x2="280.8" y2="269.4"/>
	<path fill="none" stroke="#231F20" stroke-width="2" stroke-linecap="round" stroke-linejoin="round" stroke-miterlimit="10" d="
		M257.5,30.4H141.8c-0.5,0-0.8,0.3-0.8,0.7v135.2"/>
	<path fill="none" stroke="#231F20" stroke-width="2" stroke-linecap="round" stroke-linejoin="round" stroke-miterlimit="10" d="
		M257.5,269.2H141.8c-0.5,0-0.8-0.3-0.8-0.7v-110"/>
	
		<line fill="none" stroke="#231F20" stroke-width="2" stroke-linecap="round" stroke-linejoin="round" stroke-miterlimit="10" x1="364.4" y1="269.4" x2="273.1" y2="269.4"/>
	
		<line fill="none" stroke="#231F20" stroke-width="2" stroke-linecap="round" stroke-linejoin="round" stroke-miterlimit="10" x1="364.4" y1="30.4" x2="273.1" y2="30.4"/>
	
		<path fill="#FFFFFF" stroke="#231F20" stroke-width="2" stroke-linecap="round" stroke-linejoin="round" stroke-miterlimit="10" d="
		M259.4,347.7c-0.5,0.4-2.4,1.8-5.1,2.2c-2.3,0.3-4.2-0.3-5.5-0.8l-3.5-1.5c3.9-6.9,4.6-15.2,1.9-22.6l-1.5-4.1
		c0.2-13.4,11.1-24.1,24.5-24.1h0c13.5,0,24.5,11,24.5,24.5l-1.5,4.1c-2.6,7.2-2.1,15.2,1.4,22l0.1,0.2l-3.9,1.6
		c-3.5-0.5-7.3-3.2-10.5-1.6C264.4,355.3,261.8,346,259.4,347.7z"/>
	<path fill="#FFFFFF" stroke="#231F20" stroke-width="2" stroke-linecap="round" stroke-miterlimit="10" d="M84.2,366.6H45.7
		c-6.2,0-10.8,5.6-9.7,11.6l11.4,40.6c0.8,2.7,3.2,4.5,6,4.5h30.8h30.5c2.8,0,5.2-1.8,6-4.5l11.7-40.6c1.1-6.1-3.5-11.6-9.7-11.6
		H84.2z"/>
	
		<line fill="none" stroke="#231F20" stroke-width="2" stroke-linecap="round" stroke-miterlimit="10" x1="36.3" y1="377.4" x2="105.9" y2="377.4"/>
	
		<line fill="none" stroke="#231F20" stroke-width="2" stroke-linecap="round" stroke-miterlimit="10" x1="116.8" y1="377.4" x2="132.1" y2="377.4"/>
	<path fill="none" stroke="#231F20" stroke-width="2" stroke-linecap="round" stroke-linejoin="round" stroke-miterlimit="10" d="
		M99.7,398.2H68.7l0,0c1.1-6.8,7.1-11.8,14-11.8h3.1C92.7,386.3,98.6,391.3,99.7,398.2L99.7,398.2z"/>
	<path fill="#FFFFFF" stroke="#231F20" stroke-width="2" stroke-linecap="round" stroke-miterlimit="10" d="M85.7,438.1h-3.1
		c-2.1,0-3.9-1.7-3.9-3.9v-38.6c0-2.1,1.7-3.9,3.9-3.9h3.1c2.1,0,3.9,1.7,3.9,3.9v38.6C89.6,436.4,87.9,438.1,85.7,438.1z"/>
</g>
<g id="b">
</g>
<g id="g_x5F_bg">
</g>
<g id="b_x5F_bg">
</g>
</svg>
