<?xml version="1.0" encoding="utf-8"?>
<!-- Generator: Adobe Illustrator 18.1.1, SVG Export Plug-In . SVG Version: 6.00 Build 0)  -->
<svg version="1.1" xmlns="http://www.w3.org/2000/svg" xmlns:xlink="http://www.w3.org/1999/xlink" x="0px" y="0px"
	 viewBox="0 0 514.1 170.2" enable-background="new 0 0 514.1 170.2" xml:space="preserve">
<g id="Layer_2">
</g>
<g id="g">
</g>
<g id="b">
</g>
<g id="g_x5F_bg">
	<path fill="#FFFFFF" stroke="#000000" stroke-width="2" stroke-linejoin="round" stroke-miterlimit="10" d="M289.3,76.8
		c0,0,3.2-4.3,6.5-4.1c4.3,0.3,4.3,0.9,6.6,4.3"/>
	
		<rect x="78.4" y="30.4" fill="none" stroke="#231F20" stroke-width="2" stroke-linecap="round" stroke-linejoin="round" stroke-miterlimit="10" width="202.7" height="115.2"/>
	
		<polygon fill="none" stroke="#231F20" stroke-width="2" stroke-linecap="round" stroke-linejoin="round" stroke-miterlimit="10" points="
		236.5,83.6 269.4,83.6 269.4,40.7 87.9,40.7 87.9,85.3 	"/>
	
		<polygon fill="none" stroke="#231F20" stroke-width="2" stroke-linecap="round" stroke-linejoin="round" stroke-miterlimit="10" points="
		236.5,135.5 269.4,135.5 269.4,92.6 87.9,92.6 87.9,137.2 	"/>
	
		<path fill="#FFFFFF" stroke="#231F20" stroke-width="2" stroke-linecap="round" stroke-linejoin="round" stroke-miterlimit="10" d="
		M97.3,76.2h37c0,0-2.8,1.7-2.9,3.9c-0.1,2.1,2.9,3.9,2.9,3.9h-37c-2.5,0-4.5-1.8-4.5-3.9v0C92.8,78,94.8,76.2,97.3,76.2z"/>
	
		<path fill="#FFFFFF" stroke="#231F20" stroke-width="2" stroke-linecap="round" stroke-linejoin="round" stroke-miterlimit="10" d="
		M134.4,76.2h-37c-2.5,0-4.5,1.8-4.5,3.9v0c0,2.2,2,3.9,4.5,3.9h37"/>
	
		<path fill="#FFFFFF" stroke="#231F20" stroke-width="2" stroke-linecap="round" stroke-linejoin="round" stroke-miterlimit="10" d="
		M97.3,68.2h37c0,0-2.8,1.7-2.9,3.9c-0.1,2.1,2.9,3.9,2.9,3.9h-37c-2.5,0-4.5-1.8-4.5-3.9v0C92.8,69.9,94.8,68.2,97.3,68.2z"/>
	
		<path fill="#FFFFFF" stroke="#231F20" stroke-width="2" stroke-linecap="round" stroke-linejoin="round" stroke-miterlimit="10" d="
		M134.4,68.2h-37c-2.5,0-4.5,1.8-4.5,3.9v0c0,2.2,2,3.9,4.5,3.9h37"/>
	
		<path fill="#FFFFFF" stroke="#231F20" stroke-width="2" stroke-linecap="round" stroke-linejoin="round" stroke-miterlimit="10" d="
		M97.3,68.2h37c0,0-2.8,1.7-2.9,3.9c-0.1,2.1,2.9,3.9,2.9,3.9h-37c-2.5,0-4.5-1.8-4.5-3.9v0C92.8,69.9,94.8,68.2,97.3,68.2z"/>
	
		<path fill="#FFFFFF" stroke="#231F20" stroke-width="2" stroke-linecap="round" stroke-linejoin="round" stroke-miterlimit="10" d="
		M97.3,76.2h37c0,0-2.8,1.7-2.9,3.9c-0.1,2.1,2.9,3.9,2.9,3.9h-37c-2.5,0-4.5-1.8-4.5-3.9v0C92.8,78,94.8,76.2,97.3,76.2z"/>
	
		<rect x="240" y="47.9" transform="matrix(0.9649 0.2626 -0.2626 0.9649 25.7784 -61.7868)" fill="#FFFFFF" stroke="#231F20" stroke-width="2" stroke-linecap="round" stroke-linejoin="round" stroke-miterlimit="10" width="8" height="35.3"/>
	
		<rect x="248.5" y="47.9" transform="matrix(0.9649 0.2626 -0.2626 0.9649 26.0761 -64.0136)" fill="#FFFFFF" stroke="#231F20" stroke-width="2" stroke-linecap="round" stroke-linejoin="round" stroke-miterlimit="10" width="8" height="35.3"/>
	
		<rect x="257" y="47.9" transform="matrix(0.9649 0.2626 -0.2626 0.9649 26.3737 -66.2404)" fill="#FFFFFF" stroke="#231F20" stroke-width="2" stroke-linecap="round" stroke-linejoin="round" stroke-miterlimit="10" width="8" height="35.3"/>
	
		<rect x="124.9" y="109.5" fill="#FFFFFF" stroke="#231F20" stroke-width="2" stroke-linecap="round" stroke-miterlimit="10" width="45" height="26.5"/>
	<polyline fill="#FFFFFF" stroke="#231F20" stroke-width="2" stroke-linecap="round" stroke-miterlimit="10" points="149.2,111.1 
		123.3,111.1 123.3,103 171.6,103 171.6,111.1 154.8,111.1 	"/>
	
		<rect x="141.3" y="117.1" fill="#FFFFFF" stroke="#231F20" stroke-width="2" stroke-linecap="round" stroke-linejoin="round" stroke-miterlimit="10" width="14.9" height="6.4"/>
	
		<line fill="none" stroke="#231F20" stroke-width="2" stroke-linecap="round" stroke-miterlimit="10" x1="0" y1="146" x2="511.8" y2="146"/>
	<path fill="#FFFFFF" stroke="#000000" stroke-width="2" stroke-miterlimit="10" d="M302.4,77l-6.9-0.4c-2.7-0.1-5.5,0-8.2,0.5l0,0
		c-1.1,0.2-2.1,0.7-2.9,1.4v0c-1.1,1-1.8,2.5-1.8,4c-0.2,5.6-0.7,19.8-2,24.3c-1.1,3.9-4.5,12.8-6.4,17.8c-0.9,2.4-1.2,5-0.7,7.5v0
		c0.8,5.1,4.3,9.3,9.2,11l1.6,0.6c6.2,2.3,13,2.6,19.4,0.9l5.2-1.4c7.3-1.9,13.1-7.4,15.3-14.6v0c0.7-2.4,0.9-4.9,0.4-7.3l-1.7-8.7
		c-0.2-1-0.5-2-0.9-2.9l-10.3-24.4C309.9,81.4,306.5,78.3,302.4,77L302.4,77L302.4,77z"/>
	<path fill="#FFFFFF" stroke="#000000" stroke-width="2" stroke-linejoin="round" stroke-miterlimit="10" d="M285.7,77.5
		c0,0,1.8,0.1,2.1,3.5c0.3,3.4,0.2,30.8,20.9,26.4c20.7-4.4,14.1-8.8,12.6-11s-5.2-9.3-7.9-13c-2.7-3.7-4.4-7.1-12.6-7.4
		S285.7,77.5,285.7,77.5z"/>
	<path fill="#FFFFFF" stroke="#000000" stroke-width="2" stroke-linejoin="round" stroke-miterlimit="10" d="M312.4,111.6l2.9-0.4
		c2.4-0.4,4.9,0.2,6.9,1.6v0c2.4,1.7,3.9,4.4,4.1,7.3l0.5,8.4c0.2,2.9-0.6,5.7-2.3,8l0,0c-2,2.8-5.2,4.7-8.6,5.1l-7.2,0.9
		c-3.5,0.4-7-0.9-9.3-3.5h0c-1.6-1.8-2.5-4.1-2.6-6.5l-0.1-1.7c-0.2-4.6,1.3-9.2,4.3-12.7l0,0C303.9,114.6,308,112.3,312.4,111.6z"
		/>
	<polyline fill="none" stroke="#000000" stroke-width="2" stroke-linejoin="round" stroke-miterlimit="10" points="308.7,108 
		313.8,123.4 317.4,122.5 315.1,106.1 308.2,108 	"/>
	<path stroke="#000000" stroke-width="1.7276" stroke-linejoin="round" stroke-miterlimit="10" d="M309.2,120.2
		c0,0,8.4-0.1,10.2-1.6c0,0,0.4-3.8-5.1-3.1C308.7,116.2,309.2,120.2,309.2,120.2z"/>
</g>
<g id="b_x5F_bg">
</g>
</svg>
