<?xml version="1.0" encoding="utf-8"?>
<!-- Generator: Adobe Illustrator 18.1.1, SVG Export Plug-In . SVG Version: 6.00 Build 0)  -->
<svg version="1.1" xmlns="http://www.w3.org/2000/svg" xmlns:xlink="http://www.w3.org/1999/xlink" x="0px" y="0px"
	 viewBox="0 0 440.9 544.7" enable-background="new 0 0 440.9 544.7" xml:space="preserve">
<g id="Layer_2">
</g>
<g id="g">
</g>
<g id="b">
</g>
<g id="g_x5F_bg">
	
		<path fill="#FFFFFF" stroke="#231F20" stroke-width="2" stroke-linecap="round" stroke-linejoin="round" stroke-miterlimit="10" d="
		M363.2,272.1h10.9c3.1,0,5.9,1.7,7.3,4.4l2.3,5.5c0.8,1.9,3.1,2.8,5,1.9l0,0l-1.5,4.9c-0.6,2-2.4,3.3-4.5,3.3l0,0
		c-1.3,0-2.6-0.6-3.5-1.6l-0.1-0.2L363.2,272.1z"/>
	
		<path fill="#FFFFFF" stroke="#231F20" stroke-width="2" stroke-linecap="round" stroke-linejoin="round" stroke-miterlimit="10" d="
		M360.9,272.1L360.9,272.1c-5,0-9.6,2-12.9,5.3c-3.2,3.2-5.2,7.6-5.3,12.5c0,0.1,0,0.1,0,0.2v0.2v16.6v0.6
		c0,10.1,8.2,18.2,18.2,18.2h0c5,0,9.6-2,12.9-5.3c3.2-3.2,5.2-7.6,5.3-12.5c0-0.1,0-0.1,0-0.2v-0.2v-16.6v-0.6
		C379.1,280.2,371,272.1,360.9,272.1z"/>
	
		<rect x="354.5" y="302.4" fill="#FFFFFF" stroke="#231F20" stroke-width="2" stroke-linecap="round" stroke-linejoin="round" stroke-miterlimit="10" width="8.7" height="3.8"/>
	<path fill="none" stroke="#231F20" stroke-width="2" stroke-linecap="round" stroke-miterlimit="10" d="M160.1,191.6l35.5,35.7
		c1.2,0.9,2.5,1.7,3.9,2.2l53.6,18.5c3.8,1.3,7.9-0.3,9.8-3.8l0,0c1.2-2.2,0.1-4.9-2.2-5.7l-5.8-2c-1.5-0.5-3.5,1-4.5,2
		c-0.4,0.4-1.1,0.6-1.7,0.3l-43.5-18.1c-1.4-0.6-2.8-1.5-3.9-2.5L171.9,175c-2.2-3.5-4.5-6-8.3-6.2l-10.9-0.4"/>
	<path fill="none" stroke="#231F20" stroke-width="2" stroke-linecap="round" stroke-miterlimit="10" d="M109.8,195.9l-13.1,20.9
		c-0.8,1.5-1.3,3-1.5,4.6l-6,46.8c-0.1,0.6,0.2,1.2,0.7,1.5c1.2,0.7,3.2,2.2,3.1,3.8l-0.4,6.1c-0.2,2.5-2.5,4.2-4.9,3.6h0
		c-3.9-0.9-6.5-4.5-6.3-8.5l3.7-56.6c0.1-1.5,0.5-3,1.1-4.4l10.4-24.1l0.9-2.1l1.7-3.9l3.1-7.3c2.1-4.9,6.7-8.4,12.1-9l7.5-0.9"/>
	<path fill="none" stroke="#231F20" stroke-width="2" stroke-linecap="round" stroke-miterlimit="10" d="M141.5,201.9
		c0,0-7.7,1.1-12.4,4.3"/>
	<path fill="none" stroke="#231F20" stroke-width="2" stroke-linecap="round" stroke-miterlimit="10" d="M111.9,191.6l-0.2,0.4
		c-1.7,2.5-2,5.6-1,8.4l3.2,9.1c0,0,0,0,0,0c0.5,1.5,0.5,3.2,0.2,4.8c0,0-5.8,15.6-6.9,21c-0.9,4.5-1.6,18.3-1.6,18.3"/>
	<path fill="none" stroke="#231F20" stroke-width="2" stroke-linecap="round" stroke-miterlimit="10" d="M185.4,189.1"/>
	<path fill="none" stroke="#231F20" stroke-width="2" stroke-linecap="round" stroke-miterlimit="10" d="M172.8,196.3"/>
	<path fill="#FFFFFF" stroke="#231F20" stroke-width="2" stroke-linecap="round" stroke-miterlimit="10" d="M160.1,191.6l0.2,0.4
		c1.7,2.5,2,5.6,1,8.4l-3.2,9.1c0,0,0,0,0,0c-0.5,1.5-0.5,3.2-0.2,4.8c0,0,5.8,15.6,6.9,21c0.9,4.5,1.6,18.3,1.6,18.3"/>
	
		<line fill="none" stroke="#231F20" stroke-width="2" stroke-linecap="round" stroke-linejoin="round" stroke-miterlimit="10" x1="120.8" y1="260.6" x2="106.5" y2="269.3"/>
	<polygon fill="#231F20" points="111.2,426.2 98.1,434.8 119.7,433.2 120.9,420.6 111,420.6 	"/>
	
		<line fill="none" stroke="#231F20" stroke-width="2" stroke-linecap="round" stroke-linejoin="round" stroke-miterlimit="10" x1="150.7" y1="260.6" x2="165" y2="269.3"/>
	<g>
		
			<polygon fill="#231F20" stroke="#231F20" stroke-width="2" stroke-linecap="round" stroke-linejoin="round" stroke-miterlimit="10" points="
			110.7,426.2 97.7,434.8 119.3,433.2 121.1,412.4 110.3,412.4 		"/>
		
			<polygon fill="#231F20" stroke="#231F20" stroke-width="2" stroke-linecap="round" stroke-linejoin="round" stroke-miterlimit="10" points="
			105.4,253.9 110.3,412.4 121.1,412.4 134.1,267.2 135.3,267.2 135.3,253.9 		"/>
		
			<polygon fill="#231F20" stroke="#231F20" stroke-width="2" stroke-linecap="round" stroke-linejoin="round" stroke-miterlimit="10" points="
			166.2,253.9 136.3,253.9 136.3,267.2 137.4,267.2 150.4,412.4 161.3,412.4 		"/>
		
			<polygon fill="#231F20" stroke="#231F20" stroke-width="2" stroke-linecap="round" stroke-linejoin="round" stroke-miterlimit="10" points="
			173.9,434.8 160.9,426.2 161.3,412.4 150.4,412.4 152.3,433.2 		"/>
		
			<rect x="135.3" y="253.9" fill="#231F20" stroke="#231F20" stroke-width="2" stroke-linecap="round" stroke-linejoin="round" stroke-miterlimit="10" width="1" height="13.3"/>
	</g>
	<polygon fill="#231F20" points="160.4,426.2 173.4,434.8 151.8,433.2 150.7,420.6 160.6,420.6 	"/>
	
		<line fill="none" stroke="#231F20" stroke-width="2" stroke-linecap="round" stroke-linejoin="round" stroke-miterlimit="10" x1="128.8" y1="169.7" x2="136.1" y2="180.4"/>
	
		<line fill="none" stroke="#231F20" stroke-width="2" stroke-linecap="round" stroke-linejoin="round" stroke-miterlimit="10" x1="143.8" y1="169.7" x2="136.5" y2="180.4"/>
	
		<path fill="#FFFFFF" stroke="#231F20" stroke-width="2" stroke-linecap="round" stroke-linejoin="round" stroke-miterlimit="10" d="
		M155.6,136.4l1.4,0.8c4.1,2.2,6.5,6.7,6.1,11.3l-0.3,3.3c-0.1,0.9,0.4,1.8,1.1,2.3h0c0.5,0.3,1.1,0.4,1.6,0.4l6.3-0.7
		c0,0-8.1,21.1-22.6,4.1C134.9,140.9,155.6,136.4,155.6,136.4z"/>
	
		<path fill="#FFFFFF" stroke="#231F20" stroke-width="2" stroke-linecap="round" stroke-linejoin="round" stroke-miterlimit="10" d="
		M154.4,140.9l5.4-20.1c3.1-11.4-5.2-23-17-23.4c-0.2,0-0.4,0-0.6,0h-12.7c-0.2,0-0.4,0-0.6,0c-11.8,0.4-20,11.8-17.1,23.2l5.2,20.3
		H154.4z"/>
	
		<path fill="#FFFFFF" stroke="#231F20" stroke-width="2" stroke-linecap="round" stroke-linejoin="round" stroke-miterlimit="10" d="
		M117.1,124.1v19.7c0,10.2,8.3,18.5,18.5,18.5h0c10.2,0,18.5-8.3,18.5-18.5V121c0,0-5.8,5.7-15.7,2.8c0,0,3.7-5.7,0.5-8.6
		C138.9,115.2,134.8,127.2,117.1,124.1z"/>
	<path fill="none" stroke="#231F20" stroke-width="2" stroke-linecap="round" stroke-linejoin="round" stroke-miterlimit="10" d="
		M140,95.3"/>
	
		<line fill="none" stroke="#231F20" stroke-width="2" stroke-linecap="round" stroke-linejoin="round" stroke-miterlimit="10" x1="133.4" y1="143" x2="138.4" y2="143"/>
	
		<path fill="#FFFFFF" stroke="#231F20" stroke-width="2" stroke-linecap="round" stroke-linejoin="round" stroke-miterlimit="10" d="
		M132.8,151.2h6.5v0.7c0,1.8-1.4,3.2-3.2,3.2l0,0c-1.8,0-3.2-1.4-3.2-3.2V151.2z"/>
	
		<path fill="#FFFFFF" stroke="#231F20" stroke-width="2" stroke-linecap="round" stroke-linejoin="round" stroke-miterlimit="10" d="
		M155.5,127.8v8.5c0,2.1-1.7,3.8-3.8,3.8h-4.1c-1.4,0-2.7-0.3-4-0.9v0c-2.6-1.3-4.5-3.8-4.9-6.6l0,0c-0.3-1.6,0.1-3.2,1.1-4.5l0,0
		c0.5-0.7,1.4-1.1,2.3-1.1L155.5,127.8z"/>
	
		<path fill="#FFFFFF" stroke="#231F20" stroke-width="2" stroke-linecap="round" stroke-linejoin="round" stroke-miterlimit="10" d="
		M115.7,127.8v8.5c0,2.1,1.7,3.8,3.8,3.8h4.1c1.4,0,2.7-0.3,4-0.9l0,0c2.6-1.3,4.5-3.8,4.9-6.6l0,0c0.3-1.6-0.1-3.2-1.1-4.5h0
		c-0.5-0.7-1.4-1.1-2.3-1.1L115.7,127.8z"/>
	
		<path fill="#FFFFFF" stroke="#231F20" stroke-width="2" stroke-linecap="round" stroke-linejoin="round" stroke-miterlimit="10" d="
		M144.2,131.9v0.2c0,1.6,1.3,2.9,2.9,2.9l0,0c1.6,0,2.9-1.3,2.9-2.9v-0.2"/>
	
		<path fill="#FFFFFF" stroke="#231F20" stroke-width="2" stroke-linecap="round" stroke-linejoin="round" stroke-miterlimit="10" d="
		M127,131.9v0.2c0,1.6-1.3,2.9-2.9,2.9l0,0c-1.6,0-2.9-1.3-2.9-2.9v-0.2"/>
	<path fill="none" stroke="#231F20" stroke-width="2" stroke-linecap="round" stroke-linejoin="round" stroke-miterlimit="10" d="
		M115.7,127.8l12.4-0.8c0.6,0,1.3,0.1,1.9,0.3h0c1.5,0.6,2.5,2.1,2.6,3.7l0,0.3"/>
	<path fill="none" stroke="#231F20" stroke-width="2" stroke-linecap="round" stroke-linejoin="round" stroke-miterlimit="10" d="
		M155.5,127.8l-12.4-0.8c-0.6,0-1.3,0.1-1.9,0.3l0,0c-1.5,0.6-2.5,2.1-2.6,3.7l0,0.3"/>
	<path fill="none" stroke="#231F20" stroke-width="2" stroke-linecap="round" stroke-linejoin="round" stroke-miterlimit="10" d="
		M132.7,131.3L132.7,131.3c0-0.6,0.7-1.2,1.6-1.2h2.5c0.9,0,1.6,0.5,1.6,1.2l0,0"/>
	
		<path fill="#FFFFFF" stroke="#231F20" stroke-width="2" stroke-linecap="round" stroke-linejoin="round" stroke-miterlimit="10" d="
		M118,120.4c0,0,11.2,4.7,18.5-5.5"/>
	
		<path fill="#FFFFFF" stroke="#231F20" stroke-width="2" stroke-linecap="round" stroke-linejoin="round" stroke-miterlimit="10" d="
		M119.4,117.7c0,0,8.5,3.6,14-4.2"/>
	
		<path fill="#FFFFFF" stroke="#231F20" stroke-width="2" stroke-linecap="round" stroke-linejoin="round" stroke-miterlimit="10" d="
		M164.6,159.8c0,0-2.9,5-9,0.1"/>
	<path fill="none" stroke="#231F20" stroke-width="2" stroke-linecap="round" stroke-miterlimit="10" d="M157.7,168.6
		c0,0-9.8,16.4,3.8,25.8"/>
	<path fill="none" stroke="#231F20" stroke-width="2" stroke-linecap="round" stroke-miterlimit="10" d="M154.1,168.6
		c0,0-10.2,17.6,7.4,30"/>
	<path fill="none" stroke="#231F20" stroke-width="2" stroke-linecap="round" stroke-miterlimit="10" d="M114.7,167.5
		c0,0,9.8,16.4-3.8,25.8"/>
	<path fill="none" stroke="#231F20" stroke-width="2" stroke-linecap="round" stroke-miterlimit="10" d="M118.3,167.5
		c0,0,10.2,17.6-7.4,30"/>
	<path fill="none" stroke="#231F20" stroke-width="2" stroke-linecap="round" stroke-miterlimit="10" d="M196.8,218.1"/>
	
		<rect x="64.4" y="305.9" fill="#FFFFFF" stroke="#231F20" stroke-width="2" stroke-linecap="round" stroke-miterlimit="10" width="8.3" height="149.6"/>
	
		<rect x="64.4" y="455.5" fill="#FFFFFF" stroke="#231F20" stroke-width="2" stroke-linecap="round" stroke-linejoin="round" stroke-miterlimit="10" width="8.3" height="7"/>
	
		<rect x="191.8" y="305.9" fill="#FFFFFF" stroke="#231F20" stroke-width="2" stroke-linecap="round" stroke-miterlimit="10" width="8.3" height="149.6"/>
	
		<rect x="191.8" y="455.5" fill="#FFFFFF" stroke="#231F20" stroke-width="2" stroke-linecap="round" stroke-linejoin="round" stroke-miterlimit="10" width="8.3" height="7"/>
	<path fill="none" stroke="#231F20" stroke-width="2" stroke-linecap="round" stroke-miterlimit="10" d="M199,220.1
		c0,0-0.7,2.1,0,3.2"/>
	
		<path fill="#FFFFFF" stroke="#231F20" stroke-width="2" stroke-linecap="round" stroke-linejoin="round" stroke-miterlimit="10" d="
		M49.8,249.6h37c0,0-2.8,1.7-2.9,3.9c-0.1,2.1,2.9,3.9,2.9,3.9h-37c-2.5,0-4.5-1.8-4.5-3.9v0C45.2,251.4,47.3,249.6,49.8,249.6z"/>
	<path fill="none" stroke="#231F20" stroke-width="2" stroke-linecap="round" stroke-linejoin="round" stroke-miterlimit="10" d="
		M86.8,249.6h-37c-2.5,0-4.5,1.8-4.5,3.9v0c0,2.2,2,3.9,4.5,3.9h37"/>
	
		<path fill="#FFFFFF" stroke="#231F20" stroke-width="2" stroke-linecap="round" stroke-linejoin="round" stroke-miterlimit="10" d="
		M49.8,240.5h37c0,0-2.8,1.7-2.9,3.9c-0.1,2.1,2.9,3.9,2.9,3.9h-37c-2.5,0-4.5-1.8-4.5-3.9l0,0C45.2,242.3,47.3,240.5,49.8,240.5z"
		/>
	<path fill="none" stroke="#231F20" stroke-width="2" stroke-linecap="round" stroke-linejoin="round" stroke-miterlimit="10" d="
		M86.8,240.5h-37c-2.5,0-4.5,1.8-4.5,3.9l0,0c0,2.2,2,3.9,4.5,3.9h37"/>
	
		<path fill="#FFFFFF" stroke="#231F20" stroke-width="2" stroke-linecap="round" stroke-linejoin="round" stroke-miterlimit="10" d="
		M54.4,233.6h26.4c0,0-2,1.2-2,2.8c-0.1,1.5,2,2.8,2,2.8H54.4c-1.8,0-3.2-1.3-3.2-2.8v0C51.2,234.8,52.6,233.6,54.4,233.6z"/>
	<path fill="none" stroke="#231F20" stroke-width="2" stroke-linecap="round" stroke-linejoin="round" stroke-miterlimit="10" d="
		M80.9,233.6H54.4c-1.8,0-3.2,1.3-3.2,2.8v0c0,1.6,1.5,2.8,3.2,2.8h26.4"/>
	<path fill="#FFFFFF" stroke="#231F20" stroke-width="2" stroke-linecap="round" stroke-miterlimit="10" d="M209.2,270.3h4.4
		c0.8,0,1.5-0.7,1.5-1.5V259c0-0.8-0.7-1.5-1.5-1.5H44.3c-0.8,0-1.5,0.7-1.5,1.5v9.9c0,0.8,0.7,1.5,1.5,1.5h7.9"/>
	<path fill="#FFFFFF" stroke="#231F20" stroke-width="2" stroke-linecap="round" stroke-miterlimit="10" d="M179.6,270.3H47.8v34.1
		c0,0.6,0.5,1,1,1h160.6c0.6,0,1-0.5,1-1v-34h-18.7"/>
	
		<rect x="64.4" y="283.1" fill="#FFFFFF" stroke="#231F20" stroke-width="2" stroke-linecap="round" stroke-miterlimit="10" width="129.9" height="18"/>
	
		<circle fill="#FFFFFF" stroke="#231F20" stroke-width="2" stroke-linecap="round" stroke-miterlimit="10" cx="129.3" cy="291.8" r="2.2"/>
	<path fill="none" stroke="#231F20" stroke-width="2" stroke-linecap="round" stroke-miterlimit="10" d="M90.4,204.1
		c0,0,5.9,0.1,10,6.9"/>
	<path fill="none" stroke="#231F20" stroke-width="2" stroke-linecap="round" stroke-miterlimit="10" d="M191.8,204.1
		c0,0-9-0.6-12.5,6.9"/>
	
		<path fill="#FFFFFF" stroke="#231F20" stroke-width="2" stroke-linecap="round" stroke-linejoin="round" stroke-miterlimit="10" d="
		M384.9,356.5l13.7,7.5c3.3,1.8,10.2,1.3,18-1.1c3.1-0.9,4.7-4.3,3.4-7.3l0,0c-1-2.3-3.4-3.4-5.9-3.3c-5.5,0.2-9.3-0.6-9.3-0.6
		l-18.7-15.5c-2.3-1.9-5.3-2.9-8.3-2.8l-6.2,0.3"/>
	<path fill="none" stroke="#231F20" stroke-width="2" stroke-linecap="round" stroke-miterlimit="10" d="M370.4,358
		c0,0-13.7,2.6-21.7,8.7"/>
	
		<polyline fill="#FFFFFF" stroke="#231F20" stroke-width="2" stroke-linecap="round" stroke-linejoin="round" stroke-miterlimit="10" points="
		336,348.9 338,388.4 359.9,388.4 	"/>
	
		<polyline fill="#FFFFFF" stroke="#231F20" stroke-width="2" stroke-linecap="round" stroke-linejoin="round" stroke-miterlimit="10" points="
		384.5,348.5 382.5,388 360.6,388 	"/>
	
		<polyline fill="#FFFFFF" stroke="#231F20" stroke-width="2" stroke-linecap="round" stroke-linejoin="round" stroke-miterlimit="10" points="
		368.4,337.5 360.6,343.4 352.1,337.9 	"/>
	
		<path fill="#FFFFFF" stroke="#231F20" stroke-width="2" stroke-linecap="round" stroke-linejoin="round" stroke-miterlimit="10" d="
		M335.4,356.5l-13.7,7.5c-3.3,1.8-10.2,1.3-18-1.1c-3.1-0.9-4.7-4.3-3.4-7.3v0c1-2.3,3.4-3.4,5.9-3.3c5.5,0.2,9.3-0.6,9.3-0.6
		l18.7-15.5c2.3-1.9,5.3-2.9,8.3-2.8l6.2,0.3"/>
	
		<polygon fill="none" stroke="#231F20" stroke-width="2" stroke-linecap="round" stroke-linejoin="round" stroke-miterlimit="10" points="
		395.5,510.3 389.6,510.3 386.1,429.8 395.5,429.8 	"/>
	
		<line fill="none" stroke="#231F20" stroke-width="2" stroke-linecap="round" stroke-miterlimit="10" x1="392.8" y1="429.8" x2="392.8" y2="477.4"/>
	
		<line fill="none" stroke="#231F20" stroke-width="2" stroke-linecap="round" stroke-miterlimit="10" x1="392.8" y1="494.5" x2="392.8" y2="508"/>
	
		<polygon fill="none" stroke="#231F20" stroke-width="2" stroke-linecap="round" stroke-linejoin="round" stroke-miterlimit="10" points="
		324.8,510.3 330.7,510.3 334.1,429.8 324.8,429.8 	"/>
	
		<line fill="none" stroke="#231F20" stroke-width="2" stroke-linecap="round" stroke-miterlimit="10" x1="327.5" y1="429.8" x2="327.5" y2="477.4"/>
	
		<line fill="none" stroke="#231F20" stroke-width="2" stroke-linecap="round" stroke-miterlimit="10" x1="327.5" y1="494.5" x2="327.5" y2="508"/>
	
		<path fill="#231F20" stroke="#231F20" stroke-width="2" stroke-linecap="round" stroke-linejoin="round" stroke-miterlimit="10" d="
		M335.6,415.9c-4.3-3.9-2.5-11.3-2.5-11.3h53c0,0,1.9,7.4-2.5,11.3H335.6z"/>
	
		<polygon fill="#231F20" stroke="#231F20" stroke-width="2" stroke-linecap="round" stroke-linejoin="round" stroke-miterlimit="10" points="
		351.6,486.5 349.9,486.5 347.6,486.5 345.9,486.5 342.6,493 347.6,493 349.9,493 354.9,493 	"/>
	
		<polygon fill="#231F20" stroke="#231F20" stroke-width="2" stroke-linecap="round" stroke-linejoin="round" stroke-miterlimit="10" points="
		375.5,486.5 373.8,486.5 371.5,486.5 369.8,486.5 366.5,493 371.5,493 373.8,493 378.8,493 	"/>
	
		<rect x="312.2" y="396" fill="#FFFFFF" stroke="#231F20" stroke-width="2" stroke-linecap="round" stroke-miterlimit="10" width="6.1" height="109.6"/>
	
		<rect x="312.2" y="505.6" fill="#231F20" stroke="#231F20" stroke-width="2" stroke-linecap="round" stroke-linejoin="round" stroke-miterlimit="10" width="6.1" height="5.1"/>
	
		<rect x="405.5" y="396" fill="#FFFFFF" stroke="#231F20" stroke-width="2" stroke-linecap="round" stroke-miterlimit="10" width="6.1" height="109.6"/>
	
		<rect x="405.5" y="505.6" fill="#231F20" stroke="#231F20" stroke-width="2" stroke-linecap="round" stroke-linejoin="round" stroke-miterlimit="10" width="6.1" height="5.1"/>
	<path fill="#FFFFFF" stroke="#231F20" stroke-width="2" stroke-linecap="round" stroke-miterlimit="10" d="M420.4,370H298.8
		c-1.8,0-3.2-1.4-3.2-3.2v-2.5c0-1.8,1.4-3.2,3.2-3.2h121.6c1.8,0,3.2,1.4,3.2,3.2v2.5C423.6,368.6,422.2,370,420.4,370z"/>
	<path fill="#FFFFFF" stroke="#231F20" stroke-width="2" stroke-linecap="round" stroke-miterlimit="10" d="M417.2,395.7H302
		c-1.1,0-2-0.9-2-2V370h119.1v23.7C419.2,394.8,418.3,395.7,417.2,395.7z"/>
	
		<polygon fill="#FFFFFF" stroke="#231F20" stroke-width="2" stroke-linecap="round" stroke-linejoin="round" stroke-miterlimit="10" points="
		345.7,486.5 352.1,486.5 354.5,462 343.1,462 	"/>
	
		<polygon fill="#231F20" stroke="#231F20" stroke-width="2" stroke-linecap="round" stroke-linejoin="round" stroke-miterlimit="10" points="
		339.6,429.8 343.1,462 354.5,462 357.7,429.8 	"/>
	
		<polygon fill="#231F20" stroke="#231F20" stroke-width="2" stroke-linecap="round" stroke-linejoin="round" stroke-miterlimit="10" points="
		363.5,429.8 367,462 378.4,462 381.6,429.8 	"/>
	
		<polygon fill="#FFFFFF" stroke="#231F20" stroke-width="2" stroke-linecap="round" stroke-linejoin="round" stroke-miterlimit="10" points="
		369.6,486.5 376,486.5 378.4,462 367,462 	"/>
	<path fill="#FFFFFF" stroke="#231F20" stroke-width="2" stroke-linecap="round" stroke-miterlimit="10" d="M406,429.8h-91.4
		c-0.4,0-0.7-0.3-0.7-0.7v-12.5c0-0.4,0.3-0.7,0.7-0.7H406c0.4,0,0.7,0.3,0.7,0.7v12.5C406.7,429.5,406.4,429.8,406,429.8z"/>
	
		<line fill="none" stroke="#231F20" stroke-width="2" stroke-linecap="round" stroke-miterlimit="10" x1="314.6" y1="420.8" x2="382" y2="420.8"/>
	
		<line fill="none" stroke="#231F20" stroke-width="2" stroke-linecap="round" stroke-miterlimit="10" x1="392.9" y1="420.8" x2="406.7" y2="420.8"/>
	
		<path fill="#FFFFFF" stroke="#231F20" stroke-width="2" stroke-linecap="round" stroke-linejoin="round" stroke-miterlimit="10" d="
		M355.5,306.2c-0.8,0-1.5-0.1-2.2-0.3c-3-0.9-12-3.2-16,0.5l-0.1,0.1c-2.6,2.4-4.5,5.4-5.6,8.7v0c-1.5,4.4-1.4,9.1,0.1,13.5l0,0.1
		c1,2.7,0.4,5.7-1.4,7.9l-1,1.2l7.1-0.8c5.2-0.6,9.2-4.8,9.6-10l0.5-6.7c0.2-3.1,2.2-5.9,5.1-7l7.3-0.9c2.3-0.3,4.1-2.2,4.1-4.6l0-2
		L355.5,306.2z"/>
	<path fill="#FFFFFF" stroke="#231F20" stroke-width="2" stroke-linecap="round" stroke-miterlimit="10" d="M360.3,347.8h-38.5
		c-6.2,0-10.8,5.6-9.7,11.6l11.4,40.6c0.8,2.7,3.2,4.5,6,4.5h30.8h30.5c2.8,0,5.2-1.8,6-4.5l11.7-40.6c1.1-6.1-3.5-11.6-9.7-11.6
		H360.3z"/>
	
		<line fill="none" stroke="#231F20" stroke-width="2" stroke-linecap="round" stroke-miterlimit="10" x1="312.4" y1="357.6" x2="382" y2="357.6"/>
	
		<line fill="none" stroke="#231F20" stroke-width="2" stroke-linecap="round" stroke-miterlimit="10" x1="392.9" y1="357.6" x2="408.1" y2="357.6"/>
	<path fill="none" stroke="#231F20" stroke-width="2" stroke-linecap="round" stroke-linejoin="round" stroke-miterlimit="10" d="
		M375.8,378.4h-31.1l0,0c1.1-6.8,7.1-11.8,14-11.8h3.1C368.8,366.6,374.7,371.6,375.8,378.4L375.8,378.4z"/>
	<path fill="#FFFFFF" stroke="#231F20" stroke-width="2" stroke-linecap="round" stroke-miterlimit="10" d="M361.8,418.4h-3.1
		c-2.1,0-3.9-1.7-3.9-3.9v-38.6c0-2.1,1.7-3.9,3.9-3.9h3.1c2.1,0,3.9,1.7,3.9,3.9v38.6C365.7,416.6,364,418.4,361.8,418.4z"/>
	<line fill="none" stroke="#000000" stroke-width="2" stroke-miterlimit="10" x1="251.1" y1="463.7" x2="4.1" y2="463.7"/>
</g>
<g id="b_x5F_bg">
</g>
</svg>
