<?xml version="1.0" encoding="utf-8"?>
<!-- Generator: Adobe Illustrator 18.0.0, SVG Export Plug-In . SVG Version: 6.00 Build 0)  -->
<!DOCTYPE svg PUBLIC "-//W3C//DTD SVG 1.1//EN" "http://www.w3.org/Graphics/SVG/1.1/DTD/svg11.dtd">
<svg version="1.1" xmlns="http://www.w3.org/2000/svg" xmlns:xlink="http://www.w3.org/1999/xlink" x="0px" y="0px"
	 viewBox="0 0 729.2 844" enable-background="new 0 0 729.2 844" xml:space="preserve">
<g id="Layer_2">
</g>
<g id="Layer_1">
</g>
<g id="city">
	
		<polyline fill="none" stroke="#FFFFFF" stroke-width="2" stroke-linecap="round" stroke-linejoin="round" stroke-miterlimit="10" points="
		262.2,514 205.2,514 205.2,567 233.2,567 277.2,567 	"/>
	
		<polyline fill="none" stroke="#FFFFFF" stroke-width="2" stroke-linecap="round" stroke-linejoin="round" stroke-miterlimit="10" points="
		278.2,514 300.2,514 300.2,567 272.2,567 	"/>
	
		<line fill="none" stroke="#FFFFFF" stroke-width="2" stroke-linecap="round" stroke-linejoin="round" stroke-miterlimit="10" x1="230.2" y1="529" x2="230.2" y2="566"/>
	
		<line fill="none" stroke="#FFFFFF" stroke-width="2" stroke-linecap="round" stroke-linejoin="round" stroke-miterlimit="10" x1="238.2" y1="529" x2="238.2" y2="566"/>
	
		<line fill="none" stroke="#FFFFFF" stroke-width="2" stroke-linecap="round" stroke-linejoin="round" stroke-miterlimit="10" x1="265.2" y1="529" x2="265.2" y2="566"/>
	
		<line fill="none" stroke="#FFFFFF" stroke-width="2" stroke-linecap="round" stroke-linejoin="round" stroke-miterlimit="10" x1="273.2" y1="566" x2="273.2" y2="529"/>
	
		<polyline fill="none" stroke="#FFFFFF" stroke-width="2" stroke-linecap="round" stroke-linejoin="round" stroke-miterlimit="10" points="
		262.2,436 205.2,436 205.2,489 233.2,489 277.2,489 	"/>
	
		<polyline fill="none" stroke="#FFFFFF" stroke-width="2" stroke-linecap="round" stroke-linejoin="round" stroke-miterlimit="10" points="
		278.2,436 300.2,436 300.2,489 272.2,489 	"/>
	
		<line fill="none" stroke="#FFFFFF" stroke-width="2" stroke-linecap="round" stroke-linejoin="round" stroke-miterlimit="10" x1="230.2" y1="451" x2="230.2" y2="488"/>
	
		<line fill="none" stroke="#FFFFFF" stroke-width="2" stroke-linecap="round" stroke-linejoin="round" stroke-miterlimit="10" x1="238.2" y1="451" x2="238.2" y2="488"/>
	
		<line fill="none" stroke="#FFFFFF" stroke-width="2" stroke-linecap="round" stroke-linejoin="round" stroke-miterlimit="10" x1="265.2" y1="451" x2="265.2" y2="488"/>
	
		<line fill="none" stroke="#FFFFFF" stroke-width="2" stroke-linecap="round" stroke-linejoin="round" stroke-miterlimit="10" x1="273.2" y1="488" x2="273.2" y2="451"/>
	
		<polyline fill="none" stroke="#FFFFFF" stroke-width="2" stroke-linecap="round" stroke-linejoin="round" stroke-miterlimit="10" points="
		262.2,358 205.2,358 205.2,411 233.2,411 277.2,411 	"/>
	
		<polyline fill="none" stroke="#FFFFFF" stroke-width="2" stroke-linecap="round" stroke-linejoin="round" stroke-miterlimit="10" points="
		278.2,358 300.2,358 300.2,411 272.2,411 	"/>
	
		<line fill="none" stroke="#FFFFFF" stroke-width="2" stroke-linecap="round" stroke-linejoin="round" stroke-miterlimit="10" x1="230.2" y1="373" x2="230.2" y2="410"/>
	
		<line fill="none" stroke="#FFFFFF" stroke-width="2" stroke-linecap="round" stroke-linejoin="round" stroke-miterlimit="10" x1="238.2" y1="373" x2="238.2" y2="410"/>
	
		<line fill="none" stroke="#FFFFFF" stroke-width="2" stroke-linecap="round" stroke-linejoin="round" stroke-miterlimit="10" x1="265.2" y1="373" x2="265.2" y2="410"/>
	
		<line fill="none" stroke="#FFFFFF" stroke-width="2" stroke-linecap="round" stroke-linejoin="round" stroke-miterlimit="10" x1="273.2" y1="410" x2="273.2" y2="373"/>
	
		<polyline fill="none" stroke="#FFFFFF" stroke-width="2" stroke-linecap="round" stroke-linejoin="round" stroke-miterlimit="10" points="
		262.2,280 205.2,280 205.2,333 233.2,333 277.2,333 	"/>
	
		<polyline fill="none" stroke="#FFFFFF" stroke-width="2" stroke-linecap="round" stroke-linejoin="round" stroke-miterlimit="10" points="
		278.2,280 300.2,280 300.2,333 272.2,333 	"/>
	
		<line fill="none" stroke="#FFFFFF" stroke-width="2" stroke-linecap="round" stroke-linejoin="round" stroke-miterlimit="10" x1="230.2" y1="295" x2="230.2" y2="332"/>
	
		<line fill="none" stroke="#FFFFFF" stroke-width="2" stroke-linecap="round" stroke-linejoin="round" stroke-miterlimit="10" x1="238.2" y1="295" x2="238.2" y2="332"/>
	
		<line fill="none" stroke="#FFFFFF" stroke-width="2" stroke-linecap="round" stroke-linejoin="round" stroke-miterlimit="10" x1="265.2" y1="295" x2="265.2" y2="332"/>
	
		<line fill="none" stroke="#FFFFFF" stroke-width="2" stroke-linecap="round" stroke-linejoin="round" stroke-miterlimit="10" x1="273.2" y1="332" x2="273.2" y2="295"/>
	
		<polyline fill="none" stroke="#FFFFFF" stroke-width="2" stroke-linecap="round" stroke-linejoin="round" stroke-miterlimit="10" points="
		262.2,202 205.2,202 205.2,255 233.2,255 277.2,255 	"/>
	
		<polyline fill="none" stroke="#FFFFFF" stroke-width="2" stroke-linecap="round" stroke-linejoin="round" stroke-miterlimit="10" points="
		278.2,202 300.2,202 300.2,255 272.2,255 	"/>
	
		<line fill="none" stroke="#FFFFFF" stroke-width="2" stroke-linecap="round" stroke-linejoin="round" stroke-miterlimit="10" x1="230.2" y1="217" x2="230.2" y2="254"/>
	
		<line fill="none" stroke="#FFFFFF" stroke-width="2" stroke-linecap="round" stroke-linejoin="round" stroke-miterlimit="10" x1="238.2" y1="217" x2="238.2" y2="254"/>
	
		<line fill="none" stroke="#FFFFFF" stroke-width="2" stroke-linecap="round" stroke-linejoin="round" stroke-miterlimit="10" x1="265.2" y1="217" x2="265.2" y2="254"/>
	
		<line fill="none" stroke="#FFFFFF" stroke-width="2" stroke-linecap="round" stroke-linejoin="round" stroke-miterlimit="10" x1="273.2" y1="254" x2="273.2" y2="217"/>
	<polyline fill="none" stroke="#FFFFFF" stroke-width="2" stroke-miterlimit="10" points="120.2,754 88.2,754 80.2,754 80.2,513 
		5.2,513 	"/>
	<polyline fill="none" stroke="#FFFFFF" stroke-width="2" stroke-miterlimit="10" points="5.2,526 63.2,526 63.2,569 	"/>
	<polyline fill="none" stroke="#FFFFFF" stroke-width="2" stroke-linejoin="round" stroke-miterlimit="10" points="4.2,570 
		69.2,570 69.2,596 24.2,596 	"/>
	<line fill="none" stroke="#FFFFFF" stroke-width="2" stroke-miterlimit="10" x1="4.2" y1="596" x2="16.2" y2="596"/>
	<line fill="none" stroke="#FFFFFF" stroke-miterlimit="10" x1="5.2" y1="529.5" x2="16.2" y2="529.5"/>
	<line fill="none" stroke="#FFFFFF" stroke-linecap="round" stroke-miterlimit="10" x1="23.2" y1="529.5" x2="63.2" y2="529.5"/>
	<line fill="none" stroke="#FFFFFF" stroke-miterlimit="10" x1="5.2" y1="534.5" x2="16.2" y2="534.5"/>
	<line fill="none" stroke="#FFFFFF" stroke-linecap="round" stroke-miterlimit="10" x1="23.2" y1="534.5" x2="63.2" y2="534.5"/>
	<line fill="none" stroke="#FFFFFF" stroke-miterlimit="10" x1="5.2" y1="539.5" x2="16.2" y2="539.5"/>
	<line fill="none" stroke="#FFFFFF" stroke-linecap="round" stroke-miterlimit="10" x1="23.2" y1="539.5" x2="63.2" y2="539.5"/>
	<line fill="none" stroke="#FFFFFF" stroke-miterlimit="10" x1="5.2" y1="544.5" x2="16.2" y2="544.5"/>
	<line fill="none" stroke="#FFFFFF" stroke-linecap="round" stroke-miterlimit="10" x1="23.2" y1="544.5" x2="63.2" y2="544.5"/>
	<line fill="none" stroke="#FFFFFF" stroke-miterlimit="10" x1="5.2" y1="549.5" x2="16.2" y2="549.5"/>
	<line fill="none" stroke="#FFFFFF" stroke-linecap="round" stroke-miterlimit="10" x1="23.2" y1="549.5" x2="63.2" y2="549.5"/>
	<line fill="none" stroke="#FFFFFF" stroke-miterlimit="10" x1="5.2" y1="554.5" x2="16.2" y2="554.5"/>
	<line fill="none" stroke="#FFFFFF" stroke-linecap="round" stroke-miterlimit="10" x1="23.2" y1="554.5" x2="63.2" y2="554.5"/>
	<line fill="none" stroke="#FFFFFF" stroke-miterlimit="10" x1="5.2" y1="559.5" x2="16.2" y2="559.5"/>
	<line fill="none" stroke="#FFFFFF" stroke-linecap="round" stroke-miterlimit="10" x1="23.2" y1="559.5" x2="63.2" y2="559.5"/>
	<line fill="none" stroke="#FFFFFF" stroke-miterlimit="10" x1="5.2" y1="564.5" x2="16.2" y2="564.5"/>
	<line fill="none" stroke="#FFFFFF" stroke-linecap="round" stroke-miterlimit="10" x1="23.2" y1="564.5" x2="63.2" y2="564.5"/>
	
		<line fill="none" stroke="#FFFFFF" stroke-width="2" stroke-linejoin="round" stroke-miterlimit="10" x1="69.2" y1="575" x2="4.2" y2="575"/>
	<polyline fill="none" stroke="#FFFFFF" stroke-width="2" stroke-miterlimit="10" points="5.2,621 63.2,621 63.2,664 	"/>
	<polyline fill="none" stroke="#FFFFFF" stroke-width="2" stroke-linejoin="round" stroke-miterlimit="10" points="4.2,665 
		69.2,665 69.2,691 24.2,691 	"/>
	<line fill="none" stroke="#FFFFFF" stroke-width="2" stroke-miterlimit="10" x1="4.2" y1="691" x2="16.2" y2="691"/>
	<line fill="none" stroke="#FFFFFF" stroke-miterlimit="10" x1="5.2" y1="624.5" x2="16.2" y2="624.5"/>
	<line fill="none" stroke="#FFFFFF" stroke-linecap="round" stroke-miterlimit="10" x1="23.2" y1="624.5" x2="63.2" y2="624.5"/>
	<line fill="none" stroke="#FFFFFF" stroke-miterlimit="10" x1="5.2" y1="629.5" x2="16.2" y2="629.5"/>
	<line fill="none" stroke="#FFFFFF" stroke-linecap="round" stroke-miterlimit="10" x1="23.2" y1="629.5" x2="63.2" y2="629.5"/>
	<line fill="none" stroke="#FFFFFF" stroke-miterlimit="10" x1="5.2" y1="634.5" x2="16.2" y2="634.5"/>
	<line fill="none" stroke="#FFFFFF" stroke-linecap="round" stroke-miterlimit="10" x1="23.2" y1="634.5" x2="63.2" y2="634.5"/>
	<line fill="none" stroke="#FFFFFF" stroke-miterlimit="10" x1="5.2" y1="639.5" x2="16.2" y2="639.5"/>
	<line fill="none" stroke="#FFFFFF" stroke-linecap="round" stroke-miterlimit="10" x1="23.2" y1="639.5" x2="63.2" y2="639.5"/>
	<line fill="none" stroke="#FFFFFF" stroke-miterlimit="10" x1="5.2" y1="644.5" x2="16.2" y2="644.5"/>
	<line fill="none" stroke="#FFFFFF" stroke-linecap="round" stroke-miterlimit="10" x1="23.2" y1="644.5" x2="63.2" y2="644.5"/>
	<line fill="none" stroke="#FFFFFF" stroke-miterlimit="10" x1="5.2" y1="649.5" x2="16.2" y2="649.5"/>
	<line fill="none" stroke="#FFFFFF" stroke-linecap="round" stroke-miterlimit="10" x1="23.2" y1="649.5" x2="63.2" y2="649.5"/>
	<line fill="none" stroke="#FFFFFF" stroke-miterlimit="10" x1="5.2" y1="654.5" x2="16.2" y2="654.5"/>
	<line fill="none" stroke="#FFFFFF" stroke-linecap="round" stroke-miterlimit="10" x1="23.2" y1="654.5" x2="63.2" y2="654.5"/>
	<line fill="none" stroke="#FFFFFF" stroke-miterlimit="10" x1="5.2" y1="659.5" x2="16.2" y2="659.5"/>
	<line fill="none" stroke="#FFFFFF" stroke-linecap="round" stroke-miterlimit="10" x1="23.2" y1="659.5" x2="63.2" y2="659.5"/>
	
		<line fill="none" stroke="#FFFFFF" stroke-width="2" stroke-linejoin="round" stroke-miterlimit="10" x1="69.2" y1="670" x2="4.2" y2="670"/>
	<rect x="116.9" y="536.5" stroke="#FFFFFF" stroke-width="2.2594" stroke-miterlimit="10" width="179.3" height="217.5"/>
	<line fill="none" stroke="#FFFFFF" stroke-width="2" stroke-miterlimit="10" x1="117.2" y1="572" x2="295.2" y2="572"/>
	<line fill="none" stroke="#FFFFFF" stroke-width="2" stroke-miterlimit="10" x1="117.2" y1="580" x2="295.2" y2="580"/>
	<line fill="none" stroke="#FFFFFF" stroke-width="2" stroke-miterlimit="10" x1="181.2" y1="537" x2="181.2" y2="754"/>
	<line fill="none" stroke="#FFFFFF" stroke-width="2" stroke-miterlimit="10" x1="172.2" y1="537" x2="172.2" y2="754"/>
	<line fill="none" stroke="#FFFFFF" stroke-width="2" stroke-miterlimit="10" x1="242.2" y1="537" x2="242.2" y2="754"/>
	<line fill="none" stroke="#FFFFFF" stroke-width="2" stroke-miterlimit="10" x1="233.2" y1="537" x2="233.2" y2="754"/>
	<line fill="none" stroke="#FFFFFF" stroke-width="2" stroke-miterlimit="10" x1="117.2" y1="615" x2="295.2" y2="615"/>
	<line fill="none" stroke="#FFFFFF" stroke-width="2" stroke-miterlimit="10" x1="117.2" y1="623" x2="295.2" y2="623"/>
	<line fill="none" stroke="#FFFFFF" stroke-width="2" stroke-miterlimit="10" x1="117.2" y1="658" x2="295.2" y2="658"/>
	<line fill="none" stroke="#FFFFFF" stroke-width="2" stroke-miterlimit="10" x1="117.2" y1="663" x2="295.2" y2="663"/>
	<line fill="none" stroke="#FFFFFF" stroke-width="2" stroke-miterlimit="10" x1="117.2" y1="702" x2="295.2" y2="702"/>
	<line fill="none" stroke="#FFFFFF" stroke-width="2" stroke-miterlimit="10" x1="117.2" y1="710" x2="295.2" y2="710"/>
	<line fill="none" stroke="#FFFFFF" stroke-width="2" stroke-miterlimit="10" x1="208.2" y1="710" x2="208.2" y2="754"/>
	<polyline stroke="#FFFFFF" stroke-width="2" stroke-linecap="round" stroke-linejoin="round" stroke-miterlimit="10" points="
		271.2,544 107.2,544 107.2,535 307.2,535 307.2,544 287.2,544 	"/>
	<polyline stroke="#FFFFFF" stroke-width="2" stroke-linecap="round" stroke-linejoin="round" stroke-miterlimit="10" points="
		271.2,667 107.2,667 107.2,658 307.2,658 307.2,667 287.2,667 	"/>
	
		<rect x="215.6" y="188.7" fill="none" stroke="#FFFFFF" stroke-width="2.3465" stroke-linejoin="round" stroke-miterlimit="10" width="74.7" height="346"/>
	
		<polyline fill="none" stroke="#FFFFFF" stroke-width="2" stroke-linecap="round" stroke-linejoin="round" stroke-miterlimit="10" points="
		50.2,754 44.2,754 44.2,749 5.2,749 	"/>
	
		<polyline fill="none" stroke="#FFFFFF" stroke-width="2" stroke-linecap="round" stroke-linejoin="round" stroke-miterlimit="10" points="
		5.2,709 24.2,709 24.2,749 	"/>
	<polyline stroke="#FFFFFF" stroke-width="2" stroke-linecap="round" stroke-miterlimit="10" points="417.2,605 296.2,605 
		296.2,597 459.2,597 459.2,605 433.2,605 	"/>
	<polyline stroke="#FFFFFF" stroke-width="2" stroke-linecap="round" stroke-miterlimit="10" points="296.2,479 296.2,598 
		459.2,598 459.2,479 	"/>
	<polyline stroke="#FFFFFF" stroke-width="2" stroke-linecap="round" stroke-miterlimit="10" points="417.2,478 296.2,478 
		296.2,470 459.2,470 459.2,478 433.2,478 	"/>
	
		<rect x="408.8" y="491" stroke="#FFFFFF" stroke-width="2" stroke-linecap="round" stroke-miterlimit="10" width="25.3" height="32"/>
	
		<line fill="none" stroke="#FFFFFF" stroke-width="2" stroke-linecap="round" stroke-miterlimit="10" x1="421.2" y1="491" x2="421.2" y2="523"/>
	
		<line fill="none" stroke="#FFFFFF" stroke-width="2" stroke-linecap="round" stroke-miterlimit="10" x1="409.2" y1="503" x2="434.2" y2="503"/>
	<polyline fill="none" stroke="#FFFFFF" stroke-width="2" stroke-linecap="round" stroke-miterlimit="10" points="433.2,530 
		439.2,530 439.2,523 403.2,523 403.2,530 425.2,530 	"/>
	
		<rect x="320.8" y="491" stroke="#FFFFFF" stroke-width="2" stroke-linecap="round" stroke-miterlimit="10" width="25.3" height="32"/>
	
		<line fill="none" stroke="#FFFFFF" stroke-width="2" stroke-linecap="round" stroke-miterlimit="10" x1="333.2" y1="491" x2="333.2" y2="523"/>
	
		<line fill="none" stroke="#FFFFFF" stroke-width="2" stroke-linecap="round" stroke-miterlimit="10" x1="321.2" y1="503" x2="346.2" y2="503"/>
	<polyline fill="none" stroke="#FFFFFF" stroke-width="2" stroke-linecap="round" stroke-miterlimit="10" points="345.2,530 
		351.2,530 351.2,523 315.2,523 315.2,530 337.2,530 	"/>
	
		<rect x="408.8" y="547" stroke="#FFFFFF" stroke-width="2" stroke-linecap="round" stroke-miterlimit="10" width="25.3" height="32"/>
	
		<line fill="none" stroke="#FFFFFF" stroke-width="2" stroke-linecap="round" stroke-miterlimit="10" x1="421.2" y1="547" x2="421.2" y2="579"/>
	
		<line fill="none" stroke="#FFFFFF" stroke-width="2" stroke-linecap="round" stroke-miterlimit="10" x1="409.2" y1="559" x2="434.2" y2="559"/>
	<polyline fill="none" stroke="#FFFFFF" stroke-width="2" stroke-linecap="round" stroke-miterlimit="10" points="433.2,586 
		439.2,586 439.2,579 403.2,579 403.2,586 425.2,586 	"/>
	
		<rect x="320.8" y="547" stroke="#FFFFFF" stroke-width="2" stroke-linecap="round" stroke-miterlimit="10" width="25.3" height="32"/>
	
		<line fill="none" stroke="#FFFFFF" stroke-width="2" stroke-linecap="round" stroke-miterlimit="10" x1="333.2" y1="547" x2="333.2" y2="579"/>
	
		<line fill="none" stroke="#FFFFFF" stroke-width="2" stroke-linecap="round" stroke-miterlimit="10" x1="321.2" y1="559" x2="346.2" y2="559"/>
	<polyline fill="none" stroke="#FFFFFF" stroke-width="2" stroke-linecap="round" stroke-miterlimit="10" points="345.2,586 
		351.2,586 351.2,579 315.2,579 315.2,586 337.2,586 	"/>
	
		<rect x="408.8" y="618" stroke="#FFFFFF" stroke-width="2" stroke-linecap="round" stroke-miterlimit="10" width="25.3" height="32"/>
	
		<line fill="none" stroke="#FFFFFF" stroke-width="2" stroke-linecap="round" stroke-miterlimit="10" x1="421.2" y1="618" x2="421.2" y2="650"/>
	
		<line fill="none" stroke="#FFFFFF" stroke-width="2" stroke-linecap="round" stroke-miterlimit="10" x1="409.2" y1="630" x2="434.2" y2="630"/>
	<polyline fill="none" stroke="#FFFFFF" stroke-width="2" stroke-linecap="round" stroke-miterlimit="10" points="433.2,657 
		439.2,657 439.2,650 403.2,650 403.2,657 425.2,657 	"/>
	
		<rect x="320.8" y="618" stroke="#FFFFFF" stroke-width="2" stroke-linecap="round" stroke-miterlimit="10" width="25.3" height="32"/>
	
		<line fill="none" stroke="#FFFFFF" stroke-width="2" stroke-linecap="round" stroke-miterlimit="10" x1="333.2" y1="618" x2="333.2" y2="650"/>
	
		<line fill="none" stroke="#FFFFFF" stroke-width="2" stroke-linecap="round" stroke-miterlimit="10" x1="321.2" y1="630" x2="346.2" y2="630"/>
	<polyline fill="none" stroke="#FFFFFF" stroke-width="2" stroke-linecap="round" stroke-miterlimit="10" points="345.2,657 
		351.2,657 351.2,650 315.2,650 315.2,657 337.2,657 	"/>
	
		<rect x="408.8" y="674" stroke="#FFFFFF" stroke-width="2" stroke-linecap="round" stroke-miterlimit="10" width="25.3" height="32"/>
	
		<line fill="none" stroke="#FFFFFF" stroke-width="2" stroke-linecap="round" stroke-miterlimit="10" x1="421.2" y1="674" x2="421.2" y2="706"/>
	
		<line fill="none" stroke="#FFFFFF" stroke-width="2" stroke-linecap="round" stroke-miterlimit="10" x1="409.2" y1="686" x2="434.2" y2="686"/>
	<polyline fill="none" stroke="#FFFFFF" stroke-width="2" stroke-linecap="round" stroke-miterlimit="10" points="433.2,713 
		439.2,713 439.2,706 403.2,706 403.2,713 425.2,713 	"/>
	
		<rect x="320.8" y="674" stroke="#FFFFFF" stroke-width="2" stroke-linecap="round" stroke-miterlimit="10" width="25.3" height="32"/>
	
		<line fill="none" stroke="#FFFFFF" stroke-width="2" stroke-linecap="round" stroke-miterlimit="10" x1="333.2" y1="674" x2="333.2" y2="706"/>
	
		<line fill="none" stroke="#FFFFFF" stroke-width="2" stroke-linecap="round" stroke-miterlimit="10" x1="321.2" y1="686" x2="346.2" y2="686"/>
	<polyline fill="none" stroke="#FFFFFF" stroke-width="2" stroke-linecap="round" stroke-miterlimit="10" points="345.2,713 
		351.2,713 351.2,706 315.2,706 315.2,713 337.2,713 	"/>
	<polyline fill="none" stroke="#FFFFFF" stroke-width="2" stroke-linecap="round" stroke-miterlimit="10" points="459.2,605 
		459.2,754 543.2,754 543.2,658 699.2,658 699.2,754 729.2,754 	"/>
	<polyline fill="none" stroke="#FFFFFF" stroke-width="2" stroke-linecap="round" stroke-miterlimit="10" points="449.2,754 
		392.2,754 392.2,698 378.2,698 369.2,698 365.2,698 365.2,754 308.2,754 	"/>
	<path fill="none" stroke="#FFFFFF" stroke-width="2" stroke-linecap="round" stroke-miterlimit="10" d="M304.2,754"/>
	<path fill="none" stroke="#FFFFFF" stroke-width="2" stroke-linecap="round" stroke-miterlimit="10" d="M361.2,754"/>
	<polyline fill="none" stroke="#FFFFFF" stroke-width="2" stroke-linecap="round" stroke-miterlimit="10" points="359.2,754 
		359.2,698 366.2,698 	"/>
	<polyline fill="none" stroke="#FFFFFF" stroke-width="2" stroke-linecap="round" stroke-miterlimit="10" points="398.2,754 
		398.2,698 391.2,698 	"/>
	
		<line fill="none" stroke="#FFFFFF" stroke-width="2" stroke-linecap="round" stroke-miterlimit="10" x1="459.2" y1="733" x2="543.2" y2="733"/>
	<polyline fill="none" stroke="#FFFFFF" stroke-width="2" stroke-linecap="round" stroke-miterlimit="10" points="559.2,754 
		607.2,754 607.2,702 636.2,702 636.2,754 689.2,754 	"/>
	
		<rect x="559.2" y="686" fill="none" stroke="#FFFFFF" stroke-width="2" stroke-linecap="round" stroke-miterlimit="10" width="34.9" height="34.1"/>
	
		<line fill="none" stroke="#FFFFFF" stroke-width="2" stroke-linecap="round" stroke-miterlimit="10" x1="559.2" y1="703" x2="594.2" y2="703"/>
	
		<rect x="650.2" y="686" fill="none" stroke="#FFFFFF" stroke-width="2" stroke-linecap="round" stroke-miterlimit="10" width="34.9" height="34.1"/>
	
		<line fill="none" stroke="#FFFFFF" stroke-width="2" stroke-linecap="round" stroke-miterlimit="10" x1="650.2" y1="703" x2="685.2" y2="703"/>
	
		<line fill="none" stroke="#FFFFFF" stroke-width="2" stroke-linecap="round" stroke-miterlimit="10" x1="662.2" y1="686" x2="662.2" y2="720"/>
	
		<rect x="559.2" y="645.2" fill="none" stroke="#FFFFFF" stroke-width="2" stroke-linecap="round" stroke-miterlimit="10" width="91.1" height="12.8"/>
	<rect x="553.6" y="674" stroke="#FFFFFF" stroke-width="2.1794" stroke-miterlimit="10" width="7.1" height="16"/>
	<rect x="560.7" y="674" stroke="#FFFFFF" stroke-width="2.1794" stroke-miterlimit="10" width="7.1" height="16"/>
	<rect x="567.9" y="674" stroke="#FFFFFF" stroke-width="2.1794" stroke-miterlimit="10" width="7.1" height="16"/>
	<rect x="575" y="674" stroke="#FFFFFF" stroke-width="2.1794" stroke-miterlimit="10" width="7.1" height="16"/>
	<rect x="582.1" y="674" stroke="#FFFFFF" stroke-width="2.1794" stroke-miterlimit="10" width="7.1" height="16"/>
	<rect x="589.2" y="674" stroke="#FFFFFF" stroke-width="2.1794" stroke-miterlimit="10" width="7.1" height="16"/>
	<rect x="596.4" y="674" stroke="#FFFFFF" stroke-width="2.1794" stroke-miterlimit="10" width="7.1" height="16"/>
	<rect x="603.5" y="674" stroke="#FFFFFF" stroke-width="2.1794" stroke-miterlimit="10" width="7.1" height="16"/>
	<rect x="610.6" y="674" stroke="#FFFFFF" stroke-width="2.1794" stroke-miterlimit="10" width="7.1" height="16"/>
	<rect x="617.7" y="674" stroke="#FFFFFF" stroke-width="2.1794" stroke-miterlimit="10" width="7.1" height="16"/>
	<rect x="624.9" y="674" stroke="#FFFFFF" stroke-width="2.1794" stroke-miterlimit="10" width="7.1" height="16"/>
	<rect x="632" y="674" stroke="#FFFFFF" stroke-width="2.1794" stroke-miterlimit="10" width="7.1" height="16"/>
	<rect x="639.1" y="674" stroke="#FFFFFF" stroke-width="2.1794" stroke-miterlimit="10" width="7.1" height="16"/>
	<rect x="646.2" y="674" stroke="#FFFFFF" stroke-width="2.1794" stroke-miterlimit="10" width="7.1" height="16"/>
	<rect x="653.4" y="674" stroke="#FFFFFF" stroke-width="2.1794" stroke-miterlimit="10" width="7.1" height="16"/>
	<rect x="660.5" y="674" stroke="#FFFFFF" stroke-width="2.1794" stroke-miterlimit="10" width="7.1" height="16"/>
	<rect x="667.6" y="674" stroke="#FFFFFF" stroke-width="2.1794" stroke-miterlimit="10" width="7.1" height="16"/>
	<rect x="674.7" y="674" stroke="#FFFFFF" stroke-width="2.1794" stroke-miterlimit="10" width="7.1" height="16"/>
	<rect x="681.9" y="674" stroke="#FFFFFF" stroke-width="2.1794" stroke-miterlimit="10" width="7.1" height="16"/>
	<line fill="none" stroke="#FFFFFF" stroke-width="2" stroke-miterlimit="10" x1="632.2" y1="726" x2="632.2" y2="733"/>
</g>
<g id="man" display="none">
</g>
<g id="Layer_5">
	<polygon stroke="#FFFFFF" stroke-width="4" stroke-linejoin="round" stroke-miterlimit="10" points="69.2,814.7 76.2,421 5.2,421 
		5.2,445 14.2,445 47.5,815 69.5,815 	"/>
	<path fill="none" stroke="#FFFFFF" stroke-width="4" stroke-miterlimit="10" d="M111.1,248.3L78.4,273l32.7,77.5
		c1.1,3,1.8,6.1,2.1,9.2l10.2,94.6l-0.3,0.2c-4.6,2.3-7.2,7.2-6.6,12.3l1.4,11.1c0.8,6.3,6.3,10.8,12.6,10.5h0c4.2-0.2,8-2.7,10-6.4
		l2.5-4.9c1.1-2,1.5-4.3,1.3-6.5c-1.8-22.5-7.7-138.5-12.4-157c-2.5-9.9-28-92.6-37.5-102.5c-13.5-14-59.9-9-59.9-9"/>
	<path fill="none" stroke="#FFFFFF" stroke-width="4" stroke-miterlimit="10" d="M49.2,421c0,0,7.2,16.3,26.5,27"/>
	<path fill="none" stroke="#FFFFFF" stroke-width="4" stroke-miterlimit="10" d="M20.5,164.3c0,0-3.2,6.7-14.9,7.3"/>
	<path fill="none" stroke="#FFFFFF" stroke-width="4" stroke-miterlimit="10" d="M6.2,148.3c0,0,5.7,0.7,8.3-3.3"/>
	<circle fill="#FFFFFF" cx="26.5" cy="125" r="6"/>
	<line fill="none" stroke="#FFFFFF" stroke-width="4" stroke-miterlimit="10" x1="5.2" y1="241.7" x2="23.2" y2="217"/>
	<line fill="none" stroke="#FFFFFF" stroke-width="4" stroke-miterlimit="10" x1="76.2" y1="421" x2="77.2" y2="255"/>
	<path fill="none" stroke="#FFFFFF" stroke-width="4" stroke-miterlimit="10" d="M4.4,288.3c4.8-4.2,11-8.6,18.7-12.3"/>
	<path fill="none" stroke="#FFFFFF" stroke-width="4" stroke-linecap="round" stroke-miterlimit="10" d="M14.6,112
		c0,0,6.1-7.5,23.6,0"/>
	<path fill="none" stroke="#FFFFFF" stroke-width="4" stroke-linejoin="round" stroke-miterlimit="10" d="M5.2,83.5c0,0,16,6.5,37,0
		c0,0-4,17.5,6,35.5v36c0,23.2-18.8,42-42,42h0"/>
	<path fill="none" stroke="#FFFFFF" stroke-width="4" stroke-linejoin="round" stroke-miterlimit="10" d="M3.2,36
		c0,0,21,15.9,35,4.5c0,0,2,5.5,0,14.5c0,0,3,4,10,0c0,0,2,6,0,10c0,0,7,34,0,54"/>
	<path fill="none" stroke="#FFFFFF" stroke-width="2" stroke-miterlimit="10" d="M38.2,74.5c0,0-17.2,4.1-34.3-3.8"/>
	<path fill="none" stroke="#FFFFFF" stroke-width="2" stroke-linecap="round" stroke-miterlimit="10" d="M13.8,64.2
		c0,0,3.2,6.2,20.9,6.5"/>
	<polygon fill="#FFFFFF" stroke="#FFFFFF" stroke-width="4" stroke-linejoin="round" stroke-miterlimit="10" points="47.5,815 
		49.2,833 89.2,833 69.5,815 	"/>
</g>
<g id="black">
</g>
</svg>
