<?xml version="1.0" encoding="utf-8"?>
<!-- Generator: Adobe Illustrator 18.0.0, SVG Export Plug-In . SVG Version: 6.00 Build 0)  -->
<!DOCTYPE svg PUBLIC "-//W3C//DTD SVG 1.1//EN" "http://www.w3.org/Graphics/SVG/1.1/DTD/svg11.dtd">
<svg version="1.1" xmlns="http://www.w3.org/2000/svg" xmlns:xlink="http://www.w3.org/1999/xlink" x="0px" y="0px"
	 viewBox="0 0 451.2 293.9" enable-background="new 0 0 451.2 293.9" xml:space="preserve">
<g id="Layer_2" display="none">
	
		<rect x="-509.2" y="-747.9" display="inline" stroke="#000000" stroke-width="0.9605" stroke-miterlimit="10" width="959.4" height="1084.5"/>
</g>
<g id="Layer_1">
	<path fill="none" stroke="#FFFFFF" stroke-width="2" stroke-linecap="round" stroke-miterlimit="10" d="M145.3,61.2h8.9
		c5.4,0,10.1,3.4,11.9,8.5l9.3,27.3c0.5,1.1,0.8,2.3,0.8,3.4l2.9,44.5c0.2,3.1-4.9,6.7-4.9,6.7c-1.9,0.5-6.3,0.1-6.5-1.9l-0.3-4.8
		c-0.1-1.3,1.5-2.4,2.5-3c0.4-0.3,0.6-0.7,0.6-1.2l-4.7-36.8c-0.2-1.2-0.5-2.4-1.1-3.5l-2.9-9.1"/>
	
		<line fill="none" stroke="#FFFFFF" stroke-width="2" stroke-linecap="round" stroke-miterlimit="10" x1="172" y1="87.2" x2="161.7" y2="91.3"/>
	<path fill="none" stroke="#FFFFFF" stroke-width="2" stroke-linecap="round" stroke-miterlimit="10" d="M119.3,61.2h-8.9
		c-5.4,0-10.1,3.4-11.9,8.5L97.4,72"/>
	<path fill="none" stroke="#FFFFFF" stroke-width="2" stroke-linecap="round" stroke-linejoin="round" stroke-miterlimit="10" d="
		M40.2,4.7"/>
	<path fill="none" stroke="#FFFFFF" stroke-width="2" stroke-linecap="round" stroke-linejoin="round" stroke-miterlimit="10" d="
		M165.6,102.7"/>
	
		<polygon fill="none" stroke="#FFFFFF" stroke-width="2" stroke-linecap="round" stroke-linejoin="round" stroke-miterlimit="10" points="
		90.7,280.4 79,149.8 77.3,149.8 77.3,139.3 101.6,139.3 97.4,275 107.7,281.7 	"/>
	
		<line fill="none" stroke="#FFFFFF" stroke-width="2" stroke-linecap="round" stroke-linejoin="round" stroke-miterlimit="10" x1="89.5" y1="144.6" x2="100.7" y2="151.4"/>
	
		<line fill="none" stroke="#FFFFFF" stroke-width="2" stroke-linecap="round" stroke-linejoin="round" stroke-miterlimit="10" x1="97.1" y1="270.3" x2="91.2" y2="270.3"/>
	
		<line fill="none" stroke="#FFFFFF" stroke-width="2" stroke-linecap="round" stroke-linejoin="round" stroke-miterlimit="10" x1="157.4" y1="270.3" x2="147.8" y2="270.3"/>
	
		<polygon fill="none" stroke="#FFFFFF" stroke-width="2" stroke-linecap="round" stroke-linejoin="round" stroke-miterlimit="10" points="
		63.9,280.4 75.6,149.8 77.3,149.8 77.3,139.3 53,139.3 57.2,275 46.9,281.7 	"/>
	
		<line fill="none" stroke="#FFFFFF" stroke-width="2" stroke-linecap="round" stroke-linejoin="round" stroke-miterlimit="10" x1="65.1" y1="144.6" x2="53.9" y2="151.4"/>
	
		<line fill="none" stroke="#FFFFFF" stroke-width="2" stroke-linecap="round" stroke-linejoin="round" stroke-miterlimit="10" x1="145.3" y1="140" x2="159.1" y2="148.3"/>
	
		<line fill="none" stroke="#FFFFFF" stroke-width="2" stroke-linecap="round" stroke-linejoin="round" stroke-miterlimit="10" x1="121" y1="140" x2="107.6" y2="148.1"/>
	
		<line fill="none" stroke="#FFFFFF" stroke-width="2" stroke-linecap="round" stroke-linejoin="round" stroke-miterlimit="10" x1="57.5" y1="270.3" x2="63.5" y2="270.3"/>
	<path fill="none" stroke="#FFFFFF" stroke-width="2" stroke-linecap="round" stroke-linejoin="round" stroke-miterlimit="10" d="
		M57.7,115.8c0,0-4.7,10.9-4.7,23.5"/>
	<path fill="none" stroke="#FFFFFF" stroke-width="2" stroke-linecap="round" stroke-linejoin="round" stroke-miterlimit="10" d="
		M97,114.8c0,0,4.9,11.9,4.9,24.6"/>
	<path fill="none" stroke="#FFFFFF" stroke-width="2" stroke-linecap="round" stroke-linejoin="round" stroke-miterlimit="10" d="
		M64.1,118.3c0,0,18.3,0.4,24.5-6.1c6.2-6.5,20.8-14.8,12.2-21.5c-8.6-6.7-10.7,2-16.5,7.4c-5.8,5.4-20.1,14.2-23.3,9
		s9.3-16.8,23.3-9"/>
	<path fill="none" stroke="#FFFFFF" stroke-width="2" stroke-linecap="round" stroke-linejoin="round" stroke-miterlimit="10" d="
		M93,87.9l-0.5-0.2c-1.2-0.6-2.6-0.6-3.8-0.1L86,88.6c-3,1.2-3.6,6.6-1.4,9l0,0"/>
	
		<line fill="none" stroke="#FFFFFF" stroke-width="2" stroke-linecap="round" stroke-linejoin="round" stroke-miterlimit="10" x1="83.1" y1="76" x2="77.3" y2="84.5"/>
	
		<line fill="none" stroke="#FFFFFF" stroke-width="2" stroke-linecap="round" stroke-linejoin="round" stroke-miterlimit="10" x1="71.2" y1="76" x2="77" y2="84.5"/>
	<path fill="none" stroke="#FFFFFF" stroke-width="2" stroke-linecap="round" stroke-linejoin="round" stroke-miterlimit="10" d="
		M48.9,92.3c2,0.7,4.2,1.3,6.3-0.2"/>
	<path fill="none" stroke="#FFFFFF" stroke-width="2" stroke-linecap="round" stroke-linejoin="round" stroke-miterlimit="10" d="
		M106.6,92.6c-0.9,0.3-1.9,0.7-2.9,0.7"/>
	<path fill="none" stroke="#FFFFFF" stroke-width="2" stroke-linecap="round" stroke-linejoin="round" stroke-miterlimit="10" d="
		M80.3,17.5L80.3,17.5c6.7,0,12.1,5.4,12.1,12.1v19.7c0,8.2-6.6,14.8-14.8,14.8h0c-8.2,0-14.8-6.6-14.8-14.8V24.4
		c0-4.9,3.3-9.1,8-10.3l0,0l4.9-4.2c2.2-1.9,5-2.9,7.8-2.8l0,0"/>
	<path fill="none" stroke="#FFFFFF" stroke-width="2" stroke-linecap="round" stroke-linejoin="round" stroke-miterlimit="10" d="
		M80.7,8.2c0,0,9,4.1,7.5,12.2"/>
	<path fill="none" stroke="#FFFFFF" stroke-width="2" stroke-linecap="round" stroke-linejoin="round" stroke-miterlimit="10" d="
		M65.5,16.1c0,0-3.9-7.6,3.3-11.4C75.9,0.9,82,8.2,82,8.2"/>
	<path fill="none" stroke="#FFFFFF" stroke-width="2" stroke-linecap="round" stroke-linejoin="round" stroke-miterlimit="10" d="
		M74.1,11.3"/>
	<path fill="none" stroke="#FFFFFF" stroke-width="2" stroke-linecap="round" stroke-linejoin="round" stroke-miterlimit="10" d="
		M65.2,4.7"/>
	<path fill="none" stroke="#FFFFFF" stroke-width="2" stroke-linecap="round" stroke-linejoin="round" stroke-miterlimit="10" d="
		M72.4,20.5c0,0,4.7,4.2,12.3,5.9c3.1,0.7,4.5,1.3,6.7,2"/>
	<path fill="none" stroke="#FFFFFF" stroke-width="2" stroke-linecap="round" stroke-linejoin="round" stroke-miterlimit="10" d="
		M92.2,34c-0.6-0.1-0.7-0.1-1.4-0.2C80,33,65.9,27.7,67,23.6c0.7-2.7,0.5,2.9-3.9,9.3"/>
	<circle fill="#FFFFFF" cx="68.7" cy="42.3" r="1.9"/>
	<circle fill="#FFFFFF" cx="85.9" cy="42.3" r="1.9"/>
	<circle fill="#FFFFFF" cx="124.8" cy="32.6" r="1.9"/>
	
		<line fill="none" stroke="#FFFFFF" stroke-width="2" stroke-linecap="round" stroke-linejoin="round" stroke-miterlimit="10" x1="79.3" y1="50.1" x2="75.4" y2="50.1"/>
	<path fill="none" stroke="#FFFFFF" stroke-width="2" stroke-linecap="round" stroke-linejoin="round" stroke-miterlimit="10" d="
		M72.7,55.6l1.4,0.7c2.1,1,4.5,1,6.6,0l1.2-0.6"/>
	<polyline fill="none" stroke="#FFFFFF" stroke-width="2" stroke-linecap="round" stroke-miterlimit="10" points="105.9,108.7 
		107.2,139.3 133.5,139 159.6,139 162.2,80.2 	"/>
	<path fill="none" stroke="#FFFFFF" stroke-width="2" stroke-linecap="round" stroke-linejoin="round" stroke-miterlimit="10" d="
		M133.3,139.3h26.3l-2.3,134.8l7.1,7.3l-16.6,0.2l-8.7-131.1c-0.1-0.9-0.8-1.5-1.6-1.5h-4.4L133.3,139.3z"/>
	
		<line fill="none" stroke="#FFFFFF" stroke-width="2" stroke-linecap="round" stroke-linejoin="round" stroke-miterlimit="10" x1="109.4" y1="270.3" x2="119" y2="270.3"/>
	<path fill="none" stroke="#FFFFFF" stroke-width="2" stroke-linecap="round" stroke-linejoin="round" stroke-miterlimit="10" d="
		M133.5,139.3h-26.3l2.3,134.8l-7.1,7.3l16.6,0.2l8.7-131.1c0.1-0.9,0.8-1.5,1.6-1.5h4.4L133.5,139.3z"/>
	<path fill="none" stroke="#FFFFFF" stroke-width="2" stroke-linecap="round" stroke-miterlimit="10" d="M142.4,65.8L142.4,65.8
		c0,3.4-2.8,6.2-6.2,6.2h-8.1c-3.4,0-6.2-2.8-6.2-6.2v-0.5"/>
	<path fill="none" stroke="#FFFFFF" stroke-width="2" stroke-linecap="round" stroke-miterlimit="10" d="M123.3,87.2
		c0,0,12.9,2.5,20.5,8.2"/>
	<path fill="#FFFFFF" stroke="#FFFFFF" stroke-linecap="round" stroke-linejoin="round" stroke-miterlimit="10" d="M136.3,45h-7.8
		v0.3c0,2.1,1.7,3.9,3.9,3.9h0c2.1,0,3.9-1.7,3.9-3.9V45z"/>
	<circle fill="#FFFFFF" cx="139.1" cy="32.6" r="1.9"/>
	<path fill="none" stroke="#FFFFFF" stroke-width="2" stroke-linecap="round" stroke-linejoin="round" stroke-miterlimit="10" d="
		M133.8,40l-1.7,0.4c-0.9,0.2-1.9,0.2-2.8-0.1l-1-0.3"/>
	<path fill="none" stroke="#FFFFFF" stroke-width="2" stroke-linecap="round" stroke-linejoin="round" stroke-miterlimit="10" d="
		M263.5,200v-43.9h31c23.9,0,43.2,19.4,43.2,43.2v1.3c0,23.9-19.4,43.2-43.2,43.2h-32.3c-23.9,0-43.2-19.4-43.2-43.2v0H297h33.3
		l-19.4,0c0,12.2-9.9,22.1-22.1,22.1h-29.9c-11.7,0-21.4-9.2-22.1-20.9"/>
	<path fill="none" stroke="#FFFFFF" stroke-width="2" stroke-linecap="round" stroke-linejoin="round" stroke-miterlimit="10" d="
		M202.5,155.5l13.3,13.3c2,2,3.1,4.7,3.1,7.6v23.3"/>
	
		<circle fill="none" stroke="#FFFFFF" stroke-width="2" stroke-linecap="round" stroke-miterlimit="10" cx="241.8" cy="264.4" r="17.1"/>
	
		<circle fill="none" stroke="#FFFFFF" stroke-width="2" stroke-linecap="round" stroke-miterlimit="10" cx="241.8" cy="264.4" r="9.8"/>
	
		<circle fill="none" stroke="#FFFFFF" stroke-width="2" stroke-linecap="round" stroke-miterlimit="10" cx="314.8" cy="264.4" r="17.1"/>
	
		<circle fill="none" stroke="#FFFFFF" stroke-width="2" stroke-linecap="round" stroke-miterlimit="10" cx="314.8" cy="264.4" r="9.8"/>
	<polyline fill="none" stroke="#FFFFFF" stroke-width="2" stroke-linejoin="round" stroke-miterlimit="10" points="0,281.7 
		372.6,281.7 451.2,281.7 	"/>
	<path fill="none" stroke="#FFFFFF" stroke-width="2" stroke-linecap="round" stroke-linejoin="round" stroke-miterlimit="10" d="
		M117.6,24.1v15.5c0,8.6,6.9,15.5,15.5,15.5h0c8.6,0,15.5-6.9,15.5-15.5V19.7c0,0-4.2-0.9-6.8-5c0,0-13,5.9-18,2.8
		C123.8,17.6,120.1,25.3,117.6,24.1z"/>
	<path fill="none" stroke="#FFFFFF" stroke-width="2" stroke-linecap="round" stroke-linejoin="round" stroke-miterlimit="10" d="
		M148.6,31c0,0,5.4-18.1-1.6-23.9l2.5-4l-8.1,1.7L140.2,0c0,0-4.1,3.1-10.2,3.1c-6.1,0-14.6,8.4-12.4,21"/>
	<path fill="none" stroke="#FFFFFF" stroke-width="2" stroke-linecap="round" stroke-linejoin="round" stroke-miterlimit="10" d="
		M86.8,70.6h7.7c1.5,0,2.9,0.9,3.5,2.3l11.5,26.3c0.7,1.5,0.3,3.4-1,4.5l-23.5,20.2c-0.7,0.6-1.6,0.9-2.5,0.9h-2.2
		c-1.9,0-3.5-1.4-3.8-3.2v0c-0.4-2.1,1.1-4.1,3.1-4.4c0,0,3.2-0.9,4.2-0.7c0.4,0,1.4,0.6,1.4,0.6l3.1-4.5"/>
	<path fill="none" stroke="#FFFFFF" stroke-width="2" stroke-linecap="round" stroke-linejoin="round" stroke-miterlimit="10" d="
		M47.6,92.6c0.9,0.3,1.9,0.7,2.9,0.7"/>
	<path stroke="#FFFFFF" stroke-width="2" stroke-linecap="round" stroke-linejoin="round" stroke-miterlimit="10" d="M67.4,70.6
		h-7.7c-1.5,0-2.9,0.9-3.5,2.3L44.7,99.1c-0.7,1.5-0.3,3.4,1,4.5l23.5,20.2c0.7,0.6,1.6,0.9,2.5,0.9H74c1.9,0,3.5-1.4,3.8-3.2v0
		c0.4-2.1-1.1-4.1-3.1-4.4c0,0-3.2-0.9-4.2-0.7c-0.4,0-1.4,0.6-1.4,0.6L53.2,99.6l5-10.6"/>
	<path fill="none" stroke="#FFFFFF" stroke-width="2" stroke-linecap="round" stroke-linejoin="round" stroke-miterlimit="10" d="
		M57,85.9c0,0,2,0.6,1.2,3.1c-0.7,2.5-5.7,11.2,0.8,15.4"/>
	<path fill="none" stroke="#FFFFFF" stroke-width="2" stroke-linecap="round" stroke-linejoin="round" stroke-miterlimit="10" d="
		M48.9,92.6c0.9,0.3,6.1,1,7.1,1.1"/>
</g>
</svg>
