<?xml version="1.0" encoding="utf-8"?>
<!-- Generator: Adobe Illustrator 18.0.0, SVG Export Plug-In . SVG Version: 6.00 Build 0)  -->
<!DOCTYPE svg PUBLIC "-//W3C//DTD SVG 1.1//EN" "http://www.w3.org/Graphics/SVG/1.1/DTD/svg11.dtd">
<svg version="1.1" xmlns="http://www.w3.org/2000/svg" xmlns:xlink="http://www.w3.org/1999/xlink" x="0px" y="0px"
	 viewBox="0 0 444.5 304" enable-background="new 0 0 444.5 304" xml:space="preserve">
<g id="Layer_2" display="none">
	
		<rect x="0" y="-739.8" display="inline" fill="#FFFFFF" stroke="#000000" stroke-width="0.9605" stroke-miterlimit="10" width="959.4" height="1084.5"/>
</g>
<g id="Layer_1">
	<path fill="none" stroke="#231F20" stroke-width="2" stroke-linecap="round" stroke-miterlimit="10" d="M299.2,69.3h-8.9
		c-5.4,0-10.1,3.4-11.9,8.5l-9.3,27.3c-0.5,1.1-0.8,2.3-0.8,3.4l-2.9,44.5c-0.2,3.1,4.9,6.7,4.9,6.7c1.9,0.5,6.3,0.1,6.5-1.9
		l0.3-4.8c0.1-1.3-1.5-2.4-2.5-3c-0.4-0.3-0.6-0.7-0.6-1.2l4.7-36.8c0.2-1.2,0.5-2.4,1.1-3.5l2.9-9.1"/>
	
		<line fill="none" stroke="#231F20" stroke-width="2" stroke-linecap="round" stroke-miterlimit="10" x1="272.4" y1="95.3" x2="282.8" y2="99.4"/>
	<path fill="none" stroke="#231F20" stroke-width="2" stroke-linecap="round" stroke-miterlimit="10" d="M325.2,69.3h8.9
		c5.4,0,10.1,3.4,11.9,8.5l1.1,2.4"/>
	<path fill="none" stroke="#231F20" stroke-width="2" stroke-linecap="round" stroke-linejoin="round" stroke-miterlimit="10" d="
		M278.9,110.8"/>
	
		<polygon fill="none" stroke="#231F20" stroke-width="2" stroke-linecap="round" stroke-linejoin="round" stroke-miterlimit="10" points="
		353.8,288.5 365.5,157.9 367.2,157.9 367.2,147.5 342.8,147.5 347,283.1 336.8,289.8 	"/>
	
		<line fill="none" stroke="#231F20" stroke-width="2" stroke-linecap="round" stroke-linejoin="round" stroke-miterlimit="10" x1="355" y1="152.7" x2="343.7" y2="159.5"/>
	
		<line fill="none" stroke="#231F20" stroke-width="2" stroke-linecap="round" stroke-linejoin="round" stroke-miterlimit="10" x1="347.4" y1="278.4" x2="353.3" y2="278.4"/>
	
		<line fill="none" stroke="#231F20" stroke-width="2" stroke-linecap="round" stroke-linejoin="round" stroke-miterlimit="10" x1="287" y1="278.4" x2="296.7" y2="278.4"/>
	
		<polygon fill="none" stroke="#231F20" stroke-width="2" stroke-linecap="round" stroke-linejoin="round" stroke-miterlimit="10" points="
		380.6,288.5 368.9,157.9 367.2,157.9 367.2,147.5 391.5,147.5 387.3,283.1 397.6,289.8 	"/>
	
		<line fill="none" stroke="#231F20" stroke-width="2" stroke-linecap="round" stroke-linejoin="round" stroke-miterlimit="10" x1="379.3" y1="152.7" x2="390.5" y2="159.5"/>
	
		<line fill="none" stroke="#231F20" stroke-width="2" stroke-linecap="round" stroke-linejoin="round" stroke-miterlimit="10" x1="299.2" y1="148.1" x2="285.4" y2="156.5"/>
	
		<line fill="none" stroke="#231F20" stroke-width="2" stroke-linecap="round" stroke-linejoin="round" stroke-miterlimit="10" x1="323.5" y1="148.1" x2="336.8" y2="156.2"/>
	
		<line fill="none" stroke="#231F20" stroke-width="2" stroke-linecap="round" stroke-linejoin="round" stroke-miterlimit="10" x1="386.9" y1="278.4" x2="381" y2="278.4"/>
	<path fill="none" stroke="#231F20" stroke-width="2" stroke-linecap="round" stroke-linejoin="round" stroke-miterlimit="10" d="
		M386.8,123.9c0,0,4.7,10.9,4.7,23.5"/>
	<path fill="none" stroke="#231F20" stroke-width="2" stroke-linecap="round" stroke-linejoin="round" stroke-miterlimit="10" d="
		M347.4,122.9c0,0-4.9,11.9-4.9,24.6"/>
	<path fill="none" stroke="#231F20" stroke-width="2" stroke-linecap="round" stroke-linejoin="round" stroke-miterlimit="10" d="
		M380.4,126.4c0,0-18.3,0.4-24.5-6.1c-6.2-6.5-20.8-14.8-12.2-21.5c8.6-6.7,10.7,2,16.5,7.4c5.8,5.4,20.1,14.2,23.3,9
		c3.1-5.2-9.3-16.8-23.3-9"/>
	<path fill="none" stroke="#231F20" stroke-width="2" stroke-linecap="round" stroke-linejoin="round" stroke-miterlimit="10" d="
		M351.4,96l0.5-0.2c1.2-0.6,2.6-0.6,3.8-0.1l2.8,1.1c3,1.2,3.6,6.6,1.4,9v0"/>
	
		<line fill="none" stroke="#231F20" stroke-width="2" stroke-linecap="round" stroke-linejoin="round" stroke-miterlimit="10" x1="361.4" y1="84.2" x2="367.2" y2="92.6"/>
	
		<line fill="none" stroke="#231F20" stroke-width="2" stroke-linecap="round" stroke-linejoin="round" stroke-miterlimit="10" x1="373.3" y1="84.2" x2="367.5" y2="92.6"/>
	<path fill="none" stroke="#231F20" stroke-width="2" stroke-linecap="round" stroke-linejoin="round" stroke-miterlimit="10" d="
		M395.6,100.4c-2,0.7-4.2,1.3-6.3-0.2"/>
	<path fill="none" stroke="#231F20" stroke-width="2" stroke-linecap="round" stroke-linejoin="round" stroke-miterlimit="10" d="
		M337.9,100.7c0.9,0.3,1.9,0.7,2.9,0.7"/>
	<path fill="none" stroke="#231F20" stroke-width="2" stroke-linecap="round" stroke-linejoin="round" stroke-miterlimit="10" d="
		M364.2,25.6L364.2,25.6c-6.7,0-12.1,5.4-12.1,12.1v19.7c0,8.2,6.6,14.8,14.8,14.8h0c8.2,0,14.8-6.6,14.8-14.8V32.5
		c0-4.9-3.3-9.1-8-10.3v0l-4.9-4.2c-2.2-1.9-5-2.9-7.8-2.8l0,0"/>
	<path fill="none" stroke="#231F20" stroke-width="2" stroke-linecap="round" stroke-linejoin="round" stroke-miterlimit="10" d="
		M363.8,16.3c0,0-9,4.1-7.5,12.2"/>
	<path fill="none" stroke="#231F20" stroke-width="2" stroke-linecap="round" stroke-linejoin="round" stroke-miterlimit="10" d="
		M379,24.2c0,0,3.9-7.6-3.3-11.4s-13.3,3.5-13.3,3.5"/>
	<path fill="none" stroke="#231F20" stroke-width="2" stroke-linecap="round" stroke-linejoin="round" stroke-miterlimit="10" d="
		M370.3,19.4"/>
	<path fill="none" stroke="#231F20" stroke-width="2" stroke-linecap="round" stroke-linejoin="round" stroke-miterlimit="10" d="
		M379.2,12.8"/>
	<path fill="none" stroke="#231F20" stroke-width="2" stroke-linecap="round" stroke-linejoin="round" stroke-miterlimit="10" d="
		M372,28.7c0,0-4.7,4.2-12.3,5.9c-3.1,0.7-4.5,1.3-6.7,2"/>
	<path fill="none" stroke="#231F20" stroke-width="2" stroke-linecap="round" stroke-linejoin="round" stroke-miterlimit="10" d="
		M352.3,42.2c0.6-0.1,0.7-0.1,1.4-0.2c10.8-0.9,24.9-6.2,23.8-10.2c-0.7-2.7-0.5,2.9,3.9,9.3"/>
	<circle fill="#231F20" cx="375.7" cy="50.4" r="1.9"/>
	<circle fill="#231F20" cx="358.6" cy="50.4" r="1.9"/>
	<circle fill="#231F20" cx="319.6" cy="40.7" r="1.9"/>
	
		<line fill="none" stroke="#231F20" stroke-width="2" stroke-linecap="round" stroke-linejoin="round" stroke-miterlimit="10" x1="365.2" y1="58.2" x2="369.1" y2="58.2"/>
	<path fill="none" stroke="#231F20" stroke-width="2" stroke-linecap="round" stroke-linejoin="round" stroke-miterlimit="10" d="
		M371.8,63.7l-1.4,0.7c-2.1,1-4.5,1-6.6,0l-1.2-0.6"/>
	<polyline fill="none" stroke="#231F20" stroke-width="2" stroke-linecap="round" stroke-miterlimit="10" points="338.6,116.8 
		337.3,147.5 311,147.1 284.8,147.1 282.3,88.4 	"/>
	<path fill="none" stroke="#231F20" stroke-width="2" stroke-linecap="round" stroke-linejoin="round" stroke-miterlimit="10" d="
		M311.2,147.5h-26.3l2.3,134.8l-7.1,7.3l16.6,0.2l8.7-131.1c0.1-0.9,0.8-1.5,1.6-1.5h4.4L311.2,147.5z"/>
	
		<line fill="none" stroke="#231F20" stroke-width="2" stroke-linecap="round" stroke-linejoin="round" stroke-miterlimit="10" x1="335.1" y1="278.4" x2="325.5" y2="278.4"/>
	<path fill="none" stroke="#231F20" stroke-width="2" stroke-linecap="round" stroke-linejoin="round" stroke-miterlimit="10" d="
		M311,147.5h26.3L335,282.3l7.1,7.3l-16.6,0.2l-8.7-131.1c-0.1-0.9-0.8-1.5-1.6-1.5h-4.4L311,147.5z"/>
	<path fill="none" stroke="#231F20" stroke-width="2" stroke-linecap="round" stroke-miterlimit="10" d="M302.1,73.9L302.1,73.9
		c0,3.4,2.8,6.2,6.2,6.2h8.1c3.4,0,6.2-2.8,6.2-6.2v-0.5"/>
	<path fill="none" stroke="#231F20" stroke-width="2" stroke-linecap="round" stroke-miterlimit="10" d="M321.2,95.3
		c0,0-12.9,2.5-20.5,8.2"/>
	<path fill="#231F20" stroke="#231F20" stroke-linecap="round" stroke-linejoin="round" stroke-miterlimit="10" d="M308.2,53.2h7.8
		v0.3c0,2.1-1.7,3.9-3.9,3.9l0,0c-2.1,0-3.9-1.7-3.9-3.9V53.2z"/>
	<circle fill="#231F20" cx="305.4" cy="40.7" r="1.9"/>
	<path fill="none" stroke="#231F20" stroke-width="2" stroke-linecap="round" stroke-linejoin="round" stroke-miterlimit="10" d="
		M310.6,48.2l1.7,0.4c0.9,0.2,1.9,0.2,2.8-0.1l1-0.3"/>
	<path fill="none" stroke="#231F20" stroke-width="2" stroke-linecap="round" stroke-linejoin="round" stroke-miterlimit="10" d="
		M181,208.2v-43.9h-31c-23.9,0-43.2,19.4-43.2,43.2v1.3c0,23.9,19.4,43.2,43.2,43.2h32.3c23.9,0,43.2-19.4,43.2-43.2v0h-78.1h-33.3
		l19.4,0c0,12.2,9.9,22.1,22.1,22.1h29.9c11.7,0,21.4-9.2,22.1-20.9"/>
	<path fill="none" stroke="#231F20" stroke-width="2" stroke-linecap="round" stroke-linejoin="round" stroke-miterlimit="10" d="
		M241.9,163.6l-13.3,13.3c-2,2-3.1,4.7-3.1,7.6v23.3"/>
	
		<circle fill="none" stroke="#231F20" stroke-width="2" stroke-linecap="round" stroke-miterlimit="10" cx="202.7" cy="272.5" r="17.1"/>
	
		<circle fill="none" stroke="#231F20" stroke-width="2" stroke-linecap="round" stroke-miterlimit="10" cx="202.7" cy="272.5" r="9.8"/>
	
		<circle fill="none" stroke="#231F20" stroke-width="2" stroke-linecap="round" stroke-miterlimit="10" cx="129.7" cy="272.5" r="17.1"/>
	
		<circle fill="none" stroke="#231F20" stroke-width="2" stroke-linecap="round" stroke-miterlimit="10" cx="129.7" cy="272.5" r="9.8"/>
	<polyline fill="none" stroke="#231F20" stroke-width="2" stroke-linejoin="round" stroke-miterlimit="10" points="444.5,289.8 
		71.8,289.8 -6.7,289.8 	"/>
	<path fill="none" stroke="#231F20" stroke-width="2" stroke-linecap="round" stroke-linejoin="round" stroke-miterlimit="10" d="
		M326.9,32.2v15.5c0,8.6-6.9,15.5-15.5,15.5h0c-8.6,0-15.5-6.9-15.5-15.5V27.9c0,0,4.2-0.9,6.8-5c0,0,13,5.9,18,2.8
		C320.7,25.7,324.3,33.4,326.9,32.2z"/>
	<path fill="none" stroke="#231F20" stroke-width="2" stroke-linecap="round" stroke-linejoin="round" stroke-miterlimit="10" d="
		M295.9,39.1c0,0-5.4-18.1,1.6-23.9l-2.5-4l8.1,1.7l1.2-4.8c0,0,4.1,3.1,10.2,3.1c6.1,0,14.6,8.4,12.4,21"/>
	<path fill="none" stroke="#231F20" stroke-width="2" stroke-linecap="round" stroke-linejoin="round" stroke-miterlimit="10" d="
		M357.6,78.7H350c-1.5,0-2.9,0.9-3.5,2.3L335,107.2c-0.7,1.5-0.3,3.4,1,4.5l23.5,20.2c0.7,0.6,1.6,0.9,2.5,0.9h2.2
		c1.9,0,3.5-1.4,3.8-3.2l0,0c0.4-2.1-1.1-4.1-3.1-4.4c0,0-3.2-0.9-4.2-0.7c-0.4,0-1.4,0.6-1.4,0.6l-3.1-4.5"/>
	<path fill="none" stroke="#231F20" stroke-width="2" stroke-linecap="round" stroke-linejoin="round" stroke-miterlimit="10" d="
		M396.9,100.7c-0.9,0.3-1.9,0.7-2.9,0.7"/>
	
		<path fill="#FFFFFF" stroke="#231F20" stroke-width="2" stroke-linecap="round" stroke-linejoin="round" stroke-miterlimit="10" d="
		M377.1,78.7h7.7c1.5,0,2.9,0.9,3.5,2.3l11.5,26.3c0.7,1.5,0.3,3.4-1,4.5l-23.5,20.2c-0.7,0.6-1.6,0.9-2.5,0.9h-2.2
		c-1.9,0-3.5-1.4-3.8-3.2l0,0c-0.4-2.1,1.1-4.1,3.1-4.4c0,0,3.2-0.9,4.2-0.7c0.4,0,1.4,0.6,1.4,0.6l15.8-17.3l-5-10.6"/>
	<path fill="none" stroke="#231F20" stroke-width="2" stroke-linecap="round" stroke-linejoin="round" stroke-miterlimit="10" d="
		M387.5,94c0,0-2,0.6-1.2,3.1c0.7,2.5,5.7,11.2-0.8,15.4"/>
	<path fill="none" stroke="#231F20" stroke-width="2" stroke-linecap="round" stroke-linejoin="round" stroke-miterlimit="10" d="
		M395.6,100.7c-0.9,0.3-6.1,1-7.1,1.1"/>
</g>
</svg>
