<?xml version="1.0" encoding="utf-8"?>
<!-- Generator: Adobe Illustrator 18.0.0, SVG Export Plug-In . SVG Version: 6.00 Build 0)  -->
<!DOCTYPE svg PUBLIC "-//W3C//DTD SVG 1.1//EN" "http://www.w3.org/Graphics/SVG/1.1/DTD/svg11.dtd">
<svg version="1.1" xmlns="http://www.w3.org/2000/svg" xmlns:xlink="http://www.w3.org/1999/xlink" x="0px" y="0px"
	 viewBox="0 0 158.6 79.5" enable-background="new 0 0 158.6 79.5" xml:space="preserve">
<g id="Layer_2" display="none">
	
		<rect x="-688.3" y="-439.1" display="inline" stroke="#000000" stroke-width="0.9605" stroke-miterlimit="10" width="959.4" height="1084.5"/>
</g>
<g id="Layer_1">
	<path fill="none" stroke="#FFFFFF" stroke-width="2" stroke-linecap="round" stroke-linejoin="round" stroke-miterlimit="10" d="
		M134.4,49.2h-4.7c-6,0-10.9-4.9-10.9-10.9s4.9-10.9,10.9-10.9h7.8c6,0,10.9-4.9,10.9-10.9c0-6-4.9-10.9-10.9-10.9H60.5
		c-6,0-10.9,4.9-10.9,10.9c0,6,4.9,10.9,10.9,10.9H95c6,0,10.9,4.9,10.9,10.9S101,49.2,95,49.2H30.9c-6,0-10.9,4.9-10.9,10.9
		c0,6,4.9,10.9,10.9,10.9h103.5c6,0,10.9-4.9,10.9-10.9C145.3,54.1,140.4,49.2,134.4,49.2z"/>
</g>
</svg>
