<?xml version="1.0" encoding="utf-8"?>
<!-- Generator: Adobe Illustrator 18.0.0, SVG Export Plug-In . SVG Version: 6.00 Build 0)  -->
<!DOCTYPE svg PUBLIC "-//W3C//DTD SVG 1.1//EN" "http://www.w3.org/Graphics/SVG/1.1/DTD/svg11.dtd">
<svg version="1.1" xmlns="http://www.w3.org/2000/svg" xmlns:xlink="http://www.w3.org/1999/xlink" x="0px" y="0px"
	 viewBox="0 0 138 80" enable-background="new 0 0 138 80" xml:space="preserve">
<g id="Layer_2" display="none">
	
		<rect x="-234.3" y="-178.8" display="inline" fill="#FFFFFF" stroke="#000000" stroke-width="0.9605" stroke-miterlimit="10" width="959.4" height="1084.5"/>
</g>
<g id="Layer_1">
	<path fill="none" stroke="#231F20" stroke-width="2" stroke-linecap="round" stroke-linejoin="round" stroke-miterlimit="10" d="
		M121.9,10.5L121.9,10.5L121.9,10.5H18.4c-6,0-10.9,4.9-10.9,10.9c0,6,4.9,10.9,10.9,10.9h5.9c6,0,10.9,4.9,10.9,10.9
		s-4.9,10.9-10.9,10.9h-5.5c-6,0-10.9,4.9-10.9,10.9c0,6,4.9,10.9,10.9,10.9H58c6,0,10.9-4.9,10.9-10.9c0-6-4.9-10.9-10.9-10.9h1
		c-6,0-10.9-4.9-10.9-10.9S52.9,32.3,59,32.3h62.9l0,0h0c6,0,10.9-4.9,10.9-10.9C132.8,15.3,127.9,10.5,121.9,10.5z"/>
</g>
</svg>
