<?xml version="1.0" encoding="utf-8"?>
<!-- Generator: Adobe Illustrator 18.0.0, SVG Export Plug-In . SVG Version: 6.00 Build 0)  -->
<!DOCTYPE svg PUBLIC "-//W3C//DTD SVG 1.1//EN" "http://www.w3.org/Graphics/SVG/1.1/DTD/svg11.dtd">
<svg version="1.1" xmlns="http://www.w3.org/2000/svg" xmlns:xlink="http://www.w3.org/1999/xlink" x="0px" y="0px"
	 viewBox="0 0 216.5 75" enable-background="new 0 0 216.5 75" xml:space="preserve">
<g id="Layer_2" display="none">
	
		<rect x="-18.9" y="-91.8" display="inline" stroke="#000000" stroke-width="0.9605" stroke-miterlimit="10" width="959.4" height="1084.5"/>
</g>
<g id="Layer_1">
	<g>
		<path fill="none" stroke="#FFFFFF" stroke-width="2" stroke-linecap="round" stroke-linejoin="round" stroke-miterlimit="10" d="
			M47.5,13.6H15.4c-5,0-9.1,4.1-9.1,9.1s4.1,9.1,9.1,9.1h32.1c5,0,9.1-4.1,9.1-9.1S52.6,13.6,47.5,13.6z"/>
		<path fill="none" stroke="#FFFFFF" stroke-width="2" stroke-linecap="round" stroke-linejoin="round" stroke-miterlimit="10" d="
			M199.9,31.8h-18.2c-5,0-9.1,4.1-9.1,9.1c0,5,4.1,9.1,9.1,9.1h18.2c5,0,9.1-4.1,9.1-9.1C209,35.9,204.9,31.8,199.9,31.8z"/>
		<path fill="none" stroke="#FFFFFF" stroke-width="2" stroke-linecap="round" stroke-linejoin="round" stroke-miterlimit="10" d="
			M156.5,50h-18.2c-5,0-9.1-4.1-9.1-9.1c0-5,4.1-9.1,9.1-9.1h3c5,0,9.1-4.1,9.1-9.1s-4.1-9.1-9.1-9.1H77.1c-5,0-9.1,4.1-9.1,9.1
			s4.1,9.1,9.1,9.1h32.2c5,0,9.1,4.1,9.1,9.1c0,5-4.1,9.1-9.1,9.1H64.2c-5,0-9.1,4.1-9.1,9.1s4.1,9.1,9.1,9.1h92.2
			c5,0,9.1-4.1,9.1-9.1S161.5,50,156.5,50z"/>
	</g>
</g>
</svg>
