<?xml version="1.0" encoding="utf-8"?>
<!-- Generator: Adobe Illustrator 18.0.0, SVG Export Plug-In . SVG Version: 6.00 Build 0)  -->
<!DOCTYPE svg PUBLIC "-//W3C//DTD SVG 1.1//EN" "http://www.w3.org/Graphics/SVG/1.1/DTD/svg11.dtd">
<svg version="1.1" xmlns="http://www.w3.org/2000/svg" xmlns:xlink="http://www.w3.org/1999/xlink" x="0px" y="0px"
	 viewBox="0 0 253.6 88" enable-background="new 0 0 253.6 88" xml:space="preserve">
<g id="Layer_2" display="none">
	
		<rect x="-442.3" y="-16.8" display="inline" fill="#FFFFFF" stroke="#000000" stroke-width="0.9605" stroke-miterlimit="10" width="959.4" height="1084.5"/>
</g>
<g id="Layer_1">
	<path fill="none" stroke="#231F20" stroke-width="2" stroke-linecap="round" stroke-linejoin="round" stroke-miterlimit="10" d="
		M56.5,16.6H18c-6,0-10.9,4.9-10.9,10.9S12,38.4,18,38.4h38.4c6,0,10.9-4.9,10.9-10.9S62.5,16.6,56.5,16.6z"/>
	<path fill="none" stroke="#231F20" stroke-width="2" stroke-linecap="round" stroke-linejoin="round" stroke-miterlimit="10" d="
		M238.9,38.4h-21.8c-6,0-10.9,4.9-10.9,10.9c0,6,4.9,10.9,10.9,10.9h21.8c6,0,10.9-4.9,10.9-10.9C249.8,43.3,244.9,38.4,238.9,38.4z
		"/>
	<path fill="none" stroke="#231F20" stroke-width="2" stroke-linecap="round" stroke-linejoin="round" stroke-miterlimit="10" d="
		M186.9,60.3h-21.8c-6,0-10.9-4.9-10.9-10.9c0-6,4.9-10.9,10.9-10.9h21.8c6,0,10.9-4.9,10.9-10.9s-4.9-10.9-10.9-10.9h-76.9
		c-6,0-10.9,4.9-10.9,10.9s4.9,10.9,10.9,10.9h20.4c6,0,10.9,4.9,10.9,10.9c0,6-4.9,10.9-10.9,10.9h-54c-6,0-10.9,4.9-10.9,10.9
		c0,6,4.9,10.9,10.9,10.9h110.5c6,0,10.9-4.9,10.9-10.9C197.8,65.1,193,60.3,186.9,60.3z"/>
</g>
</svg>
