<?xml version="1.0" encoding="utf-8"?>
<!-- Generator: Adobe Illustrator 18.0.0, SVG Export Plug-In . SVG Version: 6.00 Build 0)  -->
<!DOCTYPE svg PUBLIC "-//W3C//DTD SVG 1.1//EN" "http://www.w3.org/Graphics/SVG/1.1/DTD/svg11.dtd">
<svg version="1.1" xmlns="http://www.w3.org/2000/svg" xmlns:xlink="http://www.w3.org/1999/xlink" x="0px" y="0px"
	 viewBox="0 0 141 86.7" enable-background="new 0 0 141 86.7" xml:space="preserve">
<g id="Layer_2" display="none">
	
		<rect x="-41.3" y="-66.2" display="inline" fill="#FFFFFF" stroke="#000000" stroke-width="0.9605" stroke-miterlimit="10" width="959.4" height="1084.5"/>
</g>
<g id="Layer_1">
	<path fill="none" stroke="#231F20" stroke-width="2" stroke-linecap="round" stroke-linejoin="round" stroke-miterlimit="10" d="
		M124.5,15.6H21.1c-6,0-10.9,4.9-10.9,10.9c0,6,4.9,10.9,10.9,10.9h4.7c6,0,10.9,4.9,10.9,10.9s-4.9,10.9-10.9,10.9h-7.8
		c-6,0-10.9,4.9-10.9,10.9c0,6,4.9,10.9,10.9,10.9h76.9c6,0,10.9-4.9,10.9-10.9c0-6-4.9-10.9-10.9-10.9H60.5
		c-6,0-10.9-4.9-10.9-10.9s4.9-10.9,10.9-10.9h64.1c6,0,10.9-4.9,10.9-10.9C135.5,20.5,130.6,15.6,124.5,15.6z"/>
</g>
</svg>
