<?xml version="1.0" encoding="utf-8"?>
<!-- Generator: Adobe Illustrator 18.0.0, SVG Export Plug-In . SVG Version: 6.00 Build 0)  -->
<!DOCTYPE svg PUBLIC "-//W3C//DTD SVG 1.1//EN" "http://www.w3.org/Graphics/SVG/1.1/DTD/svg11.dtd">
<svg version="1.1" xmlns="http://www.w3.org/2000/svg" xmlns:xlink="http://www.w3.org/1999/xlink" x="0px" y="0px"
	 viewBox="0 0 402.9 207.7" enable-background="new 0 0 402.9 207.7" xml:space="preserve">
<g id="Layer_2" display="none">
	
		<rect x="-106.8" y="-522.7" display="inline" fill="#FFFFFF" stroke="#000000" stroke-width="0.9605" stroke-miterlimit="10" width="959.4" height="1084.5"/>
</g>
<g id="Layer_1">
	<path fill="none" stroke="#231F20" stroke-width="2" stroke-linecap="round" stroke-linejoin="round" stroke-miterlimit="10" d="
		M339.5,4.8c0,0-63.4,82.4-8.3,126.2"/>
	<path fill="none" stroke="#231F20" stroke-width="2" stroke-linecap="round" stroke-linejoin="round" stroke-miterlimit="10" d="
		M339.5,4.8c0,0,63.4,82.4,8.3,126.2"/>
	
		<polyline fill="none" stroke="#231F20" stroke-width="2" stroke-linecap="round" stroke-linejoin="round" stroke-miterlimit="10" points="
		339.5,195.2 339.5,93.8 339.5,62.1 	"/>
	
		<line fill="none" stroke="#231F20" stroke-width="2" stroke-linecap="round" stroke-linejoin="round" stroke-miterlimit="10" x1="339.5" y1="93.8" x2="351.2" y2="83.4"/>
	
		<polyline fill="none" stroke="#231F20" stroke-width="2" stroke-linecap="round" stroke-linejoin="round" stroke-miterlimit="10" points="
		226.4,160.2 226.4,125.2 195.9,81.8 49.9,81.8 49.9,160.2 	"/>
	
		<line fill="none" stroke="#231F20" stroke-width="2" stroke-linecap="round" stroke-linejoin="round" stroke-miterlimit="10" x1="175.1" y1="160.2" x2="101.7" y2="160.2"/>
	
		<path fill="#FFFFFF" stroke="#231F20" stroke-width="2" stroke-linecap="round" stroke-linejoin="round" stroke-miterlimit="10" d="
		M175.1,71.8c-5.5,0-10,4.5-10,10h20C185.1,76.2,180.6,71.8,175.1,71.8z"/>
	<path fill="none" stroke="#231F20" stroke-width="2" stroke-linecap="round" stroke-linejoin="round" stroke-miterlimit="10" d="
		M61,160.2H41.3v19.2h16.5c0,0,1.6-20,20-20s20,20,20,20h77.3c0,0,1.6-20,20-20s20,20,20,20h16.5v-19.2h-15.8"/>
	<path fill="none" stroke="#231F20" stroke-width="2" stroke-linecap="round" stroke-linejoin="round" stroke-miterlimit="10" d="
		M76.4,186.3c0,0-6.7-2.3-5.1-8.6c1.6-6.3,8.6-5.1,8.6-5.1"/>
	<path fill="none" stroke="#231F20" stroke-width="2" stroke-miterlimit="10" d="M77.7,164.4c-8.3,0-15,6.7-15,15s6.7,15,15,15
		s15-6.7,15-15S86,164.4,77.7,164.4z M77.7,190.5c-6.2,0-11.1-5-11.1-11.1c0-6.2,5-11.1,11.1-11.1c6.2,0,11.1,5,11.1,11.1
		C88.9,185.5,83.9,190.5,77.7,190.5z"/>
	<path fill="none" stroke="#231F20" stroke-width="2" stroke-linecap="round" stroke-linejoin="round" stroke-miterlimit="10" d="
		M194.6,186.3c0,0-6.7-2.3-5.1-8.6c1.6-6.3,8.6-5.1,8.6-5.1"/>
	<path fill="none" stroke="#231F20" stroke-width="2" stroke-miterlimit="10" d="M195.9,164.4c-8.3,0-15,6.7-15,15s6.7,15,15,15
		s15-6.7,15-15S204.2,164.4,195.9,164.4z M195.9,190.5c-6.2,0-11.1-5-11.1-11.1c0-6.2,5-11.1,11.1-11.1c6.2,0,11.1,5,11.1,11.1
		C207,185.5,202.1,190.5,195.9,190.5z"/>
	
		<polygon fill="none" stroke="#231F20" stroke-width="2" stroke-linecap="round" stroke-linejoin="round" stroke-miterlimit="10" points="
		114.7,114.8 101.7,114.8 101.7,101.8 84.8,101.8 84.8,114.8 71.8,114.8 71.8,131.6 84.8,131.6 84.8,144.6 101.7,144.6 101.7,131.6 
		114.7,131.6 	"/>
	<path fill="none" stroke="#231F20" stroke-width="2" stroke-linecap="round" stroke-linejoin="round" stroke-miterlimit="10" d="
		M49.9,114.3c0,0,7.9-2.8,7.6,6.7s0,39.2,0,39.2h-7.6"/>
	<path fill="none" stroke="#231F20" stroke-width="2" stroke-linecap="round" stroke-linejoin="round" stroke-miterlimit="10" d="
		M226.4,139.9c0,0-7.9-2.8-7.6,6.7c0.1,2.3,0.1,9.2,0.1,13.3"/>
	
		<line fill="none" stroke="#231F20" stroke-width="2" stroke-linecap="round" stroke-linejoin="round" stroke-miterlimit="10" x1="61" y1="131.3" x2="49.9" y2="131.3"/>
	
		<polyline fill="none" stroke="#231F20" stroke-width="2" stroke-linecap="round" stroke-linejoin="round" stroke-miterlimit="10" points="
		199.8,87.3 125.4,87.3 125.4,126 225,126 	"/>
	
		<line fill="none" stroke="#231F20" stroke-width="2" stroke-linecap="round" stroke-linejoin="round" stroke-miterlimit="10" x1="125.4" y1="131.3" x2="225" y2="131.3"/>
	
		<line fill="none" stroke="#231F20" stroke-width="2" stroke-linecap="round" stroke-linejoin="round" stroke-miterlimit="10" x1="168.8" y1="87.3" x2="168.8" y2="98"/>
	
		<line fill="none" stroke="#231F20" stroke-width="2" stroke-linecap="round" stroke-linejoin="round" stroke-miterlimit="10" x1="168.8" y1="106.4" x2="168.8" y2="126.1"/>
	
		<line fill="none" stroke="#231F20" stroke-width="2" stroke-linecap="round" stroke-linejoin="round" stroke-miterlimit="10" x1="402.9" y1="196.1" x2="-1.8" y2="196.1"/>
</g>
</svg>
