<?xml version="1.0" encoding="utf-8"?>
<!-- Generator: Adobe Illustrator 18.0.0, SVG Export Plug-In . SVG Version: 6.00 Build 0)  -->
<!DOCTYPE svg PUBLIC "-//W3C//DTD SVG 1.1//EN" "http://www.w3.org/Graphics/SVG/1.1/DTD/svg11.dtd">
<svg version="1.1" xmlns="http://www.w3.org/2000/svg" xmlns:xlink="http://www.w3.org/1999/xlink" x="0px" y="0px"
	 viewBox="0 0 413.7 188.1" enable-background="new 0 0 413.7 188.1" xml:space="preserve">
<g id="Layer_2" display="none">
	
		<rect x="-479.7" y="-542.3" display="inline" stroke="#000000" stroke-width="0.9605" stroke-miterlimit="10" width="959.4" height="1084.5"/>
</g>
<g id="Layer_1">
	<path fill="none" stroke="#FFFFFF" stroke-width="2" stroke-linecap="round" stroke-linejoin="round" stroke-miterlimit="10" d="
		M357.3,128.9c0,0,29.6,2.4,32-25.5c2.4-28-27.7-33.7-27.7-33.7s0.3-18.5-21.2-18.2c-21.4,0.3-22.8,19.8-22.8,19.8
		S299.2,83,298.9,98.8c-0.3,15.7,9.5,29.7,32.6,30.2"/>
	
		<line fill="none" stroke="#FFFFFF" stroke-width="2" stroke-linecap="round" stroke-linejoin="round" stroke-miterlimit="10" x1="344.2" y1="86.6" x2="344.2" y2="175"/>
	
		<line fill="none" stroke="#FFFFFF" stroke-width="2" stroke-linecap="round" stroke-linejoin="round" stroke-miterlimit="10" x1="364.5" y1="101.9" x2="344.2" y2="118.9"/>
	
		<line fill="none" stroke="#FFFFFF" stroke-width="2" stroke-linecap="round" stroke-linejoin="round" stroke-miterlimit="10" x1="117.5" y1="157.8" x2="239.1" y2="157.8"/>
	
		<line fill="none" stroke="#FFFFFF" stroke-width="2" stroke-linecap="round" stroke-linejoin="round" stroke-miterlimit="10" x1="121.4" y1="147.5" x2="235.2" y2="147.5"/>
	
		<line fill="none" stroke="#FFFFFF" stroke-width="2" stroke-linecap="round" stroke-linejoin="round" stroke-miterlimit="10" x1="121.4" y1="134.3" x2="235.2" y2="134.3"/>
	
		<line fill="none" stroke="#FFFFFF" stroke-width="2" stroke-linecap="round" stroke-linejoin="round" stroke-miterlimit="10" x1="121.4" y1="121" x2="235.2" y2="121"/>
	
		<line fill="none" stroke="#FFFFFF" stroke-width="2" stroke-linecap="round" stroke-linejoin="round" stroke-miterlimit="10" x1="225" y1="113.1" x2="225" y2="152.6"/>
	
		<line fill="none" stroke="#FFFFFF" stroke-width="2" stroke-linecap="round" stroke-linejoin="round" stroke-miterlimit="10" x1="127.6" y1="113.1" x2="127.6" y2="152.6"/>
	
		<line fill="none" stroke="#FFFFFF" stroke-width="2" stroke-linecap="round" stroke-linejoin="round" stroke-miterlimit="10" x1="222.2" y1="157.8" x2="222.2" y2="175.5"/>
	
		<line fill="none" stroke="#FFFFFF" stroke-width="2" stroke-linecap="round" stroke-linejoin="round" stroke-miterlimit="10" x1="134.3" y1="157.8" x2="134.3" y2="175.5"/>
	
		<line fill="none" stroke="#FFFFFF" stroke-width="2" stroke-linecap="round" stroke-linejoin="round" stroke-miterlimit="10" x1="134.3" y1="175.5" x2="3.5" y2="175.5"/>
	
		<line fill="none" stroke="#FFFFFF" stroke-width="2" stroke-linecap="round" stroke-linejoin="round" stroke-miterlimit="10" x1="222.2" y1="175.5" x2="413.7" y2="175.5"/>
	<path fill="none" stroke="#FFFFFF" stroke-width="2" stroke-linecap="round" stroke-linejoin="round" stroke-miterlimit="10" d="
		M72.2,174.4v-20.1c0-6.4,5.2-11.5,11.5-11.5h0c6.4,0,11.5,5.2,11.5,11.5v20.1"/>
	<path fill="none" stroke="#FFFFFF" stroke-width="2" stroke-linecap="round" stroke-miterlimit="10" d="M81.7,147.4L81.7,147.4
		c4.8,0,8.6,3.9,8.6,8.6v13.8"/>
	
		<rect x="79.8" y="28.8" fill="none" stroke="#FFFFFF" stroke-width="2" stroke-linecap="round" stroke-linejoin="round" stroke-miterlimit="10" width="5.8" height="113.9"/>
	<path fill="none" stroke="#FFFFFF" stroke-width="2" stroke-linejoin="round" stroke-miterlimit="10" d="M109.6,9.1H102
		c-10.9,0-19.8,8.8-19.8,19.8v0"/>
	<path fill="none" stroke="#FFFFFF" stroke-width="2" stroke-linecap="round" stroke-linejoin="round" stroke-miterlimit="10" d="
		M109.6,9.1c-7.7,0-14,6.3-14,14h28C123.6,15.3,117.4,9.1,109.6,9.1z"/>
	<path fill="none" stroke="#FFFFFF" stroke-width="2" stroke-linecap="round" stroke-linejoin="round" stroke-miterlimit="10" d="
		M110.3,28.4c2.9,0,5.2-2.3,5.2-5.2h-10.4C105.1,26,107.4,28.4,110.3,28.4z"/>
	<path fill="none" stroke="#FFFFFF" stroke-width="2" stroke-linecap="round" stroke-linejoin="round" stroke-miterlimit="10" d="
		M109.6,14.4h0.4c2.6,0,4.8,2.1,4.8,4.8v0"/>
</g>
</svg>
