<?xml version="1.0" encoding="utf-8"?>
<!-- Generator: Adobe Illustrator 18.1.1, SVG Export Plug-In . SVG Version: 6.00 Build 0)  -->
<svg version="1.1" xmlns="http://www.w3.org/2000/svg" xmlns:xlink="http://www.w3.org/1999/xlink" x="0px" y="0px"
	 viewBox="0 0 451.7 474" enable-background="new 0 0 451.7 474" xml:space="preserve">
<g id="g_x5F_bg">
</g>
<g id="b_x5F_bg">
</g>
<g id="g">
	<path fill="none" stroke="#231F20" stroke-width="2" stroke-miterlimit="10" d="M-83.1,255c0,0,35.6,21.7,85.3,24.9"/>
	<path fill="none" stroke="#231F20" stroke-width="2" stroke-miterlimit="10" d="M-83.1,262.6c0,0,36,22.6,84.6,25.4"/>
</g>
<g id="b">
	
		<path fill="#231F20" stroke="#FFFFFF" stroke-width="2" stroke-linecap="round" stroke-linejoin="round" stroke-miterlimit="10" d="
		M308.2,311.3l-1.7-2.6c-1.2-1.8-3.5-2.5-5.4-1.6l-1,0.4c-2.5,1.1-3.4,4.1-2,6.4l1.8,2.8c1.3,2.2,4.2,2.7,6.3,1.3l0.9-0.7
		C309,315.9,309.5,313.3,308.2,311.3z"/>
	
		<path fill="#231F20" stroke="#FFFFFF" stroke-width="2" stroke-linecap="round" stroke-linejoin="round" stroke-miterlimit="10" d="
		M387.7,311l1.7-2.6c1.2-1.8,3.5-2.5,5.4-1.6l1,0.4c2.5,1.1,3.4,4.1,2,6.4l-1.8,2.8c-1.3,2.2-4.2,2.7-6.3,1.3l-0.9-0.7
		C387,315.7,386.5,313,387.7,311z"/>
	<path fill="none" stroke="#FFFFFF" stroke-width="2" stroke-miterlimit="10" d="M64.8,356.2c0.7,2.8,3.5,4.5,6.2,3.8l21.2-5.2
		c2.8-0.7,4.5-3.5,3.8-6.2l0,0c-0.7-2.8-3.5-4.5-6.2-3.8l-21.2,5.2C65.8,350.6,64.1,353.4,64.8,356.2L64.8,356.2z"/>
	<path fill="none" stroke="#FFFFFF" stroke-width="1.4192" stroke-miterlimit="10" d="M28.3,358.9c0.1,2.8,2.6,5,5.4,4.9l21.8-1.1
		c2.8-0.1,5-2.6,4.9-5.4l0,0c-0.1-2.8-2.6-5-5.4-4.9l-21.8,1.1C30.3,353.6,28.1,356.1,28.3,358.9L28.3,358.9z"/>
	<path fill="none" stroke="#FFFFFF" stroke-width="2" stroke-miterlimit="10" d="M-1.2,279.9c28.6,1.3,65.8-4.2,99.1-25"/>
	<path fill="none" stroke="#FFFFFF" stroke-width="2" stroke-miterlimit="10" d="M0.1,279.8c0,0-2.1,4.9,4.8,8.1"/>
	<path fill="none" stroke="#FFFFFF" stroke-width="1.4192" stroke-miterlimit="10" d="M8.7,279.9c0,0-2.5,5.4,4.7,8.1"/>
	<path fill="none" stroke="#FFFFFF" stroke-width="1.4192" stroke-miterlimit="10" d="M18.1,279.2c0,0-1.9,5.5,5.3,8.2"/>
	<path fill="none" stroke="#FFFFFF" stroke-width="1.4192" stroke-miterlimit="10" d="M26.5,278.6c0,0-2.6,5.2,4.7,7.9"/>
	<path fill="none" stroke="#FFFFFF" stroke-width="1.4192" stroke-miterlimit="10" d="M34.8,278.3c0,0-2.7,5.1,4.8,6.9"/>
	<path fill="none" stroke="#FFFFFF" stroke-width="1.4192" stroke-miterlimit="10" d="M43.1,276.5c0,0-0.7,4.8,6.8,6.5"/>
	<path fill="none" stroke="#FFFFFF" stroke-width="1.4192" stroke-miterlimit="10" d="M53.1,273.7c0,0-1.9,5,5.6,6.7"/>
	<path fill="none" stroke="#FFFFFF" stroke-width="1.4192" stroke-miterlimit="10" d="M69.4,268.6c0,0-0.1,5.8,7.6,5.1"/>
	<path fill="none" stroke="#FFFFFF" stroke-width="1.4192" stroke-miterlimit="10" d="M76,266.3c0,0,0.7,4.5,8.4,3.8"/>
	<path fill="none" stroke="#FFFFFF" stroke-width="2" stroke-miterlimit="10" d="M82.4,263.5c0,0-0.6,4.7,7.1,4"/>
	<path fill="none" stroke="#FFFFFF" stroke-width="1.4192" stroke-miterlimit="10" d="M61,271.9c0,0-0.4,6.1,7.3,5.4"/>
	
		<path fill="none" stroke="#FFFFFF" stroke-width="1.4192" stroke-linecap="round" stroke-linejoin="round" stroke-miterlimit="10" d="
		M22.6,288.7c-1.1,1.2-1.2,1.8-1.2,1.8s-2.1-0.9-1.7-2.8C19.7,287.3,22.8,288.4,22.6,288.7z"/>
	<g>
		
			<path fill="none" stroke="#FFFFFF" stroke-width="1.4192" stroke-linecap="round" stroke-linejoin="round" stroke-miterlimit="10" d="
			M21.2,293.5c0,0,2.8,2.6-0.5,6.1c-1.1,1.2-1.2,1.8-1.2,1.8s-3.1-1.3-1.2-4.1c0.7-1,1.7-1.2,2.2-1.8
			C21.2,294.3,21.2,293.5,21.2,293.5z"/>
		
			<path fill="none" stroke="#FFFFFF" stroke-width="1.4192" stroke-linecap="round" stroke-linejoin="round" stroke-miterlimit="10" d="
			M21.2,287.9c0,0,2.8,2.6-0.5,6.1c-1.1,1.2-1.2,1.8-1.2,1.8s-3.1-1.3-1.2-4.1c0.7-1,1.7-1.2,2.2-1.8
			C21.2,288.8,21.2,287.9,21.2,287.9z"/>
		
			<path fill="none" stroke="#FFFFFF" stroke-width="1.4192" stroke-linecap="round" stroke-linejoin="round" stroke-miterlimit="10" d="
			M21.2,298.8c0,0,2.8,2.6-0.5,6.1c-1.1,1.2-1.2,1.8-1.2,1.8s-3.1-1.3-1.2-4.1c0.7-1,1.7-1.2,2.2-1.8
			C21.2,299.7,21.2,298.8,21.2,298.8z"/>
		
			<path fill="none" stroke="#FFFFFF" stroke-width="1.4192" stroke-linecap="round" stroke-linejoin="round" stroke-miterlimit="10" d="
			M21.2,304.1c0,0,2.8,2.6-0.5,6.1c-1.1,1.2-1.2,1.8-1.2,1.8s-3.1-1.3-1.2-4.1c0.7-1,1.7-1.2,2.2-1.8
			C21.2,305,21.2,304.1,21.2,304.1z"/>
		
			<path fill="none" stroke="#FFFFFF" stroke-width="1.4192" stroke-linecap="round" stroke-linejoin="round" stroke-miterlimit="10" d="
			M21.2,309.5c0,0,2.8,2.6-0.5,6.1c-1.1,1.2-1.2,1.8-1.2,1.8s-3.1-1.3-1.2-4.1c0.7-1,1.7-1.2,2.2-1.8
			C21.2,310.4,21.2,309.5,21.2,309.5z"/>
		
			<path fill="none" stroke="#FFFFFF" stroke-width="1.4192" stroke-linecap="round" stroke-linejoin="round" stroke-miterlimit="10" d="
			M21.2,314.8c0,0,2.8,2.6-0.5,6.1c-1.1,1.2-1.2,1.8-1.2,1.8s-3.1-1.3-1.2-4.1c0.7-1,1.7-1.2,2.2-1.8
			C21.2,315.7,21.2,314.8,21.2,314.8z"/>
		
			<path fill="none" stroke="#FFFFFF" stroke-width="1.4192" stroke-linecap="round" stroke-linejoin="round" stroke-miterlimit="10" d="
			M21.2,320.1c0,0,2.8,2.6-0.5,6.1c-1.1,1.2-1.2,1.8-1.2,1.8s-3.1-1.3-1.2-4.1c0.7-1,1.7-1.2,2.2-1.8
			C21.2,321,21.2,320.1,21.2,320.1z"/>
		
			<path fill="none" stroke="#FFFFFF" stroke-width="1.4192" stroke-linecap="round" stroke-linejoin="round" stroke-miterlimit="10" d="
			M21.2,325.5c0,0,2.8,2.6-0.5,6.1c-1.1,1.2-1.2,1.8-1.2,1.8s-3.1-1.3-1.2-4.1c0.7-1,1.7-1.2,2.2-1.8
			C21.2,326.4,21.2,325.5,21.2,325.5z"/>
		
			<path fill="none" stroke="#FFFFFF" stroke-width="1.4192" stroke-linecap="round" stroke-linejoin="round" stroke-miterlimit="10" d="
			M21.2,330.8c0,0,2.8,2.6-0.5,6.1c-1.1,1.2-1.2,1.8-1.2,1.8s-3.1-1.3-1.2-4.1c0.7-1,1.7-1.2,2.2-1.8
			C21.2,331.7,21.2,330.8,21.2,330.8z"/>
		
			<path fill="none" stroke="#FFFFFF" stroke-width="1.4192" stroke-linecap="round" stroke-linejoin="round" stroke-miterlimit="10" d="
			M21.2,336.2c0,0,2.8,2.6-0.5,6.1c-1.1,1.2-1.2,1.8-1.2,1.8s-3.1-1.3-1.2-4.1c0.7-1,1.7-1.2,2.2-1.8
			C21.2,337,21.2,336.2,21.2,336.2z"/>
		
			<path fill="none" stroke="#FFFFFF" stroke-width="1.4192" stroke-linecap="round" stroke-linejoin="round" stroke-miterlimit="10" d="
			M21.2,341.5c0,0,2.8,2.6-0.5,6.1c-1.1,1.2-1.2,1.8-1.2,1.8s-3.1-1.3-1.2-4.1c0.7-1,1.7-1.2,2.2-1.8
			C21.2,342.4,21.2,341.5,21.2,341.5z"/>
		
			<path fill="none" stroke="#FFFFFF" stroke-width="1.4192" stroke-linecap="round" stroke-linejoin="round" stroke-miterlimit="10" d="
			M21.2,346.8c0,0,2.8,2.6-0.5,6.1c-1.1,1.2-1.2,1.8-1.2,1.8s-3.1-1.3-1.2-4.1c0.7-1,1.7-1.2,2.2-1.8
			C21.2,347.7,21.2,346.8,21.2,346.8z"/>
	</g>
	<g>
		
			<path fill="none" stroke="#FFFFFF" stroke-width="1.4192" stroke-linecap="round" stroke-linejoin="round" stroke-miterlimit="10" d="
			M44.8,292c0,0-2.4,3,1.5,6c1.3,1,1.5,1.5,1.5,1.5s2.8-1.8,0.5-4.2c-0.8-0.8-1.9-1-2.4-1.5C44.8,292.9,44.8,292,44.8,292z"/>
		
			<path fill="none" stroke="#FFFFFF" stroke-width="1.4192" stroke-linecap="round" stroke-linejoin="round" stroke-miterlimit="10" d="
			M43.9,286.5c0,0-2.4,3,1.5,6c1.3,1,1.5,1.5,1.5,1.5s2.8-1.8,0.5-4.2c-0.8-0.8-1.9-1-2.4-1.5C44,287.4,43.9,286.5,43.9,286.5z"/>
		
			<path fill="none" stroke="#FFFFFF" stroke-width="1.4192" stroke-linecap="round" stroke-linejoin="round" stroke-miterlimit="10" d="
			M44.6,287.2c1.3,1,1.5,1.5,1.5,1.5s1.9-1.2,1.3-3C47.2,285.3,44.3,286.9,44.6,287.2z"/>
		
			<path fill="none" stroke="#FFFFFF" stroke-width="1.4192" stroke-linecap="round" stroke-linejoin="round" stroke-miterlimit="10" d="
			M45.6,297.2c0,0-2.4,3,1.5,6c1.3,1,1.5,1.5,1.5,1.5s2.8-1.8,0.5-4.2c-0.8-0.8-1.9-1-2.4-1.5C45.7,298.1,45.6,297.2,45.6,297.2z"/>
		
			<path fill="none" stroke="#FFFFFF" stroke-width="1.4192" stroke-linecap="round" stroke-linejoin="round" stroke-miterlimit="10" d="
			M46.4,302.5c0,0-2.4,3,1.5,6c1.3,1,1.5,1.5,1.5,1.5s2.8-1.8,0.5-4.2c-0.8-0.8-1.9-1-2.4-1.5C46.5,303.4,46.4,302.5,46.4,302.5z"/>
		
			<path fill="none" stroke="#FFFFFF" stroke-width="1.4192" stroke-linecap="round" stroke-linejoin="round" stroke-miterlimit="10" d="
			M47.3,307.8c0,0-2.4,3,1.5,6c1.3,1,1.5,1.5,1.5,1.5s2.8-1.8,0.5-4.2c-0.8-0.8-1.9-1-2.4-1.5C47.3,308.7,47.3,307.8,47.3,307.8z"/>
		
			<path fill="none" stroke="#FFFFFF" stroke-width="1.4192" stroke-linecap="round" stroke-linejoin="round" stroke-miterlimit="10" d="
			M48.1,313.1c0,0-2.4,3,1.5,6c1.3,1,1.5,1.5,1.5,1.5s2.8-1.8,0.5-4.2c-0.8-0.8-1.9-1-2.4-1.5C48.1,313.9,48.1,313.1,48.1,313.1z"/>
		
			<path fill="none" stroke="#FFFFFF" stroke-width="1.4192" stroke-linecap="round" stroke-linejoin="round" stroke-miterlimit="10" d="
			M48.9,318.3c0,0-2.4,3,1.5,6c1.3,1,1.5,1.5,1.5,1.5s2.8-1.8,0.5-4.2c-0.8-0.8-1.9-1-2.4-1.5C49,319.2,48.9,318.3,48.9,318.3z"/>
		
			<path fill="none" stroke="#FFFFFF" stroke-width="1.4192" stroke-linecap="round" stroke-linejoin="round" stroke-miterlimit="10" d="
			M49.7,323.6c0,0-2.4,3,1.5,6c1.3,1,1.5,1.5,1.5,1.5s2.8-1.8,0.5-4.2c-0.8-0.8-1.9-1-2.4-1.5C49.8,324.5,49.7,323.6,49.7,323.6z"/>
		
			<path fill="none" stroke="#FFFFFF" stroke-width="1.4192" stroke-linecap="round" stroke-linejoin="round" stroke-miterlimit="10" d="
			M50.6,328.9c0,0-2.4,3,1.5,6c1.3,1,1.5,1.5,1.5,1.5s2.8-1.8,0.5-4.2c-0.8-0.8-1.9-1-2.4-1.5C50.6,329.8,50.6,328.9,50.6,328.9z"/>
		
			<path fill="none" stroke="#FFFFFF" stroke-width="1.4192" stroke-linecap="round" stroke-linejoin="round" stroke-miterlimit="10" d="
			M51.4,334.2c0,0-2.4,3,1.5,6c1.3,1,1.5,1.5,1.5,1.5s2.8-1.8,0.5-4.2c-0.8-0.8-1.9-1-2.4-1.5C51.4,335,51.4,334.2,51.4,334.2z"/>
		
			<path fill="none" stroke="#FFFFFF" stroke-width="1.4192" stroke-linecap="round" stroke-linejoin="round" stroke-miterlimit="10" d="
			M52.2,339.4c0,0-2.4,3,1.5,6c1.3,1,1.5,1.5,1.5,1.5s2.8-1.8,0.5-4.2c-0.8-0.8-1.9-1-2.4-1.5C52.3,340.3,52.2,339.4,52.2,339.4z"/>
		
			<path fill="none" stroke="#FFFFFF" stroke-width="1.4192" stroke-linecap="round" stroke-linejoin="round" stroke-miterlimit="10" d="
			M53,344.7c0,0-2.4,3,1.5,6c1.3,1,1.5,1.5,1.5,1.5s2.8-1.8,0.5-4.2c-0.8-0.8-1.9-1-2.4-1.5C53.1,345.6,53,344.7,53,344.7z"/>
	</g>
	
		<line fill="none" stroke="#FFFFFF" stroke-width="2" stroke-linecap="round" stroke-linejoin="round" stroke-miterlimit="10" x1="18.3" y1="289.1" x2="-1" y2="339.8"/>
	
		<line fill="none" stroke="#FFFFFF" stroke-width="2" stroke-linecap="round" stroke-linejoin="round" stroke-miterlimit="10" x1="96.1" y1="265.1" x2="64.6" y2="351.6"/>
	
		<line fill="none" stroke="#FFFFFF" stroke-width="1.4192" stroke-linecap="round" stroke-linejoin="round" stroke-miterlimit="10" x1="22.2" y1="289.1" x2="54.9" y2="352.4"/>
	<polyline fill="none" stroke="#FFFFFF" stroke-width="2" stroke-linecap="round" stroke-miterlimit="10" points="97.7,415.3 
		97.7,168.4 114.4,168.4 114.4,415.3 	"/>
	
		<line fill="none" stroke="#FFFFFF" stroke-width="2" stroke-linecap="round" stroke-miterlimit="10" x1="108.4" y1="408.4" x2="108.4" y2="230.4"/>
	
		<line fill="none" stroke="#FFFFFF" stroke-width="2" stroke-linecap="round" stroke-miterlimit="10" x1="108.4" y1="210.6" x2="108.4" y2="177.7"/>
	<polyline fill="none" stroke="#FFFFFF" stroke-width="2" stroke-linecap="round" stroke-miterlimit="10" points="231.5,415.3 
		231.5,168.4 248.2,168.4 248.2,415.3 	"/>
	
		<line fill="none" stroke="#FFFFFF" stroke-width="2" stroke-linecap="round" stroke-miterlimit="10" x1="242.2" y1="408.4" x2="242.2" y2="230.4"/>
	
		<line fill="none" stroke="#FFFFFF" stroke-width="2" stroke-linecap="round" stroke-miterlimit="10" x1="242.2" y1="210.6" x2="242.2" y2="177.7"/>
	
		<line fill="none" stroke="#FFFFFF" stroke-width="2" stroke-linecap="round" stroke-miterlimit="10" x1="114.4" y1="255" x2="231.5" y2="255"/>
	
		<line fill="none" stroke="#FFFFFF" stroke-width="2" stroke-linecap="round" stroke-miterlimit="10" x1="114.4" y1="245.6" x2="231.5" y2="245.6"/>
	
		<line fill="none" stroke="#FFFFFF" stroke-width="2" stroke-linecap="round" stroke-miterlimit="10" x1="114.4" y1="348.9" x2="231.5" y2="348.9"/>
	
		<line fill="none" stroke="#FFFFFF" stroke-width="2" stroke-linecap="round" stroke-miterlimit="10" x1="114.4" y1="339.6" x2="231.5" y2="339.6"/>
	<path fill="none" stroke="#FFFFFF" stroke-width="2" stroke-linecap="round" stroke-miterlimit="10" d="M165.6,168.4H95.1
		c0,0-13.1-1.3-3-13.1S174,73.4,174,73.4"/>
	<path fill="none" stroke="#FFFFFF" stroke-width="2" stroke-linecap="round" stroke-miterlimit="10" d="M182.5,168.4h70.5
		c0,0,13.1-1.3,3-13.1C245.7,143.5,174,73.4,174,73.4"/>
	<path fill="none" stroke="#FFFFFF" stroke-width="2" stroke-linecap="round" stroke-linejoin="round" stroke-miterlimit="10" d="
		M125.9,255v54.2c0,0-10.2,9.8,0,19.8v9.9"/>
	<path fill="none" stroke="#FFFFFF" stroke-width="2" stroke-linecap="round" stroke-linejoin="round" stroke-miterlimit="10" d="
		M134.8,255v54.2c0,0-10.2,9.8,0,19.8v9.9"/>
	<path fill="none" stroke="#FFFFFF" stroke-width="2" stroke-linecap="round" stroke-linejoin="round" stroke-miterlimit="10" d="
		M143.6,255v54.2c0,0-10.2,9.8,0,19.8v9.9"/>
	<path fill="none" stroke="#FFFFFF" stroke-width="2" stroke-linecap="round" stroke-linejoin="round" stroke-miterlimit="10" d="
		M152.5,255v54.2c0,0-10.2,9.8,0,19.8v9.9"/>
	<path fill="none" stroke="#FFFFFF" stroke-width="2" stroke-linecap="round" stroke-linejoin="round" stroke-miterlimit="10" d="
		M161.3,255v54.2c0,0-10.2,9.8,0,19.8v9.9"/>
	<path fill="none" stroke="#FFFFFF" stroke-width="2" stroke-linecap="round" stroke-linejoin="round" stroke-miterlimit="10" d="
		M170.2,255v54.2c0,0-10.2,9.8,0,19.8v9.9"/>
	<path fill="none" stroke="#FFFFFF" stroke-width="2" stroke-linecap="round" stroke-linejoin="round" stroke-miterlimit="10" d="
		M179,255v54.2c0,0-10.2,9.8,0,19.8v9.9"/>
	<path fill="none" stroke="#FFFFFF" stroke-width="2" stroke-linecap="round" stroke-linejoin="round" stroke-miterlimit="10" d="
		M187.9,255v54.2c0,0-10.2,9.8,0,19.8v9.9"/>
	<path fill="none" stroke="#FFFFFF" stroke-width="2" stroke-linecap="round" stroke-linejoin="round" stroke-miterlimit="10" d="
		M196.7,255v54.2c0,0-10.2,9.8,0,19.8v9.9"/>
	<path fill="none" stroke="#FFFFFF" stroke-width="2" stroke-linecap="round" stroke-linejoin="round" stroke-miterlimit="10" d="
		M205.6,255v54.2c0,0-10.2,9.8,0,19.8v9.9"/>
	<path fill="none" stroke="#FFFFFF" stroke-width="2" stroke-linecap="round" stroke-linejoin="round" stroke-miterlimit="10" d="
		M214.4,255v54.2c0,0-10.2,9.8,0,19.8v9.9"/>
	<path fill="none" stroke="#FFFFFF" stroke-width="2" stroke-linecap="round" stroke-linejoin="round" stroke-miterlimit="10" d="
		M223.3,255v54.2c0,0-10.2,9.8,0,19.8v9.9"/>
	<path fill="none" stroke="#FFFFFF" stroke-width="2" stroke-linecap="round" stroke-miterlimit="10" d="M403.9,207.8
		c3.9,0,7-3.1,7-7h-14C396.9,204.7,400,207.8,403.9,207.8z"/>
	<path fill="none" stroke="#FFFFFF" stroke-width="2" stroke-linecap="round" stroke-miterlimit="10" d="M290.2,207.8
		c-3.9,0-7-3.1-7-7h14C297.2,204.7,294.1,207.8,290.2,207.8z"/>
	
		<line fill="none" stroke="#FFFFFF" stroke-width="2" stroke-linecap="round" stroke-miterlimit="10" x1="248.2" y1="200.9" x2="450" y2="200.9"/>
	<line fill="none" stroke="#FFFFFF" stroke-width="2" stroke-miterlimit="10" x1="403.9" y1="207.8" x2="386.7" y2="353.9"/>
	<line fill="none" stroke="#FFFFFF" stroke-width="2" stroke-miterlimit="10" x1="290.2" y1="207.8" x2="307.4" y2="353.9"/>
	<path fill="none" stroke="#FFFFFF" stroke-width="2" stroke-linecap="round" stroke-miterlimit="10" d="M231.5,177.7"/>
	<polyline fill="none" stroke="#FFFFFF" stroke-width="2" stroke-linecap="round" stroke-miterlimit="10" points="248.9,159.2 
		175.2,85.9 153.2,106 	"/>
	<path fill="none" stroke="#FFFFFF" stroke-width="2" stroke-linecap="round" stroke-linejoin="round" stroke-miterlimit="10" d="
		M332.7,337.9l-8.5,4.6c-3,1.6-6.7,0.6-8.4-2.3l-12.6-21l5.6-3.4l11.5,19l11.6-9.6c1.4-1.2,3.3-1.8,5.2-1.7l3.9,0.2"/>
	<path fill="none" stroke="#FFFFFF" stroke-width="2" stroke-linecap="round" stroke-linejoin="round" stroke-miterlimit="10" d="
		M363.3,337.7l8.5,4.6c3,1.6,6.7,0.6,8.4-2.3l12.6-21l-5.6-3.4l-11.5,19l-11.6-9.6c-1.4-1.2-3.3-1.8-5.2-1.7l-3.9,0.2"/>
	<path fill="none" stroke="#FFFFFF" stroke-width="2" stroke-linecap="round" stroke-linejoin="round" stroke-miterlimit="10" d="
		M377.4,353c-6.2,10.6-17.7,5.9-30.9,5.9s-24.7,4.7-30.9-5.9h-14.8c7.2,18.1,25,19.2,45.7,19.2c20.7,0,38.4-1,45.7-19.2H377.4z"/>
	
		<polyline fill="#FFFFFF" stroke="#FFFFFF" stroke-width="2" stroke-linecap="round" stroke-linejoin="round" stroke-miterlimit="10" points="
		347.7,367.6 332,375 334.9,405.1 330.3,405.1 322.1,369.8 334.2,357.4 361.3,357.4 373.4,369.8 365.1,405.1 360.6,405.1 363.5,375 
		347.7,367.6 	"/>
	<path fill="none" stroke="#FFFFFF" stroke-width="2" stroke-linecap="round" stroke-linejoin="round" stroke-miterlimit="10" d="
		M354,294.1c2.7-0.4,5.1,1.6,5.1,4.3v10.3c0,3.1-1.3,6-3.3,8c-2,2-4.9,3.3-8,3.3h0c-6.2,0-11.3-5.1-11.3-11.3V298
		c0-2.2,2-3.9,4.2-3.5l0,0l1.7-4.3l3.7,4.3l2,0.1l3-6.3l1.7,6.4L354,294.1z"/>
	<path fill="none" stroke="#FFFFFF" stroke-width="2" stroke-linecap="round" stroke-linejoin="round" stroke-miterlimit="10" d="
		M348.9,278.6"/>
	<path fill="none" stroke="#FFFFFF" stroke-width="2" stroke-linecap="round" stroke-linejoin="round" stroke-miterlimit="10" d="
		M357.2,269.1"/>
	
		<line fill="none" stroke="#FFFFFF" stroke-width="2" stroke-linecap="round" stroke-linejoin="round" stroke-miterlimit="10" x1="346.4" y1="307.6" x2="349.4" y2="307.6"/>
	<path fill="none" stroke="#FFFFFF" stroke-width="2" stroke-linecap="round" stroke-linejoin="round" stroke-miterlimit="10" d="
		M351.5,311.9l-1.1,0.5c-1.6,0.8-3.5,0.8-5,0l-1-0.5"/>
	<path fill="none" stroke="#FFFFFF" stroke-width="2" stroke-linecap="round" stroke-miterlimit="10" d="M351.7,302.5v-0.4
		c0-1,0.8-1.9,1.9-1.9l0,0c1,0,1.9,0.8,1.9,1.9v0.4"/>
	<path fill="none" stroke="#FFFFFF" stroke-width="2" stroke-linecap="round" stroke-miterlimit="10" d="M339.9,302.5v-0.4
		c0-1,0.8-1.9,1.9-1.9h0c1,0,1.9,0.8,1.9,1.9v0.4"/>
	<path fill="none" stroke="#FFFFFF" stroke-width="2" stroke-linejoin="round" stroke-miterlimit="10" d="M359.1,308.8l2.9-9.1
		c3.1-9.9-3.5-20.6-13.8-21.4c-0.4,0-0.9-0.1-1.3-0.1h0c-0.5,0-1,0-1.4,0.1c-10.5,0.9-16.7,12.2-12.6,21.9l3.6,8.6"/>
	<path fill="none" stroke="#FFFFFF" stroke-width="2" stroke-miterlimit="10" d="M-1.2,287.8c29.1,1.7,64.8-3.8,99.1-25.2"/>
	<path fill="none" stroke="#FFFFFF" stroke-width="2" stroke-linecap="round" stroke-miterlimit="10" d="M354.3,338.6
		c0,0-8.5,1.6-13.5,5.4"/>
	
		<path fill="#231F20" stroke="#FFFFFF" stroke-width="2" stroke-linecap="round" stroke-linejoin="round" stroke-miterlimit="10" d="
		M300.8,309.5l1.1-0.1c1.6-0.1,3.1,0.9,3.5,2.5l0,0c0.4,1.8-0.7,3.5-2.4,3.9l-0.6,0.2"/>
	
		<polyline fill="none" stroke="#FFFFFF" stroke-width="2" stroke-linecap="round" stroke-linejoin="round" stroke-miterlimit="10" points="
		332.9,332.9 334.2,357.4 347.7,357.4 	"/>
	
		<path fill="#231F20" stroke="#FFFFFF" stroke-width="2" stroke-linecap="round" stroke-linejoin="round" stroke-miterlimit="10" d="
		M395.1,309.2l-1.1-0.1c-1.6-0.1-3.1,0.9-3.5,2.5l0,0c-0.4,1.8,0.7,3.5,2.4,3.9l0.6,0.2"/>
	
		<polyline fill="none" stroke="#FFFFFF" stroke-width="2" stroke-linecap="round" stroke-linejoin="round" stroke-miterlimit="10" points="
		363,332.7 361.8,357.2 348.2,357.2 	"/>
	<path fill="none" stroke="#FFFFFF" stroke-width="2" stroke-linecap="round" stroke-linejoin="round" stroke-miterlimit="10" d="
		M353,325.8l-0.4,0.6c-2.5,3.2-7.4,3-9.7-0.3h0"/>
	<path fill="none" stroke="#FFFFFF" stroke-width="2" stroke-miterlimit="10" d="M-1.7,364.4c1.8,0,23.2-0.1,23.6-0.2
		c2.3-0.5,4.6-1.8,4.5-4.9c-0.1-3.2-2.5-4.4-4.7-4.8c-0.4-0.1-21.9-0.1-22.3-0.2"/>
	
		<path fill="#231F20" stroke="#FFFFFF" stroke-width="2" stroke-linecap="round" stroke-linejoin="round" stroke-miterlimit="10" d="
		M334.9,405.1l1,3.1l-12,3.8c0,0,0,0,6-6.9H334.9z"/>
	
		<path fill="#231F20" stroke="#FFFFFF" stroke-width="2" stroke-linecap="round" stroke-linejoin="round" stroke-miterlimit="10" d="
		M360.6,405.1l-1,3.1l12,3.8c0,0,0,0-6-6.9H360.6z"/>
</g>
</svg>
