<?xml version="1.0" encoding="utf-8"?>
<!-- Generator: Adobe Illustrator 18.1.1, SVG Export Plug-In . SVG Version: 6.00 Build 0)  -->
<svg version="1.1" xmlns="http://www.w3.org/2000/svg" xmlns:xlink="http://www.w3.org/1999/xlink" x="0px" y="0px"
	 viewBox="0 0 591.9 316" enable-background="new 0 0 591.9 316" xml:space="preserve">
<g id="g_x5F_bg">
</g>
<g id="b_x5F_bg">
	<path fill="none" stroke="#FFFFFF" stroke-width="2" stroke-linejoin="round" stroke-miterlimit="10" d="M281.7,288.3h-11.2v-3.1
		c0-5.2-4.2-9.3-9.3-9.3h0c-5.2,0-9.3,4.2-9.3,9.3v1.9h-24v-18h76.8v19.3H281.7z"/>
	<path fill="none" stroke="#FFFFFF" stroke-width="2" stroke-linejoin="round" stroke-miterlimit="10" d="M310.6,233.9v53.2h7.5
		v-1.9c0-5.2,4.2-9.3,9.3-9.3h0c5.2,0,9.3,4.2,9.3,9.3v3.1h0c6.2,0,11.2-5,11.2-11.2v-32c0-0.7-0.1-1.4-0.2-2c-1-5.2-5.5-9.2-11-9.2
		H310.6z"/>
	<path fill="none" stroke="#FFFFFF" stroke-width="2" stroke-miterlimit="10" d="M348,244.2h-14c-2.6,0-4.7,2.1-4.7,4.7v7.6
		c0,2.6,2.1,4.7,4.7,4.7h14"/>
	<circle fill="none" stroke="#FFFFFF" stroke-width="2" stroke-miterlimit="10" cx="327.6" cy="285.7" r="5.6"/>
	<circle fill="none" stroke="#FFFFFF" stroke-width="2" stroke-miterlimit="10" cx="260.7" cy="285.7" r="5.6"/>
	<polygon fill="none" stroke="#FFFFFF" stroke-width="2" stroke-linejoin="round" stroke-miterlimit="10" points="304.7,233.9 
		304.7,262.8 245.6,262.8 227.9,245.1 227.9,233.9 	"/>
	<path fill="#FFFFFF" d="M281.7,288.3"/>
	<line fill="none" stroke="#FFFFFF" stroke-width="2" stroke-miterlimit="10" x1="310.6" y1="269.1" x2="348" y2="269.1"/>
	
		<line fill="none" stroke="#FFFFFF" stroke-width="2" stroke-linecap="round" stroke-miterlimit="10" x1="291.1" y1="242.3" x2="291.1" y2="255.1"/>
	
		<line fill="none" stroke="#FFFFFF" stroke-width="2" stroke-linecap="round" stroke-miterlimit="10" x1="278.6" y1="242.3" x2="278.6" y2="255.1"/>
	
		<line fill="none" stroke="#FFFFFF" stroke-width="2" stroke-linecap="round" stroke-miterlimit="10" x1="266.2" y1="242.3" x2="266.2" y2="255.1"/>
	
		<line fill="none" stroke="#FFFFFF" stroke-width="2" stroke-linecap="round" stroke-miterlimit="10" x1="253.7" y1="242.3" x2="253.7" y2="255.1"/>
	
		<line fill="none" stroke="#FFFFFF" stroke-width="2" stroke-linecap="round" stroke-miterlimit="10" x1="278.6" y1="262.8" x2="278.6" y2="267.5"/>
	<path fill="none" stroke="#FFFFFF" stroke-width="2" stroke-linecap="round" stroke-linejoin="round" stroke-miterlimit="10" d="
		M365.8,280.4l73.1-36.9c0.7-0.3,1.5-0.1,1.8,0.6l5.3,10.5c0.3,0.7,0.1,1.5-0.6,1.8l-73.1,36.9c-0.7,0.3-1.5,0.1-1.8-0.6l-5.3-10.5
		C364.9,281.6,365.1,280.8,365.8,280.4z"/>
	
		<circle stroke="#FFFFFF" stroke-width="2" stroke-linecap="round" stroke-linejoin="round" stroke-miterlimit="10" cx="423.1" cy="250.6" r="8.1"/>
	
		<circle stroke="#FFFFFF" stroke-width="2" stroke-linecap="round" stroke-linejoin="round" stroke-miterlimit="10" cx="380.6" cy="272" r="8.1"/>
	<path fill="none" stroke="#FFFFFF" stroke-width="2" stroke-linecap="round" stroke-linejoin="round" stroke-miterlimit="10" d="
		M434.7,261.9L434.7,261.9c3.7,7.4,0.8,16.4-6.6,20.2l-13.3,6.7c-3.6,1.8-7.7,2.1-11.5,0.9l-15.7-4"/>
	
		<line fill="none" stroke="#FFFFFF" stroke-width="2" stroke-linecap="round" stroke-linejoin="round" stroke-miterlimit="10" x1="395.7" y1="281.6" x2="397.6" y2="264.4"/>
	<path fill="none" stroke="#FFFFFF" stroke-width="2" stroke-linecap="round" stroke-linejoin="round" stroke-miterlimit="10" d="
		M406.2,269.7c-0.5,0.3-4.7,2.4-4.7,2.4l-0.6-1.2"/>
	
		<line fill="none" stroke="#FFFFFF" stroke-width="2" stroke-linecap="round" stroke-linejoin="round" stroke-miterlimit="10" x1="156.1" y1="293.3" x2="591.9" y2="293.3"/>
</g>
<g id="g">
</g>
<g id="b">
</g>
</svg>
