<?xml version="1.0" encoding="utf-8"?>
<!-- Generator: Adobe Illustrator 18.1.1, SVG Export Plug-In . SVG Version: 6.00 Build 0)  -->
<svg version="1.1" xmlns="http://www.w3.org/2000/svg" xmlns:xlink="http://www.w3.org/1999/xlink" x="0px" y="0px"
	 viewBox="0 0 406.3 474" enable-background="new 0 0 406.3 474" xml:space="preserve">
<g id="g_x5F_bg">
</g>
<g id="b_x5F_bg">
	<polyline fill="none" stroke="#FFFFFF" stroke-width="2" stroke-linecap="round" stroke-miterlimit="10" points="219.8,415.3 
		219.8,122.6 236.5,122.6 236.5,415.3 314,415.3 406.3,415.3 	"/>
	
		<line fill="none" stroke="#FFFFFF" stroke-width="2" stroke-linecap="round" stroke-miterlimit="10" x1="230.5" y1="415.3" x2="230.5" y2="183"/>
	
		<line fill="none" stroke="#FFFFFF" stroke-width="2" stroke-linecap="round" stroke-miterlimit="10" x1="230.5" y1="163.2" x2="230.5" y2="130.3"/>
	<polyline fill="none" stroke="#FFFFFF" stroke-width="2" stroke-linecap="round" stroke-miterlimit="10" points="61.4,415.3 
		61.4,122.6 78.1,122.6 78.1,415.3 	"/>
	
		<line fill="none" stroke="#FFFFFF" stroke-width="2" stroke-linecap="round" stroke-miterlimit="10" x1="70.2" y1="415.3" x2="70.2" y2="183"/>
	
		<line fill="none" stroke="#FFFFFF" stroke-width="2" stroke-linecap="round" stroke-miterlimit="10" x1="70.2" y1="163.2" x2="70.2" y2="130.3"/>
	<path fill="none" stroke="#FFFFFF" stroke-width="2" stroke-linecap="round" stroke-miterlimit="10" d="M134.2,122.9H50.1
		c0,0-8.7,0.8-8.7-7.1s6.8-7.9,8.7-7.9s42.6,0,42.6,0"/>
	<path fill="none" stroke="#FFFFFF" stroke-width="2" stroke-linecap="round" stroke-miterlimit="10" d="M154.4,93H50.1
		c0,0-8.7-0.8-8.7,7.1s6.8,7.9,8.7,7.9s42.6,0,42.6,0"/>
	<path fill="none" stroke="#FFFFFF" stroke-width="2" stroke-linecap="round" stroke-miterlimit="10" d="M160.6,122.9h84.1
		c0,0,8.7,0.8,8.7-7.1s-6.8-7.9-8.7-7.9c-2,0-42.6,0-42.6,0"/>
	<path fill="none" stroke="#FFFFFF" stroke-width="2" stroke-linecap="round" stroke-miterlimit="10" d="M150.7,93h93.9
		c0,0,8.7-0.8,8.7,7.1s-6.8,7.9-8.7,7.9c-2,0-42.6,0-42.6,0"/>
	
		<line fill="none" stroke="#FFFFFF" stroke-width="2" stroke-linecap="round" stroke-miterlimit="10" x1="78" y1="139.4" x2="216.8" y2="139.4"/>
	<path fill="none" stroke="#FFFFFF" stroke-width="2" stroke-linecap="round" stroke-miterlimit="10" d="M147.4,15.3
		c-42.9,0-77.7,34.8-77.7,77.7h155.4C225.1,50.1,190.3,15.3,147.4,15.3z"/>
	
		<circle fill="none" stroke="#FFFFFF" stroke-width="1.4192" stroke-linecap="round" stroke-miterlimit="10" cx="147.4" cy="58.3" r="23.2"/>
	
		<circle fill="none" stroke="#FFFFFF" stroke-width="1.4192" stroke-linecap="round" stroke-miterlimit="10" cx="147.4" cy="58.3" r="15.3"/>
	<circle fill="#FFFFFF" cx="147.4" cy="39.3" r="1.1"/>
	<circle fill="#FFFFFF" cx="147.4" cy="77.1" r="1.1"/>
	<circle fill="#FFFFFF" cx="166.3" cy="58.2" r="1.1"/>
	<circle fill="#FFFFFF" cx="128.5" cy="58.2" r="1.1"/>
	<circle fill="#FFFFFF" cx="160.8" cy="44.9" r="1.1"/>
	<circle fill="#FFFFFF" cx="134.1" cy="71.6" r="1.1"/>
	<circle fill="#FFFFFF" cx="160.8" cy="71.6" r="1.1"/>
	<circle fill="#FFFFFF" cx="134.1" cy="44.9" r="1.1"/>
	<rect x="80" y="306.4" fill="none" stroke="#FFFFFF" stroke-width="2" stroke-miterlimit="10" width="138.8" height="18.4"/>
	<polyline fill="none" stroke="#FFFFFF" stroke-width="2" stroke-miterlimit="10" points="122.7,306.4 107.6,455.3 0.8,455.3 	"/>
	<line fill="none" stroke="#FFFFFF" stroke-width="2" stroke-miterlimit="10" x1="114.6" y1="306.4" x2="99.5" y2="455.3"/>
	<polyline fill="none" stroke="#FFFFFF" stroke-width="2" stroke-miterlimit="10" points="176.1,306.4 191.1,455.3 298,455.3 	"/>
	<line fill="none" stroke="#FFFFFF" stroke-width="2" stroke-miterlimit="10" x1="183.9" y1="306.4" x2="199" y2="455.3"/>
	<path fill="none" stroke="#FFFFFF" stroke-width="2" stroke-miterlimit="10" d="M78,224.5c0,0,34.9-5.9,34.9,7.9
		c0,13.8,0,74.1,0,74.1"/>
	<line fill="none" stroke="#FFFFFF" stroke-width="2" stroke-miterlimit="10" x1="103.2" y1="223.2" x2="103.2" y2="306.4"/>
	<path fill="none" stroke="#FFFFFF" stroke-width="2" stroke-miterlimit="10" d="M218.8,224.5c0,0-34.9-5.9-34.9,7.9
		c0,13.8,0,74.1,0,74.1"/>
	<line fill="none" stroke="#FFFFFF" stroke-width="2" stroke-miterlimit="10" x1="193.6" y1="223.2" x2="193.6" y2="306.4"/>
	<line fill="none" stroke="#FFFFFF" stroke-width="2" stroke-miterlimit="10" x1="119.3" y1="340.5" x2="180.1" y2="340.5"/>
	
		<line fill="none" stroke="#FFFFFF" stroke-width="2" stroke-linecap="round" stroke-miterlimit="10" x1="119.3" y1="352.8" x2="180.1" y2="352.8"/>
	
		<line fill="none" stroke="#FFFFFF" stroke-width="2" stroke-linecap="round" stroke-miterlimit="10" x1="180.1" y1="345.9" x2="165.2" y2="345.9"/>
	
		<line fill="none" stroke="#FFFFFF" stroke-width="2" stroke-linecap="round" stroke-miterlimit="10" x1="134.1" y1="345.9" x2="119.3" y2="345.9"/>
	<line fill="none" stroke="#FFFFFF" stroke-width="2" stroke-miterlimit="10" x1="116.8" y1="370.5" x2="182.6" y2="370.5"/>
	
		<line fill="none" stroke="#FFFFFF" stroke-width="2" stroke-linecap="round" stroke-miterlimit="10" x1="115.4" y1="382.8" x2="183.9" y2="382.8"/>
	
		<line fill="none" stroke="#FFFFFF" stroke-width="2" stroke-linecap="round" stroke-miterlimit="10" x1="182.6" y1="375.9" x2="167.7" y2="375.9"/>
	
		<line fill="none" stroke="#FFFFFF" stroke-width="2" stroke-linecap="round" stroke-miterlimit="10" x1="131.6" y1="375.9" x2="116.8" y2="375.9"/>
	<line fill="none" stroke="#FFFFFF" stroke-width="2" stroke-miterlimit="10" x1="113.6" y1="400.5" x2="185.8" y2="400.5"/>
	
		<line fill="none" stroke="#FFFFFF" stroke-width="2" stroke-linecap="round" stroke-miterlimit="10" x1="113.6" y1="412.8" x2="185.8" y2="412.8"/>
	
		<line fill="none" stroke="#FFFFFF" stroke-width="2" stroke-linecap="round" stroke-miterlimit="10" x1="185.4" y1="405.9" x2="170.6" y2="405.9"/>
	
		<line fill="none" stroke="#FFFFFF" stroke-width="2" stroke-linecap="round" stroke-miterlimit="10" x1="128.4" y1="405.9" x2="113.6" y2="405.9"/>
	<line fill="none" stroke="#FFFFFF" stroke-width="2" stroke-miterlimit="10" x1="110.5" y1="430.5" x2="188.8" y2="430.5"/>
	
		<line fill="none" stroke="#FFFFFF" stroke-width="2" stroke-linecap="round" stroke-miterlimit="10" x1="109.4" y1="442.8" x2="189.9" y2="442.8"/>
	
		<line fill="none" stroke="#FFFFFF" stroke-width="2" stroke-linecap="round" stroke-miterlimit="10" x1="187.4" y1="435.9" x2="172.5" y2="435.9"/>
	
		<line fill="none" stroke="#FFFFFF" stroke-width="2" stroke-linecap="round" stroke-miterlimit="10" x1="124.2" y1="435.9" x2="109.3" y2="435.9"/>
</g>
<g id="g">
</g>
<g id="b">
</g>
</svg>
