<?xml version="1.0" encoding="utf-8"?>
<!-- Generator: Adobe Illustrator 18.1.1, SVG Export Plug-In . SVG Version: 6.00 Build 0)  -->
<svg version="1.1" xmlns="http://www.w3.org/2000/svg" xmlns:xlink="http://www.w3.org/1999/xlink" x="0px" y="0px"
	 viewBox="0 0 591.9 316" enable-background="new 0 0 591.9 316" xml:space="preserve">
<g id="g_x5F_bg">
	<path fill="#FFFFFF" stroke="#000000" stroke-width="2" stroke-miterlimit="10" d="M514.2,238.2c0-6.9-6-12.5-13.5-12.5
		s-13.4,5.6-13.4,12.5c0,4.9,3.7,9.2,7.7,11.2v6.6h11v-6.3C511,247.7,514.2,243.3,514.2,238.2z"/>
	<path fill="none" stroke="#231F20" stroke-width="2" stroke-linecap="round" stroke-miterlimit="10" d="M515.8,285.2l28.6,2.8
		l3.6-5.9c0,0,2.8,9.7-1,11c-3.8,1.3-34.5,0-34.5,0L515.8,285.2z"/>
	<path fill="none" stroke="#231F20" stroke-width="2" stroke-linecap="round" stroke-miterlimit="10" d="M487.8,285.2l-28.6,2.8
		l-3.6-5.9c0,0-2.8,9.7,1,11c3.8,1.3,34.5,0,34.5,0L487.8,285.2z"/>
	<path d="M455.6,282.2c0,0,3.6-4.6-1-3.8c-4.6,0.8-7.4,14.3,2,14.8C456.7,293.1,452.8,289.1,455.6,282.2z"/>
	<path fill="none" stroke="#000000" stroke-width="2" stroke-miterlimit="10" d="M459.2,288c0,0,2.6,5.7,5.1,5.7"/>
	<path fill="none" stroke="#000000" stroke-width="2" stroke-miterlimit="10" d="M469.2,287.1c0,0,2.6,6.7,5.1,6.7"/>
	<path fill="none" stroke="#000000" stroke-width="2" stroke-miterlimit="10" d="M477.4,286.1c0,0,3.3,7.2,5.9,7.2"/>
	<path fill="none" stroke="#000000" stroke-width="2" stroke-miterlimit="10" d="M483.1,285.7c0,0,3.6,7.6,6.2,7.6"/>
	<path d="M547.9,282.2c0,0-3.6-4.6,1-3.8c4.6,0.8,7.4,14.3-2,14.8C546.9,293.1,550.8,289.1,547.9,282.2z"/>
	<path fill="none" stroke="#000000" stroke-width="2" stroke-miterlimit="10" d="M544.4,288c0,0-2.6,5.7-5.1,5.7"/>
	<path fill="none" stroke="#000000" stroke-width="2" stroke-miterlimit="10" d="M534.4,287.1c0,0-2.6,6.7-5.1,6.7"/>
	<path fill="none" stroke="#000000" stroke-width="2" stroke-miterlimit="10" d="M526.2,286.1c0,0-3.3,7.2-5.9,7.2"/>
	<path fill="none" stroke="#000000" stroke-width="2" stroke-miterlimit="10" d="M520.5,285.7c0,0-3.6,7.6-6.2,7.6"/>
	<path fill="none" stroke="#231F20" stroke-width="2" stroke-linecap="round" stroke-miterlimit="10" d="M128.1,101.8l-10.4,15.5
		c-0.6,1.1-1,2.3-1.1,3.6l-4.9,37.9c-0.1,0.5,0.2,1,0.6,1.3c1,0.6,2.6,1.8,2.5,3.1l-0.4,4.9c-0.1,2-2,3.4-4,2.9l0,0
		c-3.1-0.7-5.3-3.7-5.1-6.9l3-45.9c0.1-1.2,0.4-2.4,0.9-3.5l8.4-19.5l0.7-1.7l1.4-3.2l2.6-5.9c1.7-4,5.5-6.8,9.8-7.3l6.1-0.7"/>
	<path fill="none" stroke="#231F20" stroke-width="2" stroke-linecap="round" stroke-miterlimit="10" d="M128.1,100.6
		c-2.7-3.2-10.2-5.8-10.2-5.8"/>
	<path fill="none" stroke="#231F20" stroke-width="2" stroke-linecap="round" stroke-miterlimit="10" d="M154.1,105.1
		c0,0-6.2,0.9-10.1,3.5"/>
	<path fill="none" stroke="#231F20" stroke-width="2" stroke-linecap="round" stroke-miterlimit="10" d="M131.1,90.2L131.1,90.2
		c0.7,2.2,0.3,4.6-0.9,6.5l-0.2,0.3c-1.3,2-1.7,4.6-0.8,6.8l2.6,7.4c0,0,0,0,0,0c0.4,1.3,0.4,2.6,0.1,3.9c0,0-4.7,12.6-5.6,17
		c-0.7,3.6-1.3,14.8-1.3,14.8"/>
	<path fill="none" stroke="#231F20" stroke-width="2" stroke-linecap="round" stroke-miterlimit="10" d="M171.2,101.8l10.4,15.5
		c0.6,1.1,1,2.3,1.1,3.6l4.9,37.9c0.1,0.5-0.2,1-0.6,1.3c-1,0.6-2.6,1.8-2.5,3.1l0.4,4.9c0.1,2,2,3.4,4,2.9l0,0
		c3.1-0.7,5.3-3.7,5.1-6.9l-3-45.9c-0.1-1.2-0.4-2.4-0.9-3.5l-8.4-19.5l-0.7-1.7l-1.4-3.2l-2.6-5.9c-1.7-4-5.5-6.8-9.8-7.3l-6.1-0.7
		"/>
	<path fill="none" stroke="#231F20" stroke-width="2" stroke-linecap="round" stroke-miterlimit="10" d="M171.2,100.6
		c2.7-3.2,10.2-5.8,10.2-5.8"/>
	<path fill="none" stroke="#231F20" stroke-width="2" stroke-linecap="round" stroke-miterlimit="10" d="M168.2,90.2L168.2,90.2
		c-0.7,2.2-0.3,4.6,0.9,6.5l0.2,0.3c1.3,2,1.7,4.6,0.8,6.8l-2.6,7.4c0,0,0,0,0,0c-0.4,1.3-0.4,2.6-0.1,3.9c0,0,4.7,12.6,5.6,17
		c0.7,3.6,1.3,14.8,1.3,14.8"/>
	
		<polygon fill="none" stroke="#231F20" stroke-width="2" stroke-linecap="round" stroke-linejoin="round" stroke-miterlimit="10" points="
		136.1,292.6 148.1,158.1 149.9,158.1 149.9,147.3 124.8,147.3 129.1,287 118.6,293.9 	"/>
	
		<line fill="none" stroke="#231F20" stroke-width="2" stroke-linecap="round" stroke-linejoin="round" stroke-miterlimit="10" x1="137.4" y1="152.7" x2="125.8" y2="159.7"/>
	<path fill="none" stroke="#231F20" stroke-width="2" stroke-linecap="round" stroke-linejoin="round" stroke-miterlimit="10" d="
		M134.4,55.9c0,8.4,6.8,15.2,15.2,15.2h0c8.4,0,15.2-6.8,15.2-15.2L164.5,39c0,0-3.3-2.6-4-9.6c0,0-20.2,13.5-26,10.7L134.4,55.9z"
		/>
	<circle fill="#231F20" cx="158.8" cy="46.5" r="2"/>
	<circle fill="#231F20" cx="141.1" cy="46.5" r="2"/>
	
		<line fill="none" stroke="#231F20" stroke-width="2" stroke-linecap="round" stroke-linejoin="round" stroke-miterlimit="10" x1="147.9" y1="56.6" x2="151.9" y2="56.6"/>
	<path fill="none" stroke="#231F20" stroke-width="2" stroke-linecap="round" stroke-linejoin="round" stroke-miterlimit="10" d="
		M154.7,62.4l-1.4,0.7c-2.1,1-4.6,1-6.8,0l-1.3-0.6"/>
	
		<line fill="none" stroke="#231F20" stroke-width="2" stroke-linecap="round" stroke-linejoin="round" stroke-miterlimit="10" x1="128.2" y1="255.3" x2="139.4" y2="255.3"/>
	
		<line fill="none" stroke="#231F20" stroke-width="2" stroke-linecap="round" stroke-linejoin="round" stroke-miterlimit="10" x1="128.2" y1="248" x2="139.4" y2="248"/>
	
		<line fill="none" stroke="#231F20" stroke-width="2" stroke-linecap="round" stroke-linejoin="round" stroke-miterlimit="10" x1="128.2" y1="251.5" x2="133.4" y2="251.5"/>
	<polygon fill="#231F20" points="129.5,287 118.9,293.9 136.5,292.6 137.4,282.4 129.4,282.4 	"/>
	
		<polygon fill="none" stroke="#231F20" stroke-width="2" stroke-linecap="round" stroke-linejoin="round" stroke-miterlimit="10" points="
		162.9,292.6 150.8,158.1 149.1,158.1 149.1,147.3 174.1,147.3 169.8,287 180.4,293.9 	"/>
	
		<line fill="none" stroke="#231F20" stroke-width="2" stroke-linecap="round" stroke-linejoin="round" stroke-miterlimit="10" x1="161.6" y1="152.7" x2="173.2" y2="159.7"/>
	
		<line fill="none" stroke="#231F20" stroke-width="2" stroke-linecap="round" stroke-linejoin="round" stroke-miterlimit="10" x1="170.8" y1="255.3" x2="159.5" y2="255.3"/>
	
		<line fill="none" stroke="#231F20" stroke-width="2" stroke-linecap="round" stroke-linejoin="round" stroke-miterlimit="10" x1="170.8" y1="248" x2="159.5" y2="248"/>
	
		<line fill="none" stroke="#231F20" stroke-width="2" stroke-linecap="round" stroke-linejoin="round" stroke-miterlimit="10" x1="170.8" y1="251.5" x2="165.6" y2="251.5"/>
	<polygon fill="#231F20" points="169.4,287 180,293.9 162.5,292.6 161.6,282.4 169.6,282.4 	"/>
	
		<line fill="none" stroke="#231F20" stroke-width="2" stroke-linecap="round" stroke-linejoin="round" stroke-miterlimit="10" x1="143.8" y1="79" x2="149.7" y2="87.7"/>
	
		<line fill="none" stroke="#231F20" stroke-width="2" stroke-linecap="round" stroke-linejoin="round" stroke-miterlimit="10" x1="156" y1="79" x2="150.1" y2="87.7"/>
	<path fill="none" stroke="#231F20" stroke-width="2" stroke-linecap="round" stroke-linejoin="round" stroke-miterlimit="10" d="
		M134.8,34c0,0,8.2,0.4,18.6-9.2"/>
	<path fill="none" stroke="#231F20" stroke-width="2" stroke-linecap="round" stroke-linejoin="round" stroke-miterlimit="10" d="
		M139.1,67.5h-14.2l0.4-26.7c0.2-13.4,11.1-24.1,24.5-24.1h0c13.5,0,24.5,11,24.5,24.5v26.3h-14.4"/>
	
		<line fill="none" stroke="#231F20" stroke-width="2" stroke-linecap="round" stroke-linejoin="round" stroke-miterlimit="10" x1="0" y1="294.5" x2="591.9" y2="294.5"/>
	<path fill="none" stroke="#231F20" stroke-width="2" stroke-miterlimit="10" d="M414.4,270.5h-9.8c-1.2,0-2.4,0.7-2.8,1.9
		l-4.7,11.1c-1.2,2.8-0.6,6.1,1.6,8.3v0c1.4,1.4,3.3,2.2,5.3,2.2h11"/>
	<path fill="none" stroke="#231F20" stroke-width="2" stroke-miterlimit="10" d="M413.9,270.5h9.8c1.2,0,2.4,0.7,2.8,1.9l4.7,11.1
		c1.2,2.8,0.6,6.1-1.6,8.3v0c-1.4,1.4-3.3,2.2-5.3,2.2h-11"/>
	<path fill="none" stroke="#231F20" stroke-width="2" stroke-miterlimit="10" d="M414.7,265.7c-5.1,0-9.3,2.2-9.6,4.9h19.2
		C424,267.8,419.8,265.7,414.7,265.7z"/>
	<circle fill="none" stroke="#231F20" stroke-width="2" stroke-miterlimit="10" cx="414.7" cy="263.4" r="1.7"/>
	
		<polyline fill="none" stroke="#231F20" stroke-width="2" stroke-linecap="round" stroke-linejoin="round" stroke-miterlimit="10" points="
		400.6,275.1 391.5,270.5 387.5,272.8 398.2,280.7 	"/>
	<path fill="none" stroke="#231F20" stroke-width="2" stroke-linecap="round" stroke-linejoin="round" stroke-miterlimit="10" d="
		M425.5,270.9V264c0-6-4.3-11-9.9-12.2"/>
	<path fill="none" stroke="#231F20" stroke-width="2" stroke-linecap="round" stroke-linejoin="round" stroke-miterlimit="10" d="
		M402.1,271.9V264c0-6,4.3-11,9.9-12.2"/>
	<path stroke="#231F20" stroke-width="2" stroke-linecap="round" stroke-linejoin="round" stroke-miterlimit="10" d="M416.9,252.9
		h-6.3c-0.1,0-0.2-0.1-0.2-0.2V251c0-0.1,0.1-0.2,0.2-0.2h6.3c0.1,0,0.2,0.1,0.2,0.2v1.7C417.1,252.8,417,252.9,416.9,252.9z"/>
	<path fill="#FFFFFF" d="M477,283.4l13.1,0.4c0.1,0,0.1,0,0.2,0l34-2c1.7-0.1,2.5,2.1,1.1,3.2c-0.9,0.6-1.6,1.2-2,1.7
		c-0.6,0.8-1.6,2.8-2.1,4.2c-0.3,0.7-1.1,1.2-1.8,1.1l-4-0.5c-0.6-0.1-1.1,0.1-1.5,0.6l-1.8,2c-0.3,0.4-2.1,1.7-2.6,1.7L503,294
		l-4.9,3.1l-5.6-3.4l-5,0c-0.5,0-0.9-0.2-1.3-0.6l-2.4-2.8c-0.3-0.4-0.8-0.6-1.3-0.6l-4.7-0.2c-0.7,0-1.4-0.5-1.6-1.2l-0.9-2.7
		C474.9,284.6,475.8,283.3,477,283.4z"/>
	<path fill="none" stroke="#000000" stroke-width="2" stroke-miterlimit="10" d="M491.5,280.3c-1.2,1.8-3,3.1-5.8,3.4
		c-9.7,0.9-11.2,0-11.2,0"/>
	<path fill="none" stroke="#000000" stroke-width="2" stroke-miterlimit="10" d="M509.4,268.6c0,0-1,15.3,8.7,16.2
		c9.7,0.9,11.2,1.1,11.2,1.1"/>
	<g>
		<path fill="none" stroke="#000000" stroke-width="2" stroke-miterlimit="10" d="M474.8,283.8c1.8,2.1-0.6,3.9,2.1,5.8
			c1.3,0.9,4.4-0.6,6.3,0.3c1.5,0.8,1.9,4.4,3.8,5c1.6,0.6,4.2-1.9,6.1-1.5c1.7,0.3,3.2,3.6,5.1,3.7c1.7,0.1,3.5-3.1,5.4-3.3
			c1.7-0.2,4.1,2.5,5.9,2c1.7-0.4,2.5-3.9,4.3-4.6c1.6-0.6,4.5,1.5,6.2,0.6c1.6-0.8,1.7-4.3,3.3-5.4c1.5-0.9,4.7,0.6,6.3-0.5"/>
	</g>
	<path fill="#FFFFFF" stroke="#000000" stroke-width="2" stroke-miterlimit="10" d="M494.3,258.5c0,0-3.4,2.3-3.2,7.2
		c0.3,4.8,3.8,14.7,3.8,14.7s-0.8,2.7-3.7,3.3c0,0-6.3-6.1-6.6-16.9c-0.4-11.8,10.3-13.1,10.3-13.1L494.3,258.5z"/>
	<path stroke="#000000" stroke-linejoin="round" stroke-miterlimit="10" d="M494.9,280.4c0,0,1.3,0.9,2.5,0l-6,6.6
		c0,0,0.6-2.3-0.3-3.3C491.3,283.7,494.6,281.4,494.9,280.4z"/>
	<path fill="none" stroke="#000000" stroke-width="2" stroke-miterlimit="10" d="M492.9,285.4c0,0,2.2,2.7,4.6,1.5
		c2.4-1.1-0.8-5.2-2.3-5.2L492.9,285.4z"/>
	<path fill="#FFFFFF" stroke="#000000" stroke-width="2" stroke-miterlimit="10" d="M506.7,258.5c0,0,3.4,2.3,3.2,7.2
		c-0.3,4.8-3.8,14.7-3.8,14.7s0.8,2.7,3.7,3.3c0,0,6.3-6.1,6.6-16.9c0.4-11.8-10.3-13.1-10.3-13.1L506.7,258.5z"/>
	<path stroke="#000000" stroke-linejoin="round" stroke-miterlimit="10" d="M506.1,280.4c0,0-1.3,0.9-2.5,0l6,6.6
		c0,0-0.6-2.3,0.3-3.3C509.7,283.7,506.4,281.4,506.1,280.4z"/>
	<path fill="none" stroke="#000000" stroke-width="2" stroke-miterlimit="10" d="M508.1,285.4c0,0-2.2,2.7-4.6,1.5
		c-2.4-1.1,0.8-5.2,2.3-5.2L508.1,285.4z"/>
	<path fill="#FFFFFF" stroke="#000000" stroke-width="2" stroke-miterlimit="10" d="M502.4,254.5c0,0,5-4.8,6.4-3.5
		c1.4,1.4,1.7,8,0.7,9.5s-6.7-3.4-6.7-3.4"/>
	<path fill="#FFFFFF" stroke="#000000" stroke-width="2" stroke-miterlimit="10" d="M499.2,254.5c0,0-5-4.8-6.4-3.5
		c-1.4,1.4-1.7,8-0.7,9.5s6.7-3.4,6.7-3.4"/>
	<path fill="#FFFFFF" stroke="#000000" stroke-width="2" stroke-miterlimit="10" d="M502.7,256.1c0,1.6-0.8,2.9-1.9,2.9
		s-1.9-1.3-1.9-2.9c0-1.6,0.8-2.9,1.9-2.9c0.7,0,1.2,0.5,1.6,1.3C502.6,254.9,502.7,255.5,502.7,256.1z"/>
	<circle stroke="#000000" stroke-width="0.553" stroke-miterlimit="10" cx="494.7" cy="239.5" r="1.1"/>
	<circle stroke="#000000" stroke-width="0.553" stroke-miterlimit="10" cx="506.8" cy="239.5" r="1.1"/>
	<path fill="#FFFFFF" stroke="#000000" stroke-width="2.2119" stroke-miterlimit="10" d="M500.7,225.7c0,0-0.4,9.6,13.6,12.5"/>
	<path fill="#FFFFFF" stroke="#000000" stroke-width="2.2119" stroke-miterlimit="10" d="M500.9,225.7c0,0,0.4,9.6-13.6,12.5"/>
	<path fill="none" stroke="#000000" stroke-width="2.2119" stroke-linejoin="round" stroke-miterlimit="10" d="M509.7,229
		c0,0,3.8-5,6.2-5.5c0,0,6.1,6.6,6.2,10l-9.6-1.5"/>
	<path fill="none" stroke="#000000" stroke-width="2.2119" stroke-linejoin="round" stroke-miterlimit="10" d="M489.2,231.9
		l-9.6,1.5c0.1-3.3,6.2-10,6.2-10c2.4,0.6,6.2,5.5,6.2,5.5"/>
	<path fill="none" stroke="#000000" stroke-width="2" stroke-linecap="round" stroke-miterlimit="10" d="M499.5,244.8
		c0,0,2,1.8,3.6,0"/>
</g>
<g id="b_x5F_bg">
</g>
<g id="g">
</g>
<g id="b">
</g>
</svg>
