<?xml version="1.0" encoding="utf-8"?>
<!-- Generator: Adobe Illustrator 18.1.1, SVG Export Plug-In . SVG Version: 6.00 Build 0)  -->
<svg version="1.1" xmlns="http://www.w3.org/2000/svg" xmlns:xlink="http://www.w3.org/1999/xlink" x="0px" y="0px"
	 viewBox="0 0 406.3 474" enable-background="new 0 0 406.3 474" xml:space="preserve">
<g id="g_x5F_bg">
	
		<polyline fill="none" stroke="#231F20" stroke-width="2" stroke-linecap="round" stroke-linejoin="round" stroke-miterlimit="10" points="
		269.3,415.3 269.3,122.6 286,122.6 286,430.5 34.8,430.5 	"/>
	
		<line fill="none" stroke="#231F20" stroke-width="2" stroke-linecap="round" stroke-miterlimit="10" x1="280" y1="415.3" x2="280" y2="183"/>
	
		<line fill="none" stroke="#231F20" stroke-width="2" stroke-linecap="round" stroke-miterlimit="10" x1="280" y1="163.2" x2="280" y2="130.3"/>
	
		<polyline fill="none" stroke="#231F20" stroke-width="2" stroke-linecap="round" stroke-linejoin="round" stroke-miterlimit="10" points="
		387.3,455.3 387.3,122.6 404.1,122.6 404.1,415.3 	"/>
	
		<line fill="none" stroke="#231F20" stroke-width="2" stroke-linecap="round" stroke-miterlimit="10" x1="398.1" y1="415.3" x2="398.1" y2="183"/>
	
		<line fill="none" stroke="#231F20" stroke-width="2" stroke-linecap="round" stroke-miterlimit="10" x1="398.1" y1="163.2" x2="398.1" y2="130.3"/>
	<rect x="286" y="306.4" fill="none" stroke="#231F20" stroke-width="2" stroke-miterlimit="10" width="100.9" height="18.4"/>
	<polyline fill="none" stroke="#231F20" stroke-width="2" stroke-miterlimit="10" points="329.1,306.4 314,455.3 207.1,455.3 	"/>
	<line fill="none" stroke="#231F20" stroke-width="2" stroke-miterlimit="10" x1="320.9" y1="306.4" x2="305.9" y2="455.3"/>
	<path fill="none" stroke="#231F20" stroke-width="2" stroke-miterlimit="10" d="M286,224.5c0,0,34.9-5.9,34.9,7.9
		c0,13.8,0,74.1,0,74.1"/>
	<line fill="none" stroke="#231F20" stroke-width="2" stroke-miterlimit="10" x1="311.3" y1="223.2" x2="311.3" y2="306.4"/>
	
		<line fill="none" stroke="#231F20" stroke-width="2" stroke-linecap="square" stroke-miterlimit="10" x1="325.6" y1="340.5" x2="386.4" y2="340.5"/>
	
		<line fill="none" stroke="#231F20" stroke-width="2" stroke-linecap="square" stroke-miterlimit="10" x1="325.6" y1="352.8" x2="386.4" y2="352.8"/>
	
		<line fill="none" stroke="#231F20" stroke-width="2" stroke-linecap="round" stroke-miterlimit="10" x1="386.4" y1="345.9" x2="371.6" y2="345.9"/>
	
		<line fill="none" stroke="#231F20" stroke-width="2" stroke-linecap="round" stroke-miterlimit="10" x1="340.5" y1="345.9" x2="325.6" y2="345.9"/>
	
		<line fill="none" stroke="#231F20" stroke-width="2" stroke-linecap="square" stroke-miterlimit="10" x1="323.1" y1="370.5" x2="388.9" y2="370.5"/>
	
		<line fill="none" stroke="#231F20" stroke-width="2" stroke-linecap="square" stroke-miterlimit="10" x1="321.8" y1="382.8" x2="387.7" y2="382.8"/>
	
		<line fill="none" stroke="#231F20" stroke-width="2" stroke-linecap="round" stroke-miterlimit="10" x1="386.4" y1="375.9" x2="372.1" y2="375.9"/>
	
		<line fill="none" stroke="#231F20" stroke-width="2" stroke-linecap="round" stroke-miterlimit="10" x1="338" y1="375.9" x2="323.1" y2="375.9"/>
	
		<line fill="none" stroke="#231F20" stroke-width="2" stroke-linecap="square" stroke-miterlimit="10" x1="319.9" y1="400.5" x2="387.7" y2="400.5"/>
	
		<line fill="none" stroke="#231F20" stroke-width="2" stroke-linecap="square" stroke-miterlimit="10" x1="319.9" y1="412.8" x2="386.4" y2="412.8"/>
	
		<line fill="none" stroke="#231F20" stroke-width="2" stroke-linecap="round" stroke-miterlimit="10" x1="387.7" y1="405.9" x2="372.1" y2="405.9"/>
	
		<line fill="none" stroke="#231F20" stroke-width="2" stroke-linecap="round" stroke-miterlimit="10" x1="334.8" y1="405.9" x2="319.9" y2="405.9"/>
	
		<line fill="none" stroke="#231F20" stroke-width="2" stroke-linecap="square" stroke-miterlimit="10" x1="316.9" y1="430.5" x2="387.7" y2="430.5"/>
	
		<line fill="none" stroke="#231F20" stroke-width="2" stroke-linecap="square" stroke-miterlimit="10" x1="315.8" y1="442.8" x2="387.3" y2="442.8"/>
	
		<line fill="none" stroke="#231F20" stroke-width="2" stroke-linecap="round" stroke-miterlimit="10" x1="387.7" y1="435.9" x2="378.9" y2="435.9"/>
	
		<line fill="none" stroke="#231F20" stroke-width="2" stroke-linecap="round" stroke-miterlimit="10" x1="330.5" y1="435.9" x2="315.7" y2="435.9"/>
	<path fill="none" stroke="#231F20" stroke-width="2" stroke-linecap="round" stroke-linejoin="round" stroke-miterlimit="10" d="
		M268.1,352.8c0,0-130,77.6-136.8,77.6c-6.9,0-71.8,0-71.8,0L57,417.7c0,0,27.5-1,34.4-4.9c6.9-3.9,135.7-82.1,135.7-82.1
		s23.4-17.4,41-15.1"/>
	<path fill="none" stroke="#231F20" stroke-width="2" stroke-linecap="round" stroke-linejoin="round" stroke-miterlimit="10" d="
		M64.6,424.6c0,0,26.1-0.9,32.7-4.7"/>
	<path fill="none" stroke="#231F20" stroke-width="2" stroke-linecap="round" stroke-miterlimit="10" d="M113.5,408.4l124.9-74.7
		c0,0,19.6-10.8,29.6-6.4"/>
	<path fill="none" stroke="#231F20" stroke-width="2" stroke-linecap="round" stroke-linejoin="round" stroke-miterlimit="10" d="
		M139.2,328.1"/>
	
		<path fill="none" stroke="#231F20" stroke-width="1.4192" stroke-linecap="round" stroke-linejoin="round" stroke-miterlimit="10" d="
		M114,432.4"/>
	
		<path fill="none" stroke="#231F20" stroke-width="1.4192" stroke-linecap="round" stroke-linejoin="round" stroke-miterlimit="10" d="
		M123.7,425.1"/>
</g>
<g id="b_x5F_bg">
</g>
<g id="g">
</g>
<g id="b">
</g>
</svg>
