<?xml version="1.0" encoding="utf-8"?>
<!-- Generator: Adobe Illustrator 18.1.1, SVG Export Plug-In . SVG Version: 6.00 Build 0)  -->
<svg version="1.1" xmlns="http://www.w3.org/2000/svg" xmlns:xlink="http://www.w3.org/1999/xlink" x="0px" y="0px"
	 viewBox="0 0 451.7 474" enable-background="new 0 0 451.7 474" xml:space="preserve">
<g id="g_x5F_bg">
</g>
<g id="b_x5F_bg">
</g>
<g id="g">
	<path fill="none" stroke="#231F20" stroke-width="2" stroke-miterlimit="10" d="M368.8,255c0,0,35.6,21.7,85.3,24.9"/>
	<path fill="none" stroke="#231F20" stroke-width="2" stroke-miterlimit="10" d="M368.8,262.6c0,0,36,22.6,84.6,25.4"/>
	
		<path fill="#FFFFFF" stroke="#231F20" stroke-width="2" stroke-linecap="round" stroke-linejoin="round" stroke-miterlimit="10" d="
		M71.2,311.3l-1.7-2.6c-1.2-1.8-3.5-2.5-5.4-1.6l-1,0.4c-2.5,1.1-3.4,4.1-2,6.4l1.8,2.8c1.3,2.2,4.2,2.7,6.3,1.3l0.9-0.7
		C72,315.9,72.5,313.3,71.2,311.3z"/>
	
		<path fill="#FFFFFF" stroke="#231F20" stroke-width="2" stroke-linecap="round" stroke-linejoin="round" stroke-miterlimit="10" d="
		M95.7,337.9l-8.5,4.6c-3,1.6-6.7,0.6-8.4-2.3l-12.6-21l5.6-3.4l11.5,19l11.6-9.6c1.4-1.2,3.3-1.8,5.2-1.7l3.9,0.2"/>
	
		<path fill="#FFFFFF" stroke="#231F20" stroke-width="2" stroke-linecap="round" stroke-linejoin="round" stroke-miterlimit="10" d="
		M150.7,311l1.7-2.6c1.2-1.8,3.5-2.5,5.4-1.6l1,0.4c2.5,1.1,3.4,4.1,2,6.4l-1.8,2.8c-1.3,2.2-4.2,2.7-6.3,1.3l-0.9-0.7
		C149.9,315.7,149.4,313,150.7,311z"/>
	
		<path fill="#FFFFFF" stroke="#231F20" stroke-width="2" stroke-linecap="round" stroke-linejoin="round" stroke-miterlimit="10" d="
		M126.2,337.7l8.5,4.6c3,1.6,6.7,0.6,8.4-2.3l12.6-21l-5.6-3.4l-11.5,19l-11.6-9.6c-1.4-1.2-3.3-1.8-5.2-1.7l-3.9,0.2"/>
	<polyline fill="none" stroke="#231F20" stroke-width="2" stroke-linecap="round" stroke-miterlimit="10" points="218.3,415.3 
		218.3,168.4 235.1,168.4 235.1,415.3 	"/>
	
		<line fill="none" stroke="#231F20" stroke-width="2" stroke-linecap="round" stroke-miterlimit="10" x1="229.1" y1="408.4" x2="229.1" y2="230.4"/>
	
		<line fill="none" stroke="#231F20" stroke-width="2" stroke-linecap="round" stroke-miterlimit="10" x1="229.1" y1="210.6" x2="229.1" y2="177.7"/>
	<polyline fill="none" stroke="#231F20" stroke-width="2" stroke-linecap="round" stroke-miterlimit="10" points="352.1,415.3 
		352.1,168.4 368.8,168.4 368.8,415.3 	"/>
	
		<line fill="none" stroke="#231F20" stroke-width="2" stroke-linecap="round" stroke-miterlimit="10" x1="362.8" y1="408.4" x2="362.8" y2="230.4"/>
	
		<line fill="none" stroke="#231F20" stroke-width="2" stroke-linecap="round" stroke-miterlimit="10" x1="362.8" y1="210.6" x2="362.8" y2="177.7"/>
	
		<line fill="none" stroke="#231F20" stroke-width="2" stroke-linecap="round" stroke-miterlimit="10" x1="235.1" y1="255" x2="352.1" y2="255"/>
	
		<line fill="none" stroke="#231F20" stroke-width="2" stroke-linecap="round" stroke-miterlimit="10" x1="235.1" y1="245.6" x2="352.1" y2="245.6"/>
	
		<line fill="none" stroke="#231F20" stroke-width="2" stroke-linecap="round" stroke-miterlimit="10" x1="235.1" y1="348.9" x2="352.1" y2="348.9"/>
	
		<line fill="none" stroke="#231F20" stroke-width="2" stroke-linecap="round" stroke-miterlimit="10" x1="235.1" y1="339.6" x2="352.1" y2="339.6"/>
	<path fill="none" stroke="#231F20" stroke-width="2" stroke-linecap="round" stroke-miterlimit="10" d="M286.2,168.4h-70.5
		c0,0-13.1-1.3-3-13.1s81.9-81.9,81.9-81.9"/>
	<path fill="none" stroke="#231F20" stroke-width="2" stroke-linecap="round" stroke-miterlimit="10" d="M303.1,168.4h70.5
		c0,0,13.1-1.3,3-13.1s-81.9-81.9-81.9-81.9"/>
	<path fill="none" stroke="#231F20" stroke-width="2" stroke-miterlimit="10" d="M403.3,355.4c-0.7,2.8-3.5,4.5-6.2,3.8l-21.2-5.2
		c-2.8-0.7-4.5-3.5-3.8-6.2l0,0c0.7-2.8,3.5-4.5,6.2-3.8l21.2,5.2C402.2,349.9,403.9,352.7,403.3,355.4L403.3,355.4z"/>
	<path fill="none" stroke="#231F20" stroke-width="2" stroke-miterlimit="10" d="M439.8,358.2c-0.1,2.8-2.6,5-5.4,4.9l-21.8-1.1
		c-2.8-0.1-5-2.6-4.9-5.4l0,0c0.1-2.8,2.6-5,5.4-4.9l21.8,1.1C437.7,352.9,439.9,355.3,439.8,358.2L439.8,358.2z"/>
	<path fill="none" stroke="#231F20" stroke-width="2" stroke-miterlimit="10" d="M374.4,258c0,0-2.1,7,4.9,10.3"/>
	<path fill="none" stroke="#231F20" stroke-width="2" stroke-miterlimit="10" d="M382.4,262.6c0,0-1.5,6.3,5.5,9.5"/>
	<path fill="none" stroke="#231F20" stroke-width="2" stroke-miterlimit="10" d="M391.9,266.4c0,0-1.7,6.3,5.3,9.5"/>
	<path fill="none" stroke="#231F20" stroke-width="2" stroke-miterlimit="10" d="M400.8,269.8c0,0-2.6,5.4,4.4,8.9"/>
	<path fill="none" stroke="#231F20" stroke-width="2" stroke-miterlimit="10" d="M410.6,272.3c0,0-1.7,6.1,5.3,9.6"/>
	<path fill="none" stroke="#231F20" stroke-width="2" stroke-miterlimit="10" d="M419.1,274.7c0,0-2.4,5.4,4.6,9.1"/>
	<path fill="none" stroke="#231F20" stroke-width="2" stroke-miterlimit="10" d="M427.1,276.5c0,0-1.7,5.6,5.3,8.9"/>
	<path fill="none" stroke="#231F20" stroke-width="2" stroke-miterlimit="10" d="M434.6,278.4c0,0-1.7,5.6,5.3,8.9"/>
	<path fill="none" stroke="#231F20" stroke-width="2" stroke-miterlimit="10" d="M444.1,278.7c0,0-1.7,5.6,5.3,8.9"/>
	<g>
		<path fill="none" stroke="#231F20" stroke-width="2" stroke-linecap="round" stroke-linejoin="round" stroke-miterlimit="10" d="
			M438.4,292.2c0,0,2.8,2.6-0.5,6.1c-1.1,1.2-1.2,1.8-1.2,1.8s-3.1-1.3-1.2-4.1c0.7-1,1.7-1.2,2.2-1.8
			C438.5,293.1,438.4,292.2,438.4,292.2z"/>
		<path fill="none" stroke="#231F20" stroke-width="2" stroke-linecap="round" stroke-linejoin="round" stroke-miterlimit="10" d="
			M438.4,286.7c0,0,2.8,2.6-0.5,6.1c-1.1,1.2-1.2,1.8-1.2,1.8s-3.1-1.3-1.2-4.1c0.7-1,1.7-1.2,2.2-1.8
			C438.5,287.6,438.4,286.7,438.4,286.7z"/>
		<path fill="none" stroke="#231F20" stroke-width="2" stroke-linecap="round" stroke-linejoin="round" stroke-miterlimit="10" d="
			M437.8,287.5c-1.1,1.2-1.2,1.8-1.2,1.8s-2.1-0.9-1.7-2.8C435,286.1,438.1,287.2,437.8,287.5z"/>
		<path fill="none" stroke="#231F20" stroke-width="2" stroke-linecap="round" stroke-linejoin="round" stroke-miterlimit="10" d="
			M438.4,297.6c0,0,2.8,2.6-0.5,6.1c-1.1,1.2-1.2,1.8-1.2,1.8s-3.1-1.3-1.2-4.1c0.7-1,1.7-1.2,2.2-1.8
			C438.5,298.5,438.4,297.6,438.4,297.6z"/>
		<path fill="none" stroke="#231F20" stroke-width="2" stroke-linecap="round" stroke-linejoin="round" stroke-miterlimit="10" d="
			M438.4,302.9c0,0,2.8,2.6-0.5,6.1c-1.1,1.2-1.2,1.8-1.2,1.8s-3.1-1.3-1.2-4.1c0.7-1,1.7-1.2,2.2-1.8
			C438.5,303.8,438.4,302.9,438.4,302.9z"/>
		<path fill="none" stroke="#231F20" stroke-width="2" stroke-linecap="round" stroke-linejoin="round" stroke-miterlimit="10" d="
			M438.4,308.3c0,0,2.8,2.6-0.5,6.1c-1.1,1.2-1.2,1.8-1.2,1.8s-3.1-1.3-1.2-4.1c0.7-1,1.7-1.2,2.2-1.8
			C438.5,309.1,438.4,308.3,438.4,308.3z"/>
		<path fill="none" stroke="#231F20" stroke-width="2" stroke-linecap="round" stroke-linejoin="round" stroke-miterlimit="10" d="
			M438.4,313.6c0,0,2.8,2.6-0.5,6.1c-1.1,1.2-1.2,1.8-1.2,1.8s-3.1-1.3-1.2-4.1c0.7-1,1.7-1.2,2.2-1.8
			C438.5,314.5,438.4,313.6,438.4,313.6z"/>
		<path fill="none" stroke="#231F20" stroke-width="2" stroke-linecap="round" stroke-linejoin="round" stroke-miterlimit="10" d="
			M438.4,318.9c0,0,2.8,2.6-0.5,6.1c-1.1,1.2-1.2,1.8-1.2,1.8s-3.1-1.3-1.2-4.1c0.7-1,1.7-1.2,2.2-1.8
			C438.5,319.8,438.4,318.9,438.4,318.9z"/>
		<path fill="none" stroke="#231F20" stroke-width="2" stroke-linecap="round" stroke-linejoin="round" stroke-miterlimit="10" d="
			M438.4,324.3c0,0,2.8,2.6-0.5,6.1c-1.1,1.2-1.2,1.8-1.2,1.8s-3.1-1.3-1.2-4.1c0.7-1,1.7-1.2,2.2-1.8
			C438.5,325.2,438.4,324.3,438.4,324.3z"/>
		<path fill="none" stroke="#231F20" stroke-width="2" stroke-linecap="round" stroke-linejoin="round" stroke-miterlimit="10" d="
			M438.4,329.6c0,0,2.8,2.6-0.5,6.1c-1.1,1.2-1.2,1.8-1.2,1.8s-3.1-1.3-1.2-4.1c0.7-1,1.7-1.2,2.2-1.8
			C438.5,330.5,438.4,329.6,438.4,329.6z"/>
		<path fill="none" stroke="#231F20" stroke-width="2" stroke-linecap="round" stroke-linejoin="round" stroke-miterlimit="10" d="
			M438.4,335c0,0,2.8,2.6-0.5,6.1c-1.1,1.2-1.2,1.8-1.2,1.8s-3.1-1.3-1.2-4.1c0.7-1,1.7-1.2,2.2-1.8
			C438.5,335.8,438.4,335,438.4,335z"/>
		<path fill="none" stroke="#231F20" stroke-width="2" stroke-linecap="round" stroke-linejoin="round" stroke-miterlimit="10" d="
			M438.4,340.3c0,0,2.8,2.6-0.5,6.1c-1.1,1.2-1.2,1.8-1.2,1.8s-3.1-1.3-1.2-4.1c0.7-1,1.7-1.2,2.2-1.8
			C438.5,341.2,438.4,340.3,438.4,340.3z"/>
		<path fill="none" stroke="#231F20" stroke-width="2" stroke-linecap="round" stroke-linejoin="round" stroke-miterlimit="10" d="
			M438.4,345.6c0,0,2.8,2.6-0.5,6.1c-1.1,1.2-1.2,1.8-1.2,1.8s-3.1-1.3-1.2-4.1c0.7-1,1.7-1.2,2.2-1.8
			C438.5,346.5,438.4,345.6,438.4,345.6z"/>
	</g>
	<g>
		<path fill="none" stroke="#231F20" stroke-width="2" stroke-linecap="round" stroke-linejoin="round" stroke-miterlimit="10" d="
			M412,288.6c0,0,2.4,3-1.5,6c-1.3,1-1.5,1.5-1.5,1.5s-2.8-1.8-0.5-4.2c0.8-0.8,1.9-1,2.4-1.5C411.9,289.5,412,288.6,412,288.6z"/>
		<path fill="none" stroke="#231F20" stroke-width="2" stroke-linecap="round" stroke-linejoin="round" stroke-miterlimit="10" d="
			M412.8,283.1c0,0,2.4,3-1.5,6c-1.3,1-1.5,1.5-1.5,1.5s-2.8-1.8-0.5-4.2c0.8-0.8,1.9-1,2.4-1.5C412.8,284,412.8,283.1,412.8,283.1z
			"/>
		<path fill="none" stroke="#231F20" stroke-width="2" stroke-linecap="round" stroke-linejoin="round" stroke-miterlimit="10" d="
			M412.2,283.8c-1.3,1-1.5,1.5-1.5,1.5s-1.9-1.2-1.3-3C409.5,281.9,412.5,283.6,412.2,283.8z"/>
		<path fill="none" stroke="#231F20" stroke-width="2" stroke-linecap="round" stroke-linejoin="round" stroke-miterlimit="10" d="
			M411.1,293.9c0,0,2.4,3-1.5,6c-1.3,1-1.5,1.5-1.5,1.5s-2.8-1.8-0.5-4.2c0.8-0.8,1.9-1,2.4-1.5
			C411.1,294.7,411.1,293.9,411.1,293.9z"/>
		<path fill="none" stroke="#231F20" stroke-width="2" stroke-linecap="round" stroke-linejoin="round" stroke-miterlimit="10" d="
			M410.3,299.1c0,0,2.4,3-1.5,6c-1.3,1-1.5,1.5-1.5,1.5s-2.8-1.8-0.5-4.2c0.8-0.8,1.9-1,2.4-1.5C410.3,300,410.3,299.1,410.3,299.1z
			"/>
		<path fill="none" stroke="#231F20" stroke-width="2" stroke-linecap="round" stroke-linejoin="round" stroke-miterlimit="10" d="
			M409.5,304.4c0,0,2.4,3-1.5,6c-1.3,1-1.5,1.5-1.5,1.5s-2.8-1.8-0.5-4.2c0.8-0.8,1.9-1,2.4-1.5
			C409.4,305.3,409.5,304.4,409.5,304.4z"/>
		<path fill="none" stroke="#231F20" stroke-width="2" stroke-linecap="round" stroke-linejoin="round" stroke-miterlimit="10" d="
			M408.7,309.7c0,0,2.4,3-1.5,6c-1.3,1-1.5,1.5-1.5,1.5s-2.8-1.8-0.5-4.2c0.8-0.8,1.9-1,2.4-1.5
			C408.6,310.6,408.7,309.7,408.7,309.7z"/>
		<path fill="none" stroke="#231F20" stroke-width="2" stroke-linecap="round" stroke-linejoin="round" stroke-miterlimit="10" d="
			M407.8,315c0,0,2.4,3-1.5,6c-1.3,1-1.5,1.5-1.5,1.5s-2.8-1.8-0.5-4.2c0.8-0.8,1.9-1,2.4-1.5C407.8,315.8,407.8,315,407.8,315z"/>
		<path fill="none" stroke="#231F20" stroke-width="2" stroke-linecap="round" stroke-linejoin="round" stroke-miterlimit="10" d="
			M407,320.2c0,0,2.4,3-1.5,6c-1.3,1-1.5,1.5-1.5,1.5s-2.8-1.8-0.5-4.2c0.8-0.8,1.9-1,2.4-1.5C407,321.1,407,320.2,407,320.2z"/>
		<path fill="none" stroke="#231F20" stroke-width="2" stroke-linecap="round" stroke-linejoin="round" stroke-miterlimit="10" d="
			M406.2,325.5c0,0,2.4,3-1.5,6c-1.3,1-1.5,1.5-1.5,1.5s-2.8-1.8-0.5-4.2c0.8-0.8,1.9-1,2.4-1.5
			C406.1,326.4,406.2,325.5,406.2,325.5z"/>
		<path fill="none" stroke="#231F20" stroke-width="2" stroke-linecap="round" stroke-linejoin="round" stroke-miterlimit="10" d="
			M405.4,330.8c0,0,2.4,3-1.5,6c-1.3,1-1.5,1.5-1.5,1.5s-2.8-1.8-0.5-4.2c0.8-0.8,1.9-1,2.4-1.5
			C405.3,331.7,405.4,330.8,405.4,330.8z"/>
		<path fill="none" stroke="#231F20" stroke-width="2" stroke-linecap="round" stroke-linejoin="round" stroke-miterlimit="10" d="
			M404.5,336c0,0,2.4,3-1.5,6c-1.3,1-1.5,1.5-1.5,1.5s-2.8-1.8-0.5-4.2c0.8-0.8,1.9-1,2.4-1.5C404.5,336.9,404.5,336,404.5,336z"/>
		<path fill="none" stroke="#231F20" stroke-width="2" stroke-linecap="round" stroke-linejoin="round" stroke-miterlimit="10" d="
			M403.7,341.3c0,0,2.4,3-1.5,6c-1.3,1-1.5,1.5-1.5,1.5s-2.8-1.8-0.5-4.2c0.8-0.8,1.9-1,2.4-1.5
			C403.7,342.2,403.7,341.3,403.7,341.3z"/>
	</g>
	
		<line fill="none" stroke="#231F20" stroke-width="2" stroke-linecap="round" stroke-linejoin="round" stroke-miterlimit="10" x1="409.4" y1="282.3" x2="375.6" y2="344"/>
	
		<line fill="none" stroke="#231F20" stroke-width="2" stroke-linecap="round" stroke-linejoin="round" stroke-miterlimit="10" x1="413.2" y1="282.3" x2="434.9" y2="352.7"/>
	<path fill="none" stroke="#231F20" stroke-width="2" stroke-linecap="round" stroke-linejoin="round" stroke-miterlimit="10" d="
		M246.5,255v54.6c0,0-10.2,9.9,0,19.9v10"/>
	<path fill="none" stroke="#231F20" stroke-width="2" stroke-linecap="round" stroke-linejoin="round" stroke-miterlimit="10" d="
		M255.4,255v54.6c0,0-10.2,9.9,0,19.9v10"/>
	<path fill="none" stroke="#231F20" stroke-width="2" stroke-linecap="round" stroke-linejoin="round" stroke-miterlimit="10" d="
		M264.2,255v54.6c0,0-10.2,9.9,0,19.9v10"/>
	<path fill="none" stroke="#231F20" stroke-width="2" stroke-linecap="round" stroke-linejoin="round" stroke-miterlimit="10" d="
		M273.1,255v54.6c0,0-10.2,9.9,0,19.9v10"/>
	<path fill="none" stroke="#231F20" stroke-width="2" stroke-linecap="round" stroke-linejoin="round" stroke-miterlimit="10" d="
		M281.9,255v54.6c0,0-10.2,9.9,0,19.9v10"/>
	<path fill="none" stroke="#231F20" stroke-width="2" stroke-linecap="round" stroke-linejoin="round" stroke-miterlimit="10" d="
		M290.8,255v54.6c0,0-10.2,9.9,0,19.9v10"/>
	<path fill="none" stroke="#231F20" stroke-width="2" stroke-linecap="round" stroke-linejoin="round" stroke-miterlimit="10" d="
		M299.6,255v54.6c0,0-10.2,9.9,0,19.9v10"/>
	<path fill="none" stroke="#231F20" stroke-width="2" stroke-linecap="round" stroke-linejoin="round" stroke-miterlimit="10" d="
		M308.5,255v54.6c0,0-10.2,9.9,0,19.9v10"/>
	<path fill="none" stroke="#231F20" stroke-width="2" stroke-linecap="round" stroke-linejoin="round" stroke-miterlimit="10" d="
		M317.3,255v54.6c0,0-10.2,9.9,0,19.9v10"/>
	<path fill="none" stroke="#231F20" stroke-width="2" stroke-linecap="round" stroke-linejoin="round" stroke-miterlimit="10" d="
		M326.2,255v54.6c0,0-10.2,9.9,0,19.9v10"/>
	<path fill="none" stroke="#231F20" stroke-width="2" stroke-linecap="round" stroke-linejoin="round" stroke-miterlimit="10" d="
		M335,255v54.6c0,0-10.2,9.9,0,19.9v10"/>
	<path fill="none" stroke="#231F20" stroke-width="2" stroke-linecap="round" stroke-linejoin="round" stroke-miterlimit="10" d="
		M343.9,255v54.6c0,0-10.2,9.9,0,19.9v10"/>
	<path fill="none" stroke="#231F20" stroke-width="2" stroke-linecap="round" stroke-linejoin="round" stroke-miterlimit="10" d="
		M140.3,353c-6.2,10.6-17.7,5.9-30.9,5.9s-24.7,4.7-30.9-5.9H63.7c7.2,18.1,25,19.2,45.7,19.2s38.4-1,45.7-19.2H140.3z"/>
	<path fill="none" stroke="#231F20" stroke-width="2" stroke-linecap="round" stroke-miterlimit="10" d="M167.4,207.8
		c3.9,0,7-3.1,7-7h-14C160.4,204.7,163.5,207.8,167.4,207.8z"/>
	<path fill="none" stroke="#231F20" stroke-width="2" stroke-linecap="round" stroke-miterlimit="10" d="M53.8,207.8
		c-3.9,0-7-3.1-7-7h14C60.8,204.7,57.6,207.8,53.8,207.8z"/>
	
		<line fill="none" stroke="#231F20" stroke-width="2" stroke-linecap="round" stroke-miterlimit="10" x1="0.5" y1="200.9" x2="218.3" y2="200.9"/>
	
		<polyline fill="#231F20" stroke="#231F20" stroke-width="2" stroke-linecap="round" stroke-linejoin="round" stroke-miterlimit="10" points="
		110.7,367.6 95,375 97.9,405.1 93.3,405.1 85.1,369.8 97.2,357.4 124.3,357.4 136.4,369.8 128.1,405.1 123.6,405.1 126.5,375 
		110.7,367.6 	"/>
	
		<path fill="#FFFFFF" stroke="#231F20" stroke-width="2" stroke-linecap="round" stroke-linejoin="round" stroke-miterlimit="10" d="
		M97.9,405.1l1,3.1l-12,3.8c0,0,0,0,6-6.9H97.9z"/>
	
		<path fill="#FFFFFF" stroke="#231F20" stroke-width="2" stroke-linecap="round" stroke-linejoin="round" stroke-miterlimit="10" d="
		M123.6,405.1l-1,3.1l12,3.8c0,0,0,0-6-6.9H123.6z"/>
	<line fill="none" stroke="#231F20" stroke-width="2" stroke-miterlimit="10" x1="167.4" y1="207.8" x2="150.3" y2="351.6"/>
	<line fill="none" stroke="#231F20" stroke-width="2" stroke-miterlimit="10" x1="53.8" y1="207.8" x2="70.9" y2="353"/>
	
		<line fill="none" stroke="#231F20" stroke-width="2" stroke-linecap="round" stroke-linejoin="round" stroke-miterlimit="10" x1="450.2" y1="341.7" x2="445.7" y2="356.5"/>
	<path fill="none" stroke="#231F20" stroke-width="2" stroke-miterlimit="10" d="M451.2,364.4c-0.4-0.1-1.7-0.1-2.1-0.2
		c-2.3-0.5-4.6-1.8-4.5-4.9c0.1-3.7,4.1-4.7,6.6-5"/>
	<polyline fill="none" stroke="#231F20" stroke-width="2" stroke-linecap="round" stroke-miterlimit="10" points="368.8,159.2 
		295.1,85.9 273.1,106 	"/>
	<path fill="none" stroke="#231F20" stroke-width="2" stroke-linecap="round" stroke-linejoin="round" stroke-miterlimit="10" d="
		M117,294.1c2.7-0.4,5.1,1.6,5.1,4.3v10.3c0,3.1-1.3,6-3.3,8c-2,2-4.9,3.3-8,3.3h0c-6.2,0-11.3-5.1-11.3-11.3V298
		c0-2.2,2-3.9,4.2-3.5h0l1.7-4.3l3.7,4.3l2,0.1l3-6.3l1.7,6.4L117,294.1z"/>
	<path fill="none" stroke="#231F20" stroke-width="2" stroke-linecap="round" stroke-linejoin="round" stroke-miterlimit="10" d="
		M111.9,278.6"/>
	<path fill="none" stroke="#231F20" stroke-width="2" stroke-linecap="round" stroke-linejoin="round" stroke-miterlimit="10" d="
		M120.1,269.1"/>
	
		<line fill="none" stroke="#231F20" stroke-width="2" stroke-linecap="round" stroke-linejoin="round" stroke-miterlimit="10" x1="109.4" y1="307.6" x2="112.4" y2="307.6"/>
	<path fill="none" stroke="#231F20" stroke-width="2" stroke-linecap="round" stroke-linejoin="round" stroke-miterlimit="10" d="
		M114.5,311.9l-1.1,0.5c-1.6,0.8-3.5,0.8-5,0l-1-0.5"/>
	<path fill="none" stroke="#231F20" stroke-width="2" stroke-linecap="round" stroke-miterlimit="10" d="M114.7,302.5v-0.4
		c0-1,0.8-1.9,1.9-1.9l0,0c1,0,1.9,0.8,1.9,1.9v0.4"/>
	<path fill="none" stroke="#231F20" stroke-width="2" stroke-linecap="round" stroke-miterlimit="10" d="M102.9,302.5v-0.4
		c0-1,0.8-1.9,1.9-1.9l0,0c1,0,1.9,0.8,1.9,1.9v0.4"/>
	<path fill="none" stroke="#231F20" stroke-width="2" stroke-linejoin="round" stroke-miterlimit="10" d="M119,316.3h9.2l-1.4-22.3
		c-0.6-8.9-8-15.9-16.9-15.9h0c-8.7,0-16,6.6-16.9,15.3l-2.3,22.8h12.1"/>
	<path fill="none" stroke="#231F20" stroke-width="2" stroke-linecap="round" stroke-miterlimit="10" d="M117.3,338.6
		c0,0-8.5,1.6-13.5,5.4"/>
	
		<path fill="#FFFFFF" stroke="#231F20" stroke-width="2" stroke-linecap="round" stroke-linejoin="round" stroke-miterlimit="10" d="
		M63.8,309.5l1.1-0.1c1.6-0.1,3.1,0.9,3.5,2.5l0,0c0.4,1.8-0.7,3.5-2.4,3.9l-0.6,0.2"/>
	
		<polyline fill="#FFFFFF" stroke="#231F20" stroke-width="2" stroke-linecap="round" stroke-linejoin="round" stroke-miterlimit="10" points="
		95.9,332.9 97.2,357.4 110.7,357.4 	"/>
	
		<path fill="#FFFFFF" stroke="#231F20" stroke-width="2" stroke-linecap="round" stroke-linejoin="round" stroke-miterlimit="10" d="
		M158.1,309.2l-1.1-0.1c-1.6-0.1-3.1,0.9-3.5,2.5l0,0c-0.4,1.8,0.7,3.5,2.4,3.9l0.6,0.2"/>
	
		<polyline fill="#FFFFFF" stroke="#231F20" stroke-width="2" stroke-linecap="round" stroke-linejoin="round" stroke-miterlimit="10" points="
		126,332.7 124.8,357.2 111.2,357.2 	"/>
	
		<polyline fill="#FFFFFF" stroke="#231F20" stroke-width="2" stroke-linecap="round" stroke-linejoin="round" stroke-miterlimit="10" points="
		116,325.8 110.5,332.9 105.9,326.1 	"/>
</g>
<g id="b">
	<path fill="none" stroke="#FFFFFF" stroke-width="2" stroke-miterlimit="10" d="M450.8,279.9c28.6,1.3,65.8-4.2,99.1-25"/>
	<path fill="none" stroke="#FFFFFF" stroke-width="2" stroke-miterlimit="10" d="M452,279.8c0,0-2.1,4.9,4.8,8.1"/>
	
		<line fill="none" stroke="#FFFFFF" stroke-width="2" stroke-linecap="round" stroke-linejoin="round" stroke-miterlimit="10" x1="470.3" y1="289.1" x2="450.9" y2="339.8"/>
	<path fill="none" stroke="#FFFFFF" stroke-width="2" stroke-miterlimit="10" d="M450.8,287.8c29.1,1.7,64.8-3.8,99.1-25.2"/>
	<path fill="none" stroke="#FFFFFF" stroke-width="2" stroke-miterlimit="10" d="M450.2,364.4c1.8,0,23.2-0.1,23.6-0.2
		c2.3-0.5,4.6-1.8,4.5-4.9c-0.1-3.2-2.5-4.4-4.7-4.8c-0.4-0.1-21.9-0.1-22.3-0.2"/>
</g>
</svg>
